<svg xmlns="http://www.w3.org/2000/svg" width="418" height="470"><defs><linearGradient x1="89.4637956%" y1="8.09414239e-14%" x2="38.2751463%" y2="91.9368179%" id="A"><stop stop-color="#4e939b" offset="0%"/><stop stop-color="#4e939b" stop-opacity="0" offset="100%"/></linearGradient></defs><path d="M144.452 2a10.38 10.38 0 0 1 8.959 5.133h0l44.774 76.416 79.561 136.355V457.61c0 5.735-4.651 10.39-10.381 10.39h0-113.403c-5.741 0-10.381-4.655-10.381-10.39h0V246.47c0-1.932-.54-3.834-1.568-5.475h0L3.581 17.865C-.717 10.946 4.255 2 12.404 2h0zm261.151 1.559c8.128 0 13.111 8.935 8.824 15.865h0L313.076 183.198c-4.121 6.66-13.848 6.535-17.793-.229h0l-63.2-108.334a10.38 10.38 0 0 1 .01-10.483h0l32.472-55.46a10.38 10.38 0 0 1 8.959-5.133h0z" stroke="url(#A)" stroke-width="3.022" fill="none" opacity=".25"/></svg>