<?xml version="1.0" encoding="UTF-8"?>
<svg width="418px" height="470px" viewBox="0 0 418 470" version="1.1" xmlns="http://www.w3.org/2000/svg" xmlns:xlink="http://www.w3.org/1999/xlink">
    <title>y-icon-top-centered</title>
    <defs>
        <linearGradient x1="89.4637956%" y1="8.09414239e-14%" x2="38.2751463%" y2="91.9368179%" id="linearGradient-1">
            <stop stop-color="#4E939B" offset="0%"></stop>
            <stop stop-color="#4E939B" stop-opacity="0" offset="100%"></stop>
        </linearGradient>
    </defs>
    <g id="Website" stroke="none" stroke-width="1" fill="none" fill-rule="evenodd" opacity="0.25">
        <g id="Desktop-Home-Default-Dark" transform="translate(-572.000000, -3804.000000)" stroke="url(#linearGradient-1)" stroke-width="3.02189781">
            <g id="section-team" transform="translate(249.000000, 3806.000000)">
                <g id="y-icon-top-centered" transform="translate(325.000000, 0.000000)">
                    <path d="M142.451971,0 C146.137259,0 149.552638,1.95326853 151.410854,5.13252475 L151.410854,5.13252475 L196.184507,81.548961 L275.745202,217.903728 L275.745202,455.610274 C275.745202,461.345403 271.094472,466 265.364109,466 L265.364109,466 L151.961052,466 C146.220307,466 141.579959,461.345403 141.579959,455.610274 L141.579959,455.610274 L141.579959,244.470258 C141.579959,242.537769 141.040142,240.636449 140.012414,238.994872 L140.012414,238.994872 L1.58054225,15.8651119 C-2.71723015,8.94555427 2.25531328,0 10.4044711,0 L10.4044711,0 Z M403.602892,1.5594979 C411.731288,1.5594979 416.714212,10.4946624 412.426821,17.4246098 L412.426821,17.4246098 L311.076213,181.197864 C306.954919,187.857679 297.227835,187.733002 293.28302,180.96929 L293.28302,180.96929 L230.082927,72.6356149 C228.193568,69.3940203 228.193568,65.383586 230.093308,62.1523812 L230.093308,62.1523812 L262.565366,6.69202265 C264.423582,3.51276643 267.838961,1.5594979 271.524249,1.5594979 L271.524249,1.5594979 Z" id="Combined-Shape"></path>
                </g>
            </g>
        </g>
    </g>
</svg>