<?xml version="1.0" encoding="UTF-8"?>
<svg width="211px" height="237px" viewBox="0 0 211 237" version="1.1" xmlns="http://www.w3.org/2000/svg" xmlns:xlink="http://www.w3.org/1999/xlink">
    <title>y-icon-top-right</title>
    <defs>
        <linearGradient x1="89.4637956%" y1="8.09414239e-14%" x2="38.2751463%" y2="91.9368179%" id="linearGradient-1">
            <stop stop-color="#4E939B" offset="0%"></stop>
            <stop stop-color="#011113" stop-opacity="0" offset="100%"></stop>
        </linearGradient>
    </defs>
    <g id="Website" stroke="none" stroke-width="1" fill="none" fill-rule="evenodd" opacity="0.25">
        <g id="Desktop-Home-Default-Dark" transform="translate(-1231.000000, -1102.000000)" stroke="url(#linearGradient-1)" stroke-width="3.02189781">
            <g id="section-vission" transform="translate(159.000000, 1104.000000)">
                <g id="y-icon-top-right" transform="translate(1074.000000, 0.000000)">
                    <path d="M71.2259854,0 C73.0686293,0 74.7763191,0.976634264 75.7054269,2.56626237 L75.7054269,2.56626237 L98.0922534,40.7744805 L137.872601,108.951864 L137.872601,227.805137 C137.872601,230.672701 135.547236,233 132.682054,233 L132.682054,233 L75.9805258,233 C73.1101537,233 70.7899795,230.672701 70.7899795,227.805137 L70.7899795,227.805137 L70.7899795,122.235129 C70.7899795,121.268884 70.5200711,120.318224 70.006207,119.497436 L70.006207,119.497436 L0.790271124,7.93255596 C-1.35861507,4.47277713 1.12765664,0 5.20223554,0 L5.20223554,0 Z M201.801446,0.779748952 C205.865644,0.779748952 208.357106,5.24733122 206.213411,8.71230491 L206.213411,8.71230491 L155.538106,90.598932 C153.477459,93.9288393 148.613917,93.8665009 146.64151,90.4846451 L146.64151,90.4846451 L115.041464,36.3178075 C114.096784,34.6970102 114.096784,32.691793 115.046654,31.0761906 L115.046654,31.0761906 L131.282683,3.34601133 C132.211791,1.75638322 133.919481,0.779748952 135.762125,0.779748952 L135.762125,0.779748952 Z" id="Combined-Shape"></path>
                </g>
            </g>
        </g>
    </g>
</svg>