<?xml version="1.0" encoding="UTF-8"?>
<svg width="140px" height="235px" viewBox="0 0 140 235" version="1.1" xmlns="http://www.w3.org/2000/svg" xmlns:xlink="http://www.w3.org/1999/xlink">
    <title>y-icon-top-left</title>
    <defs>
        <linearGradient x1="32.4929046%" y1="5.85727682e-14%" x2="62.0248512%" y2="56.8595696%" id="linearGradient-1">
            <stop stop-color="#4E939B" offset="0%"></stop>
            <stop stop-color="#4E939B" stop-opacity="0" offset="100%"></stop>
        </linearGradient>
    </defs>
    <g id="Website" stroke="none" stroke-width="1" fill="none" fill-rule="evenodd" opacity="0.5">
        <g id="Desktop-Home-Default-Dark" transform="translate(-79.000000, -2461.000000)" stroke="url(#linearGradient-1)" stroke-width="1.51094891">
            <g id="section-create" transform="translate(80.000000, 2462.000000)">
                <g id="y-icon-top-left" transform="translate(0.000000, 0.000000)">
                    <path d="M137.872601,108.951864 L137.872601,108.951864 L98.0922534,40.7744805 L75.7054269,2.56626237 C74.7763191,0.976634264 73.0686293,0 71.2259854,0 L5.20223554,0 C1.12765664,0 -1.35861507,4.47277713 0.790271124,7.93255596 L70.006207,119.497436 C70.5200711,120.318224 70.7899795,121.268884 70.7899795,122.235129 L70.7899795,227.805137 C70.7899795,230.672701 73.1101537,233 75.9805258,233 L132.682054,233 C135.547236,233 137.872601,230.672701 137.872601,227.805137 L137.872601,126.416994 L137.872601,108.951864 Z" id="Combined-Shape"></path>
                </g>
            </g>
        </g>
    </g>
</svg>