<svg xmlns="http://www.w3.org/2000/svg" width="211" height="237"><defs><linearGradient x1="89.4637956%" y1="8.09414239e-14%" x2="38.2751463%" y2="91.9368179%" id="A"><stop stop-color="#4e939b" offset="0%"/><stop stop-color="#011113" stop-opacity="0" offset="100%"/></linearGradient></defs><path d="M73.226 2a5.19 5.19 0 0 1 4.479 2.566h0l22.387 38.208 39.78 68.177v118.853c0 2.868-2.325 5.195-5.191 5.195h0-56.702c-2.87 0-5.191-2.327-5.191-5.195h0v-105.57a5.16 5.16 0 0 0-.784-2.738h0L2.79 9.933C.641 6.473 3.128 2 7.202 2h0zm130.575.78c4.064 0 6.556 4.468 4.412 7.933h0l-50.675 81.887c-2.061 3.33-6.924 3.268-8.897-.114h0l-31.6-54.167a5.19 5.19 0 0 1 .005-5.242h0l16.236-27.73a5.19 5.19 0 0 1 4.479-2.566h0z" stroke="url(#A)" stroke-width="3.022" fill="none" opacity=".25"/></svg>