<svg xmlns="http://www.w3.org/2000/svg" width="632" height="712"><defs><linearGradient id="a" x1="89.339%" x2="38.312%" y1="0%" y2="91.937%"><stop offset="0%" stop-color="#4E939B"/><stop offset="100%" stop-color="#011113" stop-opacity="0"/></linearGradient></defs><path fill="none" fill-rule="evenodd" stroke="url(#a)" stroke-width="3.022" d="M673.942 222a15.726 15.726 0 0 1 13.58 7.798l67.873 116.1L876 553.064v361.15c0 8.714-7.05 15.786-15.737 15.786H688.357c-8.703 0-15.737-7.072-15.737-15.785V593.427a15.71 15.71 0 0 0-2.376-8.319L460.396 246.104C453.88 235.591 461.419 222 473.772 222Zm396.294 3c12.324 0 19.88 13.556 13.379 24.07L929.948 497.534c-6.249 10.104-20.997 9.915-26.978-.347l-95.823-164.356a15.754 15.754 0 0 1 .015-15.905l49.234-84.14A15.734 15.734 0 0 1 869.98 225Z" opacity=".35" transform="translate(-456 -220)"/></svg>