<svg xmlns="http://www.w3.org/2000/svg" xmlns:xlink="http://www.w3.org/1999/xlink" width="48" height="48" xmlns:v="https://vecta.io/nano"><defs><linearGradient x1="50%" y1="0%" x2="50%" y2="100%" id="A"><stop stop-color="#ecdcb9" offset="0%"/><stop stop-color="#d4b783" offset="100%"/></linearGradient><path id="B" d="M18.384 18.776c1.396 0 2.532-1.136 2.532-2.532s-1.136-2.532-2.532-2.532-2.532 1.136-2.532 2.532 1.136 2.532 2.532 2.532z"/><path id="C" d="M18.384 21.078a4.84 4.84 0 0 0 4.835-4.835 4.81 4.81 0 0 0-1.092-3.057c-.887-1.084-2.235-1.778-3.742-1.778a4.84 4.84 0 0 0-4.835 4.835 4.81 4.81 0 0 0 1.148 3.123c.888 1.046 2.21 1.712 3.686 1.712zm0-7.367c1.396 0 2.532 1.136 2.532 2.532s-1.136 2.532-2.532 2.532-2.532-1.136-2.532-2.532 1.136-2.532 2.532-2.532z"/></defs><g fill="none" fill-rule="evenodd"><path d="M22.504 45.008c12.429 0 22.504-10.075 22.504-22.504 0-.826-1.845-.14-2.889-.655-1.228-.606-1.737-2.344-2.54-2.403-2.17-.159-2.437 1.245-5.112.66-2.097-.459-2.971-4.3-4.365-5.604-2.091-1.957-5.014-1.999-5.717-5.236-.225-1.036 1.325-2.513.938-3.844-.349-1.198-2.638-2.25-2.819-3.239-.199-1.086.977-2.183 0-2.183C10.075 0 0 10.075 0 22.504s10.075 22.504 22.504 22.504z" fill="url(#A)" transform="translate(2.183 1.038)"/><g fill="#89634a" fill-rule="nonzero"><use xlink:href="#B"/><use xlink:href="#B" x="-3.196" y="17.403"/><path d="M8.055 12.215c0-.749-.327-1.438-.871-1.91a21.72 21.72 0 0 0-2.699 4.218c.323.146.675.225 1.037.225 1.396 0 2.532-1.136 2.532-2.533zm32.814 21.806c0 .854.436 1.637 1.119 2.099a21.72 21.72 0 0 0 2.314-4.465c-.284-.109-.587-.166-.901-.166-1.396 0-2.532 1.136-2.532 2.532zm-12.497-.149a3.92 3.92 0 0 0 3.914-3.914 3.92 3.92 0 0 0-3.914-3.914 3.92 3.92 0 0 0-3.914 3.914 3.92 3.92 0 0 0 3.914 3.914z"/></g><g fill-rule="nonzero"><path d="M22.126 13.187a4.81 4.81 0 0 1 1.092 3.057 4.84 4.84 0 0 1-4.835 4.835c-1.476 0-2.799-.666-3.686-1.712.887 1.084 2.235 1.778 3.742 1.778a4.84 4.84 0 0 0 4.835-4.835 4.81 4.81 0 0 0-1.148-3.123zm-2.103 20.459a4.84 4.84 0 0 1-4.835 4.835c-1.476 0-2.799-.666-3.686-1.712.887 1.084 2.235 1.778 3.742 1.778a4.84 4.84 0 0 0 4.835-4.835 4.81 4.81 0 0 0-1.148-3.123 4.81 4.81 0 0 1 1.092 3.057zm14.565-3.688c0 3.428-2.789 6.216-6.216 6.216a6.21 6.21 0 0 1-4.752-2.214c1.141 1.391 2.872 2.281 4.808 2.281 3.427 0 6.216-2.788 6.216-6.216a6.19 6.19 0 0 0-1.464-4.001c.879 1.072 1.408 2.443 1.408 3.935z" fill="#89634a"/><g fill="#000"><use xlink:href="#C"/><use xlink:href="#C" x="-3.195" y="17.403"/><path d="M47.998 23.781l-.001-.096a1.15 1.15 0 0 0-1.093-1.135 4.59 4.59 0 0 1-3.945-2.67 1.15 1.15 0 0 0-1.708-.458c-.772.544-1.718.844-2.664.844-.802 0-1.595-.213-2.295-.617a4.62 4.62 0 0 1-2.283-4.409 1.15 1.15 0 0 0-.332-.918c-.242-.242-.579-.363-.918-.333l-.416.019a4.62 4.62 0 0 1-3.992-2.302 4.62 4.62 0 0 1 .227-4.959 1.15 1.15 0 0 0-.458-1.708 4.59 4.59 0 0 1-2.669-3.943A1.15 1.15 0 0 0 24.315.004l-.094-.001L24 0C10.766 0 0 10.766 0 24s10.766 24 24 24 24-10.766 24-24l-.002-.219zM7.184 10.304c.544.472.871 1.162.871 1.91 0 1.396-1.136 2.532-2.532 2.532-.362 0-.714-.079-1.037-.225a21.76 21.76 0 0 1 2.699-4.218zm34.804 25.815c-.683-.462-1.119-1.244-1.119-2.099 0-1.396 1.136-2.532 2.532-2.532.314 0 .617.058.901.166-.599 1.585-1.379 3.081-2.314 4.465zm3.014-6.66a4.84 4.84 0 0 0-1.461-.271l-.139-.003c-.062 0-.124.003-.186.006a4.83 4.83 0 0 0-3.735 2.006c-.574.795-.914 1.77-.914 2.823 0 1.587.788 3.045 2.033 3.936a21.88 21.88 0 0 1-3.632 3.423l-.284.212c-3.57 2.582-7.952 4.106-12.684 4.106-11.964 0-21.698-9.733-21.698-21.698 0-1.874.24-3.692.689-5.427.168-.651.365-1.291.591-1.917.612.254 1.268.393 1.941.393.954 0 1.844-.279 2.594-.758 1.345-.859 2.24-2.365 2.24-4.076a4.82 4.82 0 0 0-1.465-3.469 4.82 4.82 0 0 0-.159-.148c3.768-3.735 8.893-6.102 14.562-6.284a6.88 6.88 0 0 0 2.775 4.192c-.928 2.014-.845 4.395.285 6.353a6.93 6.93 0 0 0 5.36 3.424c.203 2.209 1.465 4.23 3.424 5.361a6.9 6.9 0 0 0 3.446.926c1.015 0 2.002-.218 2.907-.638a6.88 6.88 0 0 0 4.193 2.774c-.052 1.637-.287 3.228-.684 4.754zm-16.63 6.715c3.427 0 6.216-2.788 6.216-6.216 0-1.492-.529-2.863-1.408-3.935-1.141-1.391-2.872-2.281-4.808-2.281-3.427 0-6.216 2.788-6.216 6.216a6.19 6.19 0 0 0 1.464 4.001c1.141 1.353 2.847 2.214 4.752 2.214zm0-10.13a3.92 3.92 0 0 1 3.914 3.914 3.92 3.92 0 0 1-3.914 3.914 3.92 3.92 0 0 1-3.914-3.914 3.92 3.92 0 0 1 3.914-3.914z"/></g></g></g></svg>