<svg xmlns="http://www.w3.org/2000/svg" width="120" height="120"><defs><path id="A" d="M0 0h65.116v65.116H0z"/><linearGradient x1="-24.5801021%" y1="11.2625476%" x2="108.549419%" y2="81.2315375%" id="B"><stop stop-color="#88cab9" offset="0%"/><stop stop-color="#2e7a6e" offset="51.9176136%"/><stop stop-color="#2b7368" offset="100%"/></linearGradient><linearGradient x1="-7.10041303%" y1="-24.2658799%" x2="94.8269165%" y2="109.875843%" id="C"><stop stop-color="#88cab9" offset="0%"/><stop stop-color="#2e7a6e" offset="51.9176136%"/><stop stop-color="#2b7368" offset="100%"/></linearGradient></defs><g fill="none" fill-rule="evenodd"><path d="M60 120c33.137 0 60-26.863 60-60S93.137 0 60 0 0 26.863 0 60s26.863 60 60 60z" fill="#e5eeed"/><g transform="translate(26.977 27.907)"><mask id="D" fill="#fff"><use xlink:href="#A"/></mask><g mask="url(#D)"><path d="M14.923 29.845a20.44 20.44 0 0 0-4.07.407v-11.26a5.43 5.43 0 0 1 5.426-5.426h37.984a5.43 5.43 0 0 1 5.426 5.426v24.419a5.43 5.43 0 0 1-5.426 5.426H35.227c-.698-10.606-9.522-18.992-20.304-18.992zm20.349-2.311L18.6 18.557c-.99-.533-2.224-.163-2.756.827s-.163 2.224.827 2.756l17.636 9.496c.602.324 1.327.324 1.929 0l17.636-9.496c.99-.533 1.36-1.767.827-2.756s-1.767-1.36-2.756-.827l-16.671 8.977z" fill="url(#B)"/><path d="M24.419 48.837v8.14c0 1.498-1.215 2.713-2.713 2.713H8.139c-1.498 0-2.713-1.215-2.713-2.713v-8.14c0-1.498 1.215-2.713 2.713-2.713v-1.357c0-3.746 3.037-6.783 6.783-6.783s6.783 3.037 6.783 6.783v1.357c1.498 0 2.713 1.215 2.713 2.713zm-13.566-4.07v1.357h8.14v-1.357a4.07 4.07 0 1 0-8.14 0z" fill="url(#C)" opacity=".3"/></g></g></g></svg>