<svg xmlns="http://www.w3.org/2000/svg" xmlns:xlink="http://www.w3.org/1999/xlink" viewBox="0 0 443 307"><defs><path id="a" d="M81 47h141v192H81c-8.837 0-16-7.163-16-16V63c0-8.837 7.163-16 16-16Z"/><path id="b" d="M222 47h141c8.837 0 16 7.163 16 16v160c0 8.837-7.163 16-16 16H222V47Z"/><path id="g" d="M0 0h140c8.837 0 16 7.163 16 16v160c0 8.837-7.163 16-16 16H0V0Z"/><linearGradient id="d" x1="173.367" x2="173.367" y1="174.327" y2="304.666" gradientTransform="scale(1.27 .78)" gradientUnits="userSpaceOnUse"><stop offset="0%" stop-color="#D9F2EF"/><stop offset="100%" stop-color="#F5FBFB" stop-opacity="0"/></linearGradient><linearGradient id="i" x1="-12.29" x2="54.275" y1="-12.133" y2="54.938" gradientUnits="userSpaceOnUse"><stop offset="0%" stop-color="#88CAB9"/><stop offset="51.918%" stop-color="#2E7A6E"/><stop offset="100%" stop-color="#2B7368"/></linearGradient><mask id="e" fill="#fff"><use xlink:href="#a" width="100%" height="100%"/></mask><mask id="f" fill="#fff"><use xlink:href="#b" width="100%" height="100%"/></mask><radialGradient id="c" cx="173.367" cy="59.913" r="413.933" fx="173.367" fy="59.913" gradientTransform="scale(1.27 .78)" gradientUnits="userSpaceOnUse"><stop offset="0%" stop-color="#FFF"/><stop offset="100%" stop-color="#F4FBFA" stop-opacity="0"/></radialGradient></defs><rect width="311" height="191" x="65.5" y="47.5" fill="url(#c)" fill-rule="evenodd" stroke="url(#d)" rx="16"/><rect width="159" height="128" x="89.5" y="71.5" fill="#fff" fill-rule="evenodd" stroke="#d9f2f0" mask="url(#e)" rx="12"/><text fill="#287a73" fill-rule="evenodd" font-family="IBMPlexMono, 'IBM Plex Mono'" font-size="6" mask="url(#e)" opacity=".299"><tspan x="111" y="97">&lt;script async defer id=&quot;YOUR: sdk&quot;</tspan><tspan x="111" y="107">src=&quot;https://stream.your.io</tspan><tspan x="111" y="117">/sdk/embed/d06e0436-1ff0-43b-</tspan><tspan x="111" y="127">aada-493b0807bc33/nl.js&quot;</tspan><tspan x="111" y="137">itemID=&quot;Put here the id to match</tspan><tspan x="111" y="147">your product&quot;&gt;</tspan><tspan x="111" y="157">&lt;/script&gt;</tspan></text><g fill="none" fill-rule="evenodd" mask="url(#f)"><g transform="translate(221 47)"><mask id="h" fill="#fff"><use xlink:href="#g" width="100%" height="100%"/></mask><g mask="url(#h)" opacity=".298"><g transform="translate(47.11 41)"><rect width="50" height="50" fill="url(#i)" fill-opacity=".2" rx="8"/><path fill="#287a73" fill-rule="nonzero" d="m27.93 38 7.96-1.726s-2.87-19.452-2.895-19.581c-.023-.127-.127-.213-.233-.213-.107 0-2.13-.15-2.13-.15s-1.404-1.405-1.574-1.554c-.04-.043-.084-.064-.127-.086zm.8-22.908c-.024 0-.32.086-.785.23-.469-1.335-1.295-2.568-2.757-2.568h-.127c-.426-.525-.932-.754-1.379-.754-3.412 0-5.048 4.2-5.555 6.332-1.314.399-2.266.69-2.376.733-.743.23-.762.25-.846.941-.084.5-2.014 15.236-2.014 15.236L27.797 38l1.017-22.928c-.024 0-.063.02-.084.02zm-3.454 1.402c-.832.28-1.754.583-2.654.885.515-2.14 1.476-3.19 2.311-3.586.217.607.343 1.42.343 2.536zm-1.77-3.441c-.986.527-2.074 1.872-2.521 4.561-.632.23-1.266.45-1.902.662.524-2.051 1.786-5.38 4.015-5.38.135 0 .27.043.408.157zM22.248 23.9c-1.611 0-1.675 1-1.675 1.256 0 1.362 3.607 1.893 3.607 5.107 0 2.532-1.611 4.15-3.8 4.15-2.62 0-3.95-1.618-3.95-1.618l.708-2.299s1.376 1.172 2.532 1.172c.28.011.554-.091.757-.284a1.02 1.02 0 0 0 .319-.737c0-1.788-2.963-1.875-2.963-4.81 0-2.468 1.783-4.872 5.411-4.872 1.397 0 2.082.402 2.082.402l-1.055 3s-.902-.467-1.973-.467zm4.797-7.882c-.43.148-.91.294-1.435.464v-.318c0-.952-.12-1.735-.334-2.372.86.102 1.413 1.1 1.769 2.226z"/></g></g></g></g></svg>