<svg xmlns="http://www.w3.org/2000/svg" xmlns:xlink="http://www.w3.org/1999/xlink" viewBox="0 0 443 307"><defs><linearGradient id="c" x1="173.367" x2="173.367" y1="174.327" y2="304.666" gradientTransform="scale(1.27 .78)" gradientUnits="userSpaceOnUse"><stop offset="0%" stop-color="#D9F2EF"/><stop offset="100%" stop-color="#F5FBFB" stop-opacity="0"/></linearGradient><linearGradient id="d" x1="0" x2="50" y1="50" y2="0" gradientUnits="userSpaceOnUse"><stop offset="0%" stop-color="#3FC0B5"/><stop offset="100%" stop-color="#339D94"/></linearGradient><linearGradient id="a" x1="-26.244%" x2="108.549%" y1="43.49%" y2="55%"><stop offset="0%" stop-color="#F4FBFA"/><stop offset="51.918%" stop-color="#F4FBFA"/><stop offset="100%" stop-color="#F4FBFA"/></linearGradient><linearGradient id="f" x1="-12.29" x2="54.275" y1="-12.133" y2="54.938" gradientUnits="userSpaceOnUse"><stop offset="0%" stop-color="#88CAB9"/><stop offset="51.918%" stop-color="#2E7A6E"/><stop offset="100%" stop-color="#2B7368"/></linearGradient><linearGradient xlink:href="#a" id="e" x1="-5.077" x2="21" y1="8.414" y2="10.64" gradientTransform="scale(1.86 .54)" gradientUnits="userSpaceOnUse"/><radialGradient id="b" cx="173.367" cy="59.913" r="413.933" fx="173.367" fy="59.913" gradientTransform="scale(1.27 .78)" gradientUnits="userSpaceOnUse"><stop offset="0%" stop-color="#FFF"/><stop offset="100%" stop-color="#F4FBFA" stop-opacity="0"/></radialGradient></defs><rect width="311" height="191" x="65.5" y="47.5" fill="url(#b)" fill-rule="evenodd" stroke="url(#c)" rx="16"/><g fill="none" fill-rule="evenodd" transform="translate(195 128)"><path stroke="#e2e8f0" stroke-dasharray="2 2" stroke-linecap="square" d="M1.5 1.5h48"/><circle cx="1.5" cy="1.5" r="1.5" fill="#cbd5e1"/><circle cx="49.5" cy="1.5" r="1.5" fill="#cbd5e1"/></g><text fill="#287a73" fill-rule="evenodd" font-family="Inter-Regular, Inter" font-size="6"><tspan x="255.553" y="169">YOUR product content</tspan></text><g fill="none" fill-rule="evenodd" transform="translate(262.11 105)"><rect width="50" height="50" fill="url(#d)" rx="8"/><path fill="url(#e)" d="M28.013.781v8.982c0 .123-.1.223-.223.223h-2.17a.223.223 0 0 1-.222-.223v-.554c-.55.604-1.53 1.001-2.58 1.001-2.39 0-3.938-1.848-3.938-4.368V.782c0-.124.1-.224.222-.224h2.36c.122 0 .222.1.222.223V5.67c0 1.157.722 1.761 1.754 1.761s1.771-.794 1.771-1.916V.78c0-.123.1-.223.223-.223h2.358c.123 0 .223.1.223.223M13.033.11c2.786 0 5.04 2.313 5.04 5.145 0 2.831-2.254 5.145-5.04 5.145-2.769 0-5.022-2.314-5.022-5.145 0-2.832 2.253-5.145 5.022-5.145zM3.05 0c.08 0 .152.042.192.11L4.2 1.751 5.903 4.68v5.104c0 .123-.1.223-.222.223H3.253a.223.223 0 0 1-.222-.223V5.25a.222.222 0 0 0-.034-.117L.034.34A.223.223 0 0 1 .223 0Zm9.984 2.786c-1.221 0-2.236 1.105-2.236 2.469 0 1.364 1.015 2.469 2.236 2.469 1.238 0 2.253-1.105 2.253-2.47 0-1.363-1.015-2.468-2.253-2.468zM8.64.033c.174 0 .28.192.189.341l-2.17 3.517a.222.222 0 0 1-.38-.005L4.924 1.56a.223.223 0 0 1 0-.225L5.621.144a.222.222 0 0 1 .191-.11Zm27.334.873-.854 2.28a.22.22 0 0 1-.3.123 2.468 2.468 0 0 0-1.01-.195c-1.05 0-1.772.777-1.772 1.882v4.767c0 .123-.1.223-.222.223h-2.342a.223.223 0 0 1-.222-.223V.78c0-.123.1-.223.222-.223h2.153c.123 0 .222.1.222.223v.468c.654-.622 1.53-.932 2.425-.932a3.97 3.97 0 0 1 1.583.307.222.222 0 0 1 .117.282" transform="translate(6.89 21.175)"/></g><text fill="#287a73" fill-rule="evenodd" font-family="Inter-Regular, Inter" font-size="6"><tspan x="139.784" y="169">Your shop</tspan></text><g fill="none" fill-rule="evenodd" transform="translate(129.11 105)"><rect width="50" height="50" fill="url(#f)" rx="8"/><path fill="#f4fbfa" fill-rule="nonzero" d="m27.93 38 7.96-1.726s-2.87-19.452-2.895-19.581c-.023-.127-.127-.213-.233-.213-.107 0-2.13-.15-2.13-.15s-1.404-1.405-1.574-1.554c-.04-.043-.084-.064-.127-.086zm.8-22.908c-.024 0-.32.086-.785.23-.469-1.335-1.295-2.568-2.757-2.568h-.127c-.426-.525-.932-.754-1.379-.754-3.412 0-5.048 4.2-5.555 6.332-1.314.399-2.266.69-2.376.733-.743.23-.762.25-.846.941-.084.5-2.014 15.236-2.014 15.236L27.797 38l1.017-22.928c-.024 0-.063.02-.084.02zm-3.454 1.402c-.832.28-1.754.583-2.654.885.515-2.14 1.476-3.19 2.311-3.586.217.607.343 1.42.343 2.536zm-1.77-3.441c-.986.527-2.074 1.872-2.521 4.561-.632.23-1.266.45-1.902.662.524-2.051 1.786-5.38 4.015-5.38.135 0 .27.043.408.157zM22.248 23.9c-1.611 0-1.675 1-1.675 1.256 0 1.362 3.607 1.893 3.607 5.107 0 2.532-1.611 4.15-3.8 4.15-2.62 0-3.95-1.618-3.95-1.618l.708-2.299s1.376 1.172 2.532 1.172c.28.011.554-.091.757-.284a1.02 1.02 0 0 0 .319-.737c0-1.788-2.963-1.875-2.963-4.81 0-2.468 1.783-4.872 5.411-4.872 1.397 0 2.082.402 2.082.402l-1.055 3s-.902-.467-1.973-.467zm4.797-7.882c-.43.148-.91.294-1.435.464v-.318c0-.952-.12-1.735-.334-2.372.86.102 1.413 1.1 1.769 2.226z"/></g></svg>