<svg xmlns="http://www.w3.org/2000/svg" viewBox="0 0 41 42"><defs><linearGradient id="a" x1="1.585%" x2="98.415%" y1="100%" y2="0%"><stop offset="0%" stop-color="#339D94"/><stop offset="100%" stop-color="#3FC0B5"/></linearGradient></defs><path fill="none" stroke="url(#a)" stroke-linecap="round" stroke-linejoin="round" stroke-width="2" d="M8.069 0h22.862v17.083C30.931 23.5 25.813 28.7 19.5 28.7c-6.313 0-11.431-5.201-11.431-11.617V0Zm23.534 5.467h.28C35.812 5.467 39 8.705 39 12.7c0 3.042-1.873 5.759-4.685 6.798L31.603 20.5M7.397 5.467h-.28C3.188 5.467 0 8.705 0 12.7c0 3.042 1.872 5.759 4.685 6.798L7.397 20.5M19.5 29.383v9.567m-8.741.683H28.24" transform="translate(1 1)"/></svg>