<svg xmlns="http://www.w3.org/2000/svg" viewBox="0 0 42 42"><defs><linearGradient id="a" x1="0%" x2="100%" y1="100%" y2="0%"><stop offset="0%" stop-color="#339D94"/><stop offset="100%" stop-color="#3FC0B5"/></linearGradient><linearGradient id="b" x1="26.036%" x2="73.964%" y1="100%" y2="0%"><stop offset="0%" stop-color="#339D94"/><stop offset="100%" stop-color="#3FC0B5"/></linearGradient></defs><g fill="none" fill-rule="evenodd" stroke-linecap="round" stroke-linejoin="round" stroke-width="2.4"><path stroke="url(#a)" d="M0 13.103a5.241 5.241 0 0 1 5.241-5.24H32.76A5.241 5.241 0 0 1 38 13.102V32.76A5.241 5.241 0 0 1 32.759 38H5.24A5.241 5.241 0 0 1 0 32.759V13.103Zm10.483-5.896V5.24A5.241 5.241 0 0 1 15.724 0h6.552a5.241 5.241 0 0 1 5.241 5.241v1.966" transform="translate(2 2)"/><path stroke="url(#a)" d="M4.156 15.24v.923m0-15.701v.923" transform="translate(17.438 16.25)"/><path stroke="url(#b)" d="M8.313 2.309H3.002A3.002 3.002 0 0 0 0 5.311h0a3.002 3.002 0 0 0 3.002 3.002H5.31a3.002 3.002 0 0 1 3.002 3.001h0a3.002 3.002 0 0 1-3.002 3.002H0" transform="translate(17.438 16.25)"/></g></svg>