<svg xmlns="http://www.w3.org/2000/svg" viewBox="0 0 42 42"><defs><linearGradient id="a" x1="0%" x2="100%" y1="100%" y2="0%"><stop offset="0%" stop-color="#339D94"/><stop offset="100%" stop-color="#3FC0B5"/></linearGradient><linearGradient id="b" x1="26.04%" x2="73.96%" y1="100%" y2="0%"><stop offset="0%" stop-color="#339D94"/><stop offset="100%" stop-color="#3FC0B5"/></linearGradient></defs><g fill="none" fill-rule="evenodd" stroke-linecap="round" stroke-linejoin="round" stroke-width="2.4"><path stroke="url(#a)" d="M0 13.1c0-2.9 2.35-5.24 5.24-5.24h27.52c2.9 0 5.24 2.35 5.24 5.24v19.66c0 2.9-2.35 5.24-5.24 5.24H5.24A5.24 5.24 0 0 1 0 32.76V13.1Zm10.48-5.9V5.25c0-2.9 2.35-5.24 5.24-5.24h6.56c2.9 0 5.24 2.35 5.24 5.24v1.97" transform="translate(2 2)"/><path stroke="url(#a)" d="M4.16 15.24v.92M4.16.46v.93" transform="translate(17.44 16.25)"/><path stroke="url(#b)" d="M8.31 2.3h-5.3A3 3 0 0 0 0 5.32h0a3 3 0 0 0 3 3h2.31a3 3 0 0 1 3 3h0a3 3 0 0 1-3 3H0" transform="translate(17.44 16.25)"/></g></svg>