<svg xmlns="http://www.w3.org/2000/svg" xmlns:xlink="http://www.w3.org/1999/xlink" width="1125.28" height="422.18"><defs><path id="k" d="M1015 0v420.016H0V0z"/><path id="b" d="M1015 0v420.016H0V0z"/><path id="f" d="M1015 0v420.016H0V0z"/><path id="i" d="M1015 0v420.016H0V0z"/><path id="a" d="M1015 0v420.016H0V0z"/><path id="c" d="M1015 0v420.016H0V0z"/><path id="h" d="M1015 0v420.016H0V0z"/><path id="j" d="M1015 0v420.016H0V0z"/><path id="d" d="M1015 0v420.016H0V0z"/><path id="e" d="M1015 0v420.016H0V0z"/><path id="g" d="M1014.362 0v419.46H0V0z"/><mask id="p" fill="#fff"><use xlink:href="#a" width="100%" height="100%"/></mask><mask id="m" fill="#fff"><use xlink:href="#b" width="100%" height="100%"/></mask><mask id="q" fill="#fff"><use xlink:href="#c" width="100%" height="100%"/></mask><mask id="t" fill="#fff"><use xlink:href="#d" width="100%" height="100%"/></mask><mask id="u" fill="#fff"><use xlink:href="#e" width="100%" height="100%"/></mask><mask id="n" fill="#fff"><use xlink:href="#f" width="100%" height="100%"/></mask><mask id="v" fill="#fff"><use xlink:href="#g" width="100%" height="100%"/></mask><mask id="r" fill="#fff"><use xlink:href="#h" width="100%" height="100%"/></mask><mask id="o" fill="#fff"><use xlink:href="#i" width="100%" height="100%"/></mask><mask id="s" fill="#fff"><use xlink:href="#j" width="100%" height="100%"/></mask><mask id="l" fill="#fff"><use xlink:href="#k" width="100%" height="100%"/></mask></defs><path fill="#cbeeeb" d="m133.128 398.595 8.474-1.26 8.475-1.26 8.201-1.26H1015v25.201H0v-1.26l8.474-1.26 8.201-1.26 8.474-1.26 8.201-1.26 8.475-1.26 8.474-1.26 8.201-1.26 8.474-1.26 8.201-1.26 8.474-1.261 8.475-1.26 7.654-1.26 8.474-1.26 8.201-1.26 8.474-1.26z" mask="url(#l)" style="stroke:none;stroke-width:1" transform="translate(110.28 .07)"/><path fill="#a8e2dd" d="m133.128 348.193 8.474-1.26 8.475-1.26 8.201-1.26H1015v50.402H158.278l-8.201 1.26-8.475 1.26-8.474 1.26-8.201 1.26-8.474 1.26-8.201 1.26-8.474 1.26-7.654 1.26-8.475 1.26-8.474 1.261-8.201 1.26-8.474 1.26-8.201 1.26-8.474 1.26-8.475 1.26-8.201 1.26-8.474 1.26-8.201 1.26L0 418.756v-2.52l8.474-5.04 8.201-5.041 8.474-5.04 8.201-5.04 8.475-5.04 8.474-5.04 8.201-5.04 8.474-5.041 8.201-5.04 8.474-5.04 8.475-5.04 7.654-5.04 8.474-3.781 8.201-1.26 8.474-1.26z" mask="url(#m)" style="stroke:none;stroke-width:1" transform="translate(110.28 .07)"/><path fill="#89cab9" d="m133.128 340.633 8.474-1.26 8.475-1.26 8.201-1.26H1015v7.56H158.278l-8.201 1.26-8.475 1.26-8.474 1.26-8.201 1.26-8.474 1.26-8.201 1.26-8.474 3.781-7.654 5.04-8.475 5.04-8.474 5.04-8.201 5.04-8.474 5.041-8.201 5.04-8.474 5.04-8.475 5.04-8.201 5.04-8.474 5.04-8.201 5.041L0 416.236v-.378l8.474-5.607 8.201-5.608 8.474-5.607 8.201-5.607 8.475-5.607 8.474-5.607 8.201-5.608L66.974 371l8.201-5.607 8.474-5.607 8.475-5.608 7.654-5.607 8.474-4.158 8.201-1.26 8.474-1.26z" mask="url(#n)" style="stroke:none;stroke-width:1" transform="translate(110.28 .07)"/><path fill="#56cdc0" d="m133.128 312.492 8.474-1.26 8.475-1.26 8.201-1.26H1015v28.141H158.278l-8.201 1.26-8.475 1.26-8.474 1.26-8.201 1.26-8.474 1.26-8.201 1.26-8.474 4.158-7.654 5.607-8.475 5.608-8.474 5.607L66.974 371l-8.474 5.607-8.201 5.608-8.474 5.607-8.475 5.607-8.201 5.607-8.474 5.607-8.201 5.608L0 415.858v-4.221l8.474-7.718 8.201-7.718 8.474-7.718 8.201-7.717 8.475-7.718 8.474-7.718 8.201-7.718 8.474-7.718 8.201-7.717 8.474-7.718 8.475-7.718 7.654-6.311 8.474-4.158 8.201-1.26 8.474-1.26z" mask="url(#o)" style="stroke:none;stroke-width:1" transform="translate(110.28 .07)"/><path fill="#009688" d="m133.128 303.882 8.474-1.26 8.475-1.261 8.201-1.26H1015v8.611H158.278l-8.201 1.26-8.475 1.26-8.474 1.26-8.201 1.26-8.474 1.26-8.201 1.26-8.474 4.158-7.654 6.311-8.475 7.718-8.474 7.718-8.201 7.717-8.474 7.718-8.201 7.718-8.474 7.718-8.475 7.718-8.201 7.717-8.474 7.718-8.201 7.718L0 411.637v-2.583l8.474-9.01 8.201-9.009 8.474-9.009 8.201-9.01 8.475-8.579 8.474-7.717 8.201-7.718 8.474-7.718 8.201-7.718 8.474-7.718 8.475-7.717 7.654-6.311 8.474-4.158 8.201-1.26 8.474-1.26z" mask="url(#p)" style="stroke:none;stroke-width:1" transform="translate(110.28 .07)"/><path fill="#2f7a6e" d="m133.128 243.189 8.474-1.26 8.475-1.26 8.201-1.26H1015v60.692H158.278l-8.201 1.26-8.475 1.261-8.474 1.26-8.201 1.26-8.474 1.26-8.201 1.26-8.474 4.158-7.654 6.311-8.475 7.717-8.474 7.718-8.201 7.718-8.474 7.718-8.201 7.718-8.474 7.717-8.475 8.579-8.201 9.01-8.474 9.009-8.201 9.009L0 409.054l8.474-9.01 8.201-9.009 8.474-9.009 8.201-9.01 8.475-14.648 8.474-13.787 8.201-13.787 8.474-13.787 8.201-13.787 8.474-13.787 8.475-13.787 7.654-12.38 8.474-10.227 8.201-7.33 8.474-1.26z" mask="url(#q)" style="stroke:none;stroke-width:1" transform="translate(110.28 .07)"/><path fill="#349d94" d="m133.128 222.188 8.474-1.26 8.475-1.26 8.201-1.26H1015v21.001H158.278l-8.201 1.26-8.475 1.26-8.474 1.26-8.201 1.26-8.474 1.26-8.201 7.33-8.474 10.227-7.654 12.38-8.475 13.787-8.474 13.787-8.201 13.787-8.474 13.787-8.201 13.787-8.474 13.787-8.475 14.648-8.201 9.01-8.474 9.009-8.201 9.009L0 409.054l8.474-9.01 8.201-9.009 8.474-9.009 8.201-9.01 8.475-16.748 8.474-15.887 8.201-15.887 8.474-15.887 8.201-15.887 8.474-15.887 8.475-15.888 7.654-14.48 8.474-12.327 8.201-9.429 8.474-1.26z" mask="url(#r)" style="stroke:none;stroke-width:1" transform="translate(110.28 .07)"/><path fill="#329d94" d="m133.128 202.678 8.474-1.612 8.475-1.571 8.201-1.535 8.474-.246 8.201-.219 8.474-.198 8.474-.179 7.655-.164 8.474-.151 8.201-.14 8.474-.131 8.201-.125 8.474-.119 8.475-.114 8.2-.112 8.475-.109 8.201-.108 8.474-.108 8.474-.109 7.654-.109 8.475-.111 8.201-.113 8.474-.116 8.201-.119 8.474-.122 8.474-.127 8.201-.132 8.475-.136 8.201-.141 8.474-.148 8.474-.153 7.928-.16 8.474-.167 8.201-.175 8.474-.182 8.201-.19 8.474-.199 8.475-.208 8.2-.218 8.475-.227 8.201-.238 8.474-.249 8.474-.261 7.654-.273 8.475-.286 8.201-.301 8.474-.313 8.201-.328 8.474-.342 8.474-.359 8.201-.376 8.475-.394 8.2-.412 8.475-.432 8.474-.451 7.654-.474 8.475-.495 8.2-.519 8.475-.543 8.201-.569 8.474-.595 8.474-.624 8.201-.653 8.474-.683 8.201-.716 8.475-.75 8.474-.784 7.654-.822 8.474-.861 8.201-.901 8.474-.943 8.201-.988 8.475-1.035 8.474-1.083 8.201-1.134 8.474-1.187 8.201-1.244 8.474-1.302 8.475-1.363 7.927-1.427 8.474-1.495 8.201-1.565 8.475-1.639 8.201-1.716 8.474-1.796 8.474-1.882 8.201-1.97 8.474-2.062 8.201-2.16 8.475-2.262 8.474-2.368 7.654-2.479 8.474-2.596 8.201-2.719 8.474-2.846 8.201-2.981 8.475-3.12 8.474-3.268 8.201-3.422 8.474-3.583 8.201-3.751 8.474-3.928 8.475-4.113 7.654-4.307 8.474-4.51 8.201-4.723v126.004H158.278l-8.201 1.26-8.475 1.26-8.474 1.26-8.201 1.261-8.474 1.26-8.201 9.429-8.474 12.327-7.654 14.48-8.475 15.888-8.474 15.887-8.201 15.887-8.474 15.887-8.201 15.887-8.474 15.887-8.475 16.748-8.201 9.01-8.474 9.009-8.201 9.009L0 409.054l8.474-9.01 8.201-9.009 8.474-14.802 8.201-11.196 8.475-18.621 8.474-17.507L58.5 311.62l8.474-17.101 8.201-16.938 8.474-16.8 8.475-16.678 7.654-15.169 8.474-12.926 8.201-9.952 8.474-1.717z" mask="url(#s)" style="stroke:none;stroke-width:1" transform="translate(110.28 .07)"/><path fill="#418b7e" d="m133.128 189.027 8.474-4.342 8.475-4.301 8.201-4.265 8.474-2.976 8.201-2.949 8.474-2.928 8.474-2.909 7.655-2.894 8.474-2.881 8.201-2.871 8.474-2.861 8.201-2.855 8.474-2.849 8.475-2.844 8.2-2.842 8.475-.109 8.201-.108 8.474-.108 8.474-.109 7.654-.109 8.475-.111 8.201-.113 8.474-.116 8.201-.119 8.474-.122 8.474-.127 8.201-.132 8.475-.136 8.201-.142 8.474-.147 8.474-.153 7.928-.16 8.474-.167 8.201-.175 8.474-.182 8.201-.19 8.474-.199 8.475-.208 8.2-.218 8.475-.227 8.201-.238 8.474-.25 8.474-.26 7.654-.273 8.475-.286 8.201-.302 8.474-.312 8.201-.328 8.474-.343 8.474-.358 8.201-.376 8.475-.394 8.2-.412 8.475-.432 8.474-.451 7.654-.474 8.475-.495 8.2-.519 8.475-.543 8.201-.569 8.474-.595 8.474-.624 8.201-.653 8.474-.683 8.201-.716 8.475-.75 8.474-.785 7.654-.821 8.474-.861 8.201-.901 8.474-.943 8.201-.988 8.475-1.035 8.474-1.083 8.201-1.134 8.474-1.187 8.201-1.244 8.474-1.302 8.475-1.363 7.927-1.427 8.474-1.495 8.201-1.565 8.475-1.639 8.201-1.716 8.474-1.797 8.474-1.881 8.201-1.97 8.474-2.062 8.201-2.16 8.475-2.262 8.474-2.368 7.654-2.479 8.474-2.596 8.201-2.719 8.474-2.846 8.201-2.981 8.475-3.121 8.474-3.267 8.201-3.422 8.474-3.583 8.201-3.751 8.474-3.928 8.475-4.113 7.654-4.307 8.474-4.51 8.201-4.724v54.603l-8.201 4.723-8.474 4.51-7.654 4.307-8.475 4.113-8.474 3.928-8.201 3.751-8.474 3.583-8.201 3.422-8.474 3.268-8.475 3.12-8.201 2.981-8.474 2.846-8.201 2.719-8.474 2.596-7.654 2.479-8.474 2.368-8.475 2.262-8.201 2.16-8.474 2.062-8.201 1.97-8.474 1.882-8.474 1.796-8.201 1.716-8.475 1.639-8.201 1.565-8.474 1.495-7.927 1.427-8.475 1.363-8.474 1.302-8.201 1.244-8.474 1.187-8.201 1.134-8.474 1.083-8.475 1.035-8.201.988-8.474.943-8.201.901-8.474.861-7.654.822-8.474.784-8.475.75-8.201.716-8.474.683-8.201.653-8.474.624-8.474.595-8.201.569-8.475.543-8.2.519-8.475.495-7.654.474-8.474.451-8.475.432-8.2.412-8.475.394-8.201.376-8.474.359-8.474.342-8.201.328-8.474.313-8.201.301-8.475.286-7.654.273-8.474.261-8.474.249-8.201.238-8.475.227-8.2.218-8.475.208-8.474.199-8.201.19-8.474.182-8.201.175-8.474.167-7.928.16-8.474.153-8.474.148-8.201.141-8.475.136-8.201.132-8.474.127-8.474.122-8.201.119-8.474.116-8.201.113-8.475.111-7.654.109-8.474.109-8.474.108-8.201.108-8.475.109-8.2.112-8.475.114-8.474.119-8.201.125-8.474.131-8.201.14-8.474.151-7.655.164-8.474.179-8.474.198-8.201.219-8.474.246-8.201 1.535-8.475 1.571-8.474 1.612-8.201 1.661-8.474 1.717-8.201 9.952-8.474 12.926-7.654 15.169-8.475 16.678-8.474 16.8-8.201 16.938L58.5 311.62l-8.201 17.289-8.474 17.507-8.475 18.621-8.201 11.196-8.474 14.802-8.201 9.009L0 409.054l8.474-9.01 8.201-9.009 8.474-14.802 8.201-11.196 8.475-18.621 8.474-17.507L58.5 311.62l8.474-17.101 8.201-16.938 8.474-16.8 8.475-16.678 7.654-17.899 8.474-15.657 8.201-12.682 8.474-4.447z" mask="url(#t)" style="stroke:none;stroke-width:1" transform="translate(110.28 .07)"/><path fill="#406e74" d="m133.128 168.027 8.474-4.343 8.475-4.301 8.201-4.265 8.474-2.975 8.201-2.95 8.474-2.928 8.474-2.909 7.655-2.894 8.474-2.881 8.201-2.87 8.474-2.862 8.201-2.854 8.474-2.849 8.475-2.845 8.2-2.842 8.475-.109 8.201-.108 8.474-.108 8.474-.108 7.654-.11 8.475-.111 8.201-.113 8.474-.116 8.201-.119 8.474-.122 8.474-.127 8.201-.131 8.475-.137 8.201-.141 8.474-.148 8.474-.153 7.928-.16 8.474-.167 8.201-.175 8.474-.182 8.201-.19 8.474-.199 8.475-.208 8.2-.217 8.475-.228 8.201-.238 8.474-.249 8.474-.261 7.654-.273 8.475-.286 8.201-.301 8.474-.313 8.201-.327 8.474-.343 8.474-.359 8.201-.376 8.475-.394 8.2-.412 8.475-.431 8.474-.452 7.654-.473 8.475-.496 8.2-.519 8.475-.543 8.201-.568 8.474-.596 8.474-.624 8.201-.652 8.474-.684 8.201-.716 8.475-.75 8.474-.784 7.654-.822 8.474-.861 8.201-.901 8.474-.943 8.201-.988 8.475-1.034 8.474-1.084 8.201-1.134 8.474-1.187 8.201-1.244 8.474-1.301 8.475-1.364 7.927-1.427 8.474-1.495 8.201-1.565 8.475-1.639 8.201-1.716 8.474-1.796 8.474-1.882 8.201-1.97 8.474-2.062 8.201-2.16 8.475-2.261 8.474-2.368 7.654-2.48 8.474-2.596 8.201-2.719 8.474-2.846 8.201-2.98 8.475-3.121 8.474-3.268 8.201-3.422 8.474-3.583 8.201-3.751 8.474-3.928 8.475-4.113 7.654-4.307 8.474-4.51 8.201-4.723v21l-8.201 4.724-8.474 4.51-7.654 4.307-8.475 4.113-8.474 3.928-8.201 3.751-8.474 3.583-8.201 3.422-8.474 3.267-8.475 3.121-8.201 2.981-8.474 2.846-8.201 2.719-8.474 2.596-7.654 2.479-8.474 2.368-8.475 2.262-8.201 2.16L857.269 99l-8.201 1.97-8.474 1.881-8.474 1.797-8.201 1.716-8.475 1.639-8.201 1.565-8.474 1.495-7.927 1.427-8.475 1.363-8.474 1.302-8.201 1.244-8.474 1.187-8.201 1.134-8.474 1.083-8.475 1.035-8.201.988-8.474.943-8.201.901-8.474.861-7.654.821-8.474.785-8.475.75-8.201.716-8.474.683-8.201.653-8.474.624-8.474.595-8.201.569-8.475.543-8.2.519-8.475.495-7.654.474-8.474.451-8.475.432-8.2.412-8.475.394-8.201.376-8.474.358-8.474.343-8.201.328-8.474.312-8.201.302-8.475.286-7.654.273-8.474.26-8.474.25-8.201.238-8.475.227-8.2.218-8.475.208-8.474.199-8.201.19-8.474.182-8.201.175-8.474.167-7.928.16-8.474.153-8.474.147-8.201.142-8.475.136-8.201.132-8.474.127-8.474.122-8.201.119-8.474.116-8.201.113-8.475.111-7.654.109-8.474.109-8.474.108-8.201.108-8.475.109-8.2 2.842-8.475 2.844-8.474 2.849-8.201 2.855-8.474 2.861-8.201 2.871-8.474 2.881-7.655 2.894-8.474 2.909-8.474 2.928-8.201 2.949-8.474 2.976-8.201 4.265-8.475 4.301-8.474 4.342-8.201 4.391-8.474 4.447-8.201 12.682-8.474 15.657-7.654 17.899-8.475 16.678-8.474 16.8-8.201 16.938L58.5 311.62l-8.201 17.289-8.474 17.507-8.475 18.621-8.201 11.196-8.474 14.802-8.201 9.009L0 409.054l8.474-11.11 8.201-11.109 8.474-16.902 8.201-13.296 8.475-20.722 8.474-19.607 8.201-19.389 8.474-19.201 8.201-19.038 8.474-18.899 8.475-16.679 7.654-17.899 8.474-15.656 8.201-12.683 8.474-4.447z" mask="url(#u)" style="stroke:none;stroke-width:1" transform="translate(110.28 .07)"/><path fill="#277a73" d="m133.044 151.026 8.469-4.337 8.469-4.295 8.196-4.26 8.469-2.971 8.196-2.946 8.469-2.924 8.469-2.905 7.649-2.89 8.469-2.877 8.196-2.867 8.469-2.858 8.196-2.85 8.468-2.846 8.469-2.841 8.196-2.837 8.469-.11 8.196-.108 8.469-.107 8.469-.109 7.649-.109 8.469-.11 8.196-.113 8.469-.116 8.196-.119 8.469-.123 8.468-.126 8.196-.131 8.469-.136 8.196-.142 8.469-.147 8.469-.153 7.922-.16 8.469-.167 8.196-.174 8.469-.182 8.196-.19 8.469-.199 8.469-.207 8.196-.218 8.468-.227 8.196-.238 8.469-.249 8.469-.26 7.649-.273 8.469-.285 8.196-.301 8.469-.312 8.196-.327 8.469-.343 8.469-.358 8.196-.376 8.469-.393 8.195-.411 8.469-.431 8.469-.452 7.65-.472 8.469-.495 8.195-.518 8.469-.542 8.196-.568 8.469-.595 8.469-.623 8.196-.652 8.469-.683 8.195-.714 8.469-.749 8.469-.784 7.65-.821 8.469-.859 8.195-.9 8.469-.942 8.196-.986 8.469-1.034 8.469-1.081 8.196-1.133 8.469-1.186 8.195-1.241 8.469-1.301 8.469-1.361 7.923-1.426 8.469-1.492 8.196-1.563 8.469-1.637 8.195-1.714 8.469-1.794 8.469-1.879 8.196-1.967 8.469-2.06 8.196-2.157 8.469-2.258 8.469-2.365 7.649-2.476 8.469-2.593 8.196-2.715 8.469-2.843 8.195-2.976 8.469-3.117 8.469-3.264 8.196-3.417 8.469-3.578 8.196-3.746 8.469-3.923 8.469-4.108 7.649-4.301 8.469-4.503L1014.362 0v16.778l-8.196 4.718L997.697 26l-7.649 4.301-8.469 4.107-8.469 3.923-8.196 3.747-8.469 3.578-8.196 3.417-8.469 3.263-8.469 3.117-8.195 2.977-8.469 2.842-8.196 2.715-8.469 2.593-7.649 2.476-8.469 2.365-8.469 2.258-8.196 2.157-8.469 2.06-8.196 1.968-8.469 1.878-8.469 1.795-8.195 1.713-8.469 1.637-8.196 1.563-8.469 1.493-7.923 1.425-8.469 1.362-8.469 1.3-8.195 1.242-8.469 1.186-8.196 1.132-8.469 1.082-8.469 1.033-8.196.986-8.469.943-8.195.9-8.469.859-7.65.821-8.469.783-8.469.749-8.195.715-8.469.683-8.196.652-8.469.622-8.469.595-8.196.568-8.469.543-8.195.518-8.469.494-7.65.473-8.469.451-8.469.431-8.195.412-8.469.393-8.196.375-8.469.359-8.469.342-8.196.327-8.469.312-8.196.302-8.469.285-7.649.272-8.469.261-8.469.249-8.196.238-8.468.227-8.196.217-8.469.208-8.469.198-8.196.19-8.469.182-8.196.174-8.469.167-7.922.16-8.469.153-8.469.148-8.196.141-8.469.136-8.196.131-8.468.127-8.469.122-8.196.119-8.469.116-8.196.113-8.469.111-7.649.109-8.469.108-8.469.108-8.196.108-8.469.109-8.196 2.838-8.469 2.841-8.468 2.845-8.196 2.851-8.469 2.857-8.196 2.867-8.469 2.877-7.649 2.89-8.469 2.906-8.469 2.924-8.196 2.945-8.469 2.972-8.196 4.26-8.469 4.295-8.469 4.336-8.195 4.385-8.469 4.442-8.196 12.665-8.469 15.636-7.649 17.875-8.469 16.657-8.469 18.874-8.196 19.013-8.469 19.176-8.196 19.363-8.469 19.581-8.469 20.694-8.195 13.279-8.469 16.879-8.196 11.095L0 408.513v-16.779l8.469-11.095 8.196-11.094 8.469-16.88 8.195-13.278 8.469-20.694 8.469-19.582 8.196-19.363 8.469-19.175 8.196-19.014 8.469-18.874 8.469-16.657 7.649-17.874 8.469-15.636 8.196-12.666 8.469-4.441z" mask="url(#v)" style="stroke:none;stroke-width:1" transform="translate(110.904)"/><text x="-.72" y="1" style="font-weight:700;font-size:12px;font-family:Manrope-Bold,Manrope;letter-spacing:.9;fill:#f4fbfa;fill-rule:evenodd;stroke:none;stroke-width:1"><tspan x="-.72" y="13">1,000,000,000</tspan></text><text x="-.72" y="1" style="font-weight:700;font-size:12px;font-family:Manrope-Bold,Manrope;letter-spacing:.9;fill:#f4fbfa;fill-rule:evenodd;stroke:none;stroke-width:1"><tspan x="12.28" y="115">750,000,000</tspan></text><text x="-.72" y="1" style="font-weight:700;font-size:12px;font-family:Manrope-Bold,Manrope;letter-spacing:.9;fill:#f4fbfa;fill-rule:evenodd;stroke:none;stroke-width:1"><tspan x="10.28" y="218">500,000,000</tspan></text><text x="-.72" y="1" style="font-weight:700;font-size:12px;font-family:Manrope-Bold,Manrope;letter-spacing:.9;fill:#f4fbfa;fill-rule:evenodd;stroke:none;stroke-width:1"><tspan x="11.28" y="320">250,000,000</tspan></text><text x="-.72" y="1" style="font-weight:700;font-size:12px;font-family:Manrope-Bold,Manrope;letter-spacing:.9;fill:#f4fbfa;fill-rule:evenodd;stroke:none;stroke-width:1"><tspan x="89.28" y="422">0</tspan></text></svg>