<svg xmlns="http://www.w3.org/2000/svg" viewBox="0 0 43 36"><defs><linearGradient id="a" x1="35.75%" x2="64.25%" y1="100%" y2="0%"><stop offset="0%" stop-color="#339D94"/><stop offset="100%" stop-color="#3FC0B5"/></linearGradient><linearGradient id="b" x1=".22%" x2="99.78%" y1="100%" y2="0%"><stop offset="0%" stop-color="#339D94"/><stop offset="100%" stop-color="#3FC0B5"/></linearGradient><linearGradient id="c" x1="25.63%" x2="74.37%" y1="100%" y2="0%"><stop offset="0%" stop-color="#339D94"/><stop offset="100%" stop-color="#3FC0B5"/></linearGradient><linearGradient id="d" x1="23.34%" x2="76.66%" y1="100%" y2="0%"><stop offset="0%" stop-color="#339D94"/><stop offset="100%" stop-color="#3FC0B5"/></linearGradient></defs><g fill="none" fill-rule="evenodd"><path stroke="url(#a)" stroke-linecap="round" stroke-linejoin="round" stroke-width="2.08" d="M23.46 10.38h-6.8a3.83 3.83 0 0 0-3.84 3.81h0c0 2.1 1.72 3.81 3.85 3.81h2.95c2.12 0 3.84 1.7 3.84 3.81h0c0 2.1-1.72 3.81-3.84 3.81h-6.8m5.32 1.17v1.18m0-19.94v1.18"/><path fill="url(#b)" fill-rule="nonzero" d="M18.14 0c8.77 0 16.1 6.18 17.78 14.39a3.12 3.12 0 0 0-1.96.4C32.46 7.5 25.96 2 18.14 2A16.07 16.07 0 0 0 2 18c0 8.83 7.23 16 16.14 16 6.2 0 11.58-3.46 14.29-8.54v3.64A18.16 18.16 0 0 1 18.14 36 18.07 18.07 0 0 1 0 18C0 8.06 8.12 0 18.14 0Z"/><path stroke="url(#c)" stroke-linecap="round" stroke-linejoin="round" stroke-width="2.08" d="M23.46 10.38h-6.8a3.83 3.83 0 0 0-3.84 3.81h0c0 2.1 1.72 3.81 3.85 3.81h2.95c2.12 0 3.84 1.7 3.84 3.81h0c0 2.1-1.72 3.81-3.84 3.81h-6.8"/><path stroke="url(#d)" stroke-linecap="round" stroke-linejoin="round" stroke-width="2.08" d="M10.9 5.67 5.46 0 0 5.67m5.45 9.27V1.03" transform="translate(30.1 17.48)"/></g></svg>