<svg xmlns="http://www.w3.org/2000/svg" viewBox="0 0 43 36"><defs><linearGradient id="a" x1="35.75%" x2="64.25%" y1="100%" y2="0%"><stop offset="0%" stop-color="#339D94"/><stop offset="100%" stop-color="#3FC0B5"/></linearGradient><linearGradient id="b" x1=".221%" x2="99.779%" y1="100%" y2="0%"><stop offset="0%" stop-color="#339D94"/><stop offset="100%" stop-color="#3FC0B5"/></linearGradient><linearGradient id="c" x1="25.631%" x2="74.369%" y1="100%" y2="0%"><stop offset="0%" stop-color="#339D94"/><stop offset="100%" stop-color="#3FC0B5"/></linearGradient><linearGradient id="d" x1="23.339%" x2="76.661%" y1="100%" y2="0%"><stop offset="0%" stop-color="#339D94"/><stop offset="100%" stop-color="#3FC0B5"/></linearGradient></defs><g fill="none" fill-rule="evenodd"><path stroke="url(#a)" stroke-linecap="round" stroke-linejoin="round" stroke-width="2.08" d="M23.463 10.38h-6.798c-2.122 0-3.842 1.705-3.842 3.81h0c0 2.104 1.72 3.81 3.842 3.81h2.956c2.122 0 3.842 1.706 3.842 3.81h0c0 2.105-1.72 3.81-3.842 3.81h-6.798m5.32 1.173v1.173m0-19.932v1.173"/><path fill="url(#b)" fill-rule="nonzero" d="M18.143 0c8.771 0 16.091 6.177 17.777 14.388a3.12 3.12 0 0 0-1.959.408C32.465 7.496 25.953 2 18.143 2 9.226 2 2 9.165 2 18s7.226 16 16.143 16a16.16 16.16 0 0 0 14.282-8.536v3.637A18.164 18.164 0 0 1 18.143 36C8.125 36 0 27.943 0 18S8.125 0 18.143 0Z"/><path stroke="url(#c)" stroke-linecap="round" stroke-linejoin="round" stroke-width="2.08" d="M23.463 10.38h-6.798c-2.122 0-3.842 1.705-3.842 3.81h0c0 2.104 1.72 3.81 3.842 3.81h2.956c2.122 0 3.842 1.706 3.842 3.81h0c0 2.105-1.72 3.81-3.842 3.81h-6.798"/><path stroke="url(#d)" stroke-linecap="round" stroke-linejoin="round" stroke-width="2.08" d="M10.91 5.667 5.454 0 0 5.667m5.455 9.272V1.03" transform="translate(30.09 17.485)"/></g></svg>