<?xml version="1.0" encoding="UTF-8"?>
<svg width="247px" height="180px" viewBox="0 0 247 180" version="1.1" xmlns="http://www.w3.org/2000/svg" xmlns:xlink="http://www.w3.org/1999/xlink">
    <title>shopify-application</title>
    <defs>
        <linearGradient x1="50%" y1="0%" x2="50%" y2="100%" id="linearGradient-1">
            <stop stop-color="#02272B" offset="0%"></stop>
            <stop stop-color="#011113" offset="100%"></stop>
        </linearGradient>
        <linearGradient x1="50%" y1="0%" x2="50%" y2="100%" id="linearGradient-2">
            <stop stop-color="#05525C" offset="0%"></stop>
            <stop stop-color="#011113" offset="100%"></stop>
        </linearGradient>
        <linearGradient x1="-6.73072709e-13%" y1="100%" x2="100%" y2="1.09634524e-13%" id="linearGradient-3">
            <stop stop-color="#3FC0B5" offset="0%"></stop>
            <stop stop-color="#339D94" offset="100%"></stop>
        </linearGradient>
        <linearGradient x1="-26.2438635%" y1="43.4899144%" x2="108.549419%" y2="55.0003846%" id="linearGradient-4">
            <stop stop-color="#88CAB9" offset="0%"></stop>
            <stop stop-color="#2E7A6E" offset="51.9176136%"></stop>
            <stop stop-color="#2B7368" offset="100%"></stop>
        </linearGradient>
        <linearGradient x1="-26.2438635%" y1="43.4899144%" x2="108.549419%" y2="55.0003846%" id="linearGradient-5">
            <stop stop-color="#F4FBFA" offset="0%"></stop>
            <stop stop-color="#F4FBFA" offset="51.9176136%"></stop>
            <stop stop-color="#F4FBFA" offset="100%"></stop>
        </linearGradient>
        <linearGradient x1="-24.5801021%" y1="-24.2658799%" x2="108.549419%" y2="109.875843%" id="linearGradient-6">
            <stop stop-color="#88CAB9" offset="0%"></stop>
            <stop stop-color="#2E7A6E" offset="51.9176136%"></stop>
            <stop stop-color="#2B7368" offset="100%"></stop>
        </linearGradient>
    </defs>
    <g id="ICO" stroke="none" stroke-width="1" fill="none" fill-rule="evenodd">
        <g id="Desktop-Home-Default-Dark" transform="translate(-291, -3023)">
            <g id="shopify-application" transform="translate(291, 3023)">
                <rect id="Rectangle" stroke="url(#linearGradient-2)" fill="url(#linearGradient-1)" x="0.5" y="0.5" width="246" height="179" rx="20"></rect>
                <line x1="99.3909091" y1="89.5" x2="147.390909" y2="89.5" id="Line" stroke="#1D5752" stroke-linecap="square" stroke-dasharray="2,2"></line>
                <g id="your-logo" transform="translate(165, 65)">
                    <rect id="Rectangle" fill="url(#linearGradient-3)" x="0" y="0" width="50" height="50" rx="8"></rect>
                    <g id="logo/your/new-gradient" transform="translate(6.8909, 21.1748)" fill="url(#linearGradient-5)">
                        <path d="M28.012656,0.781432762 L28.012656,9.7625441 C28.012656,9.88569221 27.9131004,9.9856385 27.7904338,9.9856385 L25.620656,9.9856385 C25.4979893,9.9856385 25.3984338,9.88569221 25.3984338,9.7625441 L25.3984338,9.2086007 C24.8482116,9.81296344 23.8679893,10.2100715 22.818656,10.2100715 C20.4282116,10.2100715 18.8802116,8.36240364 18.8802116,5.84188308 L18.8802116,0.781432762 C18.8802116,0.658284652 18.9797671,0.55833836 19.1024338,0.55833836 L21.4615449,0.55833836 C21.5842116,0.55833836 21.6837671,0.658284652 21.6837671,0.781432762 L21.6837671,5.66920801 C21.6837671,6.82595249 22.4059893,7.43031522 23.4377671,7.43031522 C24.4697671,7.43031522 25.2093227,6.63609915 25.2093227,5.51371122 L25.2093227,0.781432762 C25.2093227,0.658284652 25.308656,0.55833836 25.4315449,0.55833836 L27.7904338,0.55833836 C27.9131004,0.55833836 28.012656,0.658284652 28.012656,0.781432762 M13.033056,0.109561661 C15.8192782,0.109561661 18.0721671,2.42305061 18.0721671,5.25456476 C18.0721671,8.086302 15.8192782,10.400014 13.033056,10.400014 C10.2641671,10.400014 8.011056,8.086302 8.011056,5.25456476 C8.011056,2.42305061 10.2641671,0.109561661 13.033056,0.109561661 Z M3.04938934,0 C3.12827822,0 3.20138934,0.0419417476 3.24116711,0.110208635 L4.19961156,1.75106796 L5.90272267,4.67895889 L5.90272267,9.78313572 C5.90272267,9.90628383 5.80316711,10.0062301 5.68050045,10.0062301 L3.25294489,10.0062301 C3.130056,10.0062301 3.03072267,9.90628383 3.03072267,9.78313572 L3.03072267,5.24941128 C3.03072267,5.20791572 3.01916711,5.16708944 2.99716711,5.13184053 L0.0338337803,0.340665152 C-0.0581662197,0.19208428 0.0482782247,0 0.222722669,0 Z M13.033056,2.78580211 C11.8119449,2.78580211 10.7972782,3.89078868 10.7972782,5.25456476 C10.7972782,6.61878703 11.8119449,7.7237736 13.033056,7.7237736 C14.2712782,7.7237736 15.2861671,6.61878703 15.2861671,5.25456476 C15.2861671,3.89078868 14.2712782,2.78580211 13.033056,2.78580211 Z M8.63970045,0.0334864697 C8.81370045,0.0334864697 8.92036711,0.225347655 8.82858934,0.374151622 L6.65903378,3.89078868 C6.57081156,4.03379219 6.36258934,4.03111506 6.27814489,3.8858806 L4.925256,1.55967527 C4.88481156,1.49006982 4.88481156,1.40395538 4.92547822,1.33457302 L5.62058934,0.143695104 C5.66036711,0.0754282173 5.73347822,0.0334864697 5.81236711,0.0334864697 L8.63970045,0.0334864697 Z M35.9735227,0.905986366 L35.1199671,3.18645734 C35.0746338,3.3078207 34.9375227,3.36270192 34.8201893,3.30938236 C34.5141893,3.16994836 34.1564116,3.11372857 33.8097449,3.11372857 C32.7604116,3.11372857 32.0381893,3.89076637 32.0381893,4.99575294 L32.0381893,9.76261103 C32.0381893,9.88575914 31.938856,9.98570543 31.8159671,9.98570543 L29.4744116,9.98570543 C29.3517449,9.98570543 29.2521893,9.88575914 29.2521893,9.76261103 L29.2521893,0.78149969 C29.2521893,0.658128486 29.3517449,0.558405288 29.4744116,0.558405288 L31.626856,0.558405288 C31.7495227,0.558405288 31.8490782,0.658128486 31.8490782,0.78149969 L31.8490782,1.24888246 C32.5026338,0.627341458 33.3797449,0.316794051 34.2739671,0.316794051 C34.9750782,0.316794051 35.5095227,0.472067755 35.8573004,0.623548854 C35.9653004,0.670621772 36.014856,0.795331543 35.9735227,0.905986366" id="Combined-Shape"></path>
                    </g>
                </g>
                <g id="shopify-logo" transform="translate(32, 65)">
                    <rect id="Rectangle" fill="url(#linearGradient-6)" x="0" y="0" width="50" height="50" rx="8"></rect>
                    <path d="M27.9293706,38 L35.8909091,36.2736368 C35.8909091,36.2736368 33.0190737,16.8216989 32.9954007,16.6928879 C32.9717276,16.5655575 32.8681581,16.4796836 32.7616294,16.4796836 C32.6551008,16.4796836 30.6325356,16.3301444 30.6325356,16.3301444 C30.6325356,16.3301444 29.2284286,14.9250683 29.0582786,14.7755292 C29.0183304,14.7325922 28.9739434,14.711864 28.931036,14.6896552 L27.9293706,38 Z M28.730002,15.0924022 C28.7064275,15.0924022 28.4102733,15.1781006 27.9446777,15.3218994 C27.4761352,13.9870391 26.6495556,12.7538547 25.1879388,12.7538547 L25.0612261,12.7538547 C24.6354123,12.2294972 24.1285613,12 23.6821199,12 C20.2697163,12 18.6342378,16.2006704 18.1273869,18.3315084 C16.8131105,18.7309497 15.8612915,19.022905 15.7507862,19.0650279 C15.0081906,19.2945251 14.9890364,19.3148603 14.9050523,20.006257 C14.8210683,20.5059218 12.8909091,35.241676 12.8909091,35.241676 L27.7973373,38 L28.813986,15.072067 C28.7904116,15.072067 28.7506296,15.0924022 28.730002,15.0924022 Z M25.2755245,16.4944862 C24.4434998,16.77433 23.5221701,17.0768202 22.6216783,17.3793103 C23.1366703,15.2392329 24.0981872,14.1894141 24.9331887,13.7931034 C25.1504975,14.3997014 25.2755245,15.2133514 25.2755245,16.3294915 L25.2755245,16.4944862 Z M23.5062937,13.0527845 C22.5197939,13.5796874 21.4322183,14.924515 20.9847895,17.6141701 C20.3533791,17.8437182 19.7194721,18.0642993 19.0832168,18.2758621 C19.6074633,16.2249234 20.8688892,12.8965517 23.0979475,12.8965517 C23.2327152,12.8965517 23.3688306,12.9394392 23.5062937,13.0527845 Z M22.2482271,23.9012731 C20.6368515,23.9012731 20.5726948,24.9010569 20.5726948,25.1569187 C20.5726948,26.5190503 24.1803858,27.0500006 24.1803858,30.2638028 C24.1803858,32.7957997 22.5690102,34.4137931 20.380225,34.4137931 C17.7602475,34.4137931 16.4293706,32.7957997 16.4293706,32.7957997 L17.1380775,30.4974801 C17.1380775,30.4974801 18.5137149,31.6688244 19.6700261,31.6688244 C19.9506397,31.6800742 20.2237977,31.5776901 20.4266978,31.3852115 C20.6295978,31.1927329 20.7447821,30.926721 20.7457685,30.648335 C20.7457685,28.8602601 17.7826278,28.7730008 17.7826278,25.838724 C17.7826278,23.3703228 19.5655851,20.9655172 23.1941643,20.9655172 C24.5906898,20.9655172 25.2755245,21.3677971 25.2755245,21.3677971 L24.2206702,24.3671487 C24.2206702,24.3671487 23.3194935,23.9012731 22.2482271,23.9012731 Z M27.0447552,16.0192006 C26.61575,16.1669279 26.1351977,16.3129572 25.6097495,16.4827586 L25.6097495,16.1652299 C25.6097495,15.2126437 25.4900271,14.4298589 25.2755245,13.7931034 C26.1368605,13.8949843 26.6889137,14.8934169 27.0447552,16.0192006 Z" id="Shape" fill="#F4FBFA" fill-rule="nonzero"></path>
                </g>
            </g>
        </g>
    </g>
</svg>