<svg xmlns="http://www.w3.org/2000/svg" xmlns:xlink="http://www.w3.org/1999/xlink" viewBox="0 0 443 307"><defs><linearGradient id="c" x1="173.367" x2="173.367" y1="174.327" y2="304.666" gradientTransform="scale(1.27 .78)" gradientUnits="userSpaceOnUse"><stop offset="0%" stop-color="#D9F2EF"/><stop offset="100%" stop-color="#F5FBFB" stop-opacity="0"/></linearGradient><linearGradient id="f" x1="132.391" x2="166.01" y1="362.68" y2="361.297" gradientTransform="scale(2.04 .5)" gradientUnits="userSpaceOnUse"><stop offset="0%" stop-color="#3FC0B5"/><stop offset="100%" stop-color="#339D94"/></linearGradient><linearGradient id="g" x1="0" x2="50" y1="50" y2="0" gradientUnits="userSpaceOnUse"><stop offset="0%" stop-color="#3FC0B5"/><stop offset="100%" stop-color="#339D94"/></linearGradient><linearGradient id="a" x1="-26.244%" x2="108.549%" y1="43.49%" y2="55%"><stop offset="0%" stop-color="#F4FBFA"/><stop offset="51.918%" stop-color="#F4FBFA"/><stop offset="100%" stop-color="#F4FBFA"/></linearGradient><linearGradient xlink:href="#a" id="h" x1="-5.077" x2="21" y1="8.414" y2="10.64" gradientTransform="scale(1.86 .54)" gradientUnits="userSpaceOnUse"/><radialGradient id="b" cx="173.367" cy="59.913" r="413.933" fx="173.367" fy="59.913" gradientTransform="scale(1.27 .78)" gradientUnits="userSpaceOnUse"><stop offset="0%" stop-color="#FFF"/><stop offset="100%" stop-color="#F4FBFA" stop-opacity="0"/></radialGradient><filter id="e" width="1.424" height="3.05" x="-.212" y="-.9" filterUnits="objectBoundingBox"><feMorphology in="SourceAlpha" operator="dilate" radius=".25" result="shadowSpreadOuter1"/><feOffset dy="4" in="shadowSpreadOuter1" result="shadowOffsetOuter1"/><feGaussianBlur in="shadowOffsetOuter1" result="shadowBlurOuter1" stdDeviation="6"/><feComposite in="shadowBlurOuter1" in2="SourceAlpha" operator="out" result="shadowBlurOuter1"/><feColorMatrix in="shadowBlurOuter1" values="0 0 0 0 0.156862745 0 0 0 0 0.478431373 0 0 0 0 0.450980392 0 0 0 0.2 0"/></filter><rect id="d" width="68" height="16" x="270" y="170" rx="8"/></defs><rect width="311" height="191" x="65.5" y="47.5" fill="url(#b)" fill-rule="evenodd" stroke="url(#c)" rx="16"/><rect width="159" height="128" x="173.5" y="74.5" fill="#fff" fill-rule="evenodd" stroke="#d9f2f0" rx="12"/><text fill="#287a73" fill-rule="evenodd" font-family="IBMPlexMono, 'IBM Plex Mono'" font-size="6"><tspan x="195" y="101">&lt;script async defer id=&quot;YOUR:sdk&quot;</tspan><tspan x="195" y="111">src=&quot;https://stream.your.io</tspan><tspan x="195" y="121">/sdk/embed/d06e0436-1ff0-43b-</tspan><tspan x="195" y="131">aada-493b0807bc33/nl.js&quot;</tspan><tspan x="195" y="141">itemID=&quot;Put here the id to match</tspan><tspan x="195" y="151">your product&quot;&gt;</tspan><tspan x="195" y="161">&lt;/script&gt;</tspan></text><g fill="none" fill-rule="evenodd"><use xlink:href="#d" width="100%" height="100%" fill="#000" filter="url(#e)"/><use xlink:href="#d" width="100%" height="100%" fill="#fff" stroke="url(#f)" stroke-width=".5"/></g><g fill="none" fill-rule="evenodd" stroke="#62cbc2" stroke-linecap="round" stroke-linejoin="round" stroke-width=".75" transform="translate(282 175)"><path d="M.845 5.069v0A.845.845 0 0 1 0 4.224V.966C0 .432.432 0 .966 0h3.258c.467 0 .845.378.845.845v0"/><rect width="5.069" height="5.069" x="1.931" y="1.931" rx="1"/></g><text fill="#1d5752" font-family="Manrope-Bold, Manrope" font-size="6" font-weight="bold"><tspan x="295" y="180">Copy code</tspan></text><text fill="#287a73" fill-rule="evenodd" font-family="IBMPlexMono-Medium, 'IBM Plex Mono'" font-size="6" font-weight="400"><tspan x="140.1" y="169">Your SDK</tspan></text><g fill="none" fill-rule="evenodd" transform="translate(129.11 105)"><rect width="50" height="50" fill="url(#g)" rx="8"/><path fill="url(#h)" d="M28.013.781v8.982c0 .123-.1.223-.223.223h-2.17a.223.223 0 0 1-.222-.223v-.554c-.55.604-1.53 1.001-2.58 1.001-2.39 0-3.938-1.848-3.938-4.368V.782c0-.124.1-.224.222-.224h2.36c.122 0 .222.1.222.223V5.67c0 1.157.722 1.761 1.754 1.761s1.771-.794 1.771-1.916V.78c0-.123.1-.223.223-.223h2.358c.123 0 .223.1.223.223M13.033.11c2.786 0 5.04 2.313 5.04 5.145 0 2.831-2.254 5.145-5.04 5.145-2.769 0-5.022-2.314-5.022-5.145 0-2.832 2.253-5.145 5.022-5.145zM3.05 0c.08 0 .152.042.192.11L4.2 1.751 5.903 4.68v5.104c0 .123-.1.223-.222.223H3.253a.223.223 0 0 1-.222-.223V5.25a.222.222 0 0 0-.034-.117L.034.34A.223.223 0 0 1 .223 0Zm9.984 2.786c-1.221 0-2.236 1.105-2.236 2.469 0 1.364 1.015 2.469 2.236 2.469 1.238 0 2.253-1.105 2.253-2.47 0-1.363-1.015-2.468-2.253-2.468zM8.64.033c.174 0 .28.192.189.341l-2.17 3.517a.222.222 0 0 1-.38-.005L4.924 1.56a.223.223 0 0 1 0-.225L5.621.144a.222.222 0 0 1 .191-.11Zm27.334.873-.854 2.28a.22.22 0 0 1-.3.123 2.468 2.468 0 0 0-1.01-.195c-1.05 0-1.772.777-1.772 1.882v4.767c0 .123-.1.223-.222.223h-2.342a.223.223 0 0 1-.222-.223V.78c0-.123.1-.223.222-.223h2.153c.123 0 .222.1.222.223v.468c.654-.622 1.53-.932 2.425-.932a3.97 3.97 0 0 1 1.583.307.222.222 0 0 1 .117.282" transform="translate(6.89 21.175)"/></g></svg>