<?xml version="1.0" encoding="UTF-8"?>
<svg width="89px" height="83px" viewBox="0 0 89 83" version="1.1" xmlns="http://www.w3.org/2000/svg" xmlns:xlink="http://www.w3.org/1999/xlink">
    <title>y-coin-right</title>
    <defs>
        <polygon id="path-1" points="0 0 76.6377894 0 76.6377894 54.0280609 0 54.0280609"></polygon>
        <linearGradient x1="-29.3512517%" y1="1.36071158%" x2="51.4337898%" y2="61.9706831%" id="linearGradient-3">
            <stop stop-color="#054A53" offset="0%"></stop>
            <stop stop-color="#022429" offset="100%"></stop>
        </linearGradient>
        <linearGradient x1="8.37820889%" y1="24.9430092%" x2="50%" y2="75.0569908%" id="linearGradient-4">
            <stop stop-color="#054A53" offset="0%"></stop>
            <stop stop-color="#022429" offset="100%"></stop>
        </linearGradient>
        <path d="M26.3835794,19.4277811 C26.6525193,19.5214834 26.8598517,19.586192 27.0615237,19.6651339 C30.010779,20.8188187 32.9602976,21.971581 35.9074467,23.1305374 C38.3921456,24.1077562 40.8782925,25.0811531 43.3523286,26.0848615 C43.7834486,26.2597461 44.1779727,26.5484968 44.5545938,26.8311851 C47.9102208,29.3490226 51.2576861,31.8777985 54.6081792,34.4023572 C56.2106289,35.6096803 57.8143951,36.8152902 59.417898,38.0214272 C60.1962834,38.6069677 60.2166876,38.6795837 59.6768333,39.4551646 C59.0099467,40.4135375 58.332134,41.3642666 57.6519518,42.3130188 C57.3411505,42.7464743 57.27046,42.7782356 56.8303885,42.4773603 C56.1382271,42.0039726 55.4717354,41.4926295 54.8005047,40.9891938 C51.3952496,38.4345871 47.9913108,35.8781354 44.5886885,33.3201022 C44.1708641,33.006048 43.7432985,32.7008236 43.3546981,32.3528995 C42.5119409,31.5985366 41.4577704,31.281583 40.438616,30.892277 C38.7370416,30.2422914 37.031123,29.603508 35.3246779,28.9660424 C33.4700065,28.2733571 31.6121757,27.5891063 29.7568461,26.8983978 C27.8782163,26.1991229 26.0005079,25.4974759 24.1239843,24.7930613 C23.9887904,24.7423224 23.854123,24.6755051 23.7382801,24.5902374 C23.1024605,24.1219894 23.0632318,23.9427558 23.5117282,23.3038406 C24.3640951,22.089269 25.2293627,20.8836591 26.0956834,19.6789718 C26.1700598,19.5756488 26.2915633,19.5063276 26.3835794,19.4277811" id="path-5"></path>
        <filter x="-8.1%" y="-8.6%" width="121.7%" height="134.4%" filterUnits="objectBoundingBox" id="filter-6">
            <feOffset dx="1" dy="2" in="SourceAlpha" result="shadowOffsetOuter1"></feOffset>
            <feGaussianBlur stdDeviation="1" in="shadowOffsetOuter1" result="shadowBlurOuter1"></feGaussianBlur>
            <feColorMatrix values="0 0 0 0 0.00784313725   0 0 0 0 0.141176471   0 0 0 0 0.160784314  0 0 0 1 0" type="matrix" in="shadowBlurOuter1"></feColorMatrix>
        </filter>
        <path d="M42.2319565,23.6461768 C41.7496287,23.7954943 41.3553679,23.5110926 40.9487329,23.3550539 C38.9058168,22.5711703 36.872642,21.7621149 34.8360445,20.961494 C34.2707838,20.739297 33.7081558,20.5103787 33.1403939,20.2950347 C32.5456458,20.0694112 32.2123342,19.5587271 31.8436114,19.0977276 C31.0770736,18.1392229 30.3146166,17.1758421 29.5920464,16.1842583 C29.1036632,15.5138453 29.0935269,15.6406268 29.5882288,14.9346307 C30.3423926,13.8585699 31.1051128,12.7883077 31.8612511,11.7135648 C32.3473965,11.0224609 32.5247151,10.8156833 33.2882252,11.6300103 C34.0082943,12.3979474 34.5931693,13.2938521 35.2293839,14.139545 C37.423554,17.0560455 39.6162761,19.9737321 41.802153,22.8964267 C41.9736794,23.1256085 42.0884692,23.3970948 42.2297186,23.6489444 C42.2297186,23.6489444 42.2319565,23.6461768 42.2319565,23.6461768" id="path-7"></path>
        <filter x="-23.1%" y="-15.9%" width="161.5%" height="163.6%" filterUnits="objectBoundingBox" id="filter-8">
            <feOffset dx="1" dy="2" in="SourceAlpha" result="shadowOffsetOuter1"></feOffset>
            <feGaussianBlur stdDeviation="1" in="shadowOffsetOuter1" result="shadowBlurOuter1"></feGaussianBlur>
            <feColorMatrix values="0 0 0 0 0.00784313725   0 0 0 0 0.141176471   0 0 0 0 0.160784314  0 0 0 1 0" type="matrix" in="shadowBlurOuter1"></feColorMatrix>
        </filter>
    </defs>
    <g id="ICO" stroke="none" stroke-width="1" fill="none" fill-rule="evenodd">
        <g id="Desktop-Home-Default-Dark" transform="translate(-369, -5139)">
            <g id="section-Tokenomics" transform="translate(353, 4185)">
                <g id="y-coin-right" transform="translate(21.4618, 967.2289)">
                    <g id="y-coin-right/light" transform="translate(0, 0)">
                        <g id="Group-3" transform="translate(0, 2.5877)">
                            <mask id="mask-2" fill="white">
                                <use xlink:href="#path-1"></use>
                            </mask>
                            <g id="Clip-2"></g>
                            <path d="M3.69137399,0 C1.9608388,5.12107439 5.97861337,15.2936383 15.3155523,24.2712674 C30.6831682,39.0476321 55.1077254,50.5529828 69.8691405,49.9691555 C72.6768832,49.8581888 74.9312127,49.3166659 76.6377894,48.4125903 C75.5200369,51.7203737 72.0773961,53.7777388 66.2844605,54.0067888 C51.5230454,54.5906161 27.0984882,43.0852654 11.7308723,28.3089007 C-0.713816146,16.3430777 -3.02224951,8.4345247 3.69137399,0" id="Fill-1" fill="#011113" mask="url(#mask-2)"></path>
                        </g>
                        <path d="M74.1202728,51.9677293 L73.6833607,54.6774522 C72.8391554,55.2143624 71.836456,55.6486086 70.6727613,55.9687252 L71.2371006,52.468002 C72.2861371,52.366656 73.2476333,52.198888 74.1202728,51.9677293" id="Fill-4" fill="#265A61"></path>
                        <path d="M66.3098406,52.4848711 L65.6438755,56.6155478 C64.7466195,56.629781 63.8152688,56.600392 62.8549573,56.5312025 L63.5569917,52.1774063 C64.4974256,52.313413 65.4166654,52.4172631 66.3098406,52.4848711" id="Fill-6" fill="#265A61"></path>
                        <path d="M58.7820652,51.2488969 L58.0331671,55.8940796 C57.145784,55.7285521 56.241946,55.5361395 55.3236276,55.317369 L56.0938514,50.5398697 C57.001507,50.7994949 57.8983681,51.0363206 58.7820652,51.2488969" id="Fill-8" fill="#265A61"></path>
                        <path d="M51.4123759,49.0323434 L50.6105586,54.0058136 C49.7321271,53.7285286 48.8454022,53.430948 47.9518321,53.1139944 L48.7697094,48.0414185 C49.6557761,48.389738 50.5371037,48.720266 51.4123759,49.0323434" id="Fill-10" fill="#265A61"></path>
                        <path d="M44.159938,46.0885756 L43.3162593,51.3212757 C42.4459894,50.957405 41.5725602,50.5773243 40.6975513,50.1815605 L41.5550521,44.862802 C42.4237423,45.2861097 43.2924326,45.6949206 44.159938,46.0885756" id="Fill-12" fill="#265A61"></path>
                        <path d="M37.0092971,42.5133915 L36.1278379,47.9804132 C35.2652031,47.5394457 34.403753,47.0851675 33.545199,46.6171831 L34.4402172,41.0656844 C35.2925841,41.5610809 36.1494268,42.0434303 37.0092971,42.5133915" id="Fill-14" fill="#265A61"></path>
                        <path d="M29.9584786,38.318876 L29.0385805,44.0243048 C28.1837125,43.5057133 27.3345049,42.975129 26.4926692,42.4332108 L27.4275742,36.6347386 C28.262433,37.207232 29.1066383,37.7687868 29.9584786,38.318876" id="Fill-16" fill="#265A61"></path>
                        <path d="M23.0178293,33.4411904 L22.0539636,39.4191597 C21.2073888,38.8129283 20.3721351,38.1957583 19.5499137,37.5685723 L20.5323406,31.4751554 C21.3456105,32.1404285 22.1745455,32.796081 23.0178293,33.4411904" id="Fill-18" fill="#265A61"></path>
                        <path d="M15.3195805,26.8630255 C15.6143218,27.1465046 15.9135387,27.4282704 16.214862,27.7092455 L15.1939963,34.0414649 C14.3570312,33.3213674 13.5396805,32.5915174 12.7444452,31.8527058 L13.7924286,25.3520594 C14.2843661,25.8527276 14.7927585,26.3564268 15.3195805,26.8630255" id="Fill-20" fill="#265A61"></path>
                        <path d="M9.62251809,20.6713068 L8.50621363,27.5948655 C7.65726936,26.6646955 6.87111721,25.747441 6.14709899,24.845474 L7.32698541,17.5273377 C8.00361335,18.550551 8.76857151,19.5998586 9.62251809,20.6713068" id="Fill-22" fill="#265A61"></path>
                        <path d="M0.189495314,13.8703123 L1.34358036,6.71164124 C1.97847852,5.89573277 2.81912949,5.20133416 3.86882427,4.64518269 C3.39531636,6.04663169 3.34015933,7.67291348 3.69993057,9.47935145 L2.17330524,18.9477644 C1.20693837,17.1429079 0.544527522,15.4408472 0.189495314,13.8703123" id="Fill-24" fill="#265A61"></path>
                        <g id="Group-28" transform="translate(1.3133, 0)" fill="url(#linearGradient-3)">
                            <path d="M11.2444308,27.1773565 C26.2370052,42.1869886 50.5449297,54.3548448 65.5375041,54.3548448 C80.5300785,54.3548448 80.5300785,42.1869886 65.5375041,27.1773565 C50.5449297,12.1677244 26.2370052,0 11.2444308,0 C-3.7481436,0 -3.7481436,12.1677244 11.2444308,27.1773565" id="Fill-26"></path>
                        </g>
                        <path d="M19.2287655,26.9786707 C30.518974,38.2817246 48.8895542,47.4774651 60.1797626,47.4774651 C71.4701028,47.4774651 71.4699711,38.2817246 60.1797626,26.9786707 C48.8895542,15.6756169 30.518974,6.47987632 19.2287655,6.47987632 C7.93855702,6.47987632 7.93855702,15.6756169 19.2287655,26.9786707 M50.7286921,46.0885361 C47.2183885,45.0439729 43.5093089,43.5485581 39.7042641,41.6438052 C35.8993509,39.7391841 32.1901397,37.5211676 28.6798361,35.0515652 C25.0455279,32.4945863 21.7846815,29.7784058 18.9881282,26.9786707 C16.1915749,24.1789357 14.0262339,21.4627551 12.5525277,18.9057763 C11.1289762,16.4361738 10.4071959,14.2181574 10.4071959,12.3134045 C10.4071959,10.4087834 11.1289762,8.91336848 12.5525277,7.86880532 C14.0262339,6.7873411 16.1915749,6.23896521 18.9881282,6.23896521 C21.7848131,6.23896521 25.0455279,6.7873411 28.6798361,7.86880532 C32.1901397,8.91336848 35.8993509,10.4087834 39.7042641,12.3134045 C43.5093089,14.2181574 47.2183885,16.4361738 50.7286921,18.9057763 C54.3631319,21.4627551 57.6238467,24.1789357 60.4204,26.9786707 C63.2170849,29.7784058 65.3822943,32.4945863 66.8561321,35.0515652 C68.2795519,37.5211676 69.0013323,39.7391841 69.0013323,41.6438052 C69.0013323,43.5485581 68.2795519,45.0439729 66.8561321,46.0885361 C65.3822943,47.1700003 63.2170849,47.7183762 60.4204,47.7183762 C57.6238467,47.7183762 54.3631319,47.1700003 50.7286921,46.0885361" id="Fill-31" fill="#265A61"></path>
                        <path d="M50.6006593,45.8665368 C47.131164,44.8340982 43.4651307,43.3560796 39.7043167,41.4734673 C35.9435028,39.5909868 32.2774695,37.3988011 28.8079742,34.957797 C25.2157907,32.4304707 21.9928565,29.7459197 19.2288182,26.9787366 C16.4646482,24.2114218 14.324582,21.5268707 12.8678574,18.9995444 C11.4608925,16.5585403 10.7475371,14.3663546 10.7475371,12.4838741 C10.7475371,10.6012618 11.4608925,9.12324318 12.8678574,8.09080464 C14.324582,7.02186043 16.4646482,6.47981042 19.2288182,6.47981042 C21.9928565,6.47981042 25.2157907,7.02186043 28.8079742,8.09080464 C32.2774695,9.12324318 35.9435028,10.6012618 39.7043167,12.4838741 C43.4651307,14.3663546 47.131164,16.5585403 50.6006593,18.9995444 C54.1928428,21.5268707 57.4156454,24.2114218 60.1798153,26.9787366 C62.9439852,29.7459197 65.0840515,32.4304707 66.5407761,34.957797 C67.947741,37.3988011 68.6610964,39.5909868 68.6610964,41.4734673 C68.6610964,43.3560796 67.947741,44.8340982 66.5407761,45.8665368 C65.0840515,46.935481 62.9439852,47.477531 60.1798153,47.477531 C57.4156454,47.477531 54.1928428,46.935481 50.6006593,45.8665368" id="Fill-33" fill="url(#linearGradient-4)"></path>
                        <path d="M16.4380175,26.9786707 C29.2670939,39.8223432 50.1414606,50.2714014 62.970537,50.2714014 C75.7996133,50.2714014 75.7996133,39.8223432 62.970537,26.9786707 C50.1414606,14.1349982 29.2670939,3.68594001 16.4380175,3.68594001 C3.60894122,3.68594001 3.60894122,14.1349982 16.4380175,26.9786707 M52.2313721,48.693091 C48.2425583,47.5061952 44.0278508,45.8069021 39.7042772,43.6426557 C35.3807037,41.4784094 31.1659962,38.9581998 27.177314,36.1518753 C23.0475141,33.2463133 19.3423837,30.160068 16.1646019,26.9786707 C12.9868201,23.7972734 10.5264746,20.7110281 8.85175462,17.8054662 C7.23429792,14.9991416 6.41418273,12.478932 6.41418273,10.3146857 C6.41418273,8.15043937 7.23429792,6.45114622 8.85175462,5.26425045 C10.5264746,4.03531384 12.9868201,3.41221333 16.1646019,3.41221333 C19.3423837,3.41221333 23.0475141,4.03531384 27.177314,5.26425045 C31.1659962,6.45114622 35.3807037,8.15043937 39.7042772,10.3146857 C44.0278508,12.478932 48.2425583,14.9991416 52.2313721,17.8054662 C56.3610404,20.7110281 60.0661708,23.7972734 63.2439526,26.9786707 C66.4217344,30.160068 68.8822115,33.2463133 70.5567999,36.1518753 C72.1742566,38.9581998 72.9945034,41.4784094 72.9945034,43.6426557 C72.9945034,45.8069021 72.1742566,47.5061952 70.5567999,48.693091 C68.8822115,49.9220276 66.4217344,50.5451281 63.2439526,50.5451281 C60.0661708,50.5451281 56.3610404,49.9220276 52.2313721,48.693091" id="Fill-35" fill="#265A61"></path>
                        <g id="Fill-37">
                            <use fill="black" fill-opacity="1" filter="url(#filter-6)" xlink:href="#path-5"></use>
                            <use fill="#265A61" fill-rule="evenodd" xlink:href="#path-5"></use>
                        </g>
                        <g id="Fill-39">
                            <use fill="black" fill-opacity="1" filter="url(#filter-8)" xlink:href="#path-7"></use>
                            <use fill="#265A61" fill-rule="evenodd" xlink:href="#path-7"></use>
                        </g>
                    </g>
                </g>
            </g>
        </g>
    </g>
</svg>