<svg xmlns="http://www.w3.org/2000/svg" width="142" height="146" xmlns:v="https://vecta.io/nano"><defs><linearGradient x1="100%" y1="50%" x2="0%" y2="50%" id="A"><stop stop-color="#cbd5e1" offset="0%"/><stop stop-color="#f1f5f9" offset="100%"/></linearGradient><linearGradient x1="50%" y1="0%" x2="50%" y2="100%" id="B"><stop stop-color="#edf3f3" offset="0%"/><stop stop-color="#a5b9bb" offset="100%"/></linearGradient><linearGradient x1="100%" y1="50%" x2="0%" y2="50%" id="C"><stop stop-color="#e5eeed" offset="0%"/><stop stop-color="#f1f5f9" offset="100%"/></linearGradient></defs><g transform="matrix(.766044 -.642788 .642788 .766044 .13562 55.443245)" fill-rule="evenodd"><path d="M48.205 1.938c1.249 1.241 1.951 2.924 1.951 4.679v12.496H36.833V6.617a6.58 6.58 0 0 1 .507-2.532c.335-.803.825-1.532 1.444-2.147S40.137.836 40.945.504A6.7 6.7 0 0 1 43.495 0c1.767 0 3.461.697 4.711 1.938z" fill="#e5eeed" fill-rule="nonzero"/><path d="M41.582 78.337c8.178 0 14.807 6.585 14.807 14.708v10.246c0 8.123-6.629 14.708-14.807 14.708h0c-8.178 0-14.807-6.585-14.807-14.708V93.045c0-8.123 6.629-14.708 14.807-14.708h0z" fill="url(#A)"/><path d="M81.11 81.87c-.973-1.673-1.485-3.571-1.485-5.503V45.824c0-4.212-.835-8.382-2.458-12.273s-4.001-7.426-6.999-10.404a32.3 32.3 0 0 0-10.474-6.952c-3.917-1.612-8.115-2.441-12.355-2.441h-8.791v1.204c-6.765 1.904-12.719 5.948-16.959 11.519s-6.535 12.364-6.535 19.348v30.543c0 1.932-.512 3.83-1.485 5.503l-3.405 5.855c-.973 1.673-1.485 3.571-1.485 5.503 0 2.917 1.167 5.715 3.243 7.778a11.11 11.11 0 0 0 7.83 3.222h55.174a11.14 11.14 0 0 0 4.238-.837 11.08 11.08 0 0 0 3.593-2.384c1.028-1.021 1.844-2.234 2.4-3.569S86 94.672 86 93.227h0c0-1.932-.512-3.83-1.485-5.503L81.11 81.87z" fill="url(#B)"/><path d="M70.946 46.35c0-8.506-3.401-16.663-9.456-22.677S47.223 14.28 38.661 14.28h0c-8.563 0-16.774 3.379-22.829 9.393S6.376 37.844 6.376 46.35v30.543c0 1.932-.512 3.83-1.485 5.503L1.485 88.25C.512 89.923 0 91.821 0 93.753h0c0 2.917 1.167 5.715 3.243 7.778a11.11 11.11 0 0 0 7.83 3.222h55.174a11.11 11.11 0 0 0 7.83-3.222c2.077-2.063 3.243-4.861 3.243-7.778h0c0-1.932-.512-3.83-1.485-5.503l-3.405-5.855c-.973-1.673-1.485-3.571-1.485-5.503V46.35z" fill="url(#C)" fill-rule="nonzero"/></g></svg>