<svg xmlns="http://www.w3.org/2000/svg" xmlns:xlink="http://www.w3.org/1999/xlink" width="92" height="48"><defs><rect id="A" width="76" height="32" rx="16"/><filter x="-16.4%" y="-35.9%" width="132.9%" height="178.1%" id="B"><feOffset dy="1" in="SourceAlpha"/><feGaussianBlur stdDeviation="4"/><feColorMatrix values="0 0 0 0 0   0 0 0 0 0   0 0 0 0 0  0 0 0 0.05 0"/></filter><linearGradient x1="-5%" y1="42.4382716%" x2="105%" y2="57.5617284%" id="C"><stop stop-color="#054a53" offset="0%"/><stop stop-color="#022429" offset="100%"/></linearGradient></defs><g transform="translate(8 7)" fill="none" fill-rule="evenodd"><use fill="#000" filter="url(#B)" xlink:href="#A"/><use fill="#fff" xlink:href="#A"/><rect fill="url(#C)" x="2" y="2" width="72" height="28" rx="14"/><g stroke-linejoin="round" stroke-width="1.5"><path d="M26 9v4m2-2h-4m9 9v4m2-2h-4M14.5 11.938l-1.286 3.857L10 17l3.214 1.205 1.286 3.857 1.286-3.857L19 17l-3.214-1.205-1.286-3.857zm27-6l-1.286 3.857L37 11l3.214 1.205 1.286 3.857 1.286-3.857L46 11l-3.214-1.205L41.5 5.938z" stroke="#265a61" stroke-linecap="round"/><path d="M60.876 5.794c.429.532.786 1.107 1.071 1.709a8.55 8.55 0 0 1 .815 3.658c0 2.375-.963 4.525-2.519 6.082s-3.707 2.519-6.082 2.519c-1.308 0-2.548-.292-3.658-.814-.602-.283-1.176-.639-1.708-1.066a10.1 10.1 0 0 0 .711 2.064c.82 1.742 2.124 3.213 3.738 4.237 1.563.992 3.418 1.567 5.406 1.567a10.07 10.07 0 0 0 7.142-2.958 10.07 10.07 0 0 0 2.958-7.142c0-1.989-.575-3.844-1.568-5.407a10.14 10.14 0 0 0-4.238-3.737c-.665-.313-1.359-.55-2.068-.711z" stroke="#56cdc0"/></g></g></svg>