<svg xmlns="http://www.w3.org/2000/svg" xmlns:xlink="http://www.w3.org/1999/xlink" width="92" height="48"><defs><rect id="A" width="76" height="32" rx="16"/><filter x="-16.4%" y="-35.9%" width="132.9%" height="178.1%" id="B"><feOffset dy="1" in="SourceAlpha"/><feGaussianBlur stdDeviation="4"/><feColorMatrix values="0 0 0 0 0   0 0 0 0 0   0 0 0 0 0  0 0 0 0.05 0"/></filter><linearGradient x1="112.754949%" y1="57.5617284%" x2="-45.849332%" y2="40.3927163%" id="C"><stop stop-color="#fff" offset="0%"/><stop stop-color="#c5d9d8" offset="100%"/></linearGradient></defs><g transform="translate(8 7)" fill="none" fill-rule="evenodd"><use fill="#000" filter="url(#B)" xlink:href="#A"/><use fill="#fff" xlink:href="#A"/><rect fill="url(#C)" x="2" y="2" width="72" height="28" rx="14"/><path d="M47 23a5 5 0 0 1-5-5c0-2.448 1.76-4.486 4.084-4.916C46.514 10.76 48.552 9 51 9s4.486 1.76 4.916 4.084C58.24 13.514 60 15.552 60 18a5 5 0 0 1-5 5h-8z" stroke="#c7e2de" stroke-linejoin="round" stroke-width="1.5"/><circle fill="#fff" cx="16" cy="16" r="10"/></g></svg>