<svg xmlns="http://www.w3.org/2000/svg" width="48" height="34"><path d="M11.429 34c-3.162 0-5.858-1.086-8.087-3.259S0 25.916 0 22.78c0-2.833.914-5.318 2.743-7.453s4.095-3.389 6.8-3.767c.724-3.4 2.438-6.177 5.143-8.33S20.495 0 24 0c4.152 0 7.667 1.426 10.544 4.277s4.313 6.338 4.313 10.456v1.133h.686c2.438.189 4.457 1.152 6.057 2.89a8.81 8.81 0 0 1 2.4 6.177c0 2.531-.876 4.675-2.629 6.431S41.467 34 38.914 34H26.4c-1.143 0-2.114-.397-2.914-1.19s-1.2-1.757-1.2-2.89V17.397l-3.029 3.06c-.305.302-.705.453-1.2.453s-.895-.151-1.2-.453c-.343-.34-.504-.746-.485-1.219s.18-.858.485-1.161l5.714-5.667c.19-.227.41-.378.658-.453s.504-.113.77-.113a2.64 2.64 0 0 1 .773.113c.247.076.466.227.656.453l5.714 5.667c.305.302.467.689.487 1.161s-.144.879-.487 1.219c-.305.302-.705.453-1.2.453s-.895-.17-1.2-.51l-3.029-3.003V29.92c0 .151.076.302.229.453s.305.227.457.227h12.457c1.6 0 2.952-.548 4.057-1.643s1.657-2.437 1.657-4.023-.552-2.928-1.657-4.023-2.457-1.643-4.057-1.643h-3.429v-4.533c0-3.136-1.114-5.809-3.342-8.019S27.162 3.4 24 3.4s-5.857 1.105-8.085 3.314-3.344 4.884-3.344 8.019h-1.2a7.67 7.67 0 0 0-5.6 2.323c-1.562 1.549-2.343 3.419-2.343 5.61s.781 4.061 2.343 5.61S9.219 30.6 11.429 30.6h4c.495 0 .905.16 1.23.481s.485.728.485 1.219-.162.898-.485 1.219-.734.481-1.23.481h-4z" fill="currentColor"/></svg>