<svg xmlns="http://www.w3.org/2000/svg" viewBox="0 0 31 31"><path d="M15.5.25c-4.723 0-8.545 3.59-9.096 8.17C2.939 8.963.25 11.888.25 15.5c0 2.188.868 3.575 1.77 4.326s1.857.914 1.857.914a.75.75 0 0 0 .246-1.48s-.544-.087-1.143-.586-1.23-1.361-1.23-3.174a5.74 5.74 0 0 1 5.318-5.734.75.75 0 0 0 .693-.705C7.99 4.981 11.359 1.75 15.5 1.75s7.51 3.231 7.738 7.311a.75.75 0 0 0 .693.705A5.74 5.74 0 0 1 29.25 15.5c0 1.813-.632 2.675-1.23 3.174s-1.143.586-1.143.586a.75.75 0 0 0 .246 1.48c0 0 .956-.163 1.857-.914s1.77-2.139 1.77-4.326c0-3.612-2.689-6.537-6.154-7.08C24.045 3.84 20.223.25 15.5.25z" fill="#9db6b8"/><path d="M15.455 16.25a.75.75 0 0 0-.512.248l-4.5 5a.75.75 0 0 0 .39 1.259.75.75 0 0 0 .723-.255l3.195-3.549-.002.047v11a.75.75 0 0 0 1.128.658.75.75 0 0 0 .372-.658V19l-.002-.047 3.195 3.549a.75.75 0 0 0 1.292-.259.75.75 0 0 0-.179-.745l-4.5-5a.75.75 0 0 0-.602-.248zm.045 1.871l.115.129a.75.75 0 0 0-.127-.01.75.75 0 0 0-.105.012z" fill="#56cdc0"/></svg>