<svg xmlns="http://www.w3.org/2000/svg" viewBox="0 0 16 16" stroke="currentColor" stroke-linejoin="round"><path d="M6.952 1.478a2 2 0 0 1 2.595 0l.621.529a2 2 0 0 0 1.139.472l.813.065a2 2 0 0 1 1.835 1.835l.065.814a2 2 0 0 0 .472 1.139l.529.621a2 2 0 0 1 0 2.595l-.529.621a2 2 0 0 0-.472 1.138l-.065.814a2 2 0 0 1-1.835 1.835l-.813.065a2 2 0 0 0-1.139.472l-.621.529a2 2 0 0 1-2.595 0l-.621-.529a2 2 0 0 0-1.139-.472l-.814-.065a2 2 0 0 1-1.835-1.835l-.065-.814a2 2 0 0 0-.472-1.138l-.529-.621a2 2 0 0 1 0-2.595l.529-.621a2 2 0 0 0 .472-1.139l.065-.814a2 2 0 0 1 1.835-1.835l.814-.065a2 2 0 0 0 1.139-.472l.621-.529z"/></svg>