<svg xmlns="http://www.w3.org/2000/svg" viewBox="0 0 16 16" fill="#339d94"><path d="M1.6 0C.72 0 0 .72 0 1.6v12.8c0 .88.72 1.6 1.6 1.6h12.8c.88 0 1.6-.72 1.6-1.6V1.6c0-.88-.72-1.6-1.6-1.6H1.6zm1.9 2.67h3.02c.1 0 .17.04.2.11l1.04 1.76 1.81 3.12v5.44c0 .13-.1.23-.24.23H6.74a.24.24 0 0 1-.24-.23V8.26a.24.24 0 0 0-.03-.12L3.3 3.02a.24.24 0 0 1 .2-.35zm5.98.03h3.01c.18 0 .29.18.22.33l-.01.03-2.32 3.76a.24.24 0 0 1-.38.02l-.03-.03-1.44-2.48a.24.24 0 0 1-.02-.2l.02-.04.74-1.27a.24.24 0 0 1 .16-.11h.05z"/></svg>