<svg xmlns="http://www.w3.org/2000/svg" xmlns:xlink="http://www.w3.org/1999/xlink" viewBox="0 0 1200 1200"><defs><linearGradient id="a" x1="-.26" x2="1.09" y1=".44" y2=".55"><stop offset=".49" stop-color="#2E7A6E"/><stop offset="1" stop-color="#88CAB9"/></linearGradient><linearGradient xlink:href="#a" id="b" x1="1401.77" x2="-402.95" y1="1037.49" y2="423.39" gradientUnits="userSpaceOnUse"/></defs><path d="M0 0h1200v1200H0z" style="opacity:1;vector-effect:none;fill:url(#b);fill-opacity:1;stroke:none;stroke-width:2.56401134;stroke-linecap:round;stroke-linejoin:round;stroke-miterlimit:4;stroke-dasharray:none;stroke-dashoffset:0;stroke-opacity:1;paint-order:stroke fill markers"/><g style="fill:#fff;fill-rule:evenodd;stroke:none;stroke-width:1"><g style="fill:#fff"><path d="M7.28 0c.2 0 .37.1.46.26l2.3 3.92 4.06 6.98v12.17c0 .29-.24.53-.53.53h-5.8a.53.53 0 0 1-.53-.53V12.52c0-.1-.03-.2-.08-.28L.08.8A.53.53 0 0 1 .53 0Zm13.36.08c.39 0 .63.4.49.73l-.04.08-5.18 8.39a.53.53 0 0 1-.86.06L15 9.26l-3.23-5.54a.53.53 0 0 1-.04-.45l.04-.09L13.43.34a.53.53 0 0 1 .36-.25l.1-.01z" style="fill:#fff;fill-opacity:1" transform="translate(245.05 200) scale(33.53)"/></g></g></svg>