<svg xmlns="http://www.w3.org/2000/svg" xmlns:xlink="http://www.w3.org/1999/xlink" viewBox="0 0 1200 1200"><defs><linearGradient id="a" x1="-.26" x2="1.09" y1=".44" y2=".55"><stop offset=".49" stop-color="#2E7A6E"/><stop offset="1" stop-color="#88CAB9"/></linearGradient><linearGradient xlink:href="#a" id="b" x1="1401.77" x2="-402.95" y1="1037.49" y2="423.39" gradientUnits="userSpaceOnUse"/></defs><path d="M0 0h1200v1200H0z" style="opacity:1;vector-effect:none;fill:url(#b);fill-opacity:1;stroke:none;stroke-width:2.56401134;stroke-linecap:round;stroke-linejoin:round;stroke-miterlimit:4;stroke-dasharray:none;stroke-dashoffset:0;stroke-opacity:1;paint-order:stroke fill markers"/><g style="fill:#fff;fill-rule:evenodd;stroke:none;stroke-width:1"><g style="fill:#fff"><path d="M66.92 1.86v21.42c0 .29-.24.53-.53.53H61.2a.53.53 0 0 1-.53-.53v-1.32c-1.31 1.44-3.65 2.38-6.16 2.38-5.7 0-9.4-4.4-9.4-10.41V1.86c0-.29.23-.53.52-.53h5.64c.3 0 .53.24.53.53v11.66c0 2.75 1.73 4.2 4.19 4.2 2.47 0 4.23-1.9 4.23-4.57V1.86c0-.29.24-.53.53-.53h5.64c.3 0 .53.24.53.53M31.13.26c6.66 0 12.04 5.52 12.04 12.27S37.8 24.8 31.13 24.8c-6.61 0-12-5.52-12-12.27S24.53.26 31.14.26zM7.28 0c.2 0 .37.1.46.26l2.3 3.92 4.06 6.98v12.17c0 .29-.24.53-.53.53h-5.8a.53.53 0 0 1-.53-.53V12.52c0-.1-.03-.2-.08-.28L.08.8A.53.53 0 0 1 .53 0Zm23.85 6.64c-2.91 0-5.34 2.64-5.34 5.89 0 3.25 2.43 5.89 5.34 5.89 2.96 0 5.39-2.64 5.39-5.9 0-3.24-2.43-5.88-5.39-5.88zM20.63.08c.4 0 .64.4.5.73l-.04.08-5.18 8.39a.53.53 0 0 1-.86.06L15 9.26l-3.23-5.54a.53.53 0 0 1-.04-.45l.04-.09L13.43.34a.53.53 0 0 1 .36-.25l.1-.01zm65.3 2.08L83.9 7.6a.53.53 0 0 1-.72.29 5.9 5.9 0 0 0-2.41-.47c-2.5 0-4.23 1.86-4.23 4.5v11.36c0 .29-.24.53-.54.53h-5.59a.53.53 0 0 1-.53-.53V1.86c0-.3.24-.53.53-.53h5.14c.3 0 .53.24.53.53v1.12a8.37 8.37 0 0 1 5.8-2.22 9.5 9.5 0 0 1 3.78.73c.26.1.38.4.28.67" style="fill:#fff;fill-opacity:1" transform="matrix(12.8 0 0 12.8 50 455.79)"/></g></g></svg>