<svg xmlns="http://www.w3.org/2000/svg" xmlns:xlink="http://www.w3.org/1999/xlink" viewBox="0 0 1200 1200"><defs><linearGradient id="a" x1="-.26" x2="1.09" y1=".44" y2=".55"><stop offset="0%" stop-color="#88CAB9"/><stop offset="51.92%" stop-color="#2E7A6E"/><stop offset="100%" stop-color="#2B7368"/></linearGradient><linearGradient xlink:href="#a" id="d" x1="-3.39" x2="28.12" y1="10.2" y2="27.13" gradientTransform="matrix(4.88 0 0 1.4 15.24 -18.86)" gradientUnits="userSpaceOnUse"/><linearGradient xlink:href="#a" id="c" x1="-12.12" x2="50.12" y1="20.09" y2="25.39" gradientTransform="scale(1.86 .54)" gradientUnits="userSpaceOnUse"/><linearGradient xlink:href="#a" id="b" x1="73.81" x2="136.05" y1="81.54" y2="86.83" gradientTransform="scale(1.86 .54)" gradientUnits="userSpaceOnUse"/></defs><g style="fill:none;fill-rule:evenodd;stroke:none;stroke-width:1"><g style="fill:url(#b)"><g style="fill:url(#c)" transform="matrix(12.8 0 0 12.8 -1997.2 19.13)"><path d="M34.33-18.86c.5 0 .96.26 1.2.68l6 10.26 10.67 18.3v31.89c0 .77-.62 1.39-1.4 1.39H35.6a1.4 1.4 0 0 1-1.38-1.4V13.95c0-.26-.07-.52-.21-.74L15.46-16.74a1.4 1.4 0 0 1 1.18-2.12zm35 .2a1.4 1.4 0 0 1 1.3 1.93l-.11.2L56.93 5.45a1.4 1.4 0 0 1-2.23.18l-.15-.21-8.47-14.54a1.4 1.4 0 0 1-.1-1.18l.1-.22 4.35-7.45c.21-.35.56-.6.96-.66l.24-.02z" style="fill:url(#d);fill-opacity:1;stroke-width:2.62076044" transform="translate(160 33)"/></g></g></g></svg>