<?xml version="1.0" encoding="UTF-8" standalone="no"?>
<svg
   xmlns:dc="http://purl.org/dc/elements/1.1/"
   xmlns:cc="http://creativecommons.org/ns#"
   xmlns:rdf="http://www.w3.org/1999/02/22-rdf-syntax-ns#"
   xmlns:svg="http://www.w3.org/2000/svg"
   xmlns="http://www.w3.org/2000/svg"
   xmlns:xlink="http://www.w3.org/1999/xlink"
   xmlns:sodipodi="http://sodipodi.sourceforge.net/DTD/sodipodi-0.dtd"
   xmlns:inkscape="http://www.inkscape.org/namespaces/inkscape"
   width="1200"
   height="1200"
   viewBox="0 0 1200 1200"
   version="1.1"
   id="svg17"
   sodipodi:docname="your--squared.svg"
   inkscape:export-filename="/media/data/Web/Projects/Your/assets/logos/your--initial-neg-squared.png"
   inkscape:export-xdpi="96"
   inkscape:export-ydpi="96"
   inkscape:version="0.92.5 (2060ec1f9f, 2020-04-08)">
  <metadata
     id="metadata21">
    <rdf:RDF>
      <cc:Work
         rdf:about="">
        <dc:format>image/svg+xml</dc:format>
        <dc:type
           rdf:resource="http://purl.org/dc/dcmitype/StillImage" />
        <dc:title>logo/your/new-gradient</dc:title>
      </cc:Work>
    </rdf:RDF>
  </metadata>
  <sodipodi:namedview
     pagecolor="#ffffff"
     bordercolor="#666666"
     borderopacity="1"
     objecttolerance="10"
     gridtolerance="10"
     guidetolerance="10"
     inkscape:pageopacity="0"
     inkscape:pageshadow="2"
     inkscape:window-width="1920"
     inkscape:window-height="1025"
     id="namedview19"
     showgrid="false"
     inkscape:zoom="0.25"
     inkscape:cx="-145.18375"
     inkscape:cy="232.87743"
     inkscape:window-x="0"
     inkscape:window-y="0"
     inkscape:window-maximized="1"
     inkscape:current-layer="svg17" />
  <title
     id="title2">logo/your/new-gradient</title>
  <defs
     id="defs11">
    <linearGradient
       id="linearGradient888"
       y2="0.54981023"
       x2="1.0854942"
       y1="0.43515122"
       x1="-0.26243865">
      <stop
         stop-color="#2E7A6E"
         offset="0.48715776"
         id="stop884" />
      <stop
         stop-color="#88CAB9"
         offset="1"
         id="stop882" />
    </linearGradient>
    <linearGradient
       id="linearGradient860"
       y2="0.54981023"
       x2="1.0854942"
       y1="0.43515122"
       x1="-0.26243865">
      <stop
         stop-color="#2B7368"
         offset="-99"
         id="stop858" />
      <stop
         stop-color="#2E7A6E"
         offset="0.44366443"
         id="stop856" />
      <stop
         stop-color="#88CAB9"
         offset="1"
         id="stop854" />
    </linearGradient>
    <linearGradient
       x1="-0.26243865"
       y1="0.43515122"
       x2="1.0854942"
       y2="0.54981023"
       id="linearGradient-1">
      <stop
         stop-color="#88CAB9"
         offset="0%"
         id="stop4" />
      <stop
         stop-color="#2E7A6E"
         offset="51.9176136%"
         id="stop6" />
      <stop
         stop-color="#2B7368"
         offset="100%"
         id="stop8" />
    </linearGradient>
    <linearGradient
       inkscape:collect="always"
       xlink:href="#linearGradient-1"
       id="linearGradient831"
       x1="-12.117167"
       y1="20.091433"
       x2="50.118443"
       y2="25.38537"
       gradientTransform="scale(1.8620155,0.53705246)"
       gradientUnits="userSpaceOnUse" />
    <linearGradient
       inkscape:collect="always"
       xlink:href="#linearGradient-1"
       id="linearGradient833"
       x1="-12.117167"
       y1="20.091433"
       x2="50.118443"
       y2="25.38537"
       gradientTransform="scale(1.8620155,0.53705246)"
       gradientUnits="userSpaceOnUse" />
    <linearGradient
       inkscape:collect="always"
       xlink:href="#linearGradient-1"
       id="linearGradient835"
       x1="73.811226"
       y1="81.537941"
       x2="136.04684"
       y2="86.831886"
       gradientTransform="scale(1.8620155,0.53705246)"
       gradientUnits="userSpaceOnUse" />
  </defs>
  <g
     id="Symbols"
     style="fill:none;fill-rule:evenodd;stroke:none;stroke-width:1"
     transform="matrix(12.794953,0,0,12.794953,50.001709,441.36606)"
     inkscape:export-xdpi="95.969383"
     inkscape:export-ydpi="95.969383">
    <g
       id="section-nav/dark"
       transform="translate(-160,-33)"
       style="fill:url(#linearGradient835)">
      <g
         id="logo/your/new-gradient"
         transform="translate(160,33)"
         style="fill:url(#linearGradient833)">
        <path
           d="M 66.918989,1.8631383 V 23.276436 c 0,0.293617 -0.237827,0.531915 -0.530864,0.531915 h -5.183358 c -0.293037,0 -0.530865,-0.238298 -0.530865,-0.531915 v -1.320745 c -1.314419,1.440958 -3.656061,2.387766 -6.162802,2.387766 -5.710506,0 -9.408506,-4.405319 -9.408506,-10.414893 V 1.8631383 c 0,-0.293617 0.237827,-0.5319149 0.530864,-0.5319149 h 5.635654 c 0.293037,0 0.530864,0.2382979 0.530864,0.5319149 V 13.516862 c 0,2.757978 1.725309,4.198936 4.190112,4.198936 2.465333,0 4.232049,-1.893617 4.232049,-4.569681 V 1.8631383 c 0,-0.293617 0.237296,-0.5319149 0.530864,-0.5319149 h 5.635124 c 0.293037,0 0.530864,0.2382979 0.530864,0.5319149 m -35.7846,-1.6019149 c 6.655975,0 12.037876,5.5159574 12.037876,12.2670216 0,6.751595 -5.381901,12.268085 -12.037876,12.268085 -6.614568,0 -11.997,-5.51649 -11.997,-12.268085 0,-6.7510642 5.382432,-12.2670216 11.997,-12.2670216 z M 7.2845185,0 c 0.1884568,0 0.3631111,0.1 0.4581358,0.26276596 v 0 L 10.032272,4.175 l 4.068543,6.980851 v 12.169681 c 0,0.293617 -0.237827,0.531915 -0.530864,0.531915 v 0 H 7.7707901 c -0.2935679,0 -0.5308642,-0.238298 -0.5308642,-0.531915 v 0 -10.809575 c 0,-0.09894 -0.027605,-0.196276 -0.08016,-0.280319 v 0 L 0.08069136,0.81223404 C -0.13908642,0.45797872 0.11519753,0 0.53192593,0 V 0 Z M 31.134389,6.6420745 c -2.917099,0 -5.341025,2.6345744 -5.341025,5.8861705 0,3.252659 2.423926,5.887234 5.341025,5.887234 2.957975,0 5.382432,-2.634575 5.382432,-5.887234 0,-3.2515961 -2.424457,-5.8861705 -5.382432,-5.8861705 z M 20.639151,0.07984043 c 0.385976,0 0.633258,0.39443117 0.491074,0.734841 l -0.03984,0.077393 -5.182827,8.38457447 c -0.19319,0.3125444 -0.62726,0.3332263 -0.853646,0.067782 L 14.997657,9.2649468 11.765756,3.7186702 C 11.685241,3.5803723 11.671822,3.41474 11.725806,3.2676384 l 0.04048,-0.08567 1.660544,-2.83936172 c 0.07919,-0.1356383 0.213673,-0.22768912 0.365362,-0.254605 l 0.09277,-0.008161 z m 65.297464,2.08026597 -2.03905,5.437234 c -0.108296,0.2893617 -0.435839,0.4202128 -0.716135,0.2930851 -0.731,-0.3324468 -1.585692,-0.4664893 -2.41384,-0.4664893 -2.506741,0 -4.232049,1.8526595 -4.232049,4.4872338 v 11.365426 c 0,0.293617 -0.237297,0.531915 -0.530864,0.531915 h -5.593716 c -0.293037,0 -0.530865,-0.238298 -0.530865,-0.531915 V 1.8632979 c 0,-0.294149 0.237828,-0.5319149 0.530865,-0.5319149 h 5.14195 c 0.293037,0 0.530864,0.2377659 0.530864,0.5319149 v 1.1143617 c 1.561272,-1.4819149 3.656593,-2.22234045 5.79279,-2.22234045 1.674877,0 2.951605,0.37021275 3.782408,0.73138295 0.258,0.1122341 0.376383,0.4095745 0.277642,0.6734043"
           id="Combined-Shape"
           inkscape:connector-curvature="0"
           style="fill:url(#linearGradient831);fill-opacity:1" />
      </g>
    </g>
  </g>
</svg>
