<?xml version="1.0" encoding="UTF-8"?>
<svg width="16px" height="16px" viewBox="0 0 16 16" version="1.1" xmlns="http://www.w3.org/2000/svg" xmlns:xlink="http://www.w3.org/1999/xlink">
    <title>icons/interface/settings/grey/200</title>
    <g id="Desktop" stroke="none" stroke-width="1" fill="none" fill-rule="evenodd" stroke-linecap="round" stroke-linejoin="round">
        <g id="~wiki/community--public-profile" transform="translate(-44.000000, -602.000000)" stroke="#9DB6B8">
            <g id="sidebar" transform="translate(0.000000, 101.000000)">
                <g id="item" transform="translate(40.000000, 497.000000)">
                    <g id="icons/interface/settings/grey/200" transform="translate(5.000000, 5.000000)">
                        <g id="badge-2" transform="translate(0.000000, 0.000000)">
                            <path d="M5.9523125,0.4779525 C6.7001125,-0.1593175 7.7999125,-0.1593175 8.5477125,0.4779525 L9.1688125,1.0072825 C9.4893125,1.2803625 9.8877125,1.4454025 10.3074125,1.4788925 L11.1209125,1.5438125 C12.1003125,1.6219625 12.8780125,2.3996725 12.9562125,3.3790625 L13.0211125,4.1925725 C13.0546125,4.6122625 13.2196125,5.0106925 13.4927125,5.3311825 L14.0220125,5.9522825 C14.6593125,6.7000825 14.6593125,7.7998825 14.0220125,8.5476825 L13.4927125,9.1688825 C13.2196125,9.4892825 13.0546125,9.8877825 13.0211125,10.3073825 L12.9562125,11.1208825 C12.8780125,12.1002825 12.1003125,12.8780825 11.1209125,12.9561825 L10.3074125,13.0210825 C9.8877125,13.0545825 9.4893125,13.2196825 9.1688125,13.4926825 L8.5477125,14.0220825 C7.7999125,14.6592825 6.7001125,14.6592825 5.9523125,14.0220825 L5.3311125,13.4926825 C5.0106925,13.2196825 4.6122625,13.0545825 4.1925725,13.0210825 L3.3790625,12.9561825 C2.3996825,12.8780825 1.6219625,12.1002825 1.5438025,11.1209825 L1.4788925,10.3073825 C1.4454025,9.8877825 1.2803625,9.4892825 1.0072825,9.1688825 L0.4779525,8.5476825 C-0.1593175,7.7998825 -0.1593175,6.7000825 0.4779525,5.9522825 L1.0072825,5.3311825 C1.2803625,5.0106925 1.4453925,4.6122625 1.4788925,4.1925725 L1.5438025,3.3790625 C1.6219625,2.3996825 2.3996725,1.6219625 3.3790625,1.5438125 L4.1925725,1.4788925 C4.6122625,1.4454025 5.0106925,1.2803625 5.3311125,1.0072825 L5.9523125,0.4779525 Z" id="Path"></path>
                        </g>
                    </g>
                </g>
            </g>
        </g>
    </g>
</svg>