<?xml version="1.0" encoding="UTF-8"?>
<svg width="20px" height="20px" viewBox="0 0 20 20" version="1.1" xmlns="http://www.w3.org/2000/svg" xmlns:xlink="http://www.w3.org/1999/xlink">
    <title>api</title>
    <g id="api" stroke="none" stroke-width="1" fill="none" fill-rule="evenodd">
        <path d="M4.59950389,9.89700823 L3.93766914,9.23263289 L3.93766914,9.23263289 L4.59950389,9.89700823 Z M6.06610108,8.43750748 L6.72793582,7.77313214 C6.36194939,7.40895695 5.77026527,7.40895695 5.40427884,7.77313214 L6.06610108,8.43750748 Z M11.6150673,13.9595103 L12.276927,14.6238857 C12.4537732,14.4478856 12.5530771,14.2088855 12.5530771,13.9595103 C12.5530771,13.7101352 12.4537732,13.4710101 12.276927,13.295135 L11.6150673,13.9595103 Z M10.1485201,15.4188861 L9.48666036,14.7545107 L9.48666036,14.7545107 L10.1485201,15.4188861 Z M0.276178901,18.3981376 C-0.0909331469,18.7635128 -0.0922213471,19.3570131 0.273302337,19.7240133 C0.638813515,20.0908885 1.23273635,20.0921385 1.5998484,19.7268883 L0.276178901,18.3981376 Z M6.92265417,9.28413292 C6.55554212,9.6495081 6.55425392,10.2430084 6.91976509,10.6100086 C7.28528878,10.9768838 7.87916159,10.9781338 8.24636118,10.6128836 L6.92265417,9.28413292 Z M11.0208693,7.85188218 C11.3879438,7.48654449 11.3891945,6.89294418 11.0237459,6.52603149 C10.6581721,6.1591313 10.0642243,6.1578313 9.69714977,6.52315649 L11.0208693,7.85188218 Z M9.43488221,11.7841342 C9.06780769,12.1495094 9.06655701,12.7430097 9.43200565,13.1100099 C9.79757936,13.4768851 10.3914021,13.4781351 10.7586017,13.1128849 L9.43488221,11.7841342 Z M13.4813317,10.4033835 C13.8484062,10.0380083 13.8496569,9.444508 13.4842083,9.07750781 C13.1186346,8.71063262 12.5248118,8.70938262 12.1576122,9.07463281 L13.4813317,10.4033835 Z M17.9127404,2.0811292 L18.5746002,1.41677886 L17.9127404,2.0811292 Z M17.9127404,7.60300705 L17.2508807,6.93870671 L17.2508807,6.93870671 L17.9127404,7.60300705 Z M16.4461933,9.0625078 L15.7843335,9.72688314 C16.1502824,10.0910083 16.7419791,10.0910083 17.107928,9.72688314 L16.4461933,9.0625078 Z M10.8971771,3.54054245 L10.2353173,2.87616711 C10.0584712,3.0520922 9.9591672,3.29117982 9.9591672,3.54052995 C9.9591672,3.78988008 10.0584712,4.0289552 10.2353173,4.20489279 L10.8971771,3.54054245 Z M12.3637242,2.0811292 L13.025584,2.74550454 L13.025584,2.74547954 L12.3637242,2.0811292 Z M5.26133864,14.7545107 C4.0972684,13.5961351 4.0972684,11.7197592 5.26133864,10.5612586 L3.93766914,9.23263289 C2.03712358,11.1238839 2.03712358,14.1920104 3.93766914,16.0832614 L5.26133864,14.7545107 Z M5.26133864,10.5612586 L6.72793582,9.10188282 L5.40427884,7.77313214 L3.93766914,9.23263289 L5.26133864,10.5612586 Z M9.48666036,14.7545107 C8.32027636,15.9151363 6.42766011,15.9151363 5.26133864,14.7545107 L3.93766914,16.0832614 C5.83596348,17.9722624 8.91197298,17.9722624 10.8102548,16.0832614 L9.48666036,14.7545107 Z M10.9533326,13.295135 L9.48666036,14.7545107 L10.8102548,16.0832614 L12.276927,14.6238857 L10.9533326,13.295135 Z M3.93766914,14.7545107 L0.276178901,18.3981376 L1.5998484,19.7268883 L5.26133864,16.0832614 L3.93766914,14.7545107 Z M5.40427884,9.10188282 L10.9533326,14.6238857 L12.276927,13.295135 L6.72793582,7.77313214 L5.40427884,9.10188282 Z M8.24636118,10.6128836 L11.0208693,7.85188218 L9.69714977,6.52315649 L6.92265417,9.28413292 L8.24636118,10.6128836 Z M10.7586017,13.1128849 L13.4813317,10.4033835 L12.1576122,9.07463281 L9.43488221,11.7841342 L10.7586017,13.1128849 Z M17.2508807,2.74547954 C18.4150135,3.90388014 18.4150135,5.78030611 17.2508807,6.93870671 L18.5746002,8.26738239 C20.4751333,6.37611892 20.4751333,3.30805483 18.5746002,1.41677886 L17.2508807,2.74547954 Z M17.2508807,6.93870671 L15.7843335,8.39813246 L17.107928,9.72688314 L18.5746002,8.26738239 L17.2508807,6.93870671 Z M13.025584,2.74547954 C14.191968,1.58484144 16.0846218,1.58484144 17.2508807,2.74547954 L18.5746002,1.41677886 C16.6763184,-0.472259619 13.6002714,-0.472259619 11.7019895,1.41677886 L13.025584,2.74547954 Z M11.5589118,4.20491779 L13.025584,2.74550454 L11.7019895,1.41675386 L10.2353173,2.87616711 L11.5589118,4.20491779 Z M17.107928,8.39813246 L11.5589118,2.87619211 L10.2353173,4.20489279 L15.7843335,9.72688314 L17.107928,8.39813246 Z" id="Shape" fill="#9DB6B8" fill-rule="nonzero"></path>
    </g>
</svg>