<?xml version="1.0" encoding="UTF-8"?>
<svg width="20px" height="20px" viewBox="0 0 20 20" version="1.1" xmlns="http://www.w3.org/2000/svg" xmlns:xlink="http://www.w3.org/1999/xlink">
    <title>distribution-dapps</title>
    <g id="distribution-dapps" stroke="none" stroke-width="1" fill="none" fill-rule="evenodd" stroke-linecap="round" stroke-linejoin="round">
        <path d="M2.24137931,7.79655172 L2.24137931,14.0344828 M2.24137931,14.0344828 L1,14.0344828 M2.24137931,14.0344828 L3.48275862,14.0344828 M17.7586207,14.0344828 L17.7586207,7.79655172 M17.7586207,14.0344828 L19,14.0344828 M17.7586207,14.0344828 L16.5172414,14.0344828 M3.48275862,14.0344828 L3.48275862,19 L16.5172414,19 L16.5172414,14.0344828 M3.48275862,14.0344828 L16.5172414,14.0344828 M1,5.03448276 L2.55172414,1 L17.4482759,1 L19,5.03448276 L19,6.27586207 C19,7.13241379 18.3048276,7.82758621 17.4482759,7.82758621 C16.5917241,7.82758621 15.5862069,7.13241379 15.5862069,6.27586207 C15.5862069,7.13241379 14.5806897,7.82758621 13.7241379,7.82758621 C12.8675862,7.82758621 11.862069,7.13241379 11.862069,6.27586207 C11.862069,7.13241379 10.8565517,7.82758621 10,7.82758621 C9.14344828,7.82758621 8.13793103,7.13241379 8.13793103,6.27586207 C8.13793103,7.13241379 7.13241379,7.82758621 6.27586207,7.82758621 C5.41931034,7.82758621 4.4137931,7.13241379 4.4137931,6.27586207 C4.4137931,7.13241379 3.40827586,7.82758621 2.55172414,7.82758621 C1.69517241,7.82758621 1,7.13241379 1,6.27586207 L1,5.03448276 Z" id="Shape" stroke="#9DB6B8" stroke-width="2.06896552"></path>
    </g>
</svg>