<?xml version="1.0" encoding="UTF-8"?>
<svg width="20px" height="20px" viewBox="0 0 20 20" version="1.1" xmlns="http://www.w3.org/2000/svg" xmlns:xlink="http://www.w3.org/1999/xlink">
    <title>creator-dapps</title>
    <g id="creator-dapps" stroke="none" stroke-width="1" fill="none" fill-rule="evenodd" stroke-linecap="round" stroke-linejoin="round">
        <g transform="translate(1.000000, 1.000000)" stroke="#9DB6B8" stroke-width="2.06896552">
            <path d="M3.10344828,0 L3.10344828,18 M9.31034483,0 L1.24137931,0 C0.555790345,0 0,0.555777931 0,1.24137931 L0,16.7586207 C0,17.4442345 0.555790345,18 1.24137931,18 L10.5517241,18 M12.4137931,14.2758621 L12.4137931,2.48275862 C12.4137931,1.11156828 13.5253241,0 14.8965517,0 L15.5172414,0 C16.888469,0 18,1.11156828 18,2.48275862 L18,14.2758621 L15.2068966,18 L12.4137931,14.2758621 Z" id="Shape"></path>
            <path d="M12.4137931,14.2758621 L12.4137931,2.48275862 C12.4137931,1.11156828 13.5253241,0 14.8965517,0 L15.5172414,0 C16.888469,0 18,1.11156828 18,2.48275862 L18,14.2758621 L15.2068966,18 L12.4137931,14.2758621 Z" id="Path"></path>
        </g>
    </g>
</svg>