<?xml version="1.0" encoding="UTF-8"?>
<svg width="20.5px" height="16.75px" viewBox="0 0 20.5 16.75" version="1.1" xmlns="http://www.w3.org/2000/svg" xmlns:xlink="http://www.w3.org/1999/xlink">
    <title>gauge</title>
    <g id="Symbols" stroke="none" stroke-width="1" fill="none" fill-rule="evenodd">
        <g id="icons/interface/overview/grey/200" transform="translate(-2.250000, -3.250000)">
            <g id="gauge" transform="translate(3.000000, 4.000000)">
                <path d="M15.7241379,13.7142857 L16.3793103,13.7142857 C17.8267172,13.7142857 19,12.5447837 19,11.1020408 L19,2.6122449 C19,1.16954122 17.8267172,0 16.3793103,0 L2.62068966,0 C1.17332207,0 0,1.16954122 0,2.6122449 L0,11.1020408 C0,12.5447837 1.17332207,13.7142857 2.62068966,13.7142857 L3.27586207,13.7142857" id="Path" stroke="#9DB6B8" stroke-width="1.5" stroke-linecap="round" stroke-linejoin="round"></path>
                <path d="M9.5,16 C10.9474069,16 12.1206897,14.830498 12.1206897,13.3877551 L10.1551724,13.3877551 C10.1551724,13.7483755 9.86178621,14.0408163 9.5,14.0408163 L9.5,16 Z M12.1206897,13.3877551 C12.1206897,11.9450122 10.9474069,10.7755102 9.5,10.7755102 L9.5,12.7346939 C9.86178621,12.7346939 10.1551724,13.0271347 10.1551724,13.3877551 L12.1206897,13.3877551 Z M8.84482759,13.3877551 C8.84482759,13.0271347 9.13821379,12.7346939 9.5,12.7346939 L9.5,10.7755102 C8.0525931,10.7755102 6.87931034,11.9450122 6.87931034,13.3877551 L8.84482759,13.3877551 Z M9.5,14.0408163 C9.13821379,14.0408163 8.84482759,13.7483755 8.84482759,13.3877551 L6.87931034,13.3877551 C6.87931034,14.830498 8.0525931,16 9.5,16 L9.5,14.0408163 Z" id="Shape" fill="#9DB6B8"></path>
                <line x1="8.18965517" y1="11.0816327" x2="5.24137931" y2="5.53061224" id="Path" stroke="#9DB6B8" stroke-width="1.5" stroke-linecap="round" stroke-linejoin="round"></line>
                <line x1="9.5" y1="3.91836735" x2="9.5" y2="4.57142857" id="Path" stroke="#9DB6B8" stroke-width="1.5" stroke-linecap="round" stroke-linejoin="round"></line>
                <line x1="14.25" y1="5.18700408" x2="13.9224138" y2="5.7525551" id="Path" stroke="#9DB6B8" stroke-width="1.5" stroke-linecap="round" stroke-linejoin="round"></line>
            </g>
        </g>
    </g>
</svg>