<?xml version="1.0" encoding="UTF-8"?>
<svg width="20px" height="20px" viewBox="0 0 20 20" version="1.1" xmlns="http://www.w3.org/2000/svg" xmlns:xlink="http://www.w3.org/1999/xlink">
    <title>learning-hub</title>
    <g id="learning-hub" stroke="none" stroke-width="1" fill="none" fill-rule="evenodd">
        <path d="M9.99862509,1.87677706e-05 C10.6247492,-0.000400010035 11.2506118,0.00618978463 11.8737943,0.0197659817 C12.6645186,0.0350326719 13.4297369,0.309966095 14.059947,0.806283179 C15.7794582,2.16954599 16.8714094,3.33882207 18.246775,5.26312141 C18.6986309,5.89905839 18.9501775,6.66194462 18.9675112,7.44600096 C19.0412207,10.3639391 18.9894931,13.2837992 18.8124796,16.1970458 C18.6926855,18.1391941 17.1911881,19.688362 15.305184,19.8188291 C13.5709517,19.9432137 11.9449519,20 9.99928011,20 C8.0536083,20 6.4276085,19.9432137 4.69463657,19.8189186 C2.80456251,19.6859269 1.30366247,18.1385796 1.1861122,16.1975631 C1.06258067,14.1815469 1.00000917,12.1082208 1.00000917,10.0004652 C0.999132245,7.9331989 1.06117781,5.86644848 1.18613736,3.80208922 C1.30587475,1.86086749 2.80737215,0.311699574 4.6933762,0.181232529 C6.42777887,0.0568356565 8.05376608,1.87677706e-05 9.99862509,1.87677706e-05 Z M9.99928011,1.97182553 C8.09779262,1.97182553 6.51633044,2.02710529 4.82458905,2.14843936 C3.89715512,2.21259741 3.15972298,2.97344202 3.100987,3.92567819 C2.9785831,5.9478283 2.91777199,7.97345877 2.91862257,10.0000308 C2.91862257,12.0671684 2.97995607,14.0991722 3.10098518,16.0743534 C3.15867239,17.0268955 3.89521133,17.7862276 4.82694811,17.8517884 C6.51615579,17.9729438 8.09763097,18.0281751 9.99928011,18.0281751 C11.9009293,18.0281751 13.4824044,17.9729438 15.1739712,17.8516222 C16.1014051,17.7874642 16.8388372,17.0266196 16.897644,16.0732251 C17.0710798,13.2188528 17.1217785,10.3570719 17.0494597,7.49398926 C17.0409544,7.10937961 16.9180605,6.73666899 16.6988982,6.42821584 C15.4282498,4.65043431 14.4607065,3.61437589 12.8905052,2.36948243 C12.5878695,2.13114714 12.2189614,1.99860303 11.8354495,1.99119563 C11.2239506,1.97787677 10.6120763,1.97143426 9.99928011,1.97182553 Z M12.7679435,13.403964 C13.2977564,13.403964 13.7272546,13.845372 13.7272546,14.3898764 C13.7272546,14.9343808 13.2977564,15.3757889 12.7679435,15.3757889 L7.21307508,15.3757889 C6.68326216,15.3757889 6.25376393,14.9343808 6.25376393,14.3898764 C6.25376393,13.845372 6.68326216,13.403964 7.21307508,13.403964 L12.7679435,13.403964 Z M12.7854851,9.03815583 C13.3152981,9.03815583 13.7447963,9.47956387 13.7447963,10.0240683 C13.7447963,10.5685727 13.3152981,11.0099807 12.7854851,11.0099807 L7.21307508,11.0099807 C6.68326216,11.0099807 6.25376393,10.5685727 6.25376393,10.0240683 C6.25376393,9.47956387 6.68326216,9.03815583 7.21307508,9.03815583 L12.7854851,9.03815583 Z M10.5752323,4.50708997 C11.1050452,4.50708997 11.5345434,4.94849801 11.5345434,5.49300242 C11.5345434,6.03750684 11.1050452,6.47891488 10.5752323,6.47891488 L7.21307508,6.47891488 C6.68326216,6.47891488 6.25376393,6.03750684 6.25376393,5.49300242 C6.25376393,4.94849801 6.68326216,4.50708997 7.21307508,4.50708997 L10.5752323,4.50708997 Z" id="Combined-Shape" fill="#9DB6B8" fill-rule="nonzero"></path>
    </g>
</svg>