<?xml version="1.0" encoding="UTF-8"?>
<svg width="20px" height="20px" viewBox="0 0 20 20" version="1.1" xmlns="http://www.w3.org/2000/svg" xmlns:xlink="http://www.w3.org/1999/xlink">
    <title>nodes</title>
    <g id="nodes" stroke="none" stroke-width="1" fill="none" fill-rule="evenodd">
        <path d="M20,15.1648181 C20,15.1648181 20,15.0848051 20,15.0390835 L20,4.95744169 C19.9996571,4.82627762 19.9682286,4.69704529 19.9085714,4.58023783 C19.824457,4.39872276 19.6786284,4.25292776 19.4971426,4.16874272 L10.3542802,0.0766523958 C10.2429659,0.0261413703 10.1221658,0 10,0 C9.87782279,0 9.75702272,0.0261413703 9.64570837,0.0766523958 L0.50285743,4.16874272 C0.355817346,4.24275469 0.231474418,4.35510428 0.14297151,4.49392673 C0.054457174,4.63273775 0.00506286004,4.79288936 0,4.95744169 L0,15.0390835 C0.00854857631,15.2027671 0.0593600339,15.3615356 0.147485799,15.4997294 C0.235611563,15.6379232 0.358057347,15.75097 0.50285743,15.8277824 L9.64570837,19.9198728 C9.756337,19.9726813 9.87736564,20 10,20 C10.1226229,20 10.2436516,19.9726813 10.3542802,19.9198728 L19.4971426,15.8277824 C19.6291426,15.7673155 19.7441141,15.6751863 19.8318856,15.5595105 C19.9196571,15.4438346 19.9773714,15.3082699 20,15.1648181 Z M1.71428669,6.27193998 L9.14285094,9.60963402 L9.14285094,17.8166755 L1.71428669,14.4904233 L1.71428669,6.27193998 Z M10.8571376,9.60963402 L18.2857133,6.27193998 L18.2857133,14.4904233 L10.8571376,17.8166755 L10.8571376,9.60963402 Z M10.0228514,1.79121538 L17.074284,4.95744169 L10.0228514,8.11224901 L2.97143027,4.95744169 L10.0228514,1.79121538 Z" id="Shape" fill="#9DB6B8" fill-rule="nonzero"></path>
    </g>
</svg>