<?xml version="1.0" encoding="UTF-8"?>
<svg width="16px" height="17px" viewBox="0 0 16 17" version="1.1" xmlns="http://www.w3.org/2000/svg" xmlns:xlink="http://www.w3.org/1999/xlink">
    <title>place</title>
    <g id="ðŸ—„ï¸-Archive" stroke="none" stroke-width="1" fill="none" fill-rule="evenodd" stroke-linecap="round" stroke-linejoin="round">
        <g id="~wiki/community--activity-tab" transform="translate(-380.000000, -463.000000)" stroke="#9DB6B8">
            <g id="Group-3" transform="translate(280.000000, 272.000000)">
                <g id="pin-on-map" transform="translate(101.000000, 192.000000)">
                    <path d="M7.55215906,4.25 C7.55215906,4.52614237 7.32830143,4.75 7.05215906,4.75 C6.77601668,4.75 6.55215906,4.52614237 6.55215906,4.25 C6.55215906,3.97385763 6.77601668,3.75 7.05215906,3.75 C7.32830143,3.75 7.55215906,3.97385763 7.55215906,4.25 Z" id="Path"></path>
                    <path d="M0.802159057,9 L0.016159057,13.321 C-0.0369270004,13.6127803 0.0422369648,13.9130717 0.232267444,14.1407607 C0.422297923,14.3684496 0.703588926,14.5 1.00015906,14.5 L13.1041591,14.5 C13.4007292,14.5 13.6820202,14.3684496 13.8720507,14.1407607 C14.0620811,13.9130717 14.1412451,13.6127803 14.0881591,13.321 L13.3021591,9 M11.3021591,4.2 C11.3021591,7.25 7.05215906,10.5 7.05215906,10.5 C7.05215906,10.5 2.80215906,7.25 2.80215906,4.2 C2.80215906,1.88 4.70515906,0 7.05215906,0 C9.39915906,0 11.3021591,1.88 11.3021591,4.2 Z" id="Shape" stroke-width="1.5"></path>
                </g>
            </g>
        </g>
    </g>
</svg>