<svg xmlns="http://www.w3.org/2000/svg" fill="currentColor" viewBox="0 0 20 20"><path d="m12.591 19.936 5.919-1.324S16.374 3.685 16.357 3.587c-.018-.097-.095-.164-.174-.164-.078 0-1.582-.114-1.582-.114s-1.045-1.078-1.17-1.193a.322.322 0 0 0-.096-.067zm.595-17.577a9.37 9.37 0 0 0-.584.176c-.348-1.024-.962-1.97-2.05-1.97h-.094c-.317-.403-.694-.579-1.025-.579-2.537 0-3.753 3.223-4.13 4.858a94.475 94.475 0 0 0-1.767.563c-.552.176-.566.192-.629.722C2.845 6.513 1.41 17.82 1.41 17.82l11.083 2.116.756-17.593c-.018 0-.048.016-.063.016zm-2.569 1.075c-.617.215-1.303.447-1.973.68.383-1.643 1.098-2.448 1.72-2.752.161.465.253 1.09.253 1.946ZM9.303.794c-.734.404-1.542 1.436-1.876 3.5-.469.176-.94.345-1.413.508C6.404 3.227 7.342.674 8.999.674a.456.456 0 0 1 .304.12zm-.936 8.324c-1.198 0-1.246.767-1.246.964 0 1.045 2.682 1.452 2.682 3.918 0 1.943-1.197 3.184-2.825 3.184-1.948 0-2.937-1.24-2.937-1.24l.527-1.765s1.022.899 1.882.899c.209.01.412-.07.563-.218a.795.795 0 0 0 .238-.565c0-1.372-2.204-1.44-2.204-3.69 0-1.894 1.326-3.74 4.023-3.74 1.038 0 1.548.309 1.548.309l-.784 2.302s-.67-.358-1.467-.358zm3.566-6.048c-.32.114-.676.226-1.067.356v-.244c0-.732-.089-1.331-.249-1.82.64.078 1.051.844 1.316 1.708z"/></svg>