<svg xmlns="http://www.w3.org/2000/svg" fill="currentColor" viewBox="0 0 20 20"><path d="M15.568 7.73v4.614c0 .063-.056.114-.124.114h-1.206c-.068 0-.123-.05-.123-.114v-.285c-.306.31-.85.515-1.434.515-1.328 0-2.189-.95-2.189-2.244v-2.6c0-.063.056-.114.124-.114h1.311c.068 0 .124.05.124.114v2.511c0 .594.4.905.974.905s.985-.408.985-.985v-2.43c0-.064.055-.115.123-.115h1.311c.068 0 .124.05.124.114m-8.325-.345c1.548 0 2.8 1.188 2.8 2.643 0 1.455-1.252 2.643-2.8 2.643-1.539 0-2.79-1.188-2.79-2.643 0-1.455 1.251-2.643 2.79-2.643zm-5.548-.056c.044 0 .084.021.106.056l.533.843.946 1.504v2.622c0 .064-.055.115-.123.115h-1.35c-.068 0-.123-.051-.123-.115v-2.329a.108.108 0 0 0-.018-.06L.019 7.504c-.051-.077.008-.175.105-.175Zm5.548 1.43C6.564 8.76 6 9.328 6 10.029c0 .7.564 1.268 1.243 1.268.688 0 1.252-.567 1.252-1.268 0-.7-.564-1.268-1.252-1.268zM4.801 7.347c.097 0 .156.098.105.175L3.701 9.327a.129.129 0 0 1-.212-.002L2.737 8.13a.107.107 0 0 1 0-.116l.387-.611a.126.126 0 0 1 .106-.057zm15.19.448-.473 1.172c-.026.062-.102.09-.167.063a1.47 1.47 0 0 0-.562-.1c-.583 0-.984.398-.984.966v2.449c0 .063-.055.114-.124.114h-1.3c-.069 0-.124-.05-.124-.114V7.73c0-.063.055-.114.123-.114h1.196c.068 0 .124.05.124.114v.24c.363-.319.85-.479 1.347-.479.39 0 .687.08.88.158.06.024.088.088.065.145"/></svg>