<?xml version="1.0" encoding="UTF-8"?>
<svg width="15.991303px" height="15.9999917px" viewBox="0 0 15.991303 15.9999917" version="1.1" xmlns="http://www.w3.org/2000/svg" xmlns:xlink="http://www.w3.org/1999/xlink">
    <title>plug-in</title>
    <g id="Symbols" stroke="none" stroke-width="1" fill="none" fill-rule="evenodd">
        <g id="icons/interface/api/grey/200" transform="translate(-4.000000, -4.000000)" fill="#9DB6B8" fill-rule="nonzero">
            <g id="plug-in" transform="translate(4.000000, 4.000000)">
                <path d="M3.67760302,7.9176025 L3.14842302,7.3861025 L3.14842302,7.3861025 L3.67760302,7.9176025 Z M4.85024302,6.7500025 L5.37942302,6.2185025 C5.08679302,5.9271625 4.61370302,5.9271625 4.32107302,6.2185025 L4.85024302,6.7500025 Z M9.28700302,11.1676025 L9.81620302,11.6991025 C9.95760302,11.5583025 10.037003,11.3671025 10.037003,11.1676025 C10.037003,10.9681025 9.95760302,10.7768025 9.81620302,10.6361025 L9.28700302,11.1676025 Z M8.11440302,12.3351025 L7.58520302,11.8036025 L7.58520302,11.8036025 L8.11440302,12.3351025 Z M0.220823025,14.7185025 C-0.0727069753,15.0108025 -0.0737369753,15.4856025 0.218523025,15.7792025 C0.510773025,16.0727025 0.985653025,16.0737025 1.27918302,15.7815025 L0.220823025,14.7185025 Z M5.53511302,7.4273025 C5.24158302,7.7196025 5.24055302,8.1944025 5.53280302,8.4880025 C5.82506302,8.7815025 6.29990302,8.7825025 6.59350302,8.4903025 L5.53511302,7.4273025 Z M8.81190302,6.2815025 C9.10540302,5.9892325 9.10640302,5.5143525 8.81420302,5.2208225 C8.52190302,4.9273025 8.04700302,4.9262625 7.75350302,5.2185225 L8.81190302,6.2815025 Z M7.54380302,9.4273025 C7.25030302,9.7196025 7.24930302,10.1944025 7.54150302,10.4880025 C7.83380302,10.7815025 8.30860302,10.7825025 8.60220302,10.4903025 L7.54380302,9.4273025 Z M10.779203,8.3227025 C11.072703,8.0304025 11.073703,7.5556025 10.781503,7.2620025 C10.489203,6.9685025 10.014403,6.9675025 9.72080302,7.2597025 L10.779203,8.3227025 Z M14.322403,1.6649025 L14.851603,1.1334225 L14.322403,1.6649025 Z M14.322403,6.0824025 L13.793203,5.5509625 L13.793203,5.5509625 L14.322403,6.0824025 Z M13.149803,7.2500025 L12.620603,7.7815025 C12.913203,8.0728025 13.386303,8.0728025 13.678903,7.7815025 L13.149803,7.2500025 Z M8.71300302,2.8324325 L8.18380302,2.3009325 C8.04240302,2.4416725 7.96300302,2.6329425 7.96300302,2.8324225 C7.96300302,3.0319025 8.04240302,3.2231625 8.18380302,3.3639125 L8.71300302,2.8324325 Z M9.88560302,1.6649025 L10.414803,2.1964025 L10.414803,2.1963825 L9.88560302,1.6649025 Z M4.20678302,11.8036025 C3.27603302,10.8769025 3.27603302,9.3758025 4.20678302,8.4490025 L3.14842302,7.3861025 C1.62881302,8.8991025 1.62881302,11.3536025 3.14842302,12.8666025 L4.20678302,11.8036025 Z M4.20678302,8.4490025 L5.37942302,7.2815025 L4.32107302,6.2185025 L3.14842302,7.3861025 L4.20678302,8.4490025 Z M7.58520302,11.8036025 C6.65260302,12.7321025 5.13933302,12.7321025 4.20678302,11.8036025 L3.14842302,12.8666025 C4.66623302,14.3778025 7.12570302,14.3778025 8.64350302,12.8666025 L7.58520302,11.8036025 Z M8.75790302,10.6361025 L7.58520302,11.8036025 L8.64350302,12.8666025 L9.81620302,11.6991025 L8.75790302,10.6361025 Z M3.14842302,11.8036025 L0.220823025,14.7185025 L1.27918302,15.7815025 L4.20678302,12.8666025 L3.14842302,11.8036025 Z M4.32107302,7.2815025 L8.75790302,11.6991025 L9.81620302,10.6361025 L5.37942302,6.2185025 L4.32107302,7.2815025 Z M6.59350302,8.4903025 L8.81190302,6.2815025 L7.75350302,5.2185225 L5.53511302,7.4273025 L6.59350302,8.4903025 Z M8.60220302,10.4903025 L10.779203,8.3227025 L9.72080302,7.2597025 L7.54380302,9.4273025 L8.60220302,10.4903025 Z M13.793203,2.1963825 C14.724003,3.1231025 14.724003,4.6242425 13.793203,5.5509625 L14.851603,6.6139025 C16.371203,5.1008925 16.371203,2.6464425 14.851603,1.1334225 L13.793203,2.1963825 Z M13.793203,5.5509625 L12.620603,6.7185025 L13.678903,7.7815025 L14.851603,6.6139025 L13.793203,5.5509625 Z M10.414803,2.1963825 C11.347403,1.2678725 12.860703,1.2678725 13.793203,2.1963825 L14.851603,1.1334225 C13.333803,-0.3778075 10.874303,-0.3778075 9.35650302,1.1334225 L10.414803,2.1963825 Z M9.24210302,3.3639325 L10.414803,2.1964025 L9.35650302,1.1334025 L8.18380302,2.3009325 L9.24210302,3.3639325 Z M13.678903,6.7185025 L9.24210302,2.3009525 L8.18380302,3.3639125 L12.620603,7.7815025 L13.678903,6.7185025 Z" id="Shape"></path>
            </g>
        </g>
    </g>
</svg>