<?xml version="1.0" encoding="UTF-8"?>
<svg width="16px" height="16px" viewBox="0 0 16 16" version="1.1" xmlns="http://www.w3.org/2000/svg" xmlns:xlink="http://www.w3.org/1999/xlink">
    <title>subscription</title>
    <g id="Symbols" stroke="none" stroke-width="1" fill="none" fill-rule="evenodd" stroke-linecap="round" stroke-linejoin="round">
        <g id="icons/interface/subscription/grey/200" transform="translate(-4.250000, -4.250000)" stroke="#9DB6B8" stroke-width="1.5">
            <g id="subscription" transform="translate(5.000000, 5.000000)">
                <path d="M8,14.5 L12.5,14.5 C13.6046,14.5 14.5,13.6046 14.5,12.5 L14.5,5 C14.5,3.89543 13.6046,3 12.5,3 L2,3 C0.89543,3 0,3.89543 0,5 L0,5.5" id="Path"></path>
                <path d="M12.5,2.5 L12.5,2 C12.5,0.89543 11.6046,0 10.5,0 L4,0 C2.89543,0 2,0.89543 2,2 L2,2.5" id="Path"></path>
                <path d="M4.5,7.75 L3.25,7.75 C1.45507,7.75 0,9.2051 0,11 C0,12.7949 1.45507,14.25 3.25,14.25 C3.89759,14.25 4.49326,14.0764 5,13.75" id="Path"></path>
                <polyline id="Path" points="3.25 10 5.25 8 3.25 6"></polyline>
            </g>
        </g>
    </g>
</svg>