<?xml version="1.0" encoding="UTF-8"?>
<svg width="20px" height="20px" viewBox="0 0 20 20" version="1.1" xmlns="http://www.w3.org/2000/svg" xmlns:xlink="http://www.w3.org/1999/xlink">
    <title>distribution-dapps</title>
    <g id="distribution-dapps" stroke="none" stroke-width="1" fill="none" fill-rule="evenodd" stroke-linecap="round" stroke-linejoin="round">
        <path d="M3.45454545,13.5454545 C4.35828414,13.5454545 5.09090909,12.8128296 5.09090909,11.9090909 C5.09090909,11.0053522 4.35828414,10.2727273 3.45454545,10.2727273 C2.55080677,10.2727273 1.81818182,11.0053522 1.81818182,11.9090909 C1.81818182,12.8128296 2.55080677,13.5454545 3.45454545,13.5454545 Z M10,11.3636364 C11.2049849,11.3636364 12.1818182,10.3868031 12.1818182,9.18181818 C12.1818182,7.97683327 11.2049849,7 10,7 C8.79501509,7 7.81818182,7.97683327 7.81818182,9.18181818 C7.81818182,10.3868031 8.79501509,11.3636364 10,11.3636364 Z M16.5454545,13.5454545 C17.4491932,13.5454545 18.1818182,12.8128296 18.1818182,11.9090909 C18.1818182,11.0053522 17.4491932,10.2727273 16.5454545,10.2727273 C15.6417159,10.2727273 14.9090909,11.0053522 14.9090909,11.9090909 C14.9090909,12.8128296 15.6417159,13.5454545 16.5454545,13.5454545 Z M3.45454545,16.8181818 C1,16.8181818 1,19 1,19 M14.3636364,19 C14.3636364,19 13.9272727,15.7272727 10,15.7272727 C6.07270982,15.7272727 5.63636364,19 5.63636364,19 M19,19 C19,19 19,16.8181818 16.5454545,16.8181818" id="Combined-Shape" stroke="#9DB6B8" stroke-width="1.63636364"></path>
    </g>
</svg>