<svg xmlns="http://www.w3.org/2000/svg" width="32" height="32"><defs><linearGradient x1="-24.5801021%" y1="-24.2658799%" x2="108.549419%" y2="109.875843%" id="A"><stop stop-color="#88cab9" offset="0%"/><stop stop-color="#2e7a6e" offset="51.9176136%"/><stop stop-color="#2b7368" offset="100%"/></linearGradient></defs><g fill-rule="evenodd"><path fill="url(#A)" d="M0 0h32v32H0z"/><path d="M13.195 6.992a.46.46 0 0 1 .399.228h0l1.992 3.395 3.54 6.059v10.562a.46.46 0 0 1-.462.462h0-5.046a.46.46 0 0 1-.462-.462h0v-9.382a.46.46 0 0 0-.07-.243h0L6.927 7.697a.46.46 0 0 1 .393-.705h0zm11.619.069c.362 0 .583.397.393.705h0l-4.509 7.277c-.183.296-.616.29-.792-.01h0l-2.812-4.814a.46.46 0 0 1 0-.466h0l1.445-2.464a.46.46 0 0 1 .399-.228h0z" fill="#fff"/></g></svg>