<?xml version="1.0" standalone="no"?>
<!DOCTYPE svg PUBLIC "-//W3C//DTD SVG 20010904//EN"
 "http://www.w3.org/TR/2001/REC-SVG-20010904/DTD/svg10.dtd">
<svg version="1.0" xmlns="http://www.w3.org/2000/svg"
 width="700.000000pt" height="700.000000pt" viewBox="0 0 700.000000 700.000000"
 preserveAspectRatio="xMidYMid meet">
<metadata>
Created by potrace 1.14, written by Peter Selinger 2001-2017
</metadata>
<g transform="translate(0.000000,700.000000) scale(0.100000,-0.100000)"
fill="#000000" stroke="none">
<path d="M0 3500 l0 -3500 3500 0 3500 0 0 3500 0 3500 -3500 0 -3500 0 0
-3500z m2949 1943 c17 -16 113 -170 214 -343 101 -173 371 -636 601 -1028
l416 -712 0 -1176 c0 -787 -3 -1182 -10 -1195 -27 -49 -29 -49 -640 -49 -620
0 -613 -1 -638 55 -9 20 -12 282 -12 1071 0 876 -2 1049 -14 1072 -8 15 -316
513 -685 1107 -370 593 -674 1089 -677 1102 -9 34 4 72 33 99 l26 24 678 0
679 0 29 -27z m2521 -1 c45 -22 66 -64 54 -108 -5 -18 -234 -396 -509 -839
-379 -612 -507 -810 -529 -822 -36 -19 -86 -10 -113 20 -12 12 -161 262 -332
555 -261 447 -311 538 -310 570 0 29 34 94 168 322 141 241 172 288 202 302
31 17 85 18 684 18 599 0 653 -1 685 -18z"/>
</g>
</svg>
