<svg xmlns="http://www.w3.org/2000/svg" viewBox="0 0 25 16" fill="#000"><path d="M23.63 0H1.37C.61 0 0 .61 0 1.36v8.88h25V1.36C25 .61 24.39 0 23.63 0ZM8.59 6.24c0 .36-.3.65-.65.65H3.08a.65.65 0 0 1-.65-.65V3.97c0-.36.29-.65.65-.65h4.86c.36 0 .65.3.65.65v2.27Zm8.45 1.01a2.64 2.64 0 0 1-4.05-2.22 2.63 2.63 0 0 1 4.12-2.17 3.67 3.67 0 0 0-.07 4.4Zm3.04.48a2.63 2.63 0 0 1-2.65-2.62 2.63 2.63 0 0 1 2.65-2.62 2.63 2.63 0 0 1 2.64 2.62 2.63 2.63 0 0 1-2.64 2.62ZM0 14.62C0 15.38.61 16 1.37 16h22.26c.76 0 1.37-.62 1.37-1.38v-.7H0v.7Z"/></svg>