<?xml version="1.0" encoding="UTF-8"?>
<svg width="80px" height="80px" viewBox="0 0 80 80" version="1.1" xmlns="http://www.w3.org/2000/svg" xmlns:xlink="http://www.w3.org/1999/xlink">
    <title>logo-adobe-commerce</title>
    <defs>
        <circle id="path-1" cx="40" cy="40" r="40"></circle>
    </defs>
    <g id="Desktop" stroke="none" stroke-width="1" fill="none" fill-rule="evenodd">
        <g id="Homepage-v2" transform="translate(-296, -8129)">
            <g id="logo-adobe-commerce" transform="translate(296, 8129)">
                <mask id="mask-2" fill="white">
                    <use xlink:href="#path-1"></use>
                </mask>
                <use id="Mask" fill="#EB1000" fill-rule="nonzero" xlink:href="#path-1"></use>
                <g id="svg0" mask="url(#mask-2)" fill="#FFFFFF" fill-rule="nonzero">
                    <g transform="translate(14.9284, 14.8323)" id="_256">
                        <path d="M48.5402933,44.8407643 L38.3980766,44.8407643 C37.5084084,44.8407643 36.6899137,44.3425502 36.3340465,43.4884688 L25.3377484,17.7236797 C25.2665749,17.4745726 24.9818811,17.3322257 24.7327741,17.4033992 C24.5904272,17.4389859 24.4480803,17.5813328 24.4124935,17.7236797 L17.5442556,34.0579866 C17.4019087,34.3426804 17.5442556,34.6985476 17.8645361,34.8053078 C17.9357095,34.8408945 18.006883,34.8408945 18.0780564,34.8408945 L25.6224422,34.8408945 C26.0850696,34.8408945 26.5121103,35.1255883 26.6900439,35.552629 L29.9996094,42.9190812 C30.2843032,43.5952289 29.9640227,44.4137236 29.2878749,44.6984174 C29.1099413,44.7695909 28.9320076,44.8051776 28.754074,44.8051776 L1.24553538,44.8051776 C0.569387604,44.8051776 0,44.23579 0,43.5596422 C0,43.3817086 0.0355867253,43.2393617 0.106760176,43.0614281 L17.5798423,1.46054623 C17.9357095,0.570878102 18.8253777,-0.0340962279 19.7862192,0.00149049736 L29.8572625,0.00149049736 C30.8181041,0.00149049736 31.7077722,0.570878102 32.0636395,1.46054623 L49.6790685,43.0614281 C49.9637623,43.7019891 49.6434817,44.4493104 49.0385074,44.6984174 C48.8605738,44.7695909 48.7182269,44.8051776 48.5402933,44.8407643 Z"></path>
                    </g>
                </g>
            </g>
        </g>
    </g>
</svg>