<svg xmlns="http://www.w3.org/2000/svg" xml:space="preserve" width="60" height="60" version="1.0"><g transform="matrix(.13004 0 0 .13004 -21.99 -8.96)"><circle cx="399.8" cy="299.6" r="230.7" style="fill-rule:evenodd;clip-rule:evenodd;fill:#f3ba2f"/><path d="m456.3 320.8 34.8 34.7-94.6 94.5-94.5-94.5 34.8-34.7 59.7 59.7zM396.5 261l35.3 35.3-35.3 35.3-35.2-35.2v-.1l6.2-6.2 3-3zm-119 .5 34.8 34.8-34.8 34.7-34.8-34.8zm238 0 34.8 34.8-34.8 34.7-34.8-34.8zm-119-119L491 237l-34.8 34.8-59.7-59.8-59.7 59.7L302 237Z" style="fill-rule:evenodd;clip-rule:evenodd;fill:#131415" transform="translate(3.333 3.333)"/></g></svg>