<?xml version="1.0" encoding="UTF-8"?>
<svg width="168px" height="27px" viewBox="0 0 168 27" version="1.1" xmlns="http://www.w3.org/2000/svg" xmlns:xlink="http://www.w3.org/1999/xlink">
    <title>coinspeaker-logo-vector</title>
    <defs>
        <linearGradient x1="-0.823646059%" y1="50.0522466%" x2="100.359807%" y2="50.0522466%" id="linearGradient-1">
            <stop stop-color="#F7102B" offset="0%"></stop>
            <stop stop-color="#B7081C" offset="100%"></stop>
            <stop stop-color="#B7081C" stop-opacity="0.052" offset="100%"></stop>
            <stop stop-color="#000000" stop-opacity="0" offset="100%"></stop>
        </linearGradient>
        <linearGradient x1="-0.823646059%" y1="50.0522466%" x2="100.359807%" y2="50.0522466%" id="linearGradient-2">
            <stop stop-color="#A8E2DD" offset="0%"></stop>
            <stop stop-color="#A8E2DD" offset="100%"></stop>
            <stop stop-color="#A8E2DD" stop-opacity="0.052" offset="100%"></stop>
            <stop stop-color="#A8E2DD" stop-opacity="0" offset="100%"></stop>
        </linearGradient>
    </defs>
    <g id="ICO" stroke="none" stroke-width="1" fill="none" fill-rule="evenodd">
        <g id="Desktop-Home-Default-Dark" transform="translate(-305, -664)" fill="url(#linearGradient-2)" fill-rule="nonzero">
            <g id="coinspeaker-logo-vector" transform="translate(305, 664)">
                <path d="M9.04249292,5.61442006 C7.83869355,5.61442006 6.88685219,6.12225705 6.24295951,7.10971787 C5.57107149,8.09717868 5.23512748,9.47962382 5.23512748,11.2288401 C5.23512748,14.8683386 6.60689885,16.7021944 9.35044159,16.7021944 C10.1903016,16.7021944 10.974171,16.5611285 11.7860357,16.3636364 C12.5419097,16.137931 13.3537744,15.8557994 14.1376437,15.5172414 L14.1376437,19.862069 C12.569905,20.539185 10.7782036,20.8777429 8.81853024,20.8777429 C5.96300617,20.8777429 3.80736544,20.0595611 2.32361273,18.3949843 C0.839860023,16.7304075 0,14.3322884 0,11.200627 C0,9.22570533 0.391934678,7.50470219 1.11981336,6.00940439 C1.84769205,4.51410658 2.91151475,3.38557994 4.25529078,2.56739812 C5.59906682,1.7492163 7.27878687,1.35423197 9.09848359,1.35423197 C11.142143,1.35423197 13.0458257,1.77742947 14.9215131,2.68025078 L13.3537744,6.71473354 C12.6818864,6.37617555 11.9540077,6.12225705 11.2821196,5.89655172 C10.554241,5.69905956 9.79836694,5.61442006 9.04249292,5.61442006 Z M31.3547742,13.2601881 C31.3547742,15.6583072 30.7108815,17.5485893 29.4510915,18.8746082 C28.1633061,20.200627 26.3996001,20.8777429 24.1039827,20.8777429 C21.8923513,20.8777429 20.1566406,20.200627 18.8408599,18.8181818 C17.5250792,17.4357367 16.8811865,15.6018809 16.8811865,13.2319749 C16.8811865,10.8338558 17.5250792,9 18.7848692,7.64576803 C20.0726546,6.31974922 21.8923513,5.64263323 24.1879687,5.64263323 C25.643726,5.64263323 26.8755207,5.95297806 27.9673388,6.54545455 C29.0871521,7.13793103 29.9270122,8.04075235 30.5149142,9.19749216 C31.0748209,10.3824451 31.3547742,11.7084639 31.3547742,13.2601881 Z M21.9203466,13.2601881 C21.9203466,14.5015674 22.0883186,15.4890282 22.4242626,16.137931 C22.7602066,16.7868339 23.3201133,17.1253918 24.131978,17.1253918 C24.887852,17.1253918 25.4477587,16.7868339 25.7837027,16.137931 C26.1196467,15.460815 26.2596234,14.5015674 26.2596234,13.2601881 C26.2596234,12.0188088 26.0916514,11.0877743 25.7837027,10.4388715 C25.4477587,9.78996865 24.887852,9.50783699 24.131978,9.50783699 C23.376104,9.50783699 22.8161973,9.81818182 22.4802533,10.4388715 C22.0883186,11.031348 21.9203466,11.9623824 21.9203466,13.2601881 Z M39.2774538,20.6238245 L34.266289,20.6238245 L34.266289,5.95297806 L39.2774538,5.95297806 L39.2774538,20.6238245 Z M34.1263123,2.28526646 C34.1263123,1.52351097 34.350275,0.959247649 34.770205,0.564263323 C35.190135,0.169278997 35.8900183,0 36.8138644,0 C37.7377104,0 38.4375937,0.169278997 38.8575237,0.564263323 C39.2774538,0.959247649 39.5014164,1.49529781 39.5014164,2.22884013 C39.5014164,3.72413793 38.6055657,4.45768025 36.8138644,4.45768025 C35.022163,4.51410658 34.1263123,3.78056426 34.1263123,2.28526646 Z M51.9873354,20.6238245 L51.9873354,12.6112853 C51.9873354,11.6238245 51.8473588,10.8902821 51.5674054,10.4388715 C51.3154474,9.93103448 50.8395267,9.67711599 50.2516247,9.67711599 C49.4117647,9.67711599 48.7958674,10.015674 48.431928,10.69279 C48.0399933,11.369906 47.8720213,12.5266458 47.8720213,14.2194357 L47.8720213,20.6520376 L42.8608565,20.6520376 L42.8608565,5.98119122 L46.6402266,5.98119122 L47.2841193,7.78683386 L47.592068,7.78683386 C48.011998,7.10971787 48.5999,6.57366771 49.3837694,6.23510972 C50.1396434,5.89655172 51.0074988,5.72727273 52.0153308,5.72727273 C53.6390602,5.72727273 54.8708549,6.20689655 55.7667055,7.13793103 C56.6625562,8.06896552 57.1384769,9.42319749 57.1384769,11.1159875 L57.1384769,20.6802508 L52.0433261,20.6802508 L51.9873354,20.6238245 Z M71.6960507,16.137931 C71.6960507,17.7178683 71.1921346,18.8746082 70.1283119,19.69279 C69.0644893,20.5109718 67.5247459,20.9059561 65.5370772,20.9059561 C64.4732545,20.9059561 63.5494084,20.8495298 62.7375437,20.7366771 C61.9256791,20.5956113 61.1138144,20.3981191 60.3019497,20.0877743 L60.3019497,16.0250784 C61.0578237,16.3636364 61.9256791,16.6739812 62.8495251,16.8714734 C63.7733711,17.0971787 64.5852358,17.2100313 65.3691051,17.2100313 C66.4889185,17.2100313 66.9928345,16.9561129 66.9928345,16.4482759 C66.9928345,16.1943574 66.8248625,15.968652 66.5169138,15.7711599 C66.2089652,15.5736677 65.3131145,15.1786834 63.8853524,14.5579937 C62.5695717,13.9937304 61.6177304,13.4012539 61.085819,12.6677116 C60.581903,11.9341693 60.2739543,11.0877743 60.2739543,9.95924765 C60.2739543,8.57680251 60.7778704,7.50470219 61.8416931,6.79937304 C62.9055157,6.03761755 64.3612731,5.64263323 66.2649558,5.64263323 C67.2447925,5.64263323 68.1406432,5.78369906 68.9525079,5.98119122 C69.7923679,6.20689655 70.6882186,6.48902821 71.5840693,6.88401254 L70.212298,10.1285266 C69.5404099,9.81818182 68.8405266,9.56426332 68.0846526,9.36677116 C67.3287785,9.14106583 66.7128812,9.02821317 66.2649558,9.02821317 C65.4530912,9.02821317 65.0331611,9.2539185 65.0331611,9.62068966 C65.0331611,9.87460815 65.1731378,10.1003135 65.4530912,10.2695925 C65.7330445,10.4388715 66.5729045,10.7774295 67.9726712,11.3416928 C68.9805032,11.7648903 69.7643726,12.1880878 70.2402933,12.5830721 C70.7442093,12.9780564 71.136144,13.4858934 71.3601066,14.0501567 C71.556074,14.6708464 71.6960507,15.3197492 71.6960507,16.137931 L71.6960507,16.137931 Z M83.202133,20.8777429 C82.4742543,20.8777429 81.8023663,20.7366771 81.2144643,20.539185 C80.6265622,20.2852665 80.0666556,19.862069 79.4787535,19.2131661 L79.2547909,19.2131661 C79.4227629,20.2288401 79.4787535,20.8777429 79.4787535,21.1316614 L79.4787535,27 L74.4675887,27 L74.4675887,5.95297806 L78.5549075,5.95297806 L79.2827862,7.84326019 L79.5067489,7.84326019 C80.4305949,6.43260188 81.7183803,5.69905956 83.370105,5.69905956 C84.9938344,5.69905956 86.2536244,6.37617555 87.1494751,7.70219436 C88.0733211,9.02821317 88.5212465,10.9184953 88.5212465,13.2319749 C88.5212465,15.6018809 88.0453258,17.4639498 87.0654891,18.846395 C86.1136477,20.200627 84.8258624,20.8777429 83.202133,20.8777429 L83.202133,20.8777429 Z M81.5224129,9.64890282 C80.7945342,9.64890282 80.2346276,9.90282132 79.9546742,10.4670846 C79.6467255,10.9749216 79.4787535,11.7931034 79.4787535,12.8369906 L79.4787535,13.2319749 C79.4787535,14.4733542 79.6467255,15.4043887 79.9826696,15.968652 C80.3186136,16.5329154 80.8225296,16.815047 81.5504083,16.815047 C82.1943009,16.815047 82.6702216,16.5611285 82.950175,15.9968652 C83.2581236,15.4326019 83.370105,14.5015674 83.370105,13.2037618 C83.370105,11.9623824 83.2301283,11.0595611 82.950175,10.4952978 C82.6702216,9.93103448 82.1943009,9.64890282 81.5224129,9.64890282 Z M98.4315947,20.8777429 C95.9960007,20.8777429 94.1483086,20.2288401 92.7765372,18.9592476 C91.4607565,17.661442 90.7888685,15.799373 90.7888685,13.3730408 C90.7888685,10.8902821 91.4327612,9 92.6645559,7.67398119 C93.8963506,6.34796238 95.688052,5.67084639 97.9836694,5.67084639 C100.195301,5.67084639 101.847025,6.23510972 103.050825,7.39184953 C104.254624,8.54858934 104.842526,10.184953 104.842526,12.3573668 L104.842526,14.6426332 L95.856024,14.6426332 C95.9120147,15.460815 96.191968,16.1097179 96.7518747,16.5611285 C97.3117814,17.0407524 98.0676554,17.2382445 99.0474921,17.2382445 C99.9433428,17.2382445 100.755207,17.153605 101.483086,16.984326 C102.23896,16.815047 103.02283,16.5047022 103.91868,16.137931 L103.91868,19.7774295 C103.106816,20.1724138 102.294951,20.4545455 101.483086,20.6238245 C100.615231,20.7931034 99.5794034,20.8777429 98.4315947,20.8777429 L98.4315947,20.8777429 Z M98.1516414,9.14106583 C97.5637394,9.14106583 97.031828,9.31034483 96.6678887,9.70532915 C96.275954,10.1003135 96.023996,10.6363636 95.9960007,11.4545455 L100.335277,11.4545455 C100.335277,10.7210031 100.111315,10.1567398 99.7473754,9.73354232 C99.2994501,9.36677116 98.7675387,9.14106583 98.1516414,9.14106583 Z M117.160473,20.6238245 L116.180637,18.7053292 L116.096651,18.7053292 C115.424763,19.5517241 114.724879,20.1159875 114.024996,20.4263323 C113.297117,20.7366771 112.401266,20.9059561 111.309448,20.9059561 C109.937677,20.9059561 108.845859,20.4827586 108.089985,19.6645768 C107.27812,18.846395 106.886186,17.661442 106.886186,16.137931 C106.886186,14.5862069 107.446092,13.4012539 108.509915,12.6677116 C109.573738,11.9059561 111.141476,11.4545455 113.185136,11.369906 L115.62073,11.2852665 L115.62073,11.0595611 C115.62073,9.84639498 115.032828,9.2539185 113.829028,9.2539185 C112.765206,9.2539185 111.393434,9.59247649 109.7977,10.3260188 L108.341943,6.96865204 C110.049658,6.06583072 112.177304,5.64263323 114.752875,5.64263323 C116.628562,5.64263323 118.084319,6.12225705 119.092151,7.05329154 C120.099983,7.98432602 120.631895,9.28213166 120.631895,10.9467085 L120.631895,20.539185 L117.188469,20.539185 L117.160473,20.6238245 Z M113.465089,17.2946708 C114.052991,17.2946708 114.584903,17.0689655 115.032828,16.7021944 C115.452758,16.30721 115.676721,15.799373 115.676721,15.2068966 L115.676721,14.0501567 L114.528912,14.1065831 C112.877187,14.1630094 112.065322,14.7836991 112.065322,15.9404389 C112.009332,16.8714734 112.485252,17.2946708 113.465089,17.2946708 Z M128.946509,12.3573668 C129.534411,11.369906 130.066322,10.6363636 130.514248,10.0721003 L133.789702,5.92476489 L139.416764,5.92476489 L134.349608,12.1880878 L139.696717,20.6238245 L133.957674,20.6238245 L130.766206,15.3479624 L129.142476,16.5893417 L129.142476,20.5673981 L124.075321,20.5673981 L124.075321,0.423197492 L129.142476,0.423197492 L129.142476,8.35109718 C129.142476,9.73354232 129.05849,11.0595611 128.834528,12.3291536 L128.946509,12.3291536 L128.946509,12.3573668 Z M148.459257,20.8777429 C146.023663,20.8777429 144.175971,20.2288401 142.804199,18.9592476 C141.488419,17.661442 140.816531,15.799373 140.816531,13.3730408 C140.816531,10.8902821 141.460423,9 142.692218,7.67398119 C143.924013,6.34796238 145.715714,5.67084639 148.011331,5.67084639 C150.222963,5.67084639 151.874688,6.23510972 153.078487,7.39184953 C154.282286,8.54858934 154.870188,10.184953 154.870188,12.3573668 L154.870188,14.6426332 L145.855691,14.6426332 C145.911681,15.460815 146.191635,16.1097179 146.751541,16.5611285 C147.311448,17.0407524 148.067322,17.2382445 149.047159,17.2382445 C149.943009,17.2382445 150.754874,17.153605 151.482753,16.984326 C152.238627,16.815047 153.022496,16.5047022 153.918347,16.137931 L153.918347,19.7774295 C153.106482,20.1724138 152.294618,20.4545455 151.482753,20.6238245 C150.642893,20.7931034 149.607065,20.8777429 148.459257,20.8777429 L148.459257,20.8777429 Z M148.151308,9.14106583 C147.563406,9.14106583 147.031495,9.31034483 146.667555,9.70532915 C146.275621,10.1003135 146.023663,10.6363636 145.995667,11.4545455 L150.334944,11.4545455 C150.334944,10.7210031 150.110982,10.1567398 149.747042,9.73354232 C149.299117,9.36677116 148.795201,9.14106583 148.151308,9.14106583 Z M166.460257,5.67084639 C166.880187,5.67084639 167.300117,5.72727273 167.692051,5.75548589 L168,5.81191223 L167.524079,10.5799373 C167.104149,10.4952978 166.544243,10.4106583 165.816364,10.4106583 C164.696551,10.4106583 163.912681,10.6645768 163.436761,11.1724138 C162.932845,11.6802508 162.680887,12.4137931 162.680887,13.3448276 L162.680887,20.539185 L157.669722,20.539185 L157.669722,5.86833856 L161.421096,5.86833856 L162.176971,8.23824451 L162.428929,8.23824451 C162.848859,7.47648903 163.436761,6.82758621 164.164639,6.34796238 C164.976504,5.92476489 165.732378,5.67084639 166.460257,5.67084639 Z" id="Shape"></path>
            </g>
        </g>
    </g>
</svg>