<?xml version="1.0" encoding="UTF-8" standalone="no"?>
<!-- Generator: Adobe Illustrator 19.2.1, SVG Export Plug-In . SVG Version: 6.00 Build 0)  -->

<svg
   version="1.1"
   id="layer"
   x="0px"
   y="0px"
   viewBox="0 0 128.1134 30"
   xml:space="preserve"
   sodipodi:docname="cointelegraph.svg"
   width="128.1134"
   height="30"
   inkscape:version="1.1.2 (0a00cf5339, 2022-02-04)"
   inkscape:export-filename="/media/data/Downloads/your/logos/cointelegraph--dark.png"
   inkscape:export-xdpi="192"
   inkscape:export-ydpi="192"
   xmlns:inkscape="http://www.inkscape.org/namespaces/inkscape"
   xmlns:sodipodi="http://sodipodi.sourceforge.net/DTD/sodipodi-0.dtd"
   xmlns="http://www.w3.org/2000/svg"
   xmlns:svg="http://www.w3.org/2000/svg"><defs
   id="defs16">
	

		
		
		
	
			
		
			
		
				
				
			</defs><sodipodi:namedview
   id="namedview14"
   pagecolor="#ffffff"
   bordercolor="#666666"
   borderopacity="1.0"
   inkscape:pageshadow="2"
   inkscape:pageopacity="0.0"
   inkscape:pagecheckerboard="0"
   showgrid="false"
   fit-margin-top="0"
   fit-margin-left="0"
   fit-margin-right="0"
   fit-margin-bottom="0"
   inkscape:zoom="6.4713516"
   inkscape:cx="60.420145"
   inkscape:cy="6.567407"
   inkscape:window-width="1920"
   inkscape:window-height="1016"
   inkscape:window-x="0"
   inkscape:window-y="0"
   inkscape:window-maximized="1"
   inkscape:current-layer="layer" />
<style
   type="text/css"
   id="style2">
	.st0{fill:#263238;}
	.st1{fill:#FABF2C;}
</style>
<path
   id="Shape"
   class="st0"
   d="m 18.597796,21.822094 -5.338059,2.327394 v -0.234875 c -1.024907,0.256227 -2.177928,0.405693 -3.245539,0.469749 -5.0391275,-0.0427 -9.010643,-2.690381 -9.0746997,-5.807807 v -1.153021 c 1.644122,2.39145 5.017775,4.01422 9.0746997,3.950163 1.366543,0.06406 2.77579,-0.149465 3.950163,-0.469749 l 0.469749,-1.15302 c -1.387895,0.427044 -2.925256,0.704623 -4.419912,0.704623 -5.0391275,0 -9.010643,-2.626324 -9.0746997,-5.807807 v -0.939499 c 1.644122,2.220633 5.017775,3.82205 9.0746997,3.715289 1.836292,0.106761 3.608527,-0.277579 5.124536,-0.939498 l 0.234874,-1.153021 c -1.473304,0.768681 -3.373652,1.217078 -5.338058,1.153021 -5.0391272,0.06406 -9.0106428,-2.562268 -9.07469947,-5.807808 V 9.7367299 C 2.6049725,12.000067 5.9786255,13.622837 10.03555,13.686893 c 2.306041,-0.06406 4.483969,-0.683271 6.277557,-1.62277 l 0.234874,-1.387895 C 14.925212,11.871953 12.555114,12.661986 10.03555,12.768747 4.9964228,12.661986 1.0249072,10.014309 0.96085053,6.7260649 1.003555,3.5872865 4.9964228,0.96096174 10.03555,0.91825727 c 2.989313,0.0427045 5.786455,1.08896393 7.430577,2.79714263 l 0.170818,0.2775791 h 1.174373 L 18.6405,3.7153999 C 16.996378,1.4734154 13.686782,1.11212e-4 10.03555,1.11212e-4 4.4412647,-0.02124102 0,3.0321284 0,6.7047127 V 6.9395873 18.790077 c 0.19217011,3.587175 4.5266736,6.512432 9.9928455,6.512432 3.6085275,0.02135 6.8754195,-1.409248 8.6049505,-3.480415 z"
   style="stroke-width:0.213522"
   inkscape:export-filename="/media/data/Downloads/your/logos/cointelegraph--light.png"
   inkscape:export-xdpi="192"
   inkscape:export-ydpi="192" /><path
   id="Shape_1_"
   class="st1"
   d="m 16.419868,30 1.878997,-7.985736 -5.402116,2.348746 3.288244,-13.836247 H 9.8647321 L 11.508854,3.7153999 h 20.177861 l -1.644122,6.8113631 h -6.576488 l -1.409247,3.757993 7.281112,-3.05337 z m 3.288244,-9.608505 -0.939498,4.697491 7.750861,-11.722376 -6.341614,2.818495 2.818495,-6.5764885 h 6.341614 l 1.174372,-4.932366 H 12.192126 l -1.174373,4.932366 h 6.341613 L 14.305997,22.74024 Z"
   style="stroke-width:0.213522"
   inkscape:export-filename="/media/data/Downloads/your/logos/cointelegraph--light.png"
   inkscape:export-xdpi="192"
   inkscape:export-ydpi="192" /><path
   id="Shape_2_"
   class="st0"
   d="M 45.074566,8.284778 V 8.30613 c 0.02135,0.7473282 -0.213522,1.3238385 -0.683272,1.750883 -0.469749,0.427045 -1.110316,0.640567 -1.943053,0.640567 -0.832737,0 -1.516008,-0.277579 -2.028462,-0.8113846 -0.512454,-0.5338059 -0.76868,-1.2384296 -0.76868,-2.092519 v -1.387895 c 0,-0.8540893 0.256226,-1.5587131 0.747328,-2.0925189 0.512453,-0.5338059 1.174373,-0.8113849 1.985757,-0.8113849 0.85409,0 1.516009,0.2135223 2.00711,0.6192148 0.491102,0.4270447 0.725976,1.003555 0.704624,1.7508832 v 0.021352 h -1.366543 c 0,-0.4483969 -0.106761,-0.7900327 -0.320283,-1.003555 -0.213523,-0.2135223 -0.555158,-0.3202835 -1.003555,-0.3202835 -0.427045,0 -0.747328,0.1708179 -0.982203,0.5124536 -0.234875,0.3416357 -0.362988,0.7686804 -0.362988,1.3024863 v 1.4092474 c 0,0.5338059 0.128113,0.9822028 0.362988,1.3238385 0.256227,0.3416358 0.597863,0.5124536 1.046259,0.5124536 0.427045,0 0.725976,-0.1067611 0.939499,-0.3202835 0.213522,-0.2135223 0.320283,-0.555158 0.320283,-1.003555 h 1.345191 z m 7.729509,-0.5551581 c 0,0.8540894 -0.277579,1.5800653 -0.811385,2.1352234 -0.533806,0.5551577 -1.23843,0.8327367 -2.113871,0.8327367 -0.875442,0 -1.558713,-0.277579 -2.113872,-0.8327367 C 47.231142,9.3096852 46.953563,8.5837093 46.953563,7.7296199 V 6.4698381 c 0,-0.8540893 0.277579,-1.5587131 0.811384,-2.1352234 0.533806,-0.5551581 1.23843,-0.8540893 2.092519,-0.8540893 0.875442,0 1.580066,0.277579 2.113872,0.8540893 0.555158,0.5551581 0.811384,1.2811341 0.811384,2.1352234 v 1.2597818 z m -1.409248,-1.281134 c 0,-0.5551581 -0.128113,-0.9822028 -0.405692,-1.3451908 -0.277579,-0.3416357 -0.640567,-0.5338058 -1.131669,-0.5338058 -0.469749,0 -0.854089,0.1708179 -1.110316,0.5338058 -0.256227,0.3416358 -0.405692,0.7900327 -0.405692,1.3451908 v 1.2597818 c 0,0.5551581 0.128113,1.003555 0.405692,1.366543 0.256227,0.3416357 0.640567,0.5338058 1.110316,0.5338058 0.491102,0 0.85409,-0.1708179 1.131669,-0.5338058 0.277579,-0.3416358 0.405692,-0.8113849 0.405692,-1.366543 z m 5.039127,4.1423331 H 55.024707 V 3.5872865 h 1.409247 z m 8.092497,0 H 63.117204 L 60.298709,5.8719756 h -0.02135 v 4.7188434 h -1.40925 V 3.5872865 h 1.409248 l 2.818494,4.7188437 h 0.02135 V 3.5872865 h 1.409247 z m 7.06759,-5.9145685 h -2.00711 V 10.590819 H 68.177683 V 4.6762505 h -1.964405 v -1.088964 h 5.380763 z m 5.807807,2.8398471 h -2.604972 v 2.00711 H 77.89295 V 10.590819 H 73.40898 V 3.5872865 h 4.48397 v 1.088964 H 74.818228 V 6.4271336 H 77.4232 v 1.088964 z m 3.907459,2.00711 h 3.138778 V 10.590819 H 79.90006 V 3.5872865 h 1.409247 z m 9.117404,-2.00711 h -2.604973 v 2.00711 h 3.096074 V 10.590819 H 86.433843 V 3.5872865 h 4.483969 v 1.088964 h -3.074721 v 1.7508831 h 2.604972 v 1.088964 z m 7.878974,2.1352234 c -0.213522,0.277579 -0.533806,0.533806 -0.982202,0.747328 -0.427045,0.213523 -0.982203,0.320284 -1.665475,0.320284 -0.854089,0 -1.537361,-0.256227 -2.071166,-0.790033 C 93.053036,9.3950942 92.775457,8.7118227 92.775457,7.8577333 V 6.3844292 c 0,-0.8540894 0.256227,-1.5373609 0.790032,-2.0711667 0.512454,-0.5338059 1.195725,-0.8113849 2.00711,-0.8113849 0.85409,0 1.516009,0.2135223 1.964406,0.6192148 0.448397,0.4056924 0.683271,0.9394983 0.661919,1.6227698 v 0.021352 h -1.323838 c 0,-0.362988 -0.106762,-0.6619193 -0.320284,-0.8754416 -0.213522,-0.2135223 -0.533806,-0.3202835 -0.939498,-0.3202835 -0.427045,0 -0.768681,0.1708179 -1.04626,0.4911014 -0.256226,0.3416357 -0.38434,0.7686804 -0.38434,1.281134 v 1.4733042 c 0,0.5338058 0.128114,0.9608505 0.405693,1.3024862 0.277579,0.3416358 0.640567,0.4911014 1.088964,0.4911014 0.341635,0 0.597862,-0.042704 0.790032,-0.1067612 0.19217,-0.064057 0.341636,-0.1494656 0.448397,-0.2562268 V 7.8790856 H 95.572599 V 6.8968828 h 2.754439 V 9.651321 Z m 3.629885,-1.8576444 v 2.7971424 h -1.40925 V 3.5872865 h 2.43415 c 0.79004,0 1.4306,0.1921701 1.879,0.5551581 0.4484,0.362988 0.68327,0.8754416 0.68327,1.5160086 0,0.362988 -0.0854,0.6619193 -0.27758,0.9394983 -0.19217,0.2562268 -0.46975,0.4697492 -0.83274,0.640567 0.4057,0.1281134 0.70463,0.3202835 0.8968,0.6192148 0.17082,0.2775791 0.27758,0.640567 0.27758,1.0676117 v 0.5124536 c 0,0.1921701 0.0213,0.4056925 0.0854,0.6192144 0.0427,0.213523 0.14946,0.362988 0.27758,0.46975 v 0.106761 h -1.45196 C 104.36971,10.526763 104.2843,10.355945 104.2416,10.12107 104.1989,9.8861956 104.1775,9.651321 104.1775,9.4377986 V 8.9466973 c 0,-0.3416358 -0.0854,-0.6192148 -0.27758,-0.8113849 -0.19217,-0.1921701 -0.46975,-0.2989313 -0.81138,-0.2989313 h -1.15302 z m 0,-1.0676117 h 1.00355 c 0.38434,0 0.68327,-0.085409 0.87544,-0.2562268 0.19217,-0.1708179 0.29893,-0.4056924 0.29893,-0.7473282 0,-0.3202835 -0.10676,-0.5765103 -0.29893,-0.7686804 -0.19217,-0.1921701 -0.46975,-0.277579 -0.85409,-0.277579 h -1.0249 z m 9.54444,2.370098 h -2.26333 l -0.46975,1.5160091 h -1.47331 l 2.3701,-7.0035332 h 1.4306 l 2.34875,7.0035332 h -1.47331 z m -1.9217,-1.1103162 h 1.58007 L 110.3697,5.5089876 h -0.0213 z m 6.98218,0.064057 v 2.5409153 h -1.40924 V 3.5872865 h 2.69038 c 0.81138,0 1.4306,0.2135224 1.90035,0.6192148 0.46975,0.4056925 0.68327,0.9608505 0.68327,1.6227698 0,0.6619192 -0.23488,1.2170773 -0.68327,1.6227698 -0.46975,0.4056924 -1.08897,0.6192148 -1.90035,0.6192148 h -1.28114 z m 0,-1.0676117 h 1.28114 c 0.38434,0 0.68327,-0.1067611 0.89679,-0.3202835 0.19217,-0.2135223 0.29893,-0.4911014 0.29893,-0.8113849 0,-0.3416357 -0.10676,-0.6192148 -0.29893,-0.8327371 -0.19217,-0.2135223 -0.4911,-0.3202835 -0.89679,-0.3202835 h -1.28114 z m 11.57291,3.608527 h -1.40924 V 7.6869155 h -2.8612 v 2.9039035 h -1.40925 V 3.5872865 h 1.40925 v 3.010665 h 2.8612 v -3.010665 h 1.40924 z"
   style="stroke-width:0.213522"
   inkscape:export-filename="/media/data/Downloads/your/logos/cointelegraph--light.png"
   inkscape:export-xdpi="192"
   inkscape:export-ydpi="192" /><path
   id="The-future-of-money"
   class="st0"
   d="M 42.213367,22.035616 H 41.337925 V 17.423534 H 39.75786 v -0.747328 h 4.035572 v 0.747328 h -1.580065 z m 5.871864,0 H 47.20979 v -2.498211 c 0,-0.320284 -0.06406,-0.555158 -0.19217,-0.704624 -0.128114,-0.149465 -0.320284,-0.234874 -0.597863,-0.234874 -0.362988,0 -0.619215,0.106761 -0.790033,0.320283 -0.170817,0.213522 -0.256226,0.57651 -0.256226,1.088964 v 2.00711 h -0.85409 v -5.701046 h 0.85409 v 1.451951 c 0,0.234875 -0.02135,0.46975 -0.0427,0.747329 h 0.06406 c 0.106761,-0.19217 0.277579,-0.341636 0.491101,-0.448397 0.213523,-0.106761 0.448397,-0.170818 0.725976,-0.170818 0.982203,0 1.473304,0.491101 1.473304,1.494656 z m 2.967961,0.06406 c -0.640567,0 -1.131669,-0.19217 -1.473304,-0.555158 -0.362988,-0.362988 -0.533806,-0.875442 -0.533806,-1.516009 0,-0.661919 0.170818,-1.174373 0.491101,-1.558713 0.320284,-0.38434 0.790033,-0.57651 1.366543,-0.57651 0.533806,0 0.960851,0.170818 1.259782,0.491101 0.320284,0.320284 0.469749,0.768681 0.469749,1.345191 v 0.469749 h -2.711734 c 0.02135,0.38434 0.128114,0.704624 0.320284,0.896794 0.19217,0.213522 0.491101,0.320283 0.854089,0.320283 0.234875,0 0.469749,-0.02135 0.66192,-0.06406 0.213522,-0.0427 0.427044,-0.128114 0.661919,-0.234875 v 0.704624 c -0.213523,0.106761 -0.427045,0.170818 -0.640567,0.213522 -0.19217,0.0427 -0.448397,0.06406 -0.725976,0.06406 z m -0.149466,-3.544471 c -0.277579,0 -0.491101,0.08541 -0.661919,0.256227 -0.170818,0.170818 -0.256227,0.427045 -0.298931,0.76868 h 1.836292 c 0,-0.341635 -0.08541,-0.597862 -0.234875,-0.76868 -0.149465,-0.170818 -0.362988,-0.256227 -0.640567,-0.256227 z m 6.683249,0.06406 h -0.982202 v 3.416357 h -0.875442 v -3.416357 h -0.661919 v -0.405693 l 0.661919,-0.256226 v -0.256227 c 0,-0.469749 0.106761,-0.832737 0.341636,-1.067612 0.234874,-0.234875 0.57651,-0.341636 1.024907,-0.341636 0.298931,0 0.597863,0.0427 0.896794,0.149466 l -0.234875,0.661919 c -0.213522,-0.06406 -0.405692,-0.106761 -0.619214,-0.106761 -0.192171,0 -0.341636,0.06406 -0.427045,0.170818 -0.08541,0.128113 -0.128114,0.298931 -0.128114,0.533806 v 0.256227 h 0.982203 v 0.661919 z m 3.565824,3.416357 -0.128114,-0.533806 h -0.0427 c -0.128114,0.19217 -0.298932,0.341636 -0.512454,0.448397 -0.213522,0.106761 -0.469749,0.170818 -0.747328,0.170818 -0.491102,0 -0.85409,-0.128113 -1.110316,-0.362988 -0.256227,-0.234874 -0.362988,-0.619215 -0.362988,-1.110316 v -2.669029 h 0.875441 v 2.498211 c 0,0.320284 0.06406,0.533806 0.19217,0.704624 0.128114,0.149466 0.320284,0.234874 0.597863,0.234874 0.362988,0 0.619215,-0.106761 0.790033,-0.320283 0.170817,-0.213522 0.256226,-0.57651 0.256226,-1.088964 v -2.028462 h 0.875442 v 4.056924 z m 3.416357,-0.640567 c 0.213522,0 0.427045,-0.0427 0.640567,-0.106761 v 0.640567 c -0.08541,0.04271 -0.213522,0.08541 -0.362988,0.106761 -0.149466,0.02135 -0.298931,0.0427 -0.469749,0.0427 -0.811385,0 -1.217077,-0.427045 -1.217077,-1.281134 V 18.619259 H 62.60475 v -0.38434 l 0.597863,-0.320284 0.298931,-0.854089 h 0.533806 v 0.896794 h 1.153021 v 0.661919 H 64.03535 v 2.177928 c 0,0.213522 0.04271,0.362988 0.149466,0.469749 0.06406,0.08541 0.213522,0.128113 0.38434,0.128113 z m 4.291799,0.640567 -0.128113,-0.533806 h -0.04271 c -0.128113,0.19217 -0.298931,0.341636 -0.512453,0.448397 -0.213523,0.106761 -0.46975,0.170818 -0.747329,0.170818 -0.491101,0 -0.854089,-0.128113 -1.110316,-0.362988 -0.234874,-0.234874 -0.362988,-0.619215 -0.362988,-1.110316 v -2.669029 h 0.875442 v 2.498211 c 0,0.320284 0.06406,0.533806 0.19217,0.704624 0.128113,0.149466 0.320283,0.234874 0.597862,0.234874 0.362988,0 0.619215,-0.106761 0.790033,-0.320283 0.170818,-0.213522 0.256227,-0.57651 0.256227,-1.088964 v -2.028462 h 0.875441 v 4.056924 z m 3.971516,-4.142333 c 0.170817,0 0.320283,0.02135 0.427044,0.0427 l -0.08541,0.811385 c -0.128113,-0.02135 -0.256227,-0.0427 -0.38434,-0.0427 -0.341636,0 -0.619215,0.106761 -0.832737,0.341635 -0.213522,0.234875 -0.320284,0.512454 -0.320284,0.875442 v 2.113871 h -0.854089 v -4.056924 h 0.683272 l 0.106761,0.704624 h 0.0427 c 0.128114,-0.234875 0.320284,-0.427045 0.533806,-0.576511 0.19217,-0.128113 0.427045,-0.213522 0.683272,-0.213522 z m 2.797142,4.20639 c -0.640567,0 -1.131668,-0.19217 -1.473304,-0.555158 -0.362988,-0.362988 -0.533806,-0.875442 -0.533806,-1.516009 0,-0.661919 0.170818,-1.174373 0.491102,-1.558713 0.320283,-0.38434 0.790032,-0.57651 1.366543,-0.57651 0.533805,0 0.96085,0.170818 1.259781,0.491101 0.320284,0.320284 0.469749,0.768681 0.469749,1.345191 v 0.469749 h -2.711733 c 0.02135,0.38434 0.128113,0.704624 0.320283,0.896794 0.19217,0.213522 0.491102,0.320283 0.85409,0.320283 0.234874,0 0.469749,-0.02135 0.661919,-0.06406 0.213522,-0.0427 0.427045,-0.128114 0.661919,-0.234875 v 0.704624 c -0.213522,0.106761 -0.427045,0.170818 -0.640567,0.213522 -0.213522,0.0427 -0.448397,0.06406 -0.725976,0.06406 z m -0.149465,-3.544471 c -0.27758,0 -0.491102,0.08541 -0.66192,0.256227 -0.170818,0.170818 -0.256227,0.427045 -0.298931,0.76868 h 1.836292 c 0,-0.341635 -0.08541,-0.597862 -0.234874,-0.76868 -0.170818,-0.170818 -0.384341,-0.256227 -0.640567,-0.256227 z m 8.241962,1.4306 c 0,0.661919 -0.170818,1.174373 -0.512454,1.558713 -0.341636,0.362988 -0.811385,0.555158 -1.409247,0.555158 -0.38434,0 -0.704624,-0.08541 -1.003555,-0.256227 C 80.497923,21.672634 80.2844,21.416407 80.134935,21.096124 79.985469,20.77584 79.90006,20.412852 79.90006,19.985808 c 0,-0.661919 0.170818,-1.174373 0.512454,-1.537361 0.341635,-0.362988 0.811384,-0.555158 1.430599,-0.555158 0.576511,0 1.04626,0.19217 1.387895,0.57651 0.341636,0.38434 0.491102,0.875442 0.491102,1.516009 z m -2.946608,0 c 0,0.939498 0.341635,1.409247 1.046259,1.409247 0.683272,0 1.024907,-0.469749 1.024907,-1.409247 0,-0.918146 -0.341635,-1.387895 -1.024907,-1.387895 -0.362988,0 -0.619215,0.128113 -0.790033,0.362988 -0.170818,0.234874 -0.256226,0.57651 -0.256226,1.024907 z m 5.978625,-1.366543 h -0.982203 v 3.416357 h -0.875441 v -3.416357 h -0.66192 v -0.405693 l 0.66192,-0.256226 v -0.256227 c 0,-0.469749 0.106761,-0.832737 0.341635,-1.067612 0.234875,-0.234875 0.576511,-0.341636 1.024908,-0.341636 0.298931,0 0.597862,0.0427 0.896794,0.149466 l -0.234875,0.661919 c -0.213522,-0.06406 -0.405692,-0.106761 -0.619215,-0.106761 -0.19217,0 -0.341636,0.06406 -0.427045,0.170818 -0.08541,0.106761 -0.128113,0.298931 -0.128113,0.533806 v 0.256227 h 0.982203 v 0.661919 z m 6.064035,3.416357 H 91.94272 v -2.498211 c 0,-0.320284 -0.06406,-0.533806 -0.170818,-0.704624 -0.106761,-0.149465 -0.298931,-0.234874 -0.555158,-0.234874 -0.341636,0 -0.57651,0.106761 -0.725976,0.320283 -0.149466,0.213522 -0.234875,0.57651 -0.234875,1.088964 v 2.028462 h -0.854089 v -4.056924 h 0.683272 l 0.128113,0.533806 h 0.0427 c 0.106762,-0.19217 0.277579,-0.341636 0.491102,-0.448397 0.213522,-0.106761 0.448397,-0.149466 0.704624,-0.149466 0.619214,0 1.046259,0.213522 1.238429,0.640567 h 0.06406 c 0.128113,-0.19217 0.298931,-0.362988 0.512453,-0.469749 0.213523,-0.106761 0.46975,-0.170818 0.747329,-0.170818 0.491101,0 0.832737,0.128113 1.067611,0.362988 0.213523,0.234875 0.341636,0.619215 0.341636,1.110316 v 2.647677 h -0.854089 v -2.498211 c 0,-0.320284 -0.06406,-0.533806 -0.170818,-0.704624 -0.128114,-0.149465 -0.298931,-0.234874 -0.555158,-0.234874 -0.341636,0 -0.576511,0.106761 -0.725976,0.320283 -0.149466,0.213522 -0.234875,0.533806 -0.234875,0.960851 v 2.156575 z m 7.345168,-2.049814 c 0,0.661919 -0.170818,1.174373 -0.512454,1.558713 -0.341635,0.362988 -0.811384,0.555158 -1.409247,0.555158 -0.38434,0 -0.704624,-0.08541 -1.003555,-0.256227 -0.298931,-0.170818 -0.512454,-0.427045 -0.661919,-0.747328 -0.149466,-0.320284 -0.234875,-0.683272 -0.234875,-1.110316 0,-0.661919 0.170818,-1.174373 0.512454,-1.537361 0.341636,-0.362988 0.811385,-0.555158 1.430599,-0.555158 0.576511,0 1.04626,0.19217 1.387896,0.57651 0.320283,0.38434 0.491101,0.875442 0.491101,1.516009 z m -2.946608,0 c 0,0.939498 0.341635,1.409247 1.046259,1.409247 0.683272,0 1.024907,-0.469749 1.024907,-1.409247 0,-0.918146 -0.341635,-1.387895 -1.024907,-1.387895 -0.362988,0 -0.619215,0.128113 -0.790032,0.362988 -0.170818,0.234874 -0.256227,0.57651 -0.256227,1.024907 z m 7.515988,2.049814 h -0.87544 v -2.498211 c 0,-0.320284 -0.0641,-0.555158 -0.19217,-0.704624 -0.12812,-0.149465 -0.32029,-0.234874 -0.59787,-0.234874 -0.36298,0 -0.64056,0.106761 -0.79003,0.320283 -0.14946,0.213522 -0.25623,0.57651 -0.25623,1.088964 v 2.028462 h -0.85408 v -4.056924 h 0.68327 l 0.12811,0.533806 h 0.0427 c 0.12812,-0.19217 0.29894,-0.341636 0.51246,-0.448397 0.21352,-0.106761 0.46975,-0.149466 0.74733,-0.149466 0.9822,0 1.45195,0.491101 1.45195,1.494656 z m 2.96796,0.06406 c -0.64057,0 -1.13167,-0.19217 -1.47331,-0.555158 -0.36298,-0.362988 -0.5338,-0.875442 -0.5338,-1.516009 0,-0.661919 0.17082,-1.174373 0.4911,-1.558713 0.32028,-0.38434 0.79003,-0.57651 1.36654,-0.57651 0.53381,0 0.96085,0.170818 1.25978,0.491101 0.32029,0.320284 0.46975,0.768681 0.46975,1.345191 v 0.469749 H 106.569 c 0.0213,0.38434 0.12811,0.704624 0.32028,0.896794 0.19217,0.213522 0.49111,0.320283 0.85409,0.320283 0.23488,0 0.46975,-0.02135 0.66192,-0.06406 0.19217,-0.0427 0.42705,-0.128114 0.66192,-0.234875 v 0.704624 c -0.21352,0.106761 -0.42704,0.170818 -0.64057,0.213522 -0.21352,0.0427 -0.44839,0.06406 -0.72597,0.06406 z m -0.17082,-3.544471 c -0.27758,0 -0.4911,0.08541 -0.66192,0.256227 -0.17082,0.170818 -0.25623,0.427045 -0.29893,0.76868 h 1.83629 c 0,-0.341635 -0.0854,-0.597862 -0.23487,-0.76868 -0.14947,-0.170818 -0.36299,-0.256227 -0.64057,-0.256227 z m 1.96441,-0.57651 h 0.93949 l 0.83274,2.306041 c 0.12812,0.320284 0.21352,0.640567 0.25623,0.918146 h 0.0213 c 0.0213,-0.128113 0.0641,-0.298931 0.12811,-0.491101 0.0641,-0.19217 0.36299,-1.110316 0.9395,-2.733086 h 0.9395 l -1.72953,4.59073 c -0.32028,0.832737 -0.83274,1.259782 -1.58007,1.259782 -0.19217,0 -0.38434,-0.02135 -0.55515,-0.06406 v -0.683271 c 0.12811,0.02135 0.27758,0.0427 0.44839,0.0427 0.4057,0 0.70463,-0.234874 0.87544,-0.725976 l 0.14947,-0.38434 z"
   style="stroke-width:0.213522"
   inkscape:export-filename="/media/data/Downloads/your/logos/cointelegraph--light.png"
   inkscape:export-xdpi="192"
   inkscape:export-ydpi="192" />
</svg>
