<?xml version="1.0" encoding="UTF-8" standalone="no"?>
<svg
   width="128.73004"
   height="30"
   viewBox="0 0 128.73004 30"
   fill="none"
   version="1.1"
   id="svg71"
   sodipodi:docname="cryptopolitan--light.svg"
   inkscape:version="1.1.2 (0a00cf5339, 2022-02-04)"
   inkscape:export-filename="/media/data/Downloads/your/logos/cryptopolitan--dark.png"
   inkscape:export-xdpi="192"
   inkscape:export-ydpi="192"
   xmlns:inkscape="http://www.inkscape.org/namespaces/inkscape"
   xmlns:sodipodi="http://sodipodi.sourceforge.net/DTD/sodipodi-0.dtd"
   xmlns="http://www.w3.org/2000/svg"
   xmlns:svg="http://www.w3.org/2000/svg">
  <sodipodi:namedview
     id="namedview73"
     pagecolor="#ffffff"
     bordercolor="#666666"
     borderopacity="1.0"
     inkscape:pageshadow="2"
     inkscape:pageopacity="0.0"
     inkscape:pagecheckerboard="0"
     showgrid="false"
     fit-margin-top="0"
     fit-margin-left="0"
     fit-margin-right="0"
     fit-margin-bottom="0"
     inkscape:zoom="6.0299122"
     inkscape:cx="50.415327"
     inkscape:cy="2.0729987"
     inkscape:window-width="1920"
     inkscape:window-height="1016"
     inkscape:window-x="0"
     inkscape:window-y="0"
     inkscape:window-maximized="1"
     inkscape:current-layer="svg71" />
  <path
     fill-rule="evenodd"
     clip-rule="evenodd"
     d="m 18.1734,19.4326 c -0.5816,0.4329 -1.2437,0.7455 -1.9475,0.9194 -0.7039,0.174 -1.4354,0.2058 -2.1517,0.0936 -0.7163,-0.1121 -1.403,-0.366 -2.02,-0.7467 -0.617,-0.3808 -1.1519,-0.8807 -1.5734,-1.4707 C 10.0593,17.6383 9.75975,16.9702 9.59958,16.2631 9.4394,15.556 9.42185,14.824 9.54795,14.11 c 0.1261,-0.714 0.39333,-1.3956 0.78605,-2.0051 0.3927,-0.6094 0.903,-1.1345 1.5011,-1.5444 z"
     fill="#04254e"
     id="path4" />
  <path
     d="m 43.8255,16.4228 2.0148,1.4836 c -1.3106,1.7502 -2.8525,2.5128 -4.5569,2.5128 -0.7238,0.0142 -1.4431,-0.1161 -2.116,-0.3833 -0.6728,-0.2672 -1.2856,-0.6659 -1.8025,-1.1728 -0.5169,-0.5069 -0.9275,-1.1118 -1.2078,-1.7792 -0.2803,-0.6675 -0.4247,-1.3842 -0.4247,-2.1081 0,-0.724 0.1444,-1.4407 0.4247,-2.1081 0.2803,-0.6675 0.6909,-1.2724 1.2078,-1.7793 0.5169,-0.5068 1.1297,-0.9055 1.8025,-1.17274 0.6729,-0.2672 1.3922,-0.39753 2.116,-0.38337 1.7336,0 3.3047,0.80841 4.6132,2.55661 l -2.042,1.4981 c -0.823,-1.1022 -1.6669,-1.5419 -2.5712,-1.5419 -0.7753,0 -1.5188,0.308 -2.0671,0.8563 -0.5482,0.5482 -0.8562,1.2918 -0.8562,2.0671 0,0.7753 0.308,1.5188 0.8562,2.0671 0.5483,0.5482 1.2918,0.8562 2.0671,0.8562 0.9106,0 1.719,-0.3897 2.5421,-1.469 z"
     fill="#04254e"
     id="path6"
     style="fill:#ffffff" />
  <path
     d="m 49.4813,13.9259 c 0.6708,-0.3343 1.4113,-0.505 2.1607,-0.498 l -0.573,2.3212 c -0.8667,0 -1.5877,0.4396 -1.5877,0.9835 v 3.5421 h -2.3211 v -6.7301 h 2.3211 z"
     fill="#04254e"
     id="path8"
     style="fill:#ffffff" />
  <path
     d="m 53.5372,23.3755 1.5148,-3.7318 -2.4836,-6.0988 h 2.3357 l 1.3085,3.1734 1.2773,-3.1734 h 2.3378 l -3.986,9.8306 z"
     fill="#04254e"
     id="path10"
     style="fill:#ffffff" />
  <path
     d="m 67.9088,16.9093 c -2e-4,0.9308 -0.3688,1.8237 -1.0252,2.4837 -0.3253,0.321 -0.711,0.5745 -1.1347,0.7458 -0.4238,0.1713 -0.8773,0.257 -1.3344,0.2522 -0.4257,-0.0123 -0.8368,-0.158 -1.1751,-0.4167 v 3.4088 h -2.3253 v -9.8389 h 2.3211 v 0.3084 c 0.3359,-0.2632 0.7485,-0.4095 1.1752,-0.4167 0.4572,-0.0065 0.9111,0.0776 1.3356,0.2475 0.4245,0.1699 0.8111,0.4221 1.1376,0.7422 0.6564,0.66 1.025,1.5529 1.0252,2.4837 z m -2.3212,0 c -0.0024,-0.2323 -0.0736,-0.4587 -0.2044,-0.6506 -0.1309,-0.192 -0.3156,-0.3409 -0.5309,-0.4281 -0.2153,-0.0872 -0.4516,-0.1087 -0.6792,-0.0619 -0.2275,0.0468 -0.4361,0.1599 -0.5995,0.3251 -0.1634,0.1651 -0.2743,0.3749 -0.3187,0.6029 -0.0444,0.228 -0.0204,0.4641 0.0691,0.6784 0.0895,0.2144 0.2403,0.3976 0.4337,0.5264 0.1933,0.1288 0.4204,0.1975 0.6527,0.1975 0.1554,-8e-4 0.3091,-0.0322 0.4524,-0.0924 0.1433,-0.0603 0.2733,-0.1481 0.3826,-0.2586 0.1093,-0.1105 0.1958,-0.2414 0.2545,-0.3853 0.0588,-0.1439 0.0886,-0.298 0.0877,-0.4534 z"
     fill="#04254e"
     id="path12"
     style="fill:#ffffff" />
  <path
     d="m 69.4374,17.8192 v -2.1148 h -0.8085 v -2.1607 h 0.8085 v -2.1003 h 2.3211 v 2.1003 h 1.6773 v 2.1607 h -1.6773 v 2.0836 c -0.0059,0.0491 0.0079,0.0986 0.0383,0.1377 0.0305,0.039 0.0751,0.0644 0.1242,0.0707 h 1.4106 l 0.6022,2.2774 h -2.0482 c -0.3223,0.0011 -0.6417,-0.0617 -0.9397,-0.1848 -0.2979,-0.123 -0.5685,-0.3038 -0.7962,-0.5321 -0.2276,-0.2282 -0.4078,-0.4993 -0.53,-0.7975 -0.1223,-0.2983 -0.1843,-0.6178 -0.1823,-0.9402 z"
     fill="#04254e"
     id="path14"
     style="fill:#ffffff" />
  <path
     d="m 81.649,16.9086 c -0.0013,0.9314 -0.3714,1.8243 -1.0293,2.4836 -0.6515,0.6497 -1.5344,1.014 -2.4545,1.0127 -0.4654,0.0113 -0.9283,-0.0705 -1.3616,-0.2407 -0.4332,-0.1702 -0.8281,-0.4254 -1.1612,-0.7505 -0.3332,-0.3251 -0.5979,-0.7136 -0.7787,-1.1426 -0.1807,-0.429 -0.2739,-0.8898 -0.2739,-1.3553 0,-0.4654 0.0932,-0.9262 0.2739,-1.3552 0.1808,-0.429 0.4455,-0.8175 0.7787,-1.1426 0.3331,-0.3251 0.728,-0.5803 1.1612,-0.7505 0.4333,-0.1702 0.8962,-0.252 1.3616,-0.2407 0.4547,-0.0033 0.9055,0.0831 1.3267,0.2544 0.4212,0.1712 0.8045,0.424 1.1278,0.7437 0.6579,0.6593 1.028,1.5523 1.0293,2.4837 z m -2.3232,0 c -0.0128,-0.3012 -0.1414,-0.5859 -0.359,-0.7945 -0.2176,-0.2086 -0.5074,-0.3251 -0.8089,-0.3251 -0.3015,0 -0.5913,0.1165 -0.8089,0.3251 -0.2177,0.2086 -0.3463,0.4933 -0.359,0.7945 -0.0066,0.1575 0.0186,0.3147 0.0743,0.4622 0.0557,0.1475 0.1407,0.2822 0.2498,0.396 0.1091,0.1138 0.2401,0.2044 0.3851,0.2662 0.145,0.0619 0.301,0.0938 0.4587,0.0938 0.1576,0 0.3137,-0.0319 0.4587,-0.0938 0.145,-0.0618 0.276,-0.1524 0.3851,-0.2662 0.1091,-0.1138 0.1941,-0.2485 0.2497,-0.396 0.0557,-0.1475 0.081,-0.3047 0.0744,-0.4622 z"
     fill="#04254e"
     id="path16"
     style="fill:#ffffff" />
  <path
     d="m 89.8326,16.9091 c -4e-4,0.9316 -0.3706,1.8249 -1.0293,2.4837 -0.3251,0.3208 -0.7104,0.5742 -1.1338,0.7455 -0.4234,0.1713 -0.8765,0.2571 -1.3332,0.2525 C 85.9099,20.379 85.498,20.2332 85.159,19.9741 v 3.4088 h -2.3211 v -9.8388 h 2.3211 v 0.3083 c 0.3367,-0.2632 0.75,-0.4095 1.1773,-0.4167 0.4567,-0.0045 0.9098,0.0813 1.3332,0.2526 0.4234,0.1713 0.8087,0.4246 1.1338,0.7455 0.6566,0.6567 1.0267,1.5466 1.0293,2.4753 z m -2.3211,0 c -0.0025,-0.2324 -0.0737,-0.4588 -0.2046,-0.6508 -0.131,-0.192 -0.3158,-0.3409 -0.5313,-0.4281 -0.2154,-0.0871 -0.4518,-0.1085 -0.6794,-0.0615 -0.2276,0.047 -0.4362,0.1603 -0.5995,0.3256 -0.1633,0.1654 -0.274,0.3753 -0.3182,0.6035 -0.0442,0.2281 -0.0199,0.4643 0.0699,0.6786 0.0898,0.2144 0.241,0.3973 0.4346,0.5259 0.1936,0.1286 0.4209,0.197 0.6533,0.1966 0.1553,-9e-4 0.309,-0.0323 0.4521,-0.0926 0.1432,-0.0602 0.273,-0.1481 0.3822,-0.2586 0.1091,-0.1105 0.1954,-0.2415 0.2539,-0.3854 0.0585,-0.1439 0.0881,-0.2979 0.087,-0.4532 z"
     fill="#04254e"
     id="path18"
     style="fill:#ffffff" />
  <path
     d="m 97.768,16.9086 c -5e-4,0.9311 -0.3699,1.8241 -1.0272,2.4836 -0.6519,0.6491 -1.5346,1.0133 -2.4545,1.0127 -0.4654,0.0113 -0.9283,-0.0705 -1.3616,-0.2407 -0.4332,-0.1702 -0.8281,-0.4254 -1.1612,-0.7505 -0.3332,-0.3251 -0.5979,-0.7136 -0.7787,-1.1426 -0.1807,-0.429 -0.2739,-0.8898 -0.2739,-1.3553 0,-0.4654 0.0932,-0.9262 0.2739,-1.3552 0.1808,-0.429 0.4455,-0.8175 0.7787,-1.1426 0.3331,-0.3251 0.728,-0.5803 1.1612,-0.7505 0.4333,-0.1702 0.8962,-0.252 1.3616,-0.2407 0.4546,-0.003 0.9054,0.0836 1.3265,0.2549 0.4212,0.1712 0.8045,0.4238 1.128,0.7432 0.6573,0.6595 1.0267,1.5525 1.0272,2.4837 z m -2.3211,0 c -0.0128,-0.3012 -0.1414,-0.5859 -0.359,-0.7945 -0.2176,-0.2086 -0.5074,-0.3251 -0.8089,-0.3251 -0.3015,0 -0.5913,0.1165 -0.8089,0.3251 -0.2177,0.2086 -0.3463,0.4933 -0.359,0.7945 -0.0066,0.1575 0.0186,0.3147 0.0743,0.4622 0.0557,0.1475 0.1407,0.2822 0.2498,0.396 0.1091,0.1138 0.2401,0.2044 0.3851,0.2662 0.145,0.0619 0.301,0.0938 0.4587,0.0938 0.1576,0 0.3137,-0.0319 0.4587,-0.0938 0.145,-0.0618 0.276,-0.1524 0.3851,-0.2662 0.1091,-0.1138 0.1941,-0.2485 0.2497,-0.396 0.0557,-0.1475 0.081,-0.3047 0.0744,-0.4622 z"
     fill="#04254e"
     id="path20"
     style="fill:#ffffff" />
  <path
     d="M 99.0918,20.2741 V 9.50391 H 101.43 V 20.2741 Z"
     fill="#04254e"
     id="path22"
     style="fill:#ffffff" />
  <path
     d="m 103.484,11.3114 c 0,-0.1737 0.034,-0.3459 0.1,-0.5065 0.066,-0.1607 0.163,-0.3066 0.286,-0.4296 0.123,-0.1229 0.269,-0.2204 0.429,-0.2868 0.161,-0.0664 0.333,-0.10049 0.506,-0.10022 0.351,0 0.688,0.13942 0.936,0.38752 0.248,0.2481 0.388,0.5847 0.388,0.9356 0,0.3509 -0.14,0.6874 -0.388,0.9356 -0.248,0.2481 -0.585,0.3875 -0.936,0.3875 -0.173,5e-4 -0.346,-0.0333 -0.506,-0.0996 -0.161,-0.0664 -0.307,-0.1638 -0.43,-0.2868 -0.122,-0.123 -0.22,-0.2691 -0.286,-0.4299 -0.066,-0.1608 -0.099,-0.333 -0.099,-0.5068 z m 0.163,2.2336 h 2.321 v 6.7301 h -2.321 z"
     fill="#04254e"
     id="path24"
     style="fill:#ffffff" />
  <path
     d="M 108.406,17.8192 V 15.7044 H 107.6 v -2.1607 h 0.806 v -2.1003 h 2.323 v 2.1003 h 1.667 v 2.1607 h -1.667 v 2.0836 c -0.006,0.0488 0.008,0.098 0.038,0.137 0.03,0.039 0.074,0.0646 0.123,0.0714 h 1.417 l 0.602,2.2774 h -2.042 c -0.324,0.0027 -0.644,-0.0588 -0.944,-0.1811 -0.299,-0.1223 -0.571,-0.3029 -0.8,-0.5313 -0.229,-0.2284 -0.41,-0.5 -0.534,-0.7991 -0.123,-0.2991 -0.185,-0.6197 -0.183,-0.9431 z"
     fill="#04254e"
     id="path26"
     style="fill:#ffffff" />
  <path
     d="M 118.283,13.8534 V 13.545 h 2.336 v 6.7301 h -2.336 v -0.3084 c -0.324,0.2763 -0.737,0.4245 -1.163,0.4167 -0.457,0 -0.91,-0.09 -1.332,-0.265 -0.422,-0.175 -0.806,-0.4314 -1.13,-0.7547 -0.323,-0.3234 -0.579,-0.7072 -0.754,-1.1296 -0.175,-0.4224 -0.265,-0.8752 -0.265,-1.3324 0,-0.4572 0.09,-0.91 0.265,-1.3324 0.175,-0.4224 0.431,-0.8062 0.754,-1.1296 0.324,-0.3233 0.708,-0.5797 1.13,-0.7547 0.422,-0.175 0.875,-0.265 1.332,-0.265 0.428,-0.0032 0.842,0.1511 1.163,0.4334 z m 0,3.0566 c -0.004,-0.2305 -0.076,-0.4546 -0.207,-0.6442 -0.132,-0.1896 -0.316,-0.3362 -0.53,-0.4213 -0.215,-0.0851 -0.449,-0.1049 -0.675,-0.057 -0.225,0.048 -0.432,0.1615 -0.593,0.3264 -0.161,0.1649 -0.27,0.3738 -0.312,0.6003 -0.043,0.2266 -0.018,0.4607 0.072,0.673 0.09,0.2123 0.241,0.3932 0.434,0.52 0.192,0.1268 0.418,0.1938 0.648,0.1926 0.312,-0.0044 0.609,-0.132 0.827,-0.355 0.218,-0.2229 0.339,-0.5231 0.336,-0.8348 z"
     fill="#04254e"
     id="path28"
     style="fill:#ffffff" />
  <path
     d="m 127.788,14.3962 c 0.607,0.6139 0.946,1.4434 0.942,2.3066 v 3.5713 h -2.321 v -3.5713 c 0,-0.2515 -0.1,-0.4926 -0.278,-0.6704 -0.178,-0.1778 -0.419,-0.2777 -0.67,-0.2777 -0.252,0 -0.493,0.0999 -0.671,0.2777 -0.177,0.1778 -0.277,0.4189 -0.277,0.6704 v 3.5713 h -2.324 V 13.544 h 2.324 v 0.3084 c 0.116,-0.2792 0.625,-0.4167 0.954,-0.4167 0.43,-0.0036 0.856,0.0778 1.254,0.2394 0.399,0.1616 0.761,0.4003 1.067,0.7024 z"
     fill="#04254e"
     id="path30"
     style="fill:#ffffff" />
  <path
     fill-rule="evenodd"
     clip-rule="evenodd"
     d="m 29.9994,15.0007 c 0,2.7292 -0.7292,5.3958 -2.1459,7.7292 L 25.4368,19.334 c 0.875,-2.0833 1.1042,-4.3958 0.6459,-6.625 -0.0209,-0.0625 -0.0209,-0.1458 -0.0417,-0.2083 v -0.0208 c -0.0208,-0.0834 -0.0417,-0.1459 -0.0625,-0.2292 -0.0208,-0.0833 -0.0208,-0.125 -0.0417,-0.1875 -0.0416,-0.1458 -0.0833,-0.2708 -0.125,-0.4167 0,-0.0416 -0.0208,-0.0833 -0.0416,-0.125 0,-0.0208 -0.0209,-0.0416 -0.0209,-0.0625 -0.0416,-0.125 -0.0833,-0.25 -0.125,-0.375 -0.0208,-0.0833 -0.0625,-0.1666 -0.1041,-0.25 -0.0417,-0.0833 -0.0625,-0.1666 -0.1042,-0.25 -0.0417,-0.0833 -0.0625,-0.1666 -0.1042,-0.25 C 25.2285,10.1674 25.166,10.0007 25.0827,9.83404 25.041,9.77154 25.0202,9.68821 24.9785,9.62571 L 24.9577,9.60488 c 0,0 0,0 0,-0.02084 C 24.916,9.50071 24.8743,9.43821 24.8327,9.35488 24.791,9.27154 24.7493,9.18821 24.6868,9.12571 24.5827,8.95904 24.4785,8.79238 24.3743,8.62571 23.7702,7.72988 23.041,6.93821 22.2285,6.27154 L 22.041,6.10488 21.791,5.91738 C 21.7285,5.85488 21.6452,5.81321 21.5619,5.75071 21.4785,5.68821 21.416,5.64654 21.3535,5.60488 21.2702,5.54238 21.1869,5.50071 21.1035,5.43821 21.0202,5.37571 20.9785,5.35488 20.9369,5.33404 20.8952,5.31321 20.8327,5.27154 20.7702,5.22988 17.8327,3.50071 14.291,3.18821 11.1035,4.35488 10.2702,4.66738 8.52018,5.70904 8.45768,5.75071 L 6.29102,2.79238 6.58268,2.60488 c 0.72917,-0.5 1.5,-0.9375 2.29167,-1.29167 4.16665,-1.875 8.93755,-1.729167 13.00005,0.35417 0.1458,0.0625 0.2916,0.14583 0.4166,0.22916 0.0625,0.04167 0.1458,0.08334 0.2083,0.125 l 0.1875,0.125 c 0.0625,0.04167 0.1251,0.08334 0.1876,0.125 0.1458,0.08334 0.2708,0.16667 0.4166,0.25 l 0.1667,0.10417 c 0.0833,0.04167 0.1458,0.10417 0.2291,0.16667 0.0834,0.0625 0.1667,0.10416 0.2292,0.16666 l 0.125,0.10417 0.2083,0.16667 c 0.1875,0.14583 0.375,0.3125 0.5625,0.45833 0.1875,0.14583 0.3542,0.3125 0.5417,0.47917 l 0.25,0.25 c 0.0833,0.08333 0.1667,0.16666 0.25,0.25 0.1667,0.16666 0.3125,0.33333 0.4584,0.5 l 0.1874,0.22916 c 0.0625,0.08334 0.1251,0.14584 0.1876,0.22917 0.0625,0.08333 0.1041,0.125 0.1458,0.1875 0.0417,0.0625 0.1042,0.125 0.1458,0.1875 l 0.1458,0.1875 c 0.0625,0.08333 0.1251,0.16667 0.1667,0.25 0.0417,0.08333 0.125,0.16667 0.1667,0.25 0.0208,0.04167 0.0625,0.08333 0.0833,0.125 0.0208,0.04167 0.0625,0.08333 0.0834,0.125 l 0.1249,0.20833 c 0.0625,0.10417 0.1251,0.20834 0.1876,0.3125 l 0.1249,0.22917 0.1251,0.22917 c 0,0 -10e-5,0.02083 0.0208,0.02083 l 0.0208,0.02083 c 0,0 0,0.02084 0.0209,0.02084 0,0 -10e-5,0.02083 0.0208,0.02083 l 0.125,0.22917 0.0208,0.02083 c 0.0417,0.08333 0.0834,0.16667 0.125,0.27083 0.0417,0.10417 0.0834,0.1875 0.125,0.29167 l 0.1042,0.25 0.1042,0.22917 0.0833,0.20833 c 0.0417,0.10417 0.0833,0.1875 0.1042,0.27083 0.0208,0.02084 0.0208,0.04167 0.0208,0.08334 0.0417,0.10416 0.0833,0.20832 0.1042,0.31252 0.0833,0.2291 0.1458,0.4583 0.2083,0.7083 0.0208,0.1042 0.0625,0.2292 0.0833,0.3333 v 0.0417 c 0.0625,0.25 0.125,0.4792 0.1667,0.7292 0.0208,0.125 0.0417,0.25 0.0625,0.3541 0,0.0209 0,0.0417 0,0.0417 0.0208,0.1042 0.0416,0.2083 0.0625,0.3125 l 0.0417,0.3542 v 0.0208 c 0.0208,0.125 0.0208,0.25 0.0416,0.375 0.0209,0.2292 0.0417,0.4583 0.0625,0.7083 0.0834,0.2917 0.0834,0.5625 0.0834,0.8542 z"
     fill="#04254e"
     id="path32"
     style="fill:#0059ff;fill-opacity:1" />
  <path
     d="m 25.9583,25.2298 c -0.6875,0.7292 -1.4375,1.3959 -2.25,1.9792 -2.5208,1.8125 -5.5833,2.7917 -8.7083,2.7917 -8.29167,0 -15,-6.7084 -15,-15 C 0,12.209 0.770833,9.47982 2.22917,7.12565 2.29167,7.02148 2.375,6.91732 2.4375,6.79232 l 0.20833,-0.3125 c 0.25,-0.375 0.54167,-0.72917 0.83334,-1.08334 L 3.66667,5.18815 C 3.6875,5.14648 3.72917,5.12565 3.75,5.08398 3.8125,5.00065 3.875,4.93815 3.95833,4.85482 L 4.04167,4.77148 6.20833,7.81315 6.22917,7.85482 C 6.1875,7.91732 6.125,7.97982 6.08333,8.04232 6.04167,8.10482 5.97917,8.16732 5.9375,8.22982 2.1875,13.2298 3.20833,20.3132 8.20833,24.0423 c 3.93747,2.9584 9.35417,3.0209 13.35417,0.1459 l -1.25,-1.75 -2.125,-3 c 0.8542,-0.625 1.5208,-1.4584 1.9167,-2.4375 1.1041,-2.8125 -0.2709,-5.9792 -3.0834,-7.08338 -0.6458,-0.25 -1.3125,-0.375 -2,-0.375 H 14.7917 C 13.7292,9.58398 12.7292,9.93815 11.8542,10.5632 L 9.6875,7.54232 c 0.8333,-0.58334 1.7292,-1.04167 2.7083,-1.33334 0.8334,-0.25 1.7292,-0.375 2.6042,-0.375 0.2708,0 0.5417,0.02084 0.8125,0.04167 5.0417,0.4375 8.75,4.87505 8.3125,9.91665 -0.1458,1.625 -0.7292,3.1875 -1.6667,4.5209 l 1.3125,1.8333 z"
     fill="#0059ff"
     id="path34"
     style="fill:#ffffff" />
  <path
     fill-rule="evenodd"
     clip-rule="evenodd"
     d="m 18.1659,19.4375 c -2.4167,1.7917 -5.8333,1.2917 -7.625,-1.125 -1.79165,-2.4167 -1.29165,-5.8333 1.125,-7.625 0.0625,-0.0417 0.125,-0.0833 0.1667,-0.125 z"
     fill="#04254e"
     id="path36"
     style="fill:#0059ff;fill-opacity:1" />
  <path
     d="m 43.8124,16.418 2.0208,1.4791 c -1.3125,1.75 -2.8541,2.5209 -4.5625,2.5209 -3,0.0625 -5.5,-2.3334 -5.5416,-5.3334 -0.0417,-3 2.3333,-5.49996 5.3333,-5.54163 0.0625,0 0.1458,0 0.2083,0 1.7292,0 3.3125,0.81253 4.6042,2.56253 l -2.0417,1.5 c -0.8125,-1.1042 -1.6666,-1.5417 -2.5625,-1.5417 -1.6041,0 -2.9166,1.3125 -2.9166,2.9167 0,1.6041 1.3125,2.9166 2.9166,2.9166 0.9167,0 1.7292,-0.3958 2.5417,-1.4791 z"
     fill="#04254e"
     id="path38"
     style="fill:#ffffff" />
  <path
     d="m 49.4792,13.918 c 0.6666,-0.3334 1.4166,-0.5 2.1666,-0.5 l -0.5625,2.3125 c -0.875,0 -1.5833,0.4375 -1.5833,0.9791 v 3.5417 H 47.1875 V 13.543 H 49.5 v 0.375 z"
     fill="#04254e"
     id="path40"
     style="fill:#ffffff" />
  <path
     d="m 53.5208,23.3763 1.5209,-3.7292 -2.4792,-6.1041 h 2.3333 l 1.3125,3.1666 1.2709,-3.1666 h 2.3333 l -3.9792,9.8333 z"
     fill="#04254e"
     id="path42"
     style="fill:#ffffff" />
  <path
     d="m 67.8965,16.8967 c 0,0.9375 -0.375,1.8333 -1.0208,2.4792 -0.6667,0.6458 -1.5417,1 -2.4792,1 -0.4167,-0.0209 -0.8333,-0.1667 -1.1667,-0.4167 v 3.4167 h -2.3333 v -9.8334 h 2.3125 v 0.3125 c 0.3333,-0.2708 0.75,-0.4166 1.1667,-0.4166 0.9166,-0.0209 1.8125,0.3333 2.4791,1 0.6667,0.6458 1.0417,1.5416 1.0417,2.4583 z m -2.3125,0 c 0,-0.6458 -0.5417,-1.1667 -1.1875,-1.1667 -0.6458,0 -1.1667,0.5417 -1.1667,1.1875 0,0.6459 0.5417,1.1667 1.1667,1.1667 0.6667,0 1.1875,-0.5208 1.1875,-1.1875 z"
     fill="#04254e"
     id="path44"
     style="fill:#ffffff" />
  <path
     d="m 69.416,17.8125 v -2.1042 h -0.8125 v -2.1666 h 0.8125 v -2.1042 h 2.3125 v 2.1042 h 1.6667 v 2.1666 h -1.6667 v 2.0834 C 71.7077,17.8958 71.791,17.9792 71.8952,18 h 1.4167 l 0.6041,2.2708 h -2.0416 c -1.3542,0 -2.4375,-1.0833 -2.4584,-2.4375 0,0 0,0 0,-0.0208 z"
     fill="#04254e"
     id="path46"
     style="fill:#ffffff" />
  <path
     d="m 81.6454,16.8971 c 0,0.9375 -0.375,1.8334 -1.0209,2.4792 -0.6458,0.6458 -1.5416,1.0208 -2.4583,1.0208 -1.9167,0.0417 -3.5208,-1.4791 -3.5833,-3.3958 -0.0417,-1.9167 1.4791,-3.5208 3.3958,-3.5833 0.0625,0 0.1042,0 0.1667,0 0.9166,0 1.7916,0.3541 2.4583,1 0.6667,0.6666 1.0208,1.5625 1.0417,2.4791 z m -2.3334,0 c -0.0208,-0.6458 -0.5625,-1.1458 -1.2083,-1.125 -0.6042,0.0209 -1.0833,0.5209 -1.125,1.125 -0.0208,0.6459 0.4792,1.1875 1.125,1.2084 0.6458,0.0208 1.1875,-0.4792 1.2083,-1.125 0,0 0,-0.0417 0,-0.0834 z"
     fill="#04254e"
     id="path48"
     style="fill:#ffffff" />
  <path
     d="m 89.8119,16.8958 c 0,0.9375 -0.375,1.8334 -1.0209,2.4792 -0.6666,0.6458 -1.5417,1 -2.4583,1 -0.4167,-0.0208 -0.8334,-0.1667 -1.1667,-0.4167 v 3.4167 h -2.3125 v -9.8333 h 2.3125 v 0.3125 c 0.3333,-0.2709 0.75,-0.4167 1.1667,-0.4167 0.9166,0 1.8125,0.3542 2.4583,1 0.6459,0.6458 1.0209,1.5417 1.0209,2.4583 z m -2.3126,0 c 0,-0.6458 -0.5416,-1.1666 -1.1875,-1.1666 -0.6458,0 -1.1666,0.5416 -1.1666,1.1875 0,0.6458 0.5416,1.1666 1.1875,1.1666 0.6458,0 1.1666,-0.5208 1.1666,-1.1875 0,0.0209 0,0 0,0 z"
     fill="#04254e"
     id="path50"
     style="fill:#ffffff" />
  <path
     d="m 97.7509,16.8971 c 0,0.9375 -0.375,1.8334 -1.0209,2.4792 -0.6458,0.6458 -1.5416,1.0208 -2.4583,1.0208 -1.9167,0.0417 -3.5209,-1.4791 -3.5834,-3.3958 -0.0416,-1.9167 1.4792,-3.5208 3.3959,-3.5833 0.0625,0 0.1041,0 0.1666,0 0.9167,0 1.7917,0.3541 2.4584,1 0.6667,0.6666 1.0417,1.5625 1.0417,2.4791 z m -2.3125,0 c -0.0209,-0.6458 -0.5626,-1.1458 -1.2084,-1.125 -0.6042,0.0209 -1.0833,0.5209 -1.125,1.125 -0.0208,0.6459 0.4792,1.1875 1.125,1.2084 0.6458,0.0208 1.1875,-0.4792 1.2084,-1.125 0,0 0,-0.0417 0,-0.0834 z"
     fill="#04254e"
     id="path52"
     style="fill:#ffffff" />
  <path
     d="M 99.084,20.2708 V 9.5 h 2.333 v 10.7708 z"
     fill="#04254e"
     id="path54"
     style="fill:#ffffff" />
  <path
     d="m 103.479,11.3125 c 0,-0.7292 0.583,-1.3125 1.312,-1.3125 0.729,0 1.333,0.5833 1.333,1.3125 0,0.7292 -0.583,1.3333 -1.333,1.3333 -0.729,-0.0208 -1.312,-0.6041 -1.312,-1.3333 z m 0.145,2.2292 h 2.313 v 6.7291 h -2.313 z"
     fill="#04254e"
     id="path56"
     style="fill:#ffffff" />
  <path
     d="m 108.396,17.8125 v -2.1042 h -0.812 v -2.1666 h 0.812 v -2.1042 h 2.334 v 2.1042 h 1.666 v 2.1666 h -1.666 v 2.0834 c -0.021,0.1041 0.062,0.1875 0.166,0.2083 h 1.417 l 0.604,2.2708 h -2.041 c -1.355,0.0209 -2.459,-1.0625 -2.459,-2.4166 -0.021,-0.0209 -0.021,-0.0209 -0.021,-0.0417 z"
     fill="#04254e"
     id="path58"
     style="fill:#ffffff" />
  <path
     d="M 118.271,13.8555 V 13.543 h 2.333 v 6.7291 h -2.333 v -0.3125 c -0.333,0.2709 -0.729,0.4167 -1.167,0.4167 -1.917,0 -3.479,-1.5625 -3.479,-3.4792 0,-1.9166 1.562,-3.4791 3.479,-3.4791 0.417,0 0.834,0.1458 1.167,0.4375 z m 0,3.0416 c -0.021,-0.6458 -0.542,-1.1666 -1.188,-1.1458 -0.646,0.0208 -1.166,0.5417 -1.146,1.1875 0.021,0.6458 0.542,1.1458 1.167,1.1458 0.646,0 1.167,-0.5208 1.167,-1.1875 z"
     fill="#04254e"
     id="path60"
     style="fill:#ffffff" />
  <path
     d="m 127.77,14.3967 c 0.604,0.6042 0.938,1.4375 0.938,2.3125 v 3.5625 h -2.313 v -3.5625 c 0,-0.5208 -0.416,-0.9583 -0.937,-0.9583 -0.521,0 -0.959,0.4166 -0.959,0.9375 v 3.5625 h -2.333 v -6.7084 h 2.333 v 0.3125 c 0.125,-0.2708 0.625,-0.4166 0.959,-0.4166 0.854,-0.0209 1.687,0.3333 2.312,0.9583 z"
     fill="#04254e"
     id="path62"
     style="fill:#ffffff" />
  <defs
     id="defs69">
    <clipPath
       id="clip0_2_7126">
      <rect
         width="129"
         height="30"
         fill="#ffffff"
         id="rect66"
         x="0"
         y="0" />
    </clipPath>
  </defs>
</svg>
