<?xml version="1.0" encoding="UTF-8"?>
<svg width="165px" height="37px" viewBox="0 0 165 37" version="1.1" xmlns="http://www.w3.org/2000/svg" xmlns:xlink="http://www.w3.org/1999/xlink">
    <title>partner-daomaker</title>
    <g id="Website" stroke="none" stroke-width="1" fill="none" fill-rule="evenodd">
        <g id="Desktop-Home-Default-Dark" transform="translate(-945.000000, -4817.000000)" fill="#FFFFFF" fill-rule="nonzero">
            <g id="section-investors" transform="translate(256.000000, 4662.000000)">
                <g id="row-1" transform="translate(0.000000, 120.000000)">
                    <g id="partner-daomaker" transform="translate(689.000000, 35.000000)">
                        <polygon id="Path" points="0 36.9315744 16.2313953 6.39813728 30.5664418 0 14.3124837 30.5334681"></polygon>
                        <polygon id="Path" points="16.1862698 29.9642349 28.5121535 6.76251151 35.5554278 13.7526389 23.3650743 37"></polygon>
                        <polygon id="Path" points="36.9099627 14.4356412 46.0302417 17.8055263 41.4701022 26.275598 30.4083488 26.6626207"></polygon>
                        <path d="M57.2724975,30.5107111 L51.1998837,30.5107111 L51.1998837,13.2288422 L57.3176232,13.2288422 C59.0333162,13.2288422 60.5233813,13.5703821 61.7649487,14.2534619 C63.0065161,14.9365417 63.9773301,15.9383734 64.631958,17.2133814 C65.3091487,18.5113011 65.6251813,20.0367902 65.6251813,21.8355175 C65.6251813,23.6343995 65.2865859,25.1826455 64.6093952,26.4805652 C63.9322045,27.7783301 62.9839533,28.757343 61.7198231,29.4632726 C60.5008185,30.1690474 59.0107534,30.5107111 57.2724975,30.5107111 Z M54.8119255,27.3685504 L57.114558,27.3685504 C58.7172835,27.3685504 59.9364417,26.9358588 60.7717255,26.0478737 C61.6068556,25.1826455 62.0132929,23.7709411 62.0132929,21.8355175 C62.0132929,19.9230054 61.6068556,18.534058 60.7717255,17.6460729 C59.9364417,16.7808447 58.7172835,16.3481531 57.114558,16.3481531 L54.8119255,16.3481531 L54.8119255,27.3685504 Z" id="Shape"></path>
                        <path d="M68.334251,30.5105564 L64.4513022,30.5105564 L70.3659766,13.2515992 L75.0389301,13.2515992 L80.9310417,30.5105564 L77.0480928,30.5105564 L75.7839627,26.571593 L69.5983813,26.571593 L68.334251,30.5105564 Z M70.5239161,23.7254272 L74.8809905,23.7254272 L72.7814231,17.1906245 L72.6460464,17.1906245 L70.5239161,23.7254272 Z" id="Shape"></path>
                        <path d="M95.7853396,21.8811861 C95.7853396,23.7709411 95.4241816,25.3648559 94.7242739,26.6853777 C94.0245204,28.0060544 93.0537066,29.0078242 91.8572649,29.7137538 C90.6382602,30.3967716 89.2837253,30.7610375 87.7712509,30.7610375 C86.2587765,30.7610375 84.8816789,30.4195286 83.685237,29.7137538 C82.4660789,29.0078242 81.5179812,28.0060544 80.8182277,26.6853777 C80.1183207,25.3648559 79.7571626,23.7709411 79.7571626,21.9039431 C79.7571626,20.0140333 80.1183207,18.4202733 80.8182277,17.0995967 C81.5179812,15.77892 82.4660789,14.7771502 83.685237,14.071298 C84.9042417,13.3882337 86.2587765,13.0239213 87.7712509,13.0239213 C89.2837253,13.0239213 90.6382602,13.3654613 91.8572649,14.071298 C93.0762691,14.7543777 94.0245204,15.77892 94.7242739,17.0995967 C95.4467441,18.3746046 95.7853396,19.9912763 95.7853396,21.8811861 Z M92.1281719,21.8811861 C92.1281719,20.0595472 91.7218882,18.6478428 90.9317301,17.6915868 C90.1415719,16.7353308 89.0805067,16.2343685 87.7712509,16.2343685 C86.4618417,16.2343685 85.4009301,16.7125739 84.6107719,17.6915868 C83.8206138,18.6705996 83.4143301,20.0595472 83.4143301,21.8811861 C83.4143301,23.7026702 83.8206138,25.1143747 84.6107719,26.0706306 C85.4009301,27.0268866 86.4618417,27.5278489 87.7712509,27.5278489 C89.0805067,27.5278489 90.1415719,27.0497984 90.9317301,26.0706306 C91.7218882,25.0916178 92.1281719,23.7026702 92.1281719,21.8811861 Z" id="Shape"></path>
                        <polygon id="Path" points="100.638949 13.2288422 105.108837 13.2288422 109.826916 24.8411365 110.030135 24.8411365 114.748214 13.2288422 119.195539 13.2288422 119.195539 30.5107111 115.673902 30.5107111 115.673902 19.2627446 115.538372 19.2627446 111.113763 30.4195286 108.720725 30.4195286 104.296116 19.2170759 104.160586 19.2170759 104.160586 30.5107111 100.638949 30.5107111"></polygon>
                        <path d="M124.455433,30.7384353 C123.236428,30.7384353 122.220488,30.4195286 121.407921,29.7592677 C120.5952,29.1217637 120.188762,28.1427507 120.188762,26.867588 C120.188762,25.9113321 120.414544,25.1371316 120.866107,24.5906554 C121.317516,24.0441792 121.904456,23.6343995 122.649488,23.3839183 C123.371804,23.1334371 124.161962,22.9513816 125.019809,22.8829559 C126.126,22.7691713 126.93872,22.6553865 127.412846,22.5186901 C127.886818,22.3821484 128.135163,22.1316673 128.135163,21.6989757 L128.135163,21.6534618 C128.135163,21.1297426 127.977223,20.6972059 127.638474,20.4239678 C127.299879,20.1279728 126.848469,19.9912763 126.238814,19.9912763 C125.606748,19.9912763 125.087498,20.1279728 124.703776,20.4239678 C124.320056,20.6972059 124.071711,21.0614718 123.958744,21.4940085 L120.662888,21.2209252 C120.911233,20.0367902 121.520734,19.1032912 122.491395,18.4202733 C123.462209,17.7371007 124.726339,17.3728348 126.26153,17.3728348 C127.209627,17.3728348 128.112599,17.5322882 128.925321,17.8282832 C129.760604,18.1242783 130.415232,18.6023289 130.934483,19.2399876 C131.453735,19.8774916 131.702079,20.7199629 131.702079,21.7444896 L131.702079,30.5107111 L128.315818,30.5107111 L128.315818,28.7118291 L128.225414,28.7118291 C127.909381,29.303974 127.457972,29.8047815 126.825754,30.1919591 C126.193688,30.556225 125.403683,30.7384353 124.455433,30.7384353 Z M125.471372,28.2792925 C126.26153,28.2792925 126.893595,28.0515682 127.39013,27.5962745 C127.886818,27.1408262 128.135163,26.571593 128.135163,25.8885751 L128.135163,24.5223846 C127.999786,24.6134123 127.774004,24.7045949 127.480534,24.7728658 C127.187065,24.8411365 126.871033,24.9094074 126.555,24.9549213 C126.216251,25.00059 125.922781,25.0461039 125.67459,25.0916178 C125.042372,25.1826455 124.545837,25.3648559 124.161962,25.615337 C123.778242,25.8885751 123.597586,26.275598 123.597586,26.7765603 C123.597586,27.2775225 123.778242,27.6417884 124.1394,27.8922696 C124.477995,28.1427507 124.929557,28.2792925 125.471372,28.2792925 Z" id="Shape"></path>
                        <polygon id="Path" points="133.05646 30.5107111 133.05646 13.2288422 136.623376 13.2288422 136.623376 22.4504193 136.826595 22.4504193 140.935172 17.5322882 145.021186 17.5322882 140.257981 23.1334371 145.26953 30.4877994 141.093111 30.4877994 137.571475 25.2736733 136.600814 26.3893826 136.600814 30.5107111"></polygon>
                        <path d="M150.416609,30.7610375 C149.1072,30.7610375 147.9786,30.4879542 147.007785,29.941478 C146.059688,29.3950018 145.314655,28.6208013 144.817967,27.6417884 C144.29887,26.6398638 144.050525,25.4558836 144.050525,24.0896931 C144.050525,22.7691713 144.29887,21.5851911 144.817967,20.5832664 C145.337218,19.5814966 146.059688,18.7845392 146.985223,18.238063 C147.910757,17.6688298 149.016948,17.3955917 150.281232,17.3955917 C151.409986,17.3955917 152.425771,17.6460729 153.351307,18.1242783 C154.254279,18.6023289 154.977209,19.3310154 155.519023,20.3100283 C156.060837,21.289196 156.330976,22.4959332 156.330976,23.9759083 L156.330976,24.9549213 L147.594725,24.9549213 C147.594725,25.9113321 147.865632,26.6853777 148.384883,27.2318539 C148.904135,27.7783301 149.626451,28.0743251 150.50686,28.0743251 C151.093799,28.0743251 151.613051,27.9377835 152.042051,27.6873024 C152.470897,27.4368212 152.78693,27.0497984 152.967585,26.571593 L156.263442,26.7993172 C156.01479,28.0060544 155.382418,28.9623103 154.36786,29.6909968 C153.328743,30.3967716 152.019488,30.7610375 150.416609,30.7610375 Z M147.572163,22.7236574 L152.967585,22.7236574 C152.967585,21.9494569 152.719242,21.311953 152.222553,20.8109906 C151.726019,20.3100283 151.116516,20.0595472 150.326357,20.0595472 C149.5362,20.0595472 148.881572,20.3100283 148.384883,20.8337475 C147.888195,21.3574668 147.617288,21.9949708 147.572163,22.7236574 Z" id="Shape"></path>
                        <path d="M157.212,30.5107111 L157.212,17.5550452 L160.665488,17.5550452 L160.665488,19.8092208 L160.800558,19.8092208 C161.026186,19.0122634 161.43293,18.3975164 161.974744,17.9875818 C162.516557,17.5778021 163.171953,17.3728348 163.871861,17.3728348 C164.277069,17.3728348 164.639302,17.4183487 165,17.5095312 L165,20.6972059 C164.841906,20.651692 164.593255,20.6060234 164.300092,20.5605095 C164.00693,20.5149955 163.735255,20.5149955 163.488139,20.5149955 C162.697674,20.5149955 162.042279,20.7654768 161.546511,21.2664391 C161.026186,21.7672466 160.779069,22.4049054 160.779069,23.2017079 L160.779069,30.5107111 L157.212,30.5107111 Z" id="Path"></path>
                    </g>
                </g>
            </g>
        </g>
    </g>
</svg>