<?xml version="1.0" encoding="UTF-8" standalone="no"?>
<!-- Generator: Adobe Illustrator 25.0.1, SVG Export Plug-In . SVG Version: 6.00 Build 0)  -->

<svg
   version="1.0"
   id="katman_1"
   x="0px"
   y="0px"
   viewBox="0 0 90.170891 30"
   xml:space="preserve"
   sodipodi:docname="decrypt.svg"
   width="90.170891"
   height="30"
   inkscape:version="1.1.2 (0a00cf5339, 2022-02-04)"
   xmlns:inkscape="http://www.inkscape.org/namespaces/inkscape"
   xmlns:sodipodi="http://sodipodi.sourceforge.net/DTD/sodipodi-0.dtd"
   xmlns="http://www.w3.org/2000/svg"
   xmlns:svg="http://www.w3.org/2000/svg"><defs
   id="defs13" /><sodipodi:namedview
   id="namedview11"
   pagecolor="#ffffff"
   bordercolor="#666666"
   borderopacity="1.0"
   inkscape:pageshadow="2"
   inkscape:pageopacity="0.0"
   inkscape:pagecheckerboard="0"
   showgrid="false"
   fit-margin-top="0"
   fit-margin-left="0"
   fit-margin-right="0"
   fit-margin-bottom="0"
   inkscape:zoom="7.1034686"
   inkscape:cx="23.228089"
   inkscape:cy="16.118886"
   inkscape:window-width="1920"
   inkscape:window-height="1016"
   inkscape:window-x="0"
   inkscape:window-y="0"
   inkscape:window-maximized="1"
   inkscape:current-layer="katman_1" />
<style
   type="text/css"
   id="style2">
	.st0{fill-rule:evenodd;clip-rule:evenodd;fill:#1D1D1B;}
</style>
<g
   id="g8"
   transform="matrix(0.15216147,0,0,0.15216147,-15.733496,-30.62298)">
	<g
   id="g6">
		<path
   class="st0"
   d="m 185.2,201.7 c -17.9,2.2 -37.6,11.4 -54.4,25.6 -3.4,2.8 -10.5,9.7 -10.5,10.1 0,0.2 3.4,3.8 7.6,8 l 7.6,7.7 -3.2,3.6 c -11.8,13.3 -19.8,26.8 -24.6,41.1 -3,9 -4.3,16.4 -4.3,24.7 0,7.5 1,13.6 3.3,19.5 l 0.9,2.4 22.3,22.3 c 18.6,18.6 22.8,22.6 25.1,24.1 4.8,3.2 10.4,5.4 16.6,6.7 4.1,0.9 13.6,1.2 18.1,0.6 17.8,-2.2 36.2,-10.6 52.3,-24 4.2,-3.5 11.3,-10.2 11.3,-10.6 0,-0.2 -3.5,-3.8 -7.7,-8.1 l -7.7,-7.8 2.4,-2.5 c 5.9,-6.2 13.1,-16.1 17.3,-23.9 6,-10.9 9.9,-22.7 11.2,-33.5 0.5,-4.7 0.2,-14.7 -0.6,-18.5 -1.4,-6.4 -3.6,-11.6 -6.9,-16.6 -1.7,-2.6 -5.1,-6.1 -23.9,-25 l -22,-22 -2.3,-0.9 c -3.1,-1.3 -9.5,-2.8 -13.4,-3.2 -3.9,-0.4 -10,-0.3 -14.5,0.2 z m 18.9,5.9 c 1.6,0.4 4.2,1 5.6,1.5 2.6,0.9 2.7,0.9 6.8,5 3.6,3.6 4.1,4.1 3.2,4 -4.8,-0.9 -12.5,-1.1 -18.5,-0.3 -19.2,2.4 -39,12.1 -57.2,28.1 -1.8,1.6 -3.4,3 -3.7,3.2 -0.3,0.2 -1.9,-1.1 -6.6,-5.8 l -6.2,-6.2 4,-3.5 c 16.7,-14.6 35.1,-23.8 53.1,-26.4 4.8,-0.7 15.5,-0.4 19.5,0.4 z m 26.2,31.8 c 8.8,1.3 16.5,5.1 22.2,10.8 5.6,5.6 9.2,12.8 10.9,21.8 0.7,4 0.7,13 0,17.7 -2.3,14.5 -9,29.4 -19.4,43 -2.4,3.2 -8.1,9.9 -9,10.6 -0.5,0.4 -1.1,-0.1 -6.3,-5.3 -3.2,-3.2 -5.8,-5.9 -5.8,-6 0,-0.1 0.9,-1.2 2,-2.4 18.1,-20 26.6,-45 20.6,-60.5 -2.4,-6 -7.4,-10.5 -13.9,-12.5 -3.3,-1 -9.1,-1.5 -13.4,-1 -6.6,0.6 -14.7,3.2 -22.5,7 -7.8,3.8 -14.9,8.6 -21.8,14.8 l -3.1,2.7 -5.9,-5.9 -5.9,-5.9 2.5,-2.3 c 15.3,-14.3 35.6,-24.5 53,-26.8 3.5,-0.3 12.5,-0.3 15.8,0.2 z m -82.7,34.5 c -2.2,2.5 -5,6 -6.4,7.8 -16.6,22.1 -24.2,46.1 -21.1,66.8 l 0.2,1.3 -4.1,-4 c -3.9,-3.8 -4.1,-4.1 -4.9,-6.5 -7.8,-22.4 2,-53.3 25.1,-79.2 l 2.7,-3 6.2,6.2 6.2,6.2 z m 78.1,-12.8 0.8,0.2 -0.2,4.2 c -0.2,5 -0.9,9.1 -1.9,12.6 -3.2,10.5 -9.1,21 -17.7,30.9 l -3.3,3.8 -6.3,-6.3 -6.3,-6.3 2.9,-3.2 c 6.2,-6.8 11.9,-14.7 15.4,-21.4 1.9,-3.6 4.4,-9.7 5.1,-12.5 0.4,-1.7 0.4,-1.7 1.9,-1.9 0.8,-0.1 1.7,-0.2 2,-0.3 0.8,0 6.9,0 7.6,0.2 z m -17.9,4.4 c -1.4,3.9 -4.5,9.9 -7.5,14.4 -3.3,5 -5.6,8 -10.2,13.2 l -3.2,3.7 -6.3,-6.3 -6.3,-6.3 2.1,-1.9 c 6.5,-5.8 14.1,-11 21.1,-14.6 3.8,-1.9 10,-4.4 10.9,-4.5 0.1,0 -0.1,1 -0.6,2.3 z m 95.8,3.8 c -0.3,0.3 -0.4,8.6 -0.4,39 0,37 0,38.6 0.6,39.1 0.5,0.5 2.1,0.5 15.6,0.5 8.2,0 17.1,-0.2 19.7,-0.3 10.5,-0.7 18.6,-4.1 24.8,-10.3 4.9,-4.9 8,-11.7 9.6,-20.7 0.7,-4.4 0.7,-13.6 0,-17.9 -2.6,-14.5 -10.9,-23.9 -24.2,-27.7 -6.5,-1.8 -7,-1.9 -26.8,-2 -14.7,0 -18.6,0 -18.9,0.3 z m 364.1,1.3 c -0.3,0.3 -0.4,2.8 -0.4,9.2 v 8.8 h -3.8 c -2.5,0 -3.9,0.1 -4.2,0.4 -0.5,0.5 -0.5,10.9 0,11.5 0.3,0.3 1.7,0.4 4.2,0.4 h 3.8 l 0.1,17.8 c 0.1,17.4 0.1,17.9 0.8,19.9 1.9,5.5 5.8,8.5 12.1,9.3 4.3,0.5 10.4,0.3 14.6,-0.5 l 0.9,-0.2 -0.1,-7.3 -0.1,-7.3 -4,-0.2 c -4.3,-0.2 -5,-0.4 -5.5,-1.3 -0.2,-0.4 -0.3,-6.4 -0.3,-15.3 v -14.7 l 5.1,-0.1 5.1,-0.1 v -6.1 -6.1 l -5.1,-0.1 -5.1,-0.1 v -8.6 c 0,-5.3 -0.1,-8.8 -0.3,-9.2 -0.3,-0.6 -0.8,-0.6 -8.8,-0.6 -6.3,0.2 -8.7,0.3 -9,0.5 z m -327.3,16.9 c 6.1,1.6 10.1,5.9 11.7,12.2 1.2,4.8 1.2,12.8 -0.1,17.8 -1.3,4.9 -4.3,8.8 -8.3,10.7 -3.5,1.7 -5.6,2 -12.8,2.2 l -6.5,0.2 v -22 -22 l 7,0.2 c 5.1,0.1 7.6,0.3 9,0.7 z m 61.1,0.4 c -10,1.8 -17.7,8.4 -21.1,18 -4.5,12.6 -2.3,27 5.3,35.1 4,4.2 7.8,6.4 13.6,7.9 11.1,2.8 23,-0.1 30.9,-7.5 1.9,-1.7 6.8,-7.9 6.8,-8.5 0,-0.7 -1.4,-1.6 -7.1,-4.5 -3.5,-1.8 -6.4,-3.3 -6.5,-3.3 -0.1,0 -0.7,0.9 -1.3,2 -1.4,2.7 -4.3,5.7 -6.4,6.8 -6.3,3.1 -13.7,1.3 -16.9,-4.1 -0.9,-1.6 -1.8,-4.4 -1.8,-5.9 v -1.1 h 20 c 15.1,0 20,-0.1 20.3,-0.4 0.5,-0.5 0.5,-4.5 -0.1,-8.5 -1.6,-10.7 -6.1,-18.4 -13.3,-22.7 -2.4,-1.4 -7,-3 -10,-3.5 -3,-0.5 -9.4,-0.4 -12.4,0.2 z m 65.7,-0.4 c -2.8,0.4 -5.1,0.9 -6.9,1.5 -10.1,3.2 -16.8,11.5 -18.9,23.3 -0.8,4.5 -0.5,11.7 0.6,16 1.5,5.8 3.7,9.6 7.7,13.4 3.5,3.3 7.6,5.6 13.1,7.1 1.6,0.5 3.2,0.6 7.3,0.6 4.7,0 5.4,-0.1 8,-0.9 5.2,-1.6 9.2,-4 12.8,-7.8 2.4,-2.5 5.1,-6.2 5.1,-7 0,-0.3 -0.5,-0.8 -1,-1.2 -2.1,-1.3 -11.8,-6.1 -12.3,-6.1 -0.3,0 -0.8,0.7 -1.3,1.7 -1.2,2.6 -2.8,4.3 -5.3,5.5 -1.9,0.9 -2.5,1.1 -4.6,1 -2.8,0 -4.6,-0.7 -6.9,-2.7 -6,-5.3 -6.4,-20 -0.7,-26.7 3.6,-4.2 10.3,-4.2 14.6,-0.1 0.7,0.7 1.7,2 2.2,2.9 0.5,0.9 1.1,1.7 1.4,1.7 0.7,0.2 13,-6.9 13.2,-7.6 0.1,-0.6 -1.2,-2.6 -3.1,-5 -3.1,-3.8 -9.2,-7.5 -14.5,-8.7 -2.7,-0.7 -8.5,-1.1 -10.5,-0.9 z m 160.4,0.7 c -3.3,0.6 -6.3,1.8 -8.7,3.6 l -1.9,1.4 -0.1,-2 -0.1,-2 -7.7,-0.1 c -6.8,-0.1 -7.8,0 -8.3,0.5 -0.6,0.5 -0.6,2 -0.6,39 0,29.5 0.1,38.5 0.4,38.8 0.6,0.6 17.4,0.6 17.9,0 0.3,-0.3 0.4,-3.3 0.4,-11.4 v -11 l 3.1,1.6 c 4.2,2.1 6.8,2.6 11.7,2.4 5.7,-0.3 9.1,-1.4 12.8,-4.2 5.2,-3.9 8.6,-9.9 10.5,-18.2 1,-4.4 1,-12.1 0,-16.8 -1.3,-6.2 -3.4,-10.4 -7.2,-14.4 -5.6,-6.2 -13.8,-8.7 -22.2,-7.2 z m -451,5.9 c 5.4,5.4 5.7,5.8 5.3,6.4 -0.3,0.3 -1.6,1.8 -3,3.4 -5.6,6.4 -10.8,14.2 -14.3,21.4 -2.5,5.1 -4,9.3 -5.5,15 -1.9,7.5 -1.9,15.8 0.2,21.6 3.9,11 14.2,16.2 28.6,14.5 13.9,-1.7 29.9,-9.7 43.6,-21.8 l 2.9,-2.6 5.9,5.9 5.9,5.9 -2.5,2.3 c -12.8,11.9 -29.9,21.6 -44.7,25.2 -6,1.5 -10.2,2 -15.9,2 -7.6,0 -13.2,-1 -19.1,-3.6 -7.6,-3.3 -14.6,-9.8 -18.2,-17 -4.5,-8.9 -5.8,-19.9 -3.8,-31.8 2.8,-16.6 12.1,-34.4 25.8,-49.7 1.4,-1.6 2.7,-2.9 2.8,-2.9 0.1,0 2.8,2.6 6,5.8 z m 355.8,-5.4 c -3.9,0.6 -8.8,2.4 -12,4.5 l -1,0.7 v -2.1 c 0,-1.2 -0.2,-2.2 -0.4,-2.5 -0.3,-0.3 -2.6,-0.4 -8.5,-0.4 -7.4,0 -8.2,0 -8.6,0.6 -0.5,0.5 -0.5,3 -0.5,29 0,27.1 0,28.4 0.6,28.9 0.5,0.5 1.6,0.5 8.8,0.5 6.4,0 8.3,-0.1 8.6,-0.4 0.2,-0.3 0.4,-6.2 0.4,-18.3 0.1,-16.8 0.1,-18 0.7,-19.1 1.2,-2.4 3.3,-3.4 9.4,-4.4 2.3,-0.4 4.6,-0.8 5.1,-0.9 l 0.9,-0.2 v -7.8 c 0,-7.8 -0.1,-8.7 -1.1,-8.5 -0.4,0.1 -1.4,0.2 -2.4,0.4 z m 8.2,0.7 c -0.2,0.3 -0.3,0.8 -0.2,1.3 0.1,0.4 2.8,9.2 6,19.4 12.8,41.2 12.1,38.8 11.2,40.4 -0.8,1.6 -2.2,1.9 -7.2,1.9 -3.1,0 -4.7,0.1 -4.9,0.4 -0.3,0.3 -0.4,2.3 -0.4,7.2 0,4.9 0.1,6.9 0.4,7.2 0.5,0.5 13.2,0.5 16.5,0.1 5.5,-0.8 10,-4.7 12.6,-10.9 0.6,-1.3 5.7,-16.8 11.4,-34.4 8.7,-26.6 10.4,-32.1 10,-32.5 -0.3,-0.4 -1.8,-0.5 -9.7,-0.5 H 577 l -0.3,1.4 c -0.2,0.8 -2.1,9.1 -4.3,18.6 -2.2,9.5 -4,17.4 -4.2,17.5 -0.1,0.1 -2.2,-8.3 -4.5,-18.6 L 559.4,289 h -9.3 c -7.7,0 -9.2,0 -9.5,0.4 z m -127.7,12.5 c 3,1.4 5,4.1 5.6,7.4 l 0.2,1.2 H 408 397.3 l 0.2,-1 c 0.4,-1.8 2.1,-4.7 3.5,-5.9 2.4,-2.1 4.5,-2.8 7.8,-2.6 1.6,0.1 2.8,0.4 4.1,0.9 z m 220.7,0.5 c 2.8,1.5 4.9,4.6 5.9,8.8 0.7,3.1 0.7,10.5 -0.1,13.6 -0.7,2.7 -2.1,5.5 -3.6,7.4 -2.4,2.9 -7.1,3.7 -10.9,1.8 -4.4,-2.2 -6.5,-7.1 -6.5,-15.3 0,-7.6 2,-13 5.7,-15.7 2.9,-2 6.4,-2.2 9.5,-0.6 z m -437.4,16.2 c -8.2,7.7 -18.7,14.6 -27.4,18.1 -1.8,0.7 -3.4,1.3 -3.5,1.3 -0.1,0 0.3,-1.1 0.8,-2.5 3.8,-10.5 10.4,-21.2 18.3,-29.7 l 1.9,-2 6.3,6.2 6.3,6.2 z m 12.6,7.8 6.1,6.1 -1.9,1.8 c -10,9.4 -25.4,17.9 -36.3,20.2 -2.7,0.6 -8.7,1.2 -11.6,1.2 h -1.9 v -4.6 c 0,-2.5 0.1,-5.2 0.2,-5.8 l 0.2,-1.2 3.9,-1.3 c 9.9,-3.2 22.5,-11.1 31.8,-19.9 1.5,-1.4 2.9,-2.6 3.1,-2.6 0.2,0 3.1,2.7 6.4,6.1 z"
   id="path4" />
	</g>
</g>
</svg>
