<?xml version="1.0" encoding="UTF-8"?>
<svg width="151px" height="38px" viewBox="0 0 151 38" version="1.1" xmlns="http://www.w3.org/2000/svg" xmlns:xlink="http://www.w3.org/1999/xlink">
    <title>eth-logo</title>
    <g id="ICO" stroke="none" stroke-width="1" fill="none" fill-rule="evenodd">
        <g id="Desktop-Home-Default-Dark" transform="translate(-279, -732)" fill-rule="nonzero">
            <g id="eth-logo" transform="translate(279, 732)">
                <g id="Group" fill="#8891B1">
                    <path d="M42.629537,21.9630451 C42.629537,22.2298596 42.3918519,22.4685883 42.1262037,22.4685883 L32.8425,22.4685883 C33.0801852,24.6873614 34.7999074,26.849963 37.2326852,26.849963 C38.8964815,26.849963 40.1268519,26.2039911 41.0636111,24.8558758 C41.1614815,24.7154472 41.3012963,24.6171471 41.4690741,24.6171471 C41.7347222,24.6171471 41.930463,24.8137472 41.930463,25.0805617 C41.930463,25.1788618 41.9025,25.2490761 41.8605556,25.3192905 C40.9237963,26.962306 39.0642593,27.7627494 37.2326852,27.7627494 C34.1008333,27.7627494 31.8777778,24.9541759 31.8777778,21.9490022 C31.8777778,18.9438285 34.1008333,16.1492979 37.2326852,16.1492979 C40.364537,16.1492979 42.629537,18.9578714 42.629537,21.9630451 L42.629537,21.9630451 Z M41.6228704,21.5136733 C41.4271296,19.1404287 39.665463,17.1042129 37.2326852,17.1042129 C34.7999074,17.1042129 33.0662037,19.1404287 32.8425,21.5136733 L41.6228704,21.5136733 Z" id="Shape"></path>
                    <path d="M53.9125926,16.3037694 C54.1782407,16.3037694 54.3739815,16.5424982 54.3739815,16.7812269 C54.3739815,17.0480414 54.1782407,17.2586844 53.9125926,17.2586844 L51.4238889,17.2586844 L51.4238889,27.1167775 C51.4238889,27.3555063 51.2141667,27.5801922 50.9485185,27.5801922 C50.6828704,27.5801922 50.4731481,27.3414634 50.4731481,27.1167775 L50.4731481,17.2586844 L48.0823148,17.2586844 C47.8166667,17.2586844 47.6209259,17.0480414 47.6209259,16.7812269 C47.6209259,16.5424982 47.8166667,16.3037694 48.0823148,16.3037694 L50.4731481,16.3037694 L50.4731481,12.736881 C50.4731481,12.4700665 50.6828704,12.2734664 50.9485185,12.2734664 C51.2141667,12.2734664 51.4238889,12.4700665 51.4238889,12.736881 L51.4238889,16.3037694 L53.9125926,16.3037694 Z" id="Path"></path>
                    <path d="M69.0405556,21.0923873 L69.0405556,27.0465632 C69.0405556,27.3133777 68.8867593,27.5099778 68.6490741,27.5099778 C68.3834259,27.5099778 68.2575926,27.3133777 68.2575926,27.0465632 L68.2575926,21.0923873 C68.2575926,19.0842572 67.0971296,17.0761271 64.8600926,17.0761271 C61.9938889,17.0761271 60.7215741,19.5898004 60.8753704,22.1596452 C60.8753704,22.2298596 60.8613889,22.5247598 60.8613889,22.5668884 L60.8613889,27.0465632 C60.8613889,27.3133777 60.7355556,27.5099778 60.4699074,27.5099778 C60.2042593,27.5099778 60.0784259,27.3133777 60.0784259,27.0465632 L60.0784259,7.48484848 C60.0784259,7.24611973 60.2042593,7.02143385 60.4699074,7.02143385 C60.7355556,7.02143385 60.8613889,7.2601626 60.8613889,7.48484848 L60.8613889,18.5506282 C61.8121296,17.1182557 63.0844444,16.1492979 64.7482407,16.1492979 C67.4746296,16.1492979 69.0405556,18.5506282 69.0405556,21.0923873 L69.0405556,21.0923873 Z" id="Path"></path>
                    <path d="M85.7903704,21.9630451 C85.7903704,22.2298596 85.5526852,22.4685883 85.287037,22.4685883 L76.0033333,22.4685883 C76.2410185,24.6873614 77.9607407,26.849963 80.3935185,26.849963 C82.0573148,26.849963 83.2876852,26.2039911 84.2244444,24.8558758 C84.3223148,24.7154472 84.4621296,24.6171471 84.6299074,24.6171471 C84.8955556,24.6171471 85.0912963,24.8137472 85.0912963,25.0805617 C85.0912963,25.1788618 85.0633333,25.2490761 85.0213889,25.3192905 C84.0846296,26.962306 82.2250926,27.7627494 80.3935185,27.7627494 C77.2616667,27.7627494 75.0386111,24.9541759 75.0386111,21.9490022 C75.0386111,18.9438285 77.2616667,16.1492979 80.3935185,16.1492979 C83.5253704,16.1492979 85.7903704,18.9578714 85.7903704,21.9630451 Z M84.7976852,21.5136733 C84.6019444,19.1404287 82.8402778,17.1042129 80.4075,17.1042129 C77.9747222,17.1042129 76.2410185,19.1404287 76.0173148,21.5136733 L84.7976852,21.5136733 Z" id="Shape"></path>
                    <path d="M97.2132407,16.7812269 C97.2132407,17.0761271 97.045463,17.2446415 96.7658333,17.2867701 C94.0394444,17.6940133 92.7950926,19.9268293 92.7950926,22.5388027 L92.7950926,27.0044346 C92.7950926,27.2712491 92.5853704,27.4678492 92.3197222,27.4678492 C92.0540741,27.4678492 91.8443519,27.2712491 91.8443519,27.0044346 L91.8443519,16.8093126 C91.8443519,16.5424982 92.0540741,16.345898 92.3197222,16.345898 C92.5853704,16.345898 92.7950926,16.5424982 92.7950926,16.8093126 L92.7950926,18.8876571 C93.5780556,17.5816704 95.102037,16.345898 96.6959259,16.345898 C96.9336111,16.345898 97.2132407,16.5144124 97.2132407,16.7812269 L97.2132407,16.7812269 Z" id="Path"></path>
                    <path d="M112.481019,21.9630451 C112.481019,22.2298596 112.243333,22.4685883 111.977685,22.4685883 L102.693981,22.4685883 C102.931667,24.6873614 104.651389,26.849963 107.084167,26.849963 C108.747963,26.849963 109.978333,26.2039911 110.915093,24.8558758 C111.012963,24.7154472 111.152778,24.6171471 111.320556,24.6171471 C111.586204,24.6171471 111.781944,24.8137472 111.781944,25.0805617 C111.781944,25.1788618 111.753981,25.2490761 111.712037,25.3192905 C110.775278,26.962306 108.915741,27.7627494 107.084167,27.7627494 C103.952315,27.7627494 101.729259,24.9541759 101.729259,21.9490022 C101.729259,18.9438285 103.952315,16.1492457 107.084167,16.1492457 C110.216019,16.135255 112.481019,18.9578714 112.481019,21.9630451 L112.481019,21.9630451 Z M111.488333,21.5136733 C111.292593,19.1404287 109.530926,17.1042129 107.098148,17.1042129 C104.66537,17.1042129 102.931667,19.1404287 102.707963,21.5136733 L111.488333,21.5136733 Z" id="Shape"></path>
                    <path d="M127.567037,16.879527 L127.567037,20.1234294 L127.567037,27.1027347 C127.567037,27.3695492 127.329352,27.5661493 127.091667,27.5661493 C126.826019,27.5661493 126.616296,27.3695492 126.616296,27.1027347 L126.616296,25.1788618 C125.833333,26.7095344 124.47713,27.8189209 122.743426,27.8189209 C119.975093,27.8189209 118.43713,25.4175905 118.43713,22.8758315 L118.43713,16.8935698 C118.43713,16.6548411 118.646852,16.4301552 118.9125,16.4301552 C119.178148,16.4301552 119.38787,16.668884 119.38787,16.8935698 L119.38787,22.8758315 C119.38787,24.8839616 120.52037,26.8920916 122.757407,26.8920916 C125.889259,26.8920916 126.630278,23.9571323 126.630278,20.7132299 L126.630278,16.9076127 C126.630278,16.668884 126.84,16.4441981 127.105648,16.4441981 C127.329352,16.4161123 127.567037,16.6548411 127.567037,16.879527 Z" id="Path"></path>
                    <path d="M151,21.0643016 L151,27.0465632 C151,27.3133777 150.762315,27.5099778 150.52463,27.5099778 C150.258981,27.5099778 150.049259,27.3133777 150.049259,27.0465632 L150.049259,21.0643016 C150.049259,19.0561715 148.916759,17.09017 146.679722,17.09017 C143.883426,17.09017 142.806852,20.0953437 142.806852,22.4405026 L142.806852,27.0465632 C142.806852,27.3133777 142.569167,27.5099778 142.331481,27.5099778 C142.065833,27.5099778 141.856111,27.3133777 141.856111,27.0465632 L141.856111,21.0643016 C141.856111,19.0561715 140.751574,17.09017 138.528519,17.09017 C135.704259,17.09017 134.529815,19.322986 134.627685,22.3000739 L134.627685,22.5388027 L134.627685,27.0465632 C134.627685,27.3133777 134.417963,27.5099778 134.152315,27.5099778 C133.886667,27.5099778 133.676944,27.3133777 133.676944,27.0465632 L133.676944,16.8233555 C133.676944,16.556541 133.886667,16.3599409 134.152315,16.3599409 C134.417963,16.3599409 134.627685,16.556541 134.627685,16.8233555 L134.627685,18.5225425 C135.410648,17.09017 136.878704,16.1492979 138.5425,16.1492979 C140.443981,16.1492979 141.912037,17.3569845 142.513241,19.1263858 C143.282222,17.3850702 144.778241,16.1492979 146.707685,16.1492979 C149.448056,16.1492979 151,18.5225425 151,21.0643016 L151,21.0643016 Z" id="Path"></path>
                    <polygon id="Path" points="11.6046296 0 0 19.3510717 11.6046296 14.0569106"></polygon>
                </g>
                <polygon id="Path" fill="#63688E" points="11.6046296 14.0569106 0 19.3510717 11.6046296 26.2461197"></polygon>
                <polygon id="Path" fill="#63688E" points="23.2372222 19.3510717 11.6186111 0 11.6186111 14.0569106"></polygon>
                <polygon id="Path" fill="#464A75" points="11.6046296 26.2461197 23.2232407 19.3510717 11.6046296 14.0569106"></polygon>
                <polygon id="Path" fill="#8891B1" points="0 21.5698448 11.6046296 38 11.6046296 28.45085"></polygon>
                <polygon id="Path" fill="#63688E" points="11.6046296 28.45085 11.6046296 38 23.2232407 21.5698448"></polygon>
            </g>
        </g>
    </g>
</svg>