<?xml version="1.0" encoding="UTF-8"?>
<svg width="118px" height="36px" viewBox="0 0 118 36" version="1.1" xmlns="http://www.w3.org/2000/svg" xmlns:xlink="http://www.w3.org/1999/xlink">
    <title>exchange-gateio</title>
    <g id="Website" stroke="none" stroke-width="1" fill="none" fill-rule="evenodd">
        <g id="Desktop-Home-Default-Dark" transform="translate(-331.000000, -587.000000)" fill="#DE5959" fill-rule="nonzero">
            <g id="Group" transform="translate(331.000000, 587.000000)">
                <path d="M14.0921785,17.7159576 L13.7798514,17.4021359 C13.5442034,17.1664996 13.1388687,17.3333816 13.1388687,17.6676497 L13.1388687,22.1495632 C13.1388687,22.3567619 13.3082677,22.5249399 13.5158624,22.5249399 L17.994685,22.5249399 C18.3283758,22.5249399 18.4970555,22.1200457 18.2593214,21.8841214 C18.1132866,21.7375093 18.1132866,21.5002818 18.2593214,21.3536697 L23.0234968,16.5724052 C23.1697338,16.4262574 23.1697338,16.1888932 23.0234968,16.0416655 L22.5895333,15.6089097 C22.3537414,15.3732734 22.5218456,14.9683072 22.8548171,14.9683072 L27.3311941,14.9683072 C27.5381414,14.9683072 27.7073965,15.1365572 27.7073965,15.3437558 L27.7073965,19.8258854 C27.7073965,20.1597935 27.3009828,20.3273955 27.0651909,20.0913992 L26.7628623,19.7894564 C26.6146832,19.638845 26.3788913,19.638845 26.2335175,19.7894564 L18.2020639,27.8244171 C18.0561146,27.9700609 17.818956,27.9700609 17.6709927,27.8244171 L7.84477308,17.9891748 C7.77386077,17.9187737 7.73397419,17.822945 7.73397419,17.7229771 C7.73397419,17.6230091 7.77386077,17.5271804 7.84477308,17.4567793 L21.4479065,3.84221281 C21.5934242,3.69570505 21.5934242,3.45661303 21.4479065,3.31060922 L18.249251,0.109396689 C18.1021937,-0.0364655629 17.8651652,-0.0364655629 17.7181079,0.109396689 L0.10946195,17.735252 C-0.0364873166,17.8818318 -0.0364873166,18.1209238 0.10946195,18.2668556 L17.7181079,35.8907671 C17.8641291,36.036411 18.1037333,36.036411 18.249251,35.8907671 L35.8572496,18.2668556 C36.0026953,18.1203479 36.0026953,17.8824797 35.8572496,17.7364039 L25.4978728,7.36790223 C25.3530025,7.22204242 25.114693,7.22204242 24.9678805,7.36790223 L14.624041,17.7161016 C14.5537351,17.7870847 14.4580096,17.8270147 14.3581457,17.8270147 C14.2582819,17.8270147 14.1625564,17.7870847 14.0922505,17.7161016 L14.0921785,17.7159576 L14.0921785,17.7159576 Z" id="Path"></path>
                <path d="M95.3741232,22.1753371 C94.9201628,22.1753371 94.5284951,22.3381875 94.2001991,22.6655441 C93.8760752,22.9931887 93.7105606,23.3800124 93.7105606,23.827887 C93.7105606,24.5106779 94.0566236,25.0417776 94.7438583,25.4212579 C95.4977018,25.6272327 96.1035099,25.4931799 96.5595564,25.0262269 C96.8891471,24.6965664 97.0514249,24.3013194 97.0514249,23.8407739 C97.0514249,23.3746129 96.8891471,22.9849094 96.5595564,22.6656881 C96.2326272,22.3403473 95.8398086,22.1777849 95.3731162,22.1777849 L95.3741232,22.175769 L95.3741232,22.1753371 L95.3741232,22.1753371 Z M68.6161343,9.50691552 L67.3745945,9.50691552 C66.8383442,9.50691552 66.4022227,9.94017532 66.4022227,10.4768905 L66.4022227,11.1699766 C65.08163,9.79532342 63.5862435,9.10763688 61.916207,9.10763688 C59.9875043,9.10763688 58.3781781,9.82599286 57.0949898,11.2587452 C55.8081331,12.6914974 55.1672942,14.4824198 55.1672942,16.6326642 C55.1672942,18.8196974 55.8081331,20.6455369 57.0912494,22.1088866 C58.3886082,23.5423588 60.0244772,24.258915 62.0059776,24.258915 C63.5730081,24.258915 65.0394781,23.6185285 66.4023666,22.3410672 L66.4023666,23.7114007 C66.4023666,24.3770571 66.9430047,24.9180919 67.6070775,24.9180919 L69.7268305,24.9180919 L69.7268305,10.6174947 C69.7268305,10.0056898 69.2285601,9.50691552 68.6161343,9.50691552 L68.6161343,9.50691552 Z M65.4785488,20.0316442 C64.7231228,20.8759896 63.734063,21.2975144 62.5072691,21.2975144 C61.3581614,21.2975144 60.4062183,20.8610869 59.6534539,19.9882318 C58.9162266,19.1259598 58.548656,18.0039336 58.548656,16.6305043 C58.548656,15.3456997 58.9269444,14.2636301 59.6815791,13.391135 C60.4459965,12.5266312 61.3974361,12.0967551 62.5355383,12.0967551 C63.7420474,12.0967551 64.7213245,12.5226715 65.4767505,13.3804799 C66.2324641,14.253191 66.610249,15.3605304 66.610249,16.7055941 C66.610249,18.0507297 66.2324641,19.1579252 65.4767505,20.0327961 L65.4788365,20.0317162 L65.4785488,20.0316442 Z M55.1661433,11.9266333 L55.1661433,10.5087118 C55.1661433,9.95522206 54.7185847,9.50936331 54.1652867,9.50936331 L52.8569224,9.50936331 C52.3057103,9.50936331 51.8572166,9.95313424 51.8572166,10.5087118 L51.8572166,11.1280761 C50.6605621,9.78207653 49.1602123,9.10785286 47.3558794,9.10785286 C45.2966209,9.10785286 43.6373741,9.88545989 42.3830304,11.4343385 C41.2156521,12.8945925 40.6323585,14.6728439 40.6323585,16.7637652 C40.6323585,18.9129296 41.2613287,20.7060118 42.5171829,22.1376122 C43.7627509,23.5545258 45.36064,24.2571151 47.3125766,24.2571151 C49.0267072,24.2571151 50.542882,23.5873551 51.8571447,22.2421475 L51.8571447,24.2445162 C51.8571447,27.2198116 50.6464635,28.7074953 48.2248854,28.7074953 C46.910263,28.7074953 45.9116363,28.2595487 45.2253366,27.3657434 C45.050327,27.1395383 44.9050251,26.856458 44.789431,26.5183022 C44.6272252,26.0449418 44.1775087,25.7301121 43.6791664,25.7301121 L42.4249666,25.7301121 C41.7924718,25.7301121 41.3223986,26.3323417 41.4823745,26.9451545 C41.8254165,28.2488936 42.4877629,29.309725 43.4739454,30.1306724 C44.7093711,31.1621302 46.2843859,31.678903 48.1953215,31.678903 C50.4602326,31.678903 52.2405403,30.9308135 53.5359569,29.44097 C54.2222565,28.6654508 54.6813961,27.7377363 54.9174037,26.6579705 C54.9960969,26.2670432 55.0576704,25.8118252 55.1010452,25.2950524 C55.1442761,24.7815193 55.1657117,24.1854811 55.1657117,23.5072978 L55.1657117,21.4237199 C54.2395921,20.0870795 53.7734751,18.4905409 53.7734751,16.6310803 C53.7734751,14.8041609 54.2386569,13.2393717 55.1657117,11.9281452 L55.1657117,11.9270653 L55.1661433,11.9266333 L55.1661433,11.9266333 Z M50.9740402,19.9186136 C50.2388989,20.8378328 49.2401283,21.2973704 47.9733405,21.2973704 C46.7082071,21.2973704 45.7179963,20.8407126 45.0006942,19.9269649 C44.3450374,19.0944985 44.0165976,18.02294 44.0165976,16.7192009 C44.0165976,15.3931437 44.3448935,14.3133779 45.0006942,13.4798316 C45.7281387,12.5488774 46.7172705,12.0831483 47.9733405,12.0831483 C49.1494945,12.0831483 50.1158959,12.5097846 50.870099,13.3625534 C51.6157422,14.1962437 51.9899305,15.3101347 51.9899305,16.70581 C51.9899305,18.010629 51.6505571,19.0798837 50.9738963,19.9166698 L50.9738963,19.9189016 L50.9740402,19.9186136 Z M82.6796301,9.51749863 L82.6796301,9.50698751 L75.8156267,9.50698751 L75.8156267,5.30066695 C75.8156267,4.75977615 75.3787141,4.32126078 74.8370689,4.32126078 L73.4971986,4.32126078 C72.9503743,4.32126078 72.5068439,4.76503171 72.5068439,5.31240197 L72.5068439,9.50705951 L71.0936752,9.50705951 L71.0936752,12.5965374 L72.5050457,12.5965374 L72.5050457,24.9162954 L74.3923876,24.9162954 C74.7695343,24.9171161 75.1314743,24.7675449 75.3981782,24.5006503 C75.6648821,24.2337557 75.8143788,23.8715247 75.8136127,23.4940509 L75.8136127,12.5985532 L79.2076344,12.5985532 C79.4737793,12.0870641 79.8024915,11.6107148 80.1861923,11.1804877 C80.8893239,10.4134638 81.7210693,9.85767021 82.6775441,9.51749863 L82.679774,9.51749863 L82.6796301,9.51749863 L82.6796301,9.51749863 Z M99.5680966,4.32118879 C98.9811346,4.32118879 98.4764623,4.53256313 98.0542956,4.95516782 C97.634071,5.37662061 97.4207938,5.87856267 97.4207938,6.45653038 C97.4207938,7.06639143 97.6322008,7.57762071 98.0542956,8.00353713 C98.4764623,8.42498991 98.9874645,8.63535634 99.5849286,8.63535634 C100.1834,8.63535634 100.686921,8.42506191 101.097723,8.00231323 C101.518882,7.57762071 101.732447,7.07056708 101.732447,6.47143314 C101.732447,5.87431503 101.52104,5.36733338 101.098802,4.95739963 C100.675412,4.53270712 100.165848,4.32118879 99.5680966,4.32118879 Z M100.238499,11.1298039 L99.0381044,11.1298039 C98.4227294,11.1298039 97.9212221,11.6286502 97.9212221,12.2476545 L97.9212221,22.7648958 C98.1744933,23.061871 98.2949069,23.4116178 98.2949069,23.8183118 C98.2949069,24.2250058 98.1744933,24.5789282 97.9212221,24.8780632 L97.9212221,25.4699258 L100.051621,25.4699258 C100.704185,25.4699258 101.231875,24.940482 101.231875,24.2863447 L101.231875,12.1209451 C101.231875,11.5735029 100.786546,11.1298039 100.237348,11.1298039 L100.238499,11.1298039 L100.238499,11.1298039 Z M115.793713,13.1607542 C114.303074,11.6993483 112.488383,10.9681774 110.350647,10.9681774 C108.222478,10.9681774 106.417138,11.6930849 104.937217,13.1480113 C103.457296,14.599698 102.71604,16.3621828 102.71604,18.4330177 C102.71604,20.6307781 103.440248,22.4566176 104.892835,23.9103201 C106.345494,25.3812292 108.146303,26.1175837 110.291232,26.1175837 C112.45774,26.1175837 114.287249,25.3969239 115.778967,23.9535885 C117.256802,22.498662 118,20.7003243 118,18.5502959 C118,16.41913 117.264211,14.6228801 115.793713,13.1584504 L115.793713,13.1607542 L115.793713,13.1607542 Z M113.452123,21.9070875 C112.679434,22.7427937 111.644841,23.1559671 110.350935,23.1559671 C109.064006,23.1559671 108.030277,22.7365302 107.245071,21.8900969 C106.480798,21.0576304 106.097546,19.9207734 106.097546,18.490109 C106.097546,17.1567084 106.492163,16.0662875 107.276577,15.2230939 C108.059841,14.3799004 109.084147,13.9561438 110.350647,13.9561438 C111.633332,13.9561438 112.669003,14.3799004 113.452123,15.2230939 C114.22733,16.0556324 114.615545,17.1715391 114.615545,18.561959 C114.615545,19.9587863 114.227114,21.0702294 113.452123,21.9048557 L113.452123,21.9070875 Z" id="Shape"></path>
                <path d="M83.912682,21.3280399 C83.2304825,20.6368976 82.8496045,19.6944963 82.761776,18.5174667 L92.2480468,18.5174667 C92.6809313,18.5174667 93.037856,18.1708876 93.0440421,17.7387797 C93.0440421,15.3688817 92.4358602,13.5218761 91.2208632,12.1861717 C89.9932781,10.8424759 88.3250398,10.1703401 86.2179467,10.1703401 C84.1319296,10.1703401 82.4536209,10.8634262 81.189063,12.2455667 C79.9327772,13.6507453 79.3056053,15.4848641 79.3056053,17.7523866 C79.3056053,20.0389876 79.9538531,21.8751941 81.2459609,23.2574067 C82.149494,24.2188143 83.2570972,24.8420663 84.571288,25.132706 C85.1224281,25.2625111 85.6946442,25.3301135 86.2719674,25.3216182 C88.6292387,25.3703581 90.678211,25.4188821 93.0345471,25.46755 L93.0379279,25.1219789 C92.7494821,24.8083011 92.6048995,24.4300447 92.6048995,23.9882176 C92.6048995,23.5593494 92.755956,23.1905962 93.0500844,22.8715909 L93.0523143,22.4520819 C91.1922344,22.4055738 86.6888831,22.3611535 86.5094856,22.3611535 C85.4538171,22.3611535 84.5858901,22.019902 83.9126101,21.3300557 L83.9126101,21.3280399 L83.912682,21.3280399 L83.912682,21.3280399 Z M83.4521758,14.7053852 C83.6604178,14.3819882 83.906352,14.1051713 84.1966681,13.8748626 C84.4869122,13.6413861 84.805857,13.4669447 85.1605518,13.3444829 C85.5130168,13.2218771 85.8909456,13.1605383 86.2940504,13.1605383 C88.0572384,13.1605383 89.1698767,14.0428245 89.6342673,15.808477 L82.982678,15.808477 C83.0911509,15.3973194 83.2475303,15.0296461 83.4521758,14.7052412 L83.4521758,14.7053852 L83.4521758,14.7053852 Z" id="Shape"></path>
            </g>
        </g>
    </g>
</svg>