<svg xmlns="http://www.w3.org/2000/svg" width="118" height="36" fill="#de5959"><path d="M14.092 17.716l-.312-.314c-.236-.236-.641-.069-.641.266v4.482c0 .207.169.375.377.375h4.479c.334 0 .502-.405.265-.641-.146-.147-.146-.384 0-.53l4.764-4.781c.146-.146.146-.384 0-.531l-.434-.433c-.236-.236-.068-.641.265-.641h4.476c.207 0 .376.168.376.375v4.482c0 .334-.406.502-.642.266l-.302-.302c-.148-.151-.384-.151-.529 0l-8.031 8.035c-.146.146-.383.146-.531 0l-9.826-9.835c-.071-.07-.111-.166-.111-.266s.04-.196.111-.266L21.448 3.842a.38.38 0 0 0 0-.532L18.249.109c-.147-.146-.384-.146-.531 0L.109 17.735c-.146.147-.146.386 0 .532l17.609 17.624c.146.146.386.146.531 0l17.608-17.624c.145-.147.145-.384 0-.53L25.498 7.368c-.145-.146-.383-.146-.53 0L14.624 17.716c-.07.071-.166.111-.266.111s-.196-.04-.266-.111h0 0zm81.282 4.459c-.454 0-.846.163-1.174.49a1.6 1.6 0 0 0-.49 1.162c0 .683.346 1.214 1.033 1.593.754.206 1.36.072 1.816-.395.33-.33.492-.725.492-1.185 0-.466-.162-.856-.492-1.175-.327-.325-.72-.488-1.186-.488l.001-.002h0 0zM68.616 9.507h-1.242a.97.97 0 0 0-.972.97v.693c-1.321-1.375-2.816-2.062-4.486-2.062a6.2 6.2 0 0 0-4.821 2.151c-1.283 1.433-1.928 3.224-1.928 5.374 0 2.187.641 4.013 1.924 5.476 1.297 1.433 2.933 2.15 4.915 2.15 1.567 0 3.034-.64 4.396-1.918v1.37a1.21 1.21 0 0 0 1.205 1.207h2.12V10.617c0-.612-.498-1.111-1.111-1.111h0zm-3.138 10.525c-.755.844-1.744 1.266-2.971 1.266-1.149 0-2.101-.436-2.854-1.309-.737-.862-1.105-1.984-1.105-3.358 0-1.285.378-2.367 1.133-3.239a3.65 3.65 0 0 1 2.854-1.294c1.207 0 2.186.426 2.941 1.284.756.873 1.133 1.98 1.133 3.325s-.378 2.452-1.133 3.327l.002-.001h0zm-10.312-8.105v-1.418a1 1 0 0 0-1.001-.999h-1.308a1 1 0 0 0-1 .999v.619c-1.197-1.346-2.697-2.02-4.501-2.02-2.059 0-3.719.778-4.973 2.326-1.167 1.46-1.751 3.239-1.751 5.329 0 2.149.629 3.942 1.885 5.374 1.246 1.417 2.843 2.12 4.795 2.12 1.714 0 3.23-.67 4.545-2.015v2.002c0 2.975-1.211 4.463-3.632 4.463-1.315 0-2.313-.448-3-1.342a2.92 2.92 0 0 1-.436-.847c-.162-.473-.612-.788-1.11-.788h-1.254c-.632 0-1.103.602-.943 1.215.343 1.304 1.005 2.365 1.992 3.186 1.235 1.031 2.81 1.548 4.721 1.548 2.265 0 4.045-.748 5.341-2.238.686-.776 1.145-1.703 1.381-2.783a12.19 12.19 0 0 0 .184-1.363l.065-1.788v-2.084c-.926-1.337-1.392-2.933-1.392-4.793 0-1.827.465-3.392 1.392-4.703v-.001h0 0zm-4.192 7.992c-.735.919-1.734 1.379-3.001 1.379s-2.255-.457-2.973-1.37c-.656-.832-.984-1.904-.984-3.208 0-1.326.328-2.406.984-3.239.727-.931 1.717-1.397 2.973-1.397 1.176 0 2.143.427 2.897 1.279.746.834 1.12 1.948 1.12 3.343 0 1.305-.339 2.374-1.016 3.211v.002h0zM82.68 9.517v-.011h-6.864V5.301a.98.98 0 0 0-.979-.979h-1.34a.99.99 0 0 0-.99.991v4.195h-1.413v3.089h1.411v12.32h1.887a1.42 1.42 0 0 0 1.421-1.422V12.599h3.394a6.95 6.95 0 0 1 .979-1.418c.703-.767 1.535-1.323 2.491-1.663h.002 0 0zm16.888-5.196c-.587 0-1.092.211-1.514.634s-.634.923-.634 1.501a2.11 2.11 0 0 0 .634 1.547 2.09 2.09 0 0 0 1.531.632c.598 0 1.102-.21 1.513-.633.421-.425.635-.932.635-1.531a2.03 2.03 0 0 0-.634-1.514 2.08 2.08 0 0 0-1.531-.636zm.67 6.809h-1.2a1.12 1.12 0 0 0-1.117 1.118v10.517c.253.297.374.647.374 1.053s-.12.761-.374 1.06v.592h2.13a1.18 1.18 0 0 0 1.18-1.184V12.121c0-.547-.445-.991-.995-.991h.001 0zm15.555 2.031c-1.491-1.461-3.305-2.193-5.443-2.193-2.128 0-3.934.725-5.413 2.18s-2.221 3.214-2.221 5.285c0 2.198.724 4.024 2.177 5.477 1.453 1.471 3.253 2.207 5.398 2.207 2.167 0 3.996-.721 5.488-2.164C117.257 22.499 118 20.7 118 18.55c0-2.131-.736-3.927-2.206-5.392v.002h0zm-2.342 8.746c-.773.836-1.807 1.249-3.101 1.249-1.287 0-2.321-.419-3.106-1.266-.764-.832-1.148-1.969-1.148-3.4 0-1.333.395-2.424 1.179-3.267s1.808-1.267 3.074-1.267c1.283 0 2.318.424 3.101 1.267.775.833 1.163 1.948 1.163 3.339 0 1.397-.388 2.508-1.163 3.343v.002zm-29.538-.579c-.682-.691-1.063-1.634-1.151-2.811h9.486c.433 0 .79-.347.796-.779 0-2.37-.608-4.217-1.823-5.553-1.228-1.344-2.896-2.016-5.003-2.016-2.086 0-3.764.693-5.029 2.075-1.256 1.405-1.883 3.239-1.883 5.507 0 2.287.648 4.123 1.94 5.505.904.961 2.011 1.585 3.325 1.875a6.98 6.98 0 0 0 1.701.189l6.763.146.003-.346a1.62 1.62 0 0 1-.433-1.134c0-.429.151-.798.445-1.117l.002-.42-6.543-.091c-1.056 0-1.924-.341-2.597-1.031v-.002h0 0zm-.461-6.623a3.41 3.41 0 0 1 .744-.831 3.17 3.17 0 0 1 .964-.53c.352-.123.73-.184 1.133-.184 1.763 0 2.876.882 3.34 2.648h-6.652c.108-.411.265-.779.469-1.103h0 0z"/></svg>