<?xml version="1.0" encoding="UTF-8"?>
<svg width="141px" height="66px" viewBox="0 0 141 66" version="1.1" xmlns="http://www.w3.org/2000/svg" xmlns:xlink="http://www.w3.org/1999/xlink">
    <title>partner-insquare-dark</title>
    <defs>
        <polygon id="path-1" points="0 64.7613633 139.968108 64.7613633 139.968108 0 0 0"></polygon>
    </defs>
    <g id="Website" stroke="none" stroke-width="1" fill="none" fill-rule="evenodd">
        <g id="Desktop-Home-Default-Light" transform="translate(-717.000000, -4802.000000)">
            <g id="section-investors" transform="translate(256.000000, 4662.000000)">
                <g id="row-1" transform="translate(0.000000, 120.000000)">
                    <g id="partner-insquare-dark" transform="translate(461.052663, 20.391831)">
                        <path d="M4.11879161,17.7171326 L27.3236128,31.5340607 C27.3745043,31.5645411 27.4373703,31.5640994 27.4882618,31.5345024 L50.4450403,17.8646757 C50.4677063,17.8509816 50.5275787,17.8156419 50.5275787,17.7171326 C50.5275787,17.6186232 50.4677063,17.5824001 50.4450403,17.5691477 L27.4886895,3.89976271 C27.437798,3.86928224 27.3745043,3.86928224 27.3231851,3.89976271 L4.11879161,17.7171326 Z M28.7780838,62.672287 L26.0342185,62.672287 L26.0342185,48.738738 C26.0342185,48.6777771 26.0025716,48.6212336 25.9516801,48.5907532 L1.45618165,34.0051872 C0.55766839,33.4697912 0,32.4723289 0,31.4015369 L0,18.634197 C0,17.5638467 0.55766839,16.5663845 1.45575399,16.0314302 L25.9533908,1.44409728 C26.8497657,0.91135173 27.9625365,0.91135173 28.8584838,1.44409728 L51.8152623,15.1134823 C52.7274607,15.6568297 53.271444,16.6304377 53.271444,17.7175743 C53.271444,18.8047109 52.7270331,19.7774354 51.8152623,20.3203411 L28.8589115,33.9901678 C27.9625365,34.5233551 26.8493381,34.5237969 25.9529631,33.9897261 L2.74386533,20.1697058 L2.74386533,31.4015369 C2.74386533,31.4624978 2.77551215,31.519483 2.82683133,31.5499635 L27.3219022,46.1350877 C28.2199878,46.6696003 28.7780838,47.6675042 28.7780838,48.738738 L28.7780838,62.672287 Z" id="Fill-1" fill="#022429"></path>
                        <path d="M27.9545891,63.7168252 C27.4520929,63.7168252 26.9495966,63.5847709 26.5014127,63.3202252 L3.54567385,49.7899119 C2.6334828,49.252075 2.08907623,48.2887786 2.08907623,47.2126677 C2.08907623,46.136994 2.6334828,45.1732604 3.54524619,44.6358608 L15.0081477,37.8796681 L16.3783587,40.3104283 L4.91588487,47.066621 C4.89321908,47.0797389 4.83291954,47.1151574 4.83291954,47.2126677 C4.83291954,47.3106152 4.89321908,47.3460337 4.91588487,47.359589 L27.8720514,60.8899023 C27.9229425,60.9200736 27.985808,60.9196363 28.0366991,60.8899023 L52.5341392,46.4509508 C52.5850304,46.4212167 52.6166769,46.3648095 52.6166769,46.3044668 L52.6166769,32.7759026 C52.6166769,32.7155599 52.5850304,32.6595899 52.5341392,32.6298558 L40.2864883,25.411036 L41.6566993,22.9798386 L53.9043503,30.1990957 C54.8024287,30.7281872 55.3605202,31.7155332 55.3605202,32.7759026 L55.3605202,46.3044668 C55.3605202,47.3648362 54.8024287,48.3521822 53.9043503,48.881711 L29.4073378,63.3206624 C28.9591539,63.5847709 28.4566577,63.7168252 27.9545891,63.7168252" id="Fill-3" fill="#022429"></path>
                        <mask id="mask-2" fill="white">
                            <use xlink:href="#path-1"></use>
                        </mask>
                        <g id="Clip-6"></g>
                        <polygon id="Fill-5" fill="#022429" mask="url(#mask-2)" points="68.9395157 18.8016861 71.028592 18.8016861 71.028592 8.35630494 68.9395157 8.35630494"></polygon>
                        <polygon id="Fill-7" fill="#022429" mask="url(#mask-2)" points="80.9750969 18.8016861 75.8458074 11.4515806 75.8458074 18.8016861 74.1622063 18.8016861 74.1622063 8.35630494 75.7060744 8.35630494 80.8344566 15.6914678 80.8344566 8.35630494 82.5185113 8.35630494 82.5185113 18.8016861"></polygon>
                        <path d="M72.5667083,37.6033722 C71.0266174,37.6033722 69.9183551,37.2066585 68.9395157,36.1111929 L69.9757368,34.9847846 C70.7246306,35.8100784 71.5443091,36.064086 72.5951897,36.064086 C73.9338165,36.064086 74.7111917,35.429067 74.7111917,34.3340632 C74.7111917,33.8422121 74.5817688,33.4293343 74.3078445,33.1596244 C74.0489987,32.8894526 73.7901528,32.7786129 73.1853415,32.6834755 L71.9765565,32.4932007 C71.1417996,32.3661969 70.4796066,32.0484565 70.0335373,31.5884718 C69.5296675,31.0647542 69.2850624,30.3503001 69.2850624,29.4303306 C69.2850624,27.4620025 70.5805481,26.1134529 72.7103719,26.1134529 C74.0632394,26.1134529 75.0131785,26.4944644 75.8910764,27.3991933 L74.8979963,28.478033 C74.2651224,27.8111475 73.5308881,27.6051704 72.667231,27.6051704 C71.458446,27.6051704 70.796253,28.3667315 70.796253,29.3665978 C70.796253,29.7794757 70.9114352,30.144323 71.1849406,30.4140329 C71.4437865,30.6680405 71.8609555,30.8583153 72.3363439,30.9377504 L73.5019879,31.128487 C74.451927,31.2873573 74.9842782,31.5404412 75.4165257,31.9694832 C75.9773583,32.508903 76.2512826,33.3184946 76.2512826,34.2864945 C76.2512826,36.3656624 74.7111917,37.6033722 72.5667083,37.6033722" id="Fill-8" fill="#022429" mask="url(#mask-2)"></path>
                        <path d="M82.9391362,28.2738591 C82.5494275,27.8601454 81.9415001,27.599791 81.2863903,27.599791 C80.6317342,27.599791 80.0238068,27.8601454 79.6340981,28.2738591 C79.0887782,28.8560899 78.9798957,29.468636 78.9798957,31.6593574 C78.9798957,33.8500788 79.0887782,34.4630707 79.6340981,35.0453015 C80.0238068,35.4590153 80.6317342,35.7193696 81.2863903,35.7193696 C81.7074027,35.7193696 82.0975651,35.5963254 82.4246663,35.3671779 L81.2555403,34.2178739 L82.1910226,33.2981633 L83.2666911,34.3556299 C83.5470636,33.8037144 83.5937924,33.0690158 83.5937924,31.6593574 C83.5937924,29.468636 83.4849098,28.8560899 82.9391362,28.2738591 L82.9391362,28.2738591 Z M84.7166433,37.6033722 L83.6096711,36.5160361 C82.9704399,36.9600651 82.1597189,37.2052619 81.2863903,37.2052619 C80.1018393,37.2052619 79.1350532,36.7915481 78.3715146,36.0408003 C77.2799673,34.9686218 77.2958333,33.7582415 77.2958333,31.6593574 C77.2958333,29.5609191 77.2799673,28.3505388 78.3715146,27.2783604 C79.1350532,26.5271667 80.1018393,26.1134529 81.2863903,26.1134529 C82.4718487,26.1134529 83.4536061,26.5271667 84.2175985,27.2783604 C85.3091457,28.3505388 85.2773883,29.5609191 85.2773883,31.6593574 C85.2773883,33.5130448 85.293267,34.6467453 84.5605784,35.6275323 L85.6521256,36.6845532 L84.7166433,37.6033722 Z" id="Fill-9" fill="#022429" mask="url(#mask-2)"></path>
                        <path d="M91.3897981,37.6033722 C89.3152367,37.6033722 87.7412019,36.0195032 87.7412019,33.6662866 L87.7412019,26.1134529 L89.2865044,26.1134529 L89.2865044,33.586185 C89.2865044,35.1071835 90.1164122,36.0511713 91.3897981,36.0511713 C92.6636004,36.0511713 93.5076662,35.1071835 93.5076662,33.586185 L93.5076662,26.1134529 L95.0529687,26.1134529 L95.0529687,33.6662866 C95.0529687,36.0195032 93.4647758,37.6033722 91.3897981,37.6033722" id="Fill-10" fill="#022429" mask="url(#mask-2)"></path>
                        <path d="M100.836337,28.475255 L99.1230087,33.1109105 L102.503844,33.1109105 L100.836337,28.475255 Z M103.723029,36.5588341 L102.966542,34.4608776 L98.6288658,34.4608776 L97.8723781,36.5588341 L96.0975068,36.5588341 L100.126568,26.1134529 L101.469289,26.1134529 L105.49835,36.5588341 L103.723029,36.5588341 Z" id="Fill-11" fill="#022429" mask="url(#mask-2)"></path>
                        <path d="M110.318489,27.5364259 L108.064362,27.5364259 L108.064362,30.8080255 L110.318489,30.8080255 C111.333215,30.8080255 112.023228,30.2064747 112.023228,29.179697 C112.023228,28.1524924 111.333215,27.5364259 110.318489,27.5364259 L110.318489,27.5364259 Z M112.079807,36.5588341 L109.966717,32.1575656 L108.064362,32.1575656 L108.064362,36.5588341 L106.542888,36.5588341 L106.542888,26.1134529 L110.431236,26.1134529 C112.333181,26.1134529 113.544702,27.3895604 113.544702,29.1647543 C113.544702,30.66116 112.671423,31.6149318 111.54436,31.9376943 L113.854655,36.5588341 L112.079807,36.5588341 Z" id="Fill-12" fill="#022429" mask="url(#mask-2)"></path>
                        <polygon id="Fill-13" fill="#022429" mask="url(#mask-2)" points="116.988269 36.5588341 116.988269 26.1134529 123.255498 26.1134529 123.255498 27.5364259 118.475809 27.5364259 118.475809 30.5877272 122.552815 30.5877272 122.552815 31.9961844 118.475809 31.9961844 118.475809 35.1358612 123.255498 35.1358612 123.255498 36.5588341"></polygon>
                        <polygon id="Fill-14" fill="#022429" mask="url(#mask-2)" points="73.7359303 55.3605202 72.4691185 55.3605202 68.9395157 44.915139 70.6290371 44.915139 73.1025244 52.5146907 75.5760118 44.915139 77.2958207 44.915139"></polygon>
                        <polygon id="Fill-15" fill="#022429" mask="url(#mask-2)" points="77.2958207 55.3605202 77.2958207 44.915139 83.5630494 44.915139 83.5630494 46.3384807 78.7833605 46.3384807 78.7833605 49.3900843 82.860767 49.3900843 82.860767 50.798057 78.7833605 50.798057 78.7833605 53.9376055 83.5630494 53.9376055 83.5630494 55.3605202"></polygon>
                        <polygon id="Fill-16" fill="#022429" mask="url(#mask-2)" points="93.5099242 55.3605202 88.3803562 48.0107151 88.3803562 55.3605202 86.6966637 55.3605202 86.6966637 44.915139 88.2401619 44.915139 93.3692762 52.250429 93.3692762 44.915139 95.0529687 44.915139 95.0529687 55.3605202"></polygon>
                        <polygon id="Fill-17" fill="#022429" mask="url(#mask-2)" points="101.587579 46.3384807 101.587579 55.3605202 100.008278 55.3605202 100.008278 46.3384807 97.1420449 46.3384807 97.1420449 44.915139 104.453812 44.915139 104.453812 46.3384807"></polygon>
                        <path d="M109.147155,55.3605202 C107.072711,55.3605202 105.49835,53.7767154 105.49835,51.4240598 L105.49835,43.8706009 L107.043564,43.8706009 L107.043564,51.3439615 C107.043564,52.8644327 107.873425,53.8083822 109.147155,53.8083822 C110.420884,53.8083822 111.264902,52.8644327 111.264902,51.3439615 L111.264902,43.8706009 L112.810117,43.8706009 L112.810117,51.4240598 C112.810117,53.7767154 111.221598,55.3605202 109.147155,55.3605202" id="Fill-18" fill="#022429" mask="url(#mask-2)"></path>
                        <path d="M118.674793,46.3384807 L116.420667,46.3384807 L116.420667,49.6095197 L118.674793,49.6095197 C119.689109,49.6095197 120.379533,49.0084204 120.379533,47.9816847 C120.379533,46.9545221 119.689109,46.3384807 118.674793,46.3384807 L118.674793,46.3384807 Z M120.435702,55.3605202 L118.322612,50.9594316 L116.420667,50.9594316 L116.420667,55.3605202 L114.899193,55.3605202 L114.899193,44.915139 L118.787131,44.915139 C120.689486,44.915139 121.901007,46.1916212 121.901007,47.9667426 C121.901007,49.4630871 121.027318,50.41682 119.900254,50.7395693 L122.21096,55.3605202 L120.435702,55.3605202 Z" id="Fill-19" fill="#022429" mask="url(#mask-2)"></path>
                        <polygon id="Fill-20" fill="#022429" mask="url(#mask-2)" points="125.344574 55.3605202 125.344574 44.915139 131.611803 44.915139 131.611803 46.3384807 126.832114 46.3384807 126.832114 49.3900843 130.90912 49.3900843 130.90912 50.798057 126.832114 50.798057 126.832114 53.9376055 131.611803 53.9376055 131.611803 55.3605202"></polygon>
                        <path d="M137.328072,55.3605202 C135.787981,55.3605202 134.679718,54.9638065 133.700879,53.8692646 L134.737519,52.7419326 C135.485994,53.5672264 136.306091,53.821234 137.356553,53.821234 C138.69518,53.821234 139.472555,53.186215 139.472555,52.0912112 C139.472555,51.5998219 139.343132,51.1869441 139.069208,50.9172342 C138.810362,50.6470624 138.551516,50.5362227 137.947124,50.4410853 L136.73792,50.2508105 C135.903163,50.1233449 135.24097,49.8065281 134.794901,49.3460816 C134.291031,48.8223641 134.046426,48.1079099 134.046426,47.1879405 C134.046426,45.2196123 135.341911,43.8706009 137.471735,43.8706009 C138.824603,43.8706009 139.774542,44.2516124 140.65244,45.1563413 L139.65936,46.235181 C139.026486,45.5687573 138.292251,45.3627802 137.428594,45.3627802 C136.219809,45.3627802 135.557616,46.1243413 135.557616,47.1242076 C135.557616,47.5370855 135.672798,47.9019328 135.946304,48.1716427 C136.20515,48.4251885 136.622319,48.6154633 137.097707,48.6948984 L138.263351,48.885635 C139.21329,49.0440434 139.74606,49.2985129 140.177889,49.727093 C140.73914,50.2665128 141.012646,51.0756426 141.012646,52.0436425 C141.012646,54.1223485 139.472555,55.3605202 137.328072,55.3605202" id="Fill-21" fill="#022429" mask="url(#mask-2)"></path>
                    </g>
                </g>
            </g>
        </g>
    </g>
</svg>