<svg xmlns="http://www.w3.org/2000/svg" width="131" height="30" fill="#23af91" fill-rule="evenodd"><path d="M103.117 15l-.037-2.152c-.012-.629-.075-1.255-.187-1.874a6.18 6.18 0 0 0-.524-1.633 5.29 5.29 0 0 0-1.048-1.429c-.601-.617-1.32-1.109-2.115-1.447-.862-.345-1.784-.516-2.713-.501a7.09 7.09 0 0 0-2.732.501 6.79 6.79 0 0 0-2.133 1.447c-.422.415-.77.898-1.029 1.429a6.18 6.18 0 0 0-.524 1.633c-.112.619-.175 1.245-.187 1.874L89.869 15l.019 2.152c.012.629.075 1.255.187 1.874a6.18 6.18 0 0 0 .524 1.633 5.22 5.22 0 0 0 1.029 1.429 6.77 6.77 0 0 0 2.133 1.447 7.09 7.09 0 0 0 2.732.501c.929.015 1.852-.156 2.713-.501.795-.338 1.514-.83 2.115-1.447a5.29 5.29 0 0 0 1.048-1.429 6.18 6.18 0 0 0 .524-1.633c.112-.619.175-1.245.187-1.874l.037-2.152h0zm-3.499 0l-.056 2.115a11.81 11.81 0 0 1-.131 1.392 3.69 3.69 0 0 1-.281.872 2.8 2.8 0 0 1-.43.612 2.51 2.51 0 0 1-.936.687c-.407.175-.847.263-1.291.26a3.3 3.3 0 0 1-1.31-.26 2.43 2.43 0 0 1-.954-.687 2.77 2.77 0 0 1-.43-.612 3.76 3.76 0 0 1-.262-.872 11.81 11.81 0 0 1-.131-1.392L93.368 15l.037-2.115a11.81 11.81 0 0 1 .131-1.392 3.76 3.76 0 0 1 .262-.872 2.8 2.8 0 0 1 .43-.612 2.43 2.43 0 0 1 .954-.687 3.3 3.3 0 0 1 1.31-.26c.444-.004.884.085 1.291.26a2.51 2.51 0 0 1 .936.687 2.77 2.77 0 0 1 .43.612 3.69 3.69 0 0 1 .281.872 11.81 11.81 0 0 1 .131 1.392L99.618 15zm31.381-8.572c.005-.082-.024-.162-.081-.222a.3.3 0 0 0-.219-.093h-2.9c-.168.01-.3.148-.299.315v10.576l-7.036-10.799c-.044-.069-.125-.105-.206-.093h-2.676c-.165 0-.299.133-.299.297V23.59c0 .164.134.297.299.297h2.882c.169 0 .308-.13.318-.297V12.978l7.036 10.817c.044.069.125.105.206.093h2.676c.165 0 .299-.133.299-.297V6.428zm-19.349 0c0-.174-.142-.315-.318-.315h-2.882c-.168.01-.3.148-.299.315v17.144c0 .167.131.306.299.315h2.882c.176 0 .318-.141.318-.315V6.428zM77.106 15l.037-2.134a11.08 11.08 0 0 1 .131-1.373c.262-1.54 1.441-2.431 2.957-2.431.973 0 1.871.371 2.433 1.187a3.38 3.38 0 0 1 .561 1.262c.019.037.037.074.094.074h3.406c.056 0 .075-.037.056-.093-.374-2.078-1.497-3.952-3.462-4.88a7.41 7.41 0 0 0-3.125-.649c-1.811-.039-3.558.666-4.828 1.948a5.11 5.11 0 0 0-1.46 2.672c-.187 1.002-.299 2.468-.299 4.416s.112 3.414.299 4.416a5.11 5.11 0 0 0 1.46 2.672c1.269 1.282 3.016 1.987 4.828 1.948a7.41 7.41 0 0 0 3.125-.649c1.965-.928 3.088-2.802 3.462-4.88.019-.056 0-.093-.056-.093h-3.406c-.056 0-.075.037-.094.074a3.38 3.38 0 0 1-.561 1.262c-.561.816-1.46 1.187-2.433 1.187-1.516 0-2.695-.891-2.957-2.431a11.08 11.08 0 0 1-.131-1.373L77.106 15zM41.234 6.409c0-.079-.032-.154-.088-.21a.3.3 0 0 0-.212-.087h-2.882c-.169 0-.308.13-.318.297V23.59c.01.167.149.297.318.297h2.882a.3.3 0 0 0 .212-.087c.056-.056.088-.131.088-.21v-5.047l2.32-2.746 4.753 7.997c.037.057.1.091.168.093h3.518c.15 0 .187-.111.094-.241l-6.213-10.465 5.707-6.791c.112-.148.075-.278-.112-.278h-3.836c-.045-.002-.087.019-.112.056l-6.288 7.477V6.409zm21.014 14.528c-1.609 0-3.088-1.484-3.088-3.266V6.409c0-.164-.134-.297-.299-.297h-2.9a.3.3 0 0 0-.212.087c-.056.056-.088.131-.088.21v11.225c0 3.915 2.957 6.401 6.587 6.401s6.606-2.486 6.606-6.401V6.409c-.01-.167-.149-.297-.318-.297h-2.882a.3.3 0 0 0-.212.087c-.056.056-.088.131-.088.21v11.262c0 1.781-1.478 3.266-3.106 3.266z" fill-rule="nonzero"/><path d="M8.73 15l8.963 8.887 5.651-5.603a2.57 2.57 0 0 1 3.612 0c.997.989.997 2.592 0 3.581l-7.448 7.403a2.62 2.62 0 0 1-3.63 0L5.118 18.581v6.346c.083.957-.385 1.878-1.21 2.381s-1.865.504-2.689 0-1.292-1.425-1.21-2.381V5.073c-.083-.957.385-1.878 1.21-2.381s1.865-.504 2.689 0 1.292 1.425 1.21 2.381v6.346L15.878.732a2.62 2.62 0 0 1 3.63 0l7.448 7.403c.997.989.997 2.592 0 3.581a2.57 2.57 0 0 1-3.612 0l-5.651-5.603L8.73 15zm8.963-2.542h0c-1.416 0-2.564 1.138-2.564 2.542s1.148 2.542 2.564 2.542 2.564-1.138 2.564-2.542-1.148-2.542-2.564-2.542z"/></svg>