<?xml version="1.0" encoding="UTF-8"?>
<svg width="131px" height="30px" viewBox="0 0 131 30" version="1.1" xmlns="http://www.w3.org/2000/svg" xmlns:xlink="http://www.w3.org/1999/xlink">
    <title>exchange-kucoin</title>
    <g id="Website" stroke="none" stroke-width="1" fill="none" fill-rule="evenodd">
        <g id="Desktop-Home-Default-Dark" transform="translate(-160.000000, -590.000000)" fill="#23AF91">
            <g id="exchange-kucoin" transform="translate(160.000000, 590.000000)">
                <path d="M103.117251,15 C103.117251,14.2392766 103.098539,13.5156616 103.079826,12.8477093 C103.067581,12.2191234 103.005008,11.5924944 102.892697,10.973732 C102.794901,10.4081012 102.618573,9.8586243 102.368737,9.34095975 C102.102696,8.80984214 101.748447,8.32687901 101.320817,7.91228402 C100.720222,7.29503838 100.001299,6.80299731 99.2062636,6.46505405 C98.3447384,6.11969178 97.422053,5.94933784 96.4928987,5.96408983 C95.5576762,5.949362 94.6288782,6.11966995 93.7608211,6.46505405 C92.9626385,6.80722845 92.238367,7.29858182 91.6275549,7.91228402 C91.205502,8.32739972 90.8574998,8.81047274 90.5983476,9.34095975 C90.3485117,9.8586243 90.1721834,10.4081012 90.0743875,10.973732 C89.9620769,11.5924944 89.899504,12.2191234 89.8872589,12.8477093 C89.868546,13.5156616 89.868546,14.2392766 89.868546,15 C89.868546,15.7607234 89.868546,16.4843384 89.8872589,17.1522907 C89.899504,17.7808766 89.9620769,18.4075056 90.0743875,19.026268 C90.1721834,19.5918988 90.3485117,20.1413757 90.5983476,20.6590402 C90.8574998,21.1895273 91.205502,21.6726003 91.6275549,22.087716 C92.238367,22.7014182 92.9626385,23.1927715 93.7608211,23.5349459 C94.6288782,23.8803301 95.5576762,24.050638 96.4928987,24.0359102 C97.422053,24.0506622 98.3447384,23.8803082 99.2062636,23.5349459 C100.001299,23.1970027 100.720222,22.7049616 101.320817,22.087716 C101.748447,21.673121 102.102696,21.1901579 102.368737,20.6590402 C102.618573,20.1413757 102.794901,19.5918988 102.892697,19.026268 C103.005008,18.4075056 103.067581,17.7808766 103.079826,17.1522907 C103.098539,16.4843384 103.117251,15.7607234 103.117251,15 L103.117251,15 Z M99.6179465,15 C99.6179465,15.8534946 99.5992336,16.5585553 99.5618079,17.1151823 C99.5456506,17.5811802 99.501912,18.0458355 99.4308179,18.5067495 C99.3739098,18.8078046 99.2796283,19.1007156 99.150125,19.3787984 C99.035035,19.6011287 98.8902684,19.8070765 98.7197292,19.991088 C98.4664723,20.2895215 98.145957,20.5246923 97.7840861,20.6775945 C97.3766873,20.8525697 96.9368604,20.9410535 96.4928987,20.9374651 C96.0429029,20.9409261 95.5969935,20.8525003 95.1829985,20.6775945 C94.812917,20.5298164 94.4851723,20.2940565 94.2286426,19.991088 C94.0581033,19.8070765 93.9133367,19.6011287 93.7982468,19.3787984 C93.6758714,19.0996184 93.5879093,18.8068203 93.5362667,18.5067495 C93.4651726,18.0458355 93.421434,17.5811802 93.4052767,17.1151823 C93.3865639,16.5585553 93.367851,15.8534946 93.367851,15 C93.367851,14.1465054 93.3865639,13.4414447 93.4052767,12.8848177 C93.421434,12.4188198 93.4651726,11.9541645 93.5362667,11.4932505 C93.5879093,11.1931797 93.6758714,10.9003816 93.7982468,10.6212016 C93.9133367,10.3988713 94.0581033,10.1929235 94.2286426,10.008912 C94.4851723,9.70594345 94.812917,9.47018357 95.1829985,9.32240552 C95.5969935,9.14749974 96.0429029,9.05907387 96.4928987,9.06253489 C96.9368604,9.05894655 97.3766873,9.1474303 97.7840861,9.32240552 C98.145957,9.47530771 98.4664723,9.71047846 98.7197292,10.008912 C98.8902684,10.1929235 99.035035,10.3988713 99.150125,10.6212016 C99.2796283,10.8992844 99.3739098,11.1921954 99.4308179,11.4932505 C99.501912,11.9541645 99.5456506,12.4188198 99.5618079,12.8848177 C99.5992336,13.4414447 99.6179465,14.1465054 99.6179465,15 Z" id="Shape" fill-rule="nonzero"></path>
                <path d="M130.999414,6.42794559 C131.004587,6.34604894 130.975341,6.26568214 130.918621,6.20592816 C130.861901,6.14617419 130.782767,6.11236324 130.700008,6.11252368 L127.799515,6.11252368 C127.63117,6.12235913 127.499817,6.26073881 127.500109,6.42794559 L127.500109,17.0038569 L120.464073,6.20529483 C120.420265,6.1364292 120.339366,6.09996893 120.258232,6.11252368 L117.582293,6.11252368 C117.416936,6.11252368 117.282887,6.24543587 117.282887,6.40939136 L117.282887,23.5906086 C117.282887,23.7545641 117.416936,23.8874763 117.582293,23.8874763 L120.464073,23.8874763 C120.63271,23.8877658 120.772272,23.7575261 120.782192,23.5906086 L120.782192,12.9775889 L127.818228,23.7947052 C127.862036,23.8635708 127.942935,23.9000311 128.024069,23.8874763 L130.700008,23.8874763 C130.865365,23.8874763 130.999414,23.7545641 130.999414,23.5906086 L130.999414,6.42794559 Z" id="Path" fill-rule="nonzero"></path>
                <path d="M111.650316,6.42794559 C111.650316,6.25374288 111.507889,6.11252368 111.332197,6.11252368 L108.450417,6.11252368 C108.282072,6.12235913 108.150719,6.26073881 108.151011,6.42794559 L108.151011,23.5720544 C108.150719,23.7392612 108.282072,23.8776409 108.450417,23.8874763 L111.332197,23.8874763 C111.507889,23.8874763 111.650316,23.7462571 111.650316,23.5720544 L111.650316,6.42794559 Z" id="Path" fill-rule="nonzero"></path>
                <path d="M77.106375,15 C77.106375,14.1465054 77.106375,13.4414447 77.1438007,12.8662635 C77.1588987,12.4063541 77.2026455,11.9478093 77.2747907,11.4932505 C77.5367708,9.95324935 78.715681,9.0626463 80.2314227,9.0626463 C81.2044915,9.0626463 82.1027088,9.4337309 82.6640946,10.250117 C82.9362938,10.6281774 83.1273624,11.0575949 83.2254805,11.5118047 C83.2441933,11.5489132 83.2629062,11.5860216 83.3190448,11.5860216 L86.7247854,11.5860216 C86.780924,11.5860216 86.7996369,11.5489132 86.780924,11.4932505 C86.4066668,9.41517667 85.2838951,7.54119941 83.3190448,6.6134879 C82.3378977,6.17271238 81.2710742,5.95102197 80.193997,5.96408983 C78.382571,5.92544493 76.6355,6.63043484 75.3660789,7.91228402 C74.618128,8.63595812 74.1091836,9.56758269 73.9064758,10.5840932 C73.7193472,11.5860216 73.60707,13.0518058 73.60707,15 C73.60707,16.9481942 73.7193472,18.4139784 73.9064758,19.4159068 C74.1091836,20.4324173 74.618128,21.3640419 75.3660789,22.087716 C76.6355,23.3695652 78.382571,24.0745551 80.193997,24.0359102 C81.2710742,24.048978 82.3378977,23.8272876 83.3190448,23.3865121 C85.2838951,22.4588006 86.4066668,20.5848233 86.780924,18.5067495 C86.7996369,18.4510868 86.780924,18.4139784 86.7247854,18.4139784 L83.3190448,18.4139784 C83.2629062,18.4139784 83.2441933,18.4510868 83.2254805,18.4881953 C83.1273624,18.9424051 82.9362938,19.3718226 82.6640946,19.749883 C82.1027088,20.5662691 81.2044915,20.9373537 80.2314227,20.9373537 C78.715681,20.9373537 77.5367708,20.0467506 77.2747907,18.5067495 C77.2026455,18.0521907 77.1588987,17.5936459 77.1438007,17.1337365 C77.106375,16.5585553 77.106375,15.8534946 77.106375,15 Z" id="Path" fill-rule="nonzero"></path>
                <path d="M41.2338209,6.40939136 C41.2338209,6.33065716 41.2022764,6.2551477 41.146127,6.19947421 C41.0899775,6.14380072 41.0138225,6.11243905 40.9344151,6.11243905 L38.0526346,6.11243905 C37.8839982,6.11223416 37.7444355,6.24247385 37.7345159,6.40939136 L37.7345159,23.5906086 C37.7444355,23.7575261 37.8839982,23.8877658 38.0526346,23.8874768 L40.9344151,23.8874768 C41.0138225,23.8874768 41.0899775,23.8561993 41.146127,23.8005258 C41.2022764,23.7448523 41.2338209,23.6693428 41.2338209,23.5906086 L41.2338209,18.543858 L43.5542156,15.7978319 L48.3072823,23.7947052 C48.3444597,23.8513772 48.4075279,23.8861181 48.475698,23.8874768 L51.9937158,23.8874768 C52.1434187,23.8874768 52.1808444,23.7761509 52.0872801,23.6462713 L45.8746104,13.1816854 L51.5820329,6.39083713 C51.6943101,6.24240329 51.6568843,6.11243905 51.4697557,6.11243905 L47.6336193,6.11243905 C47.5890803,6.11093111 47.5467805,6.13190171 47.5213421,6.16818637 L41.2338209,13.6455412 L41.2338209,6.40939136 Z" id="Path" fill-rule="nonzero"></path>
                <path d="M62.2483635,20.9373537 C60.6390575,20.9373537 59.1607415,19.4530153 59.1607415,17.6718092 L59.1607415,6.40939136 C59.1607415,6.24543587 59.026693,6.11252319 58.8613357,6.11252319 L55.9608423,6.11252319 C55.881435,6.11252319 55.8052799,6.14380072 55.7491305,6.19947421 C55.692981,6.2551477 55.6614365,6.33065716 55.6614365,6.40939136 L55.6614365,17.6347007 C55.6614365,21.5496433 58.6180685,24.0359102 62.2483635,24.0359102 C65.8786585,24.0359102 68.8540034,21.5496433 68.8540034,17.6347007 L68.8540034,6.40939136 C68.8440838,6.24247385 68.7045211,6.11223416 68.5358848,6.11252319 L65.6541042,6.11252319 C65.5746968,6.11252319 65.4985418,6.14380072 65.4423923,6.19947421 C65.3862429,6.2551477 65.3546984,6.33065716 65.3546984,6.40939136 L65.3546984,17.6718092 C65.3546984,19.4530153 63.8763824,20.9373537 62.2483635,20.9373537 Z" id="Path" fill-rule="nonzero"></path>
                <path d="M8.72958174,15 L17.693042,23.8874763 L23.344326,18.2840988 C24.3416369,17.2952423 25.9585972,17.2952423 26.955908,18.2840989 C27.9532188,19.2729554 27.9532189,20.8762086 26.9559081,21.8650652 L19.5081895,29.2682031 C18.4981568,30.2439323 16.8879273,30.2439323 15.8778946,29.2682031 L5.11799961,18.5809665 L5.11799961,24.9265132 C5.20065113,25.883096 4.73268149,26.8042363 3.90824374,27.3077677 C3.083806,27.8112991 2.04358223,27.8112991 1.21914448,27.3077677 C0.39470674,26.8042363 -0.0732628978,25.883096 0.00938861979,24.9265132 L0.00938861979,5.07348678 C-0.0732628978,4.11690397 0.39470674,3.19576375 1.21914448,2.69223233 C2.04358223,2.18870091 3.083806,2.18870091 3.90824374,2.69223233 C4.73268149,3.19576375 5.20065113,4.11690397 5.11799961,5.07348678 L5.11799961,11.4190335 L15.8778946,0.731796884 C16.8879273,-0.243932295 18.4981568,-0.243932295 19.5081895,0.731796884 L26.9559081,8.13493478 C27.9532189,9.12379138 27.9532188,10.7270446 26.955908,11.7159011 C25.9585972,12.7047577 24.3416369,12.7047577 23.344326,11.7159012 L17.693042,6.11252368 L8.72958174,15 Z M17.693042,12.4580704 L17.693042,12.4580704 C16.2771707,12.4580704 15.1293801,13.5961311 15.1293801,15 C15.1293801,16.4038689 16.2771707,17.5419296 17.693042,17.5419296 C19.1089134,17.5419296 20.256704,16.4038689 20.256704,15 C20.256704,13.5961311 19.1089134,12.4580704 17.693042,12.4580704 Z" id="Shape"></path>
            </g>
        </g>
    </g>
</svg>