<?xml version="1.0" encoding="UTF-8"?>
<svg width="80px" height="80px" viewBox="0 0 80 80" version="1.1" xmlns="http://www.w3.org/2000/svg" xmlns:xlink="http://www.w3.org/1999/xlink">
    <title>logo-lightspeed</title>
    <defs>
        <circle id="path-1" cx="40" cy="40" r="40"></circle>
    </defs>
    <g id="Desktop" stroke="none" stroke-width="1" fill="none" fill-rule="evenodd">
        <g id="Homepage-v2" transform="translate(-1172, -8172)">
            <g id="logo-lightspeed" transform="translate(1172, 8172)">
                <mask id="mask-2" fill="white">
                    <use xlink:href="#path-1"></use>
                </mask>
                <use id="Mask" fill="#FFFFFF" fill-rule="nonzero" xlink:href="#path-1"></use>
                <g id="lightspeed" mask="url(#mask-2)" fill="#ED5153" fill-rule="nonzero">
                    <g transform="translate(23, 15)" id="Path">
                        <path d="M17,0 L19.3367698,4.08940092 C19.8041237,4.93548387 19.8041237,5.96958525 19.3367698,6.8156682 L5.40962199,31.1170507 L11.9993127,42.5861751 C13.0274914,44.3723502 14.9436426,45.5004608 17,45.5004608 C19.0563574,45.5004608 20.9725086,44.3723502 22.0006873,42.5861751 L28.590378,31.1170507 L26.8611684,28.0147465 L19.3835052,41.035023 C18.9161512,41.881106 17.9814433,42.3981567 17.0467354,42.3981567 C16.0652921,42.3981567 15.1773196,41.881106 14.7099656,41.035023 L8.96151203,31.1170507 L21.9072165,8.55483871 L24.2439863,12.6442396 C24.7113402,13.4903226 24.7113402,14.524424 24.2439863,15.3705069 L15.224055,31.1170507 L17,34.2193548 L26.814433,17.1096774 L33.2639175,28.3437788 C34.2453608,30.0829493 34.2453608,32.1981567 33.2639175,33.9373272 L26.7209622,45.359447 C25.7395189,47.0986175 22.6082474,51 17,51 C11.3917526,51 8.30721649,47.0986175 7.2790378,45.359447 L0.736082474,33.9373272 C-0.245360825,32.1981567 -0.245360825,30.0829493 0.736082474,28.3437788 L17,0"></path>
                    </g>
                </g>
            </g>
        </g>
    </g>
</svg>