<?xml version="1.0" encoding="UTF-8"?>
<svg width="50px" height="50px" viewBox="0 0 50 50" version="1.1" xmlns="http://www.w3.org/2000/svg" xmlns:xlink="http://www.w3.org/1999/xlink">
    <title>02</title>
    <g id="ICO" stroke="none" stroke-width="1" fill="none" fill-rule="evenodd">
        <g id="Desktop-Home-Default-Dark" transform="translate(-704, -3131)">
            <g id="code-integration" transform="translate(657, 3023)">
                <g id="logos" transform="translate(21, 108)">
                    <g id="02" transform="translate(26, 0)">
                        <rect id="Rectangle" fill="#040B0B" x="0" y="0" width="50" height="50" rx="8"></rect>
                        <path d="M24.5,8 L26.080756,10.7262673 C26.3969072,11.2903226 26.3969072,11.9797235 26.080756,12.5437788 L16.6594502,28.7447005 L21.1171821,36.3907834 C21.8127148,37.5815668 23.1089347,38.3336406 24.5,38.3336406 C25.8910653,38.3336406 27.1872852,37.5815668 27.8828179,36.3907834 L32.3405498,28.7447005 L31.1707904,26.6764977 L26.1123711,35.356682 C25.7962199,35.9207373 25.1639175,36.2654378 24.5316151,36.2654378 C23.8676976,36.2654378 23.2670103,35.9207373 22.9508591,35.356682 L19.0621993,28.7447005 L27.8195876,13.7032258 L29.4003436,16.4294931 C29.7164948,16.9935484 29.7164948,17.6829493 29.4003436,18.2470046 L23.2986254,28.7447005 L24.5,30.8129032 L31.1391753,19.4064516 L35.5020619,26.8958525 C36.1659794,28.0552995 36.1659794,29.4654378 35.5020619,30.6248848 L31.075945,38.2396313 C30.4120275,39.3990783 28.2938144,42 24.5,42 C20.7061856,42 18.6195876,39.3990783 17.924055,38.2396313 L13.4979381,30.6248848 C12.8340206,29.4654378 12.8340206,28.0552995 13.4979381,26.8958525 L24.5,8" id="Path" fill="#ED5153" fill-rule="nonzero"></path>
                    </g>
                </g>
            </g>
        </g>
    </g>
</svg>