<svg xmlns="http://www.w3.org/2000/svg" width="60" height="60" fill="none"><path fill="#3156aa" d="M59.033 25.941 46.059 3.508c-2.844-4.675-9.78-4.725-12.526.2L19.911 27.035c-2.545 4.277.599 9.65 5.688 9.65h27.296c5.14 0 8.982-5.522 6.138-10.745z" style="stroke-width:1.80418" transform="translate(0 11.633)"/><path fill="#1972e2" d="m40.32 27.682-.799-1.393c-.748-1.293-2.395-4.078-2.395-4.078L26.149 3.21c-2.844-4.228-9.58-4.577-12.425.746L.948 25.99c-2.644 4.626.5 10.644 6.237 10.694h45.61c-7.036.05-9.28-3.581-12.475-9.002z" style="stroke-width:1.80418" transform="translate(0 11.633)"/><path fill="url(#a)" d="m40.32 27.682-.799-1.393c-.748-1.293-2.395-4.078-2.395-4.078L30.04 9.776l-10.18 17.31c-2.544 4.276.599 9.649 5.69 9.649h27.246c-7.086-.05-9.283-3.631-12.476-9.053Z" style="fill:url(#a);stroke-width:1.80418" transform="translate(0 11.633)"/><defs><linearGradient id="a" x1="8.986" x2="26.437" y1="10.647" y2="17.096" gradientTransform="matrix(1.80707 0 0 1.80127 0 .041)" gradientUnits="userSpaceOnUse"><stop stop-color="#264CA2" stop-opacity="0"/><stop offset="1" stop-color="#234588"/></linearGradient></defs></svg>