<svg xmlns="http://www.w3.org/2000/svg" width="242.216" height="40" fill="none"><path fill="#3156aa" d="M64.074 28.247 49.992 3.82c-3.087-5.09-10.616-5.145-13.595.217L21.611 29.44c-2.762 4.657.65 10.507 6.174 10.507h29.627c5.58 0 9.75-6.012 6.662-11.699z" style="stroke-width:1.96138"/><path fill="#1972e2" d="m43.763 30.143-.867-1.517c-.812-1.408-2.6-4.44-2.6-4.44L28.382 3.495c-3.087-4.605-10.399-4.984-13.486.812L1.03 28.3c-2.87 5.037.542 11.59 6.77 11.645h49.505c-7.637.054-10.074-3.9-13.54-9.803z" style="stroke-width:1.96138"/><path fill="url(#a)" d="m43.763 30.143-.867-1.517c-.812-1.408-2.6-4.44-2.6-4.44l-7.69-13.54-11.05 18.847C18.796 34.15 22.207 40 27.732 40h29.573c-7.69-.054-10.075-3.954-13.54-9.857z" style="fill:url(#a);stroke-width:1.96138"/><path fill="#151617" d="M125.669 39.549V.524H158.1v2.473a3.517 3.517 0 0 1-3.52 3.52H133.76v10.486h20.822v5.992H133.76v10.486h20.822a3.517 3.517 0 0 1 3.52 3.52v2.472zM204.69.524h-7.64c-1.424 0-2.696.6-3.595 1.723l-9.213 11.61-9.213-11.533a4.506 4.506 0 0 0-3.595-1.725h-7.64l15.504 19.474-15.504 19.476h7.64c1.424 0 2.696-.6 3.595-1.723l9.213-11.535 9.288 11.61c.899 1.048 2.171 1.723 3.595 1.723h7.64L189.26 20.148ZM100.278 35.432l10.635-18.577v22.62h8.09V.453h-5.019c-1.572 0-3.07.825-3.82 2.248L97.433 25.919 84.698 2.699C83.95 1.276 82.451.453 80.878.453H75.86v39.024h8.09v-22.62l10.635 18.577zm125.535 4.566c-11.235.15-20.373-8.689-20.448-19.923 0-6.142 1.872-11.235 5.393-14.756C214.278 1.874 219.371 0 225.438 0c7.115 0 12.734 2.473 16.778 7.266l-2.546 2.171c-1.573 1.35-3.896 1.425-5.618.152-2.247-1.724-5.093-2.547-8.314-2.547-7.94 0-12.66 4.793-12.66 12.883 0 8.164 4.869 13.182 12.66 13.182 3.296 0 6.067-.899 8.314-2.546 1.647-1.273 3.97-1.199 5.618.15l2.546 2.17c-4.044 4.72-9.438 7.117-16.403 7.117z" style="stroke-width:2.71243;fill:#fff"/><defs><linearGradient id="a" x1="8.986" x2="26.437" y1="10.647" y2="17.096" gradientTransform="translate(0 .045) scale(1.96138)" gradientUnits="userSpaceOnUse"><stop stop-color="#264CA2" stop-opacity="0"/><stop offset="1" stop-color="#234588"/></linearGradient></defs></svg>