<svg xmlns="http://www.w3.org/2000/svg" width="168" height="21" fill="none"><g clip-path="url(#a)"><path fill="#3156AA" d="m32.668 14.379-7.18-12.454c-1.574-2.596-5.412-2.624-6.931.11l-7.539 12.951c-1.408 2.375.332 5.357 3.148 5.357h15.105c2.844 0 4.97-3.065 3.397-5.964Z"/><path fill="#1972E2" d="m22.312 15.345-.441-.773c-.415-.718-1.326-2.264-1.326-2.264L14.47 1.759c-1.574-2.347-5.302-2.54-6.876.414L.524 14.406c-1.463 2.568.277 5.91 3.453 5.937h25.239c-3.894.028-5.136-1.988-6.904-4.998Z"/><path fill="url(#b)" d="m22.312 15.345-.441-.773c-.415-.718-1.326-2.264-1.326-2.264l-3.921-6.904-5.633 9.61c-1.409 2.375.331 5.357 3.148 5.357H29.216c-3.921-.028-5.136-2.016-6.904-5.026Z"/><path fill="#326AD5" d="M165.813 19.377c-1.022 0-1.823-.221-2.43-.608-.636-.414-.967-1.022-.967-1.85V4.879h1.602c.58 0 1.077.47 1.077 1.077V16.56c0 .028 0 .525.414.939.248.248.552.386.966.386h.304c.111 0 .221.11.221.221v1.298l-1.187-.027ZM131.295 19.376c-1.657 0-3.01-.441-4.032-1.325-.524-.442-.883-.939-1.104-1.491-.221-.552-.332-1.353-.332-2.43 0-1.05.111-1.878.332-2.43.193-.525.552-.994 1.077-1.436 1.021-.884 2.374-1.326 4.031-1.326 1.657 0 3.01.442 4.032 1.326.525.442.884.939 1.077 1.436.221.58.331 1.38.331 2.43 0 1.077-.11 1.877-.331 2.43-.221.552-.58 1.05-1.105 1.49-.966.885-2.319 1.326-3.976 1.326Zm0-8.919c-1.823 0-2.734 1.243-2.734 3.7 0 2.486.911 3.728 2.734 3.728 1.822 0 2.734-1.242 2.734-3.7 0-2.485-.939-3.728-2.734-3.728ZM142.727 19.377c-1.436 0-2.761-.387-3.893-1.133-.111-.11-.332-.248-.608-.414a.233.233 0 0 1-.11-.193V4.879h1.629c.58 0 1.077.497 1.077 1.077v3.728l.497-.276c.58-.304 1.353-.442 2.347-.442 1.74 0 3.065.525 3.949 1.546.773.912 1.16 2.127 1.16 3.618s-.442 2.706-1.326 3.59c-1.022 1.104-2.623 1.657-4.722 1.657Zm.276-8.92c-.607 0-1.298.221-2.071.69l-.11.056v5.992l.11.083c.608.387 1.326.58 2.071.58.994 0 1.768-.414 2.292-1.243.442-.663.691-1.519.691-2.485 0-2.43-1.022-3.673-2.983-3.673ZM155.154 19.349c-3.038 0-4.943-1.988-4.943-5.22 0-3.202 1.877-5.19 4.887-5.19 1.16 0 2.154.303 2.955.883l.166.11v-.8h2.126c.138 0 .221.11.221.22v9.803h-2.375v-.883l-.166.138c-.662.607-1.712.939-2.871.939Zm.552-8.643c-1.906 0-3.038 1.463-3.038 3.424 0 1.96 1.132 3.48 3.038 3.48.607 0 1.657-.056 2.485-.885l.028-.027v-5.026l-.028-.028c-.58-.662-1.436-.938-2.485-.938Z"/><path fill="#151617" d="M57.04 19.238V4.851h11.957v.912c0 .718-.58 1.297-1.298 1.297h-7.676v3.866h7.676v2.21h-7.676v3.866h7.676c.718 0 1.298.58 1.298 1.297v.912l-11.957.027ZM86.173 4.851h-2.816c-.525 0-.995.221-1.326.635l-3.396 4.28-3.397-4.252a1.661 1.661 0 0 0-1.325-.635h-2.817l5.716 7.18-5.716 7.18h2.817c.524 0 .994-.222 1.325-.636l3.397-4.252 3.424 4.28c.331.386.8.635 1.325.635h2.817l-5.716-7.18 5.688-7.235ZM47.68 17.72l3.92-6.848v8.34h2.983V4.825h-1.85c-.58 0-1.133.303-1.409.828l-4.694 8.56-4.695-8.56a1.582 1.582 0 0 0-1.408-.828h-1.85v14.387h2.982v-8.34l3.922 6.849h2.098ZM93.96 19.404c-4.142.055-7.51-3.203-7.538-7.345 0-2.265.69-4.142 1.988-5.44 1.298-1.27 3.176-1.96 5.413-1.96 2.623 0 4.694.91 6.185 2.678l-.939.8a1.66 1.66 0 0 1-2.07.056c-.83-.635-1.879-.94-3.066-.94-2.927 0-4.667 1.768-4.667 4.75 0 3.01 1.795 4.86 4.667 4.86 1.215 0 2.237-.33 3.065-.938.608-.47 1.464-.442 2.071.055l.939.8c-1.491 1.74-3.48 2.624-6.047 2.624Z"/><path fill="#326AD5" d="M112.324 19.404c-4.639 0-7.511-2.817-7.511-7.345 0-4.529 2.872-7.346 7.456-7.346 2.209 0 4.059.635 5.495 1.933l-.69.774a1.613 1.613 0 0 1-1.906.359c-.856-.442-1.85-.663-2.899-.663-2.983 0-4.833 1.905-4.833 4.97 0 3.093 1.933 4.998 5.026 4.998 1.491 0 2.651-.276 3.507-.883l.055-.028V13.22h-3.286v-.967c0-.718.58-1.298 1.298-1.298h4.059c.111 0 .221.11.221.221v6.379c-1.408 1.215-3.424 1.85-5.992 1.85ZM123.646 19.377c-1.022 0-1.823-.221-2.43-.608-.635-.414-.967-1.022-.967-1.85V4.879h1.602c.58 0 1.077.47 1.077 1.077V16.56c0 .028 0 .525.414.939.249.248.552.386.966.386h.304c.111 0 .221.11.221.221v1.298l-1.187-.027Z"/></g><defs><linearGradient id="b" x1="8.986" x2="26.437" y1="10.647" y2="17.096" gradientUnits="userSpaceOnUse"><stop stop-color="#264CA2" stop-opacity="0"/><stop offset="1" stop-color="#234588"/></linearGradient><clipPath id="a"><path fill="#fff" d="M0 0h168v21H0z"/></clipPath></defs></svg>