<?xml version="1.0" encoding="UTF-8" standalone="no"?>
<svg
   width="65.124"
   height="40"
   fill="none"
   version="1.1"
   id="svg15"
   sodipodi:docname="mexc--pictogram.svg"
   inkscape:version="1.1.2 (0a00cf5339, 2022-02-04)"
   xmlns:inkscape="http://www.inkscape.org/namespaces/inkscape"
   xmlns:sodipodi="http://sodipodi.sourceforge.net/DTD/sodipodi-0.dtd"
   xmlns="http://www.w3.org/2000/svg"
   xmlns:svg="http://www.w3.org/2000/svg">
  <sodipodi:namedview
     id="namedview17"
     pagecolor="#ffffff"
     bordercolor="#666666"
     borderopacity="1.0"
     inkscape:pageshadow="2"
     inkscape:pageopacity="0.0"
     inkscape:pagecheckerboard="0"
     showgrid="false"
     inkscape:zoom="2.7662347"
     inkscape:cx="-13.737085"
     inkscape:cy="98.509357"
     inkscape:window-width="1920"
     inkscape:window-height="1016"
     inkscape:window-x="0"
     inkscape:window-y="0"
     inkscape:window-maximized="1"
     inkscape:current-layer="svg15" />
  <path
     fill="#3156aa"
     d="M 96.419861,42.370388 75.229002,5.7300714 C 70.583626,-1.9063904 59.253845,-1.98739 54.770989,6.0555697 L 32.520737,44.158379 c -4.156309,6.985465 0.978132,15.76042 9.290752,15.76042 h 44.583269 c 8.395384,0 14.670482,-9.017954 10.025103,-17.548411 z"
     style="stroke-width:2.94679"
     id="path2" />
  <path
     fill="#1972e2"
     d="m 65.855485,45.214374 -1.304678,-2.27549 C 63.328894,40.826896 60.638278,36.277418 60.638278,36.277418 L 42.709866,5.2425737 C 38.06449,-1.6633916 27.061254,-2.2318888 22.415878,6.4620677 L 1.5485547,42.449888 C -2.7702755,50.005349 2.3641665,59.834801 11.736179,59.917299 H 86.232238 C 74.739935,59.9983 71.072692,54.067329 65.855485,45.212874 Z"
     style="stroke-width:2.94679"
     id="path4" />
  <path
     fill="url(#a)"
     d="m 65.855485,45.214374 -1.304678,-2.27549 C 63.328894,40.826896 60.638278,36.277418 60.638278,36.277418 L 49.06622,15.96752 32.437972,44.239379 c -4.1533,6.985464 0.979637,15.760421 9.293761,15.760421 H 86.233742 C 74.660181,59.9188 71.072692,54.068829 65.85699,45.214374 Z"
     style="fill:url(#a);stroke-width:2.94679"
     id="path6" />
  <defs
     id="defs13">
    <linearGradient
       id="a"
       x1="8.986"
       x2="26.437"
       y1="10.647"
       y2="17.096"
       gradientTransform="matrix(2.9515217,0,0,2.9420553,9.5445545e-5,0.06759973)"
       gradientUnits="userSpaceOnUse">
      <stop
         stop-color="#264CA2"
         stop-opacity="0"
         id="stop8" />
      <stop
         offset="1"
         stop-color="#234588"
         id="stop10" />
    </linearGradient>
  </defs>
</svg>
