<svg xmlns="http://www.w3.org/2000/svg" width="149" height="41"><defs><linearGradient x1="86.7705682%" y1="25.0329122%" x2="8.65851002%" y2="61.7558078%" id="A"><stop stop-color="#c200fb" offset="0%"/>
<stop stop-color="#3772ff" offset="48.9658%"/>
<stop stop-color="#3773fe" offset="48.9758%"/>
<stop stop-color="#5ac4be" offset="100%"/>
</linearGradient><linearGradient x1="128.267135%" y1="-8.07732115%" x2="-40.488068%" y2="75.6766646%" id="B"><stop stop-color="#c200fb" offset="0%"/>
<stop stop-color="#3772ff" offset="48.9658%"/>
<stop stop-color="#3773fe" offset="48.9758%"/>
<stop stop-color="#5ac4be" offset="100%"/>
</linearGradient><linearGradient x1="284.589619%" y1="-219.002651%" x2="-400.142642%" y2="21.5820487%" id="C"><stop stop-color="#c200fb" offset="0%"/>
<stop stop-color="#3772ff" offset="48.9658%"/>
<stop stop-color="#3773fe" offset="48.9758%"/>
<stop stop-color="#5ac4be" offset="100%"/>
</linearGradient><linearGradient x1="86.9168922%" y1="25.1611492%" x2="-668.545343%" y2="380.324279%" id="D"><stop stop-color="#c200fb" offset="0%"/>
<stop stop-color="#3772ff" offset="48.9658%"/>
<stop stop-color="#3773fe" offset="48.9758%"/>
<stop stop-color="#5ac4be" offset="100%"/>
</linearGradient></defs><g fill="none" fill-rule="evenodd"><path d="M51.214 25.302l-1.837-3.202h-2.689v3.202h-1.582v-9.614h4.764a3.15 3.15 0 0 1 1.65.452 3.19 3.19 0 0 1 1.178 1.25c.272.518.398 1.101.364 1.686a3.22 3.22 0 0 1-.556 1.632c-.344.512-.83.909-1.397 1.144l1.96 3.45h-1.855zm-1.345-7.982h-3.182v3.193h3.182a1.5 1.5 0 0 0 .604-.127 1.51 1.51 0 0 0 .503-.36 1.61 1.61 0 0 0 .428-.818 1.62 1.62 0 0 0-.09-.92c-.119-.291-.32-.541-.579-.717a1.58 1.58 0 0 0-.875-.276l.009.027zm16.937-1.632l-4.772 9.614h1.775l2.997-6.022 2.988 6.022h1.775l-4.764-9.614zm20.109 0h-2.021l-2.716 3.547-2.707-3.547h-2.03l3.981 5.126v4.488h1.582v-4.567l3.911-5.046zm8.103 0h3.173c1.261.009 2.467.519 3.358 1.418s1.396 2.117 1.405 3.389c-.007 1.273-.511 2.491-1.403 3.391a4.77 4.77 0 0 1-3.361 1.416h-3.173v-9.614zm3.173 7.982c.841-.002 1.646-.34 2.241-.94s.93-1.413.932-2.261a3.25 3.25 0 0 0-.939-2.254c-.593-.598-1.395-.939-2.233-.948h-1.6v6.403h1.6zm15.337-7.982h-1.582v9.614h1.582v-9.614zm16.928 5.596c.009.529-.091 1.054-.292 1.542a3.83 3.83 0 0 1-.878 1.296 3.95 3.95 0 0 1-2.031 1.096c-.771.154-1.568.074-2.293-.23a3.97 3.97 0 0 1-1.779-1.478c-.435-.659-.666-1.434-.664-2.226v-5.596h1.582v5.596c0 .637.251 1.249.698 1.7a2.37 2.37 0 0 0 1.684.704c.632 0 1.238-.253 1.685-.704a2.42 2.42 0 0 0 .697-1.7v-5.596h1.592v5.596zm10.573 4.018v-5.747l3.19 3.21 3.174-3.21v5.747H149v-9.614l-4.782 4.807-4.763-4.807v9.614h1.573z" fill="#000"/>
<g fill-rule="nonzero"><path fill="url(#A)" d="M33.354 15.387v14.296l-15.759 9.179-15.767-9.179V11.316l15.767-9.188 12.111 7.059 1.828-1.064L17.596 0 0 10.252v20.496L17.596 41l17.596-10.252V14.323z"/>
<path d="M13.184 29.692h-2.637v-8.922h8.789a3.15 3.15 0 0 0 2.212-.944c.586-.596.915-1.4.917-2.239.005-.415-.075-.826-.233-1.209s-.393-.729-.69-1.017a3.05 3.05 0 0 0-1.009-.693c-.379-.16-.786-.241-1.197-.238h-8.789v-2.714h8.798c1.54.009 3.015.631 4.104 1.73s1.705 2.587 1.714 4.141a5.74 5.74 0 0 1-1.028 3.326 5.74 5.74 0 0 1-2.531 2.093c-1.017.326-2.079.487-3.147.479h-5.273v6.208z" fill="url(#B)"/>
<path d="M25.101 29.471h-3.076l-2.373-4.177c.939-.058 1.865-.249 2.751-.568l2.698 4.745z" fill="url(#C)"/>
<path fill="url(#D)" d="M31.517 12.416l1.819 1.02 1.819-1.02v-2.155l-1.819-1.064-1.819 1.064z"/>
</g></g></svg>