<?xml version="1.0" encoding="UTF-8" standalone="no"?>
<!-- Generator: Adobe Illustrator 26.0.3, SVG Export Plug-In . SVG Version: 6.00 Build 0)  -->

<svg
   version="1.0"
   id="katman_1"
   x="0px"
   y="0px"
   viewBox="0 0 25.979548 30"
   xml:space="preserve"
   sodipodi:docname="raydium--pictogram.svg"
   width="25.979548"
   height="30"
   inkscape:version="1.1.2 (0a00cf5339, 2022-02-04)"
   xmlns:inkscape="http://www.inkscape.org/namespaces/inkscape"
   xmlns:sodipodi="http://sodipodi.sourceforge.net/DTD/sodipodi-0.dtd"
   xmlns="http://www.w3.org/2000/svg"
   xmlns:svg="http://www.w3.org/2000/svg"><defs
   id="defs53" /><sodipodi:namedview
   id="namedview51"
   pagecolor="#ffffff"
   bordercolor="#666666"
   borderopacity="1.0"
   inkscape:pageshadow="2"
   inkscape:pageopacity="0.0"
   inkscape:pagecheckerboard="0"
   showgrid="false"
   fit-margin-top="0"
   fit-margin-left="0"
   fit-margin-right="0"
   fit-margin-bottom="0"
   inkscape:zoom="12.037721"
   inkscape:cx="10.633242"
   inkscape:cy="20.228081"
   inkscape:window-width="1920"
   inkscape:window-height="1016"
   inkscape:window-x="0"
   inkscape:window-y="0"
   inkscape:window-maximized="1"
   inkscape:current-layer="katman_1" />
<style
   type="text/css"
   id="style2">
	.st0{fill:url(#SVGID_1_);}
	.st1{fill:url(#SVGID_00000099621427879425443890000001299777822790279314_);}
	.st2{fill:url(#SVGID_00000181804051260605491930000009988412802160056225_);}
	.st3{fill:url(#SVGID_00000047033281135198000260000003122494689506695357_);}
</style>
<g
   id="g48"
   transform="matrix(0.08073197,0,0,0.08073197,-11.229817,-3.1646932)">
	
		<linearGradient
   id="SVGID_1_"
   gradientUnits="userSpaceOnUse"
   x1="591.44409"
   y1="222.5446"
   x2="250.1554"
   y2="86.064102"
   gradientTransform="matrix(1,0,0,-1,-120.9449,379.3622)">
		<stop
   offset="0"
   style="stop-color:#7D4695"
   id="stop4" />
		<stop
   offset="0.4897"
   style="stop-color:#4267B0"
   id="stop6" />
		<stop
   offset="0.4898"
   style="stop-color:#4368B0"
   id="stop8" />
		<stop
   offset="1"
   style="stop-color:#60BFBB"
   id="stop10" />
	</linearGradient>
	<path
   class="st0"
   d="M 444.1,178.7 V 308.3 L 300,391.5 155.8,308.3 V 141.8 L 300,58.5 l 110.8,64 16.7,-9.6 L 300,39.2 139.1,132.1 V 317.9 L 300,410.8 460.9,317.9 V 169 Z"
   id="path13"
   style="fill:url(#SVGID_1_)" />
	
		<linearGradient
   id="SVGID_00000053537099958566341140000009251717371239680416_"
   gradientUnits="userSpaceOnUse"
   x1="584.85522"
   y1="239.021"
   x2="243.5665"
   y2="102.5405"
   gradientTransform="matrix(1,0,0,-1,-120.9449,379.3622)">
		<stop
   offset="0"
   style="stop-color:#7D4695"
   id="stop15" />
		<stop
   offset="0.4897"
   style="stop-color:#4267B0"
   id="stop17" />
		<stop
   offset="0.4898"
   style="stop-color:#4368B0"
   id="stop19" />
		<stop
   offset="1"
   style="stop-color:#60BFBB"
   id="stop21" />
	</linearGradient>
	<path
   style="fill:url(#SVGID_00000053537099958566341140000009251717371239680416_)"
   d="m 259.6,308.3 h -24.1 v -80.9 h 80.4 c 7.6,-0.1 14.9,-3.2 20.2,-8.6 5.4,-5.4 8.4,-12.7 8.4,-20.3 0,-3.8 -0.7,-7.5 -2.1,-11 -1.5,-3.5 -3.6,-6.6 -6.3,-9.2 -2.6,-2.7 -5.8,-4.8 -9.2,-6.3 -3.5,-1.5 -7.2,-2.2 -11,-2.2 H 235.5 V 145.2 H 316 c 14.1,0.1 27.6,5.7 37.5,15.7 10,10 15.6,23.5 15.7,37.5 0.1,10.8 -3.2,21.3 -9.4,30.1 -5.7,8.4 -13.8,15 -23.2,19 -9.3,3 -19,4.4 -28.8,4.3 h -48.2 z"
   id="path24" />
	
		<linearGradient
   id="SVGID_00000002349843006773838570000001446356632445203619_"
   gradientUnits="userSpaceOnUse"
   x1="618.98138"
   y1="153.68381"
   x2="277.6926"
   y2="17.2033"
   gradientTransform="matrix(1,0,0,-1,-120.9449,379.3622)">
		<stop
   offset="0"
   style="stop-color:#7D4695"
   id="stop26" />
		<stop
   offset="0.4897"
   style="stop-color:#4267B0"
   id="stop28" />
		<stop
   offset="0.4898"
   style="stop-color:#4368B0"
   id="stop30" />
		<stop
   offset="1"
   style="stop-color:#60BFBB"
   id="stop32" />
	</linearGradient>
	<path
   style="fill:url(#SVGID_00000002349843006773838570000001446356632445203619_)"
   d="m 368.7,306.3 h -28.1 l -21.7,-37.9 c 8.6,-0.5 17.1,-2.3 25.2,-5.1 z"
   id="path35" />
	
		<linearGradient
   id="SVGID_00000169520138224632819030000015293727426271812252_"
   gradientUnits="userSpaceOnUse"
   x1="582.57111"
   y1="244.6637"
   x2="241.28239"
   y2="108.1833"
   gradientTransform="matrix(1,0,0,-1,-120.9449,379.3622)">
		<stop
   offset="0"
   style="stop-color:#7D4695"
   id="stop37" />
		<stop
   offset="0.4897"
   style="stop-color:#4267B0"
   id="stop39" />
		<stop
   offset="0.4898"
   style="stop-color:#4368B0"
   id="stop41" />
		<stop
   offset="1"
   style="stop-color:#60BFBB"
   id="stop43" />
	</linearGradient>
	<path
   style="fill:url(#SVGID_00000169520138224632819030000015293727426271812252_)"
   d="m 427.3,151.7 16.7,9.3 16.6,-9.2 v -19.5 l -16.6,-9.6 -16.6,9.6 v 19.4 z"
   id="path46" />
</g>
</svg>
