<?xml version="1.0" encoding="UTF-8"?>
<svg width="149px" height="41px" viewBox="0 0 149 41" version="1.1" xmlns="http://www.w3.org/2000/svg" xmlns:xlink="http://www.w3.org/1999/xlink">
    <title>exchange-raydium</title>
    <defs>
        <linearGradient x1="86.7705682%" y1="25.0329122%" x2="8.65851002%" y2="61.7558078%" id="linearGradient-1">
            <stop stop-color="#C200FB" offset="0%"></stop>
            <stop stop-color="#3772FF" offset="48.9658%"></stop>
            <stop stop-color="#3773FE" offset="48.9758%"></stop>
            <stop stop-color="#5AC4BE" offset="100%"></stop>
        </linearGradient>
        <linearGradient x1="128.267135%" y1="-8.07732115%" x2="-40.488068%" y2="75.6766646%" id="linearGradient-2">
            <stop stop-color="#C200FB" offset="0%"></stop>
            <stop stop-color="#3772FF" offset="48.9658%"></stop>
            <stop stop-color="#3773FE" offset="48.9758%"></stop>
            <stop stop-color="#5AC4BE" offset="100%"></stop>
        </linearGradient>
        <linearGradient x1="284.589619%" y1="-219.002651%" x2="-400.142642%" y2="21.5820487%" id="linearGradient-3">
            <stop stop-color="#C200FB" offset="0%"></stop>
            <stop stop-color="#3772FF" offset="48.9658%"></stop>
            <stop stop-color="#3773FE" offset="48.9758%"></stop>
            <stop stop-color="#5AC4BE" offset="100%"></stop>
        </linearGradient>
        <linearGradient x1="86.9168922%" y1="25.1611492%" x2="-668.545343%" y2="380.324279%" id="linearGradient-4">
            <stop stop-color="#C200FB" offset="0%"></stop>
            <stop stop-color="#3772FF" offset="48.9658%"></stop>
            <stop stop-color="#3773FE" offset="48.9758%"></stop>
            <stop stop-color="#5AC4BE" offset="100%"></stop>
        </linearGradient>
    </defs>
    <g id="Website" stroke="none" stroke-width="1" fill="none" fill-rule="evenodd">
        <g id="Desktop-Home-Default-Dark" transform="translate(-489.000000, -584.000000)">
            <g id="exchange-raydium" transform="translate(489.000000, 584.000000)">
                <path d="M51.213535,25.3024655 L49.3767375,22.1007383 L46.6872875,22.1007383 L46.6872875,25.3024655 L45.10528,25.3024655 L45.10528,15.688764 L49.86881,15.688764 C50.4495375,15.6841282 51.0203317,15.8403681 51.5191092,16.1404438 C52.0178867,16.4406449 52.4254017,16.873155 52.6974508,17.390864 C52.9693758,17.9085731 53.0952808,18.4916848 53.0615075,19.076676 C53.02761,19.6616672 52.8354,20.2261104 52.5056133,20.7083616 C52.161175,21.2199313 51.6751867,21.6178606 51.1081175,21.8525337 L53.0680883,25.3024655 L51.213535,25.3024655 Z M49.86881,17.3205749 L46.6872875,17.3205749 L46.6872875,20.513281 L49.86881,20.513281 C50.0767892,20.5131557 50.2824092,20.4698045 50.473005,20.3858584 C50.6634767,20.3020377 50.8348267,20.1792509 50.9762525,20.0255169 C51.1952825,19.8011179 51.3440342,19.5167036 51.4040067,19.2076068 C51.4639792,18.8985099 51.432565,18.5783873 51.3136133,18.2872073 C51.1945375,17.9960273 50.9933875,17.7465697 50.7348725,17.5699072 C50.4764817,17.3933699 50.1721492,17.2973957 49.8601183,17.2940128 L49.86881,17.3205749 Z M66.8053917,15.688764 L62.0329217,25.3024655 L63.8083808,25.3024655 L66.8053917,19.2805271 L69.7937108,25.3024655 L71.5690458,25.3024655 L66.8053917,15.688764 Z M86.9145558,15.688764 L84.8931225,15.688764 L82.177225,19.2361735 L79.4702675,15.688764 L77.4400183,15.688764 L81.4214225,20.8148603 L81.4214225,25.3024655 L83.00343,25.3024655 L83.00343,20.7350489 L86.9145558,15.688764 Z M95.0179208,15.688764 L98.1907517,15.688764 C99.4512917,15.6980357 100.657571,16.2074754 101.548963,17.106951 C102.440356,18.0063013 102.945218,19.2236442 102.954406,20.4956148 C102.947453,21.768337 102.443336,22.9868076 101.551447,23.8867844 C100.659682,24.7867612 99.4520367,25.2954491 98.1907517,25.3024655 L95.0179208,25.3024655 L95.0179208,15.688764 Z M98.1907517,23.6705293 C99.0314842,23.6682741 99.8372017,23.3301093 100.431712,22.7302084 C101.026222,22.1303074 101.361223,21.3174089 101.363583,20.4689274 C101.354394,19.6227012 101.017158,18.8136868 100.424138,18.2152894 C99.8311175,17.6168919 99.0293733,17.2765972 98.1907517,17.2673255 L96.5911125,17.2673255 L96.5911125,23.6705293 L98.1907517,23.6705293 Z M113.527694,15.688764 L111.945687,15.688764 L111.945687,25.3024655 L113.527694,25.3024655 L113.527694,15.688764 Z M130.455708,21.2848329 C130.4644,21.813693 130.365067,22.338669 130.163917,22.8270595 C129.962767,23.3153248 129.664767,23.7566054 129.286058,24.1228356 C128.731033,24.6831442 128.024525,25.0645349 127.254692,25.2187701 C126.483617,25.37288 125.686467,25.2929433 124.961333,24.9889834 C124.2362,24.6850236 123.617353,24.1706974 123.182522,23.5112824 C122.74769,22.8518675 122.516616,22.0769327 122.518712,21.2848329 L122.518712,15.688764 L124.100734,15.688764 L124.100734,21.2848329 C124.100734,21.9223216 124.351675,22.5336243 124.798675,22.984427 C125.244433,23.4351045 125.850367,23.6883209 126.482375,23.6883209 C127.114383,23.6883209 127.720317,23.4351045 128.167317,22.984427 C128.613075,22.5336243 128.863892,21.9223216 128.863892,21.2848329 L128.863892,15.688764 L130.455708,15.688764 L130.455708,21.2848329 Z M141.0285,25.3024655 L141.0285,19.5555444 L144.218342,22.7659167 L147.392042,19.5555444 L147.392042,25.3024655 L149,25.3024655 L149,15.688764 L144.218342,20.4956148 L139.455308,15.688764 L139.455308,25.3024655 L141.0285,25.3024655 Z" id="Shape" fill="#F1F1F2"></path>
                <g id="Group" fill-rule="nonzero">
                    <polygon id="Path" fill="url(#linearGradient-1)" points="33.3542708 15.3871847 33.3542708 29.683572 17.5955342 38.8626335 1.82811825 29.683572 1.82811825 11.3164656 17.5955342 2.12848329 29.706875 9.1879823 31.5349808 8.12373439 17.5955342 -1.11282187e-15 0 10.2522177 0 30.7478074 17.5955342 41 35.1911925 30.7478074 35.1911925 14.3229493"></polygon>
                    <path d="M13.18352,29.6924678 L10.5468036,29.6924678 L10.5468036,20.7705067 L19.3358542,20.7705067 C20.1673983,20.7612351 20.9618167,20.4219427 21.5473867,19.8260511 C22.1329567,19.2302848 22.462495,18.4257809 22.46473,17.5865711 C22.4694483,17.1717273 22.3901058,16.7601411 22.2314208,16.3773722 C22.0726117,15.994478 21.8380608,15.6485451 21.5417992,15.3606227 C21.2552225,15.0634286 20.91215,14.8277532 20.5330692,14.6677546 C20.1539883,14.5076306 19.7467217,14.4265663 19.3358542,14.4293227 L10.5468036,14.4293227 L10.5468036,11.7155476 L19.3445458,11.7155476 C20.8848333,11.7248568 22.3594367,12.3464084 23.4486267,13.4453999 C24.5376925,14.5444667 25.1536833,16.0324416 25.1628717,17.5865711 C25.1723083,18.7763496 24.8128458,19.9391903 24.1346475,20.912338 C23.5104617,21.8435126 22.630865,22.5708362 21.6033858,23.0053509 C20.5859642,23.3309864 19.524215,23.4926138 18.4568783,23.4843445 L13.18352,23.4843445 L13.18352,29.6924678 Z" id="Path" fill="url(#linearGradient-2)"></path>
                    <path d="M25.1014092,29.4706999 L22.02518,29.4706999 L19.6522308,25.2935697 C20.591055,25.2355593 21.51709,25.044488 22.4031433,24.7259942 L25.1014092,29.4706999 Z" id="Path" fill="url(#linearGradient-3)"></path>
                    <polygon id="Path" fill="url(#linearGradient-4)" points="31.5173492 12.4161838 33.3366392 13.4361283 35.1560533 12.4161838 35.1560533 10.2610884 33.3366392 9.19684049 31.5173492 10.2610884"></polygon>
                </g>
            </g>
        </g>
    </g>
</svg>