<?xml version="1.0" encoding="UTF-8"?>
<svg width="80px" height="80px" viewBox="0 0 80 80" version="1.1" xmlns="http://www.w3.org/2000/svg" xmlns:xlink="http://www.w3.org/1999/xlink">
    <title>logo-salesforce</title>
    <defs>
        <circle id="path-1" cx="40" cy="40" r="40"></circle>
    </defs>
    <g id="Desktop" stroke="none" stroke-width="1" fill="none" fill-rule="evenodd">
        <g id="Homepage-v2" transform="translate(-456, -8332)">
            <g id="logo-salesforce" transform="translate(456, 8332)">
                <mask id="mask-2" fill="white">
                    <use xlink:href="#path-1"></use>
                </mask>
                <use id="Mask" fill="#FFFFFF" fill-rule="nonzero" xlink:href="#path-1"></use>
                <g id="salesforce-2" mask="url(#mask-2)" fill-rule="nonzero">
                    <g transform="translate(4, 15)">
                        <path d="M29.9620901,5.45327005 C32.2841802,3.05281012 35.516973,1.56398152 39.0923243,1.56398152 C43.8451892,1.56398152 47.9917838,4.19340399 50.2000721,8.09685073 C52.1190631,7.24621411 54.2431712,6.77298671 56.477982,6.77298671 C65.0502342,6.77298671 72,13.7282425 72,22.3074734 C72,30.8877054 65.0502342,37.8429612 56.477982,37.8429612 C55.4512287,37.8435554 54.4269879,37.7422997 53.4205405,37.5407048 C51.475964,40.9821506 47.7703063,43.3073862 43.516973,43.3073862 C41.7364324,43.3073862 40.0523243,42.8993723 38.5528649,42.1737999 C36.5815495,46.7742881 31.9887568,50 26.6358919,50 C21.0615495,50 16.3107748,46.5005628 14.4872072,41.5927413 C13.6903063,41.7606376 12.8646486,41.8481611 12.0174414,41.8481611 C5.38054054,41.8482326 0,36.4550277 0,29.8010271 C0,25.3419779 2.41744144,21.4486136 6.00922523,19.3656407 C5.26976577,17.6775246 4.85845045,15.8142901 4.85845045,13.8553803 C4.85845045,6.20315456 11.12,0 18.8430991,0 C23.3774414,0 27.4072072,2.1389621 29.9620901,5.45327005" id="Path" fill="#00A1E0"></path>
                        <path d="M10.8161959,25.8236161 C10.7712674,25.9476967 10.8325596,25.9736194 10.846842,25.9951459 C10.9816275,26.0986854 11.1185662,26.1731944 11.2564379,26.2561927 C11.9877104,26.66603 12.6782171,26.7857143 13.400303,26.7857143 C14.8710299,26.7857143 15.7840979,25.9595211 15.7840979,24.6295016 L15.7840979,24.6036547 C15.7840979,23.3739153 14.7536129,22.927392 13.7863581,22.6048735 L13.6607592,22.5617447 C12.9314962,22.3114612 12.3023535,22.0958172 12.3023535,21.5888074 L12.3023535,21.5618993 C12.3023535,21.1282616 12.6700353,20.8089265 13.2399671,20.8089265 C13.8732007,20.8089265 14.6249279,21.0311649 15.1090219,21.3137382 C15.1090219,21.3137382 15.2509845,21.4108348 15.3030901,21.2652277 C15.3316548,21.1875352 15.5768238,20.4907284 15.6023742,20.4152341 C15.6299342,20.3332212 15.5809148,20.2728105 15.5308905,20.240445 C14.9783273,19.8855609 14.2143273,19.6428571 13.4238438,19.6428571 L13.2767855,19.6439183 C11.9306526,19.6439183 10.9910295,20.5025529 10.9910295,21.7332775 L10.9910295,21.7592003 C10.9910295,23.0567784 12.0276867,23.4774548 12.9990325,23.7708671 L13.1552775,23.8215756 C13.863081,24.051318 14.4728456,24.2486948 14.4728456,24.7751087 L14.4728456,24.8010315 C14.4728456,25.2821185 14.0765991,25.640186 13.4371932,25.640186 C13.1890098,25.640186 12.3974498,25.6348044 11.542588,25.0641247 C11.4393816,25.0004548 11.3791659,24.9541425 11.2995003,24.9034339 C11.257658,24.8753888 11.152442,24.8268026 11.1065087,24.9735467 L10.8161959,25.8236161 L10.8161959,25.8236161 Z M32.3472879,25.8236161 C32.3023594,25.9476967 32.3636517,25.9736194 32.377934,25.9951459 C32.5127196,26.0986854 32.6496582,26.1731944 32.7874581,26.2561927 C33.5187307,26.66603 34.2093092,26.7857143 34.9313233,26.7857143 C36.4020502,26.7857143 37.3151899,25.9595211 37.3151899,24.6295016 L37.3151899,24.6036547 C37.3151899,23.3739153 36.2846332,22.927392 35.3173783,22.6048735 L35.1917795,22.5617447 C34.4625165,22.3114612 33.833302,22.0958172 33.833302,21.5888074 L33.833302,21.5618993 C33.833302,21.1282616 34.2009838,20.8089265 34.7709156,20.8089265 C35.4041492,20.8089265 36.1558764,21.0311649 36.6400421,21.3137382 C36.6400421,21.3137382 36.7820047,21.4108348 36.8340386,21.2652277 C36.8626033,21.1875352 37.1077723,20.4907284 37.1333227,20.4152341 C37.1609545,20.3332212 37.1118633,20.2728105 37.061839,20.240445 C36.5092758,19.8855609 35.7452758,19.6428571 34.9547923,19.6428571 L34.8076622,19.6439183 C33.4615294,19.6439183 32.5219062,20.5025529 32.5219062,21.7332775 L32.5219062,21.7592003 C32.5219062,23.0567784 33.5585635,23.4774548 34.5299093,23.7708671 L34.6861543,23.8215756 C35.3939578,24.051318 36.0047989,24.2486948 36.0047989,24.7751087 L36.0047989,24.8010315 C36.0047989,25.2821185 35.6074758,25.640186 34.9680699,25.640186 C34.7199583,25.640186 33.9283983,25.6348044 33.0735365,25.0641247 C32.9703301,25.0004548 32.9091096,24.9562648 32.8315254,24.9034339 C32.8048985,24.8850909 32.6803044,24.8343824 32.6373854,24.9735467 L32.3472879,25.8236161 L32.3472879,25.8236161 Z M47.0460165,23.2184546 C47.0460165,23.9702904 46.9132406,24.5624208 46.6517796,24.9809748 C46.393333,25.3952084 46.0021822,25.5969056 45.4568678,25.5969056 C44.9104768,25.5969056 44.5213356,25.3962695 44.2669799,24.9809748 C44.0095381,24.5635578 43.8789153,23.9702904 43.8789153,23.2184546 C43.8789153,22.4677557 44.0095381,21.8766107 44.2669799,21.4623771 C44.5213356,21.0525398 44.9104768,20.8529649 45.4568678,20.8529649 C46.002254,20.8529649 46.3934048,21.0525398 46.6528562,21.4623771 C46.9133123,21.8765349 47.0460165,22.4676799 47.0460165,23.2184546 M48.2737276,21.824841 C48.1531527,21.3943867 47.9652567,21.0147169 47.7150638,20.6987169 C47.4647991,20.38158 47.1482181,20.1270518 46.7722827,19.9414995 C46.3974239,19.757084 45.9542393,19.6632467 45.4568678,19.6632467 C44.9584197,19.6632467 44.5151633,19.757084 44.1403045,19.9414995 C43.7644409,20.1270518 43.44786,20.3816558 43.1965905,20.6987169 C42.9474023,21.0158538 42.7594346,21.3955237 42.6379267,21.824841 C42.5184283,22.2530213 42.4581408,22.7211469 42.4581408,23.2184546 C42.4581408,23.7157623 42.5184283,24.184949 42.6379267,24.6120682 C42.7594346,25.0413855 42.9463975,25.4211311 43.197667,25.7381923 C43.44786,26.0553292 43.7655175,26.3087962 44.1403763,26.4888911 C44.5161681,26.6690619 44.9584197,26.7607011 45.4569396,26.7607011 C45.9543111,26.7607011 46.3965627,26.6690619 46.7723545,26.4888911 C47.1472133,26.3087962 47.4647991,26.0552534 47.7151356,25.7381923 C47.9653285,25.4221165 48.1532244,25.0424466 48.2737993,24.6120682 C48.3943743,24.1838879 48.45459,23.7146253 48.45459,23.2184546 C48.45459,22.7222839 48.3942307,22.2530213 48.2737276,21.824841 M58.3551545,25.396118 C58.3143169,25.269915 58.1989095,25.3173643 58.1989095,25.3173643 C58.0202002,25.3896752 57.8301512,25.4565286 57.6279729,25.4899553 C57.4226367,25.5233062 57.1969175,25.5406639 56.9548347,25.5406639 C56.3605008,25.5406639 55.8886079,25.3540503 55.5505675,24.9851437 C55.2114505,24.616237 55.0214733,24.0197862 55.0234828,23.2129214 C55.0255642,22.4783674 55.1930054,21.9260307 55.494371,21.5054301 C55.7936551,21.0869519 56.2491843,20.8722175 56.8568676,20.8722175 C57.3634975,20.8722175 57.7495526,20.9336893 58.1539092,21.0685331 C58.1539092,21.0685331 58.2509433,21.1127231 58.2968766,20.9790162 C58.4041021,20.6640016 58.4837677,20.4385797 58.5981703,20.0923366 C58.6308978,19.9941787 58.5512323,19.9521111 58.5225957,19.9402109 C58.3632646,19.8744186 57.987401,19.7676957 57.7034757,19.7223688 C57.4379238,19.67924 57.1274434,19.6565765 56.7822259,19.6565765 C56.2663375,19.6565765 55.8067892,19.7493527 55.4136288,19.9349051 C55.0214015,20.1193205 54.6884568,20.3738486 54.4249863,20.6910613 C54.1614439,21.0081983 53.9612752,21.3877924 53.8274945,21.8171096 C53.6947185,22.2452899 53.6273258,22.7156137 53.6273258,23.2129214 C53.6273258,24.2883369 53.9020643,25.1576589 54.4444361,25.7941308 C54.987741,26.4327251 55.8038466,26.757366 56.8681356,26.757366 C57.4972783,26.757366 58.1427847,26.622598 58.6064958,26.4294658 C58.6064958,26.4294658 58.695348,26.3841389 58.65652,26.2752936 L58.3551545,25.396118 L58.3551545,25.396118 Z M60.5031823,22.4982263 C60.5613884,22.0808093 60.6706953,21.7334291 60.8392131,21.4627561 C61.0935688,21.0517818 61.4816334,20.82636 62.0270914,20.82636 C62.5725494,20.82636 62.933054,21.052843 63.1914288,21.4627561 C63.3630328,21.7334291 63.4376026,22.0959688 63.467244,22.4982263 L60.5031823,22.4982263 Z M64.6366054,21.5802423 C64.532466,21.1649476 64.2740194,20.7453324 64.1044968,20.5533372 C63.8368635,20.2491617 63.5754743,20.0367012 63.3160229,19.9180022 C62.976906,19.7648154 62.5703962,19.6634741 62.1251303,19.6634741 C61.6062993,19.6634741 61.1354111,19.7551891 60.753447,19.9449861 C60.3704781,20.134859 60.0488015,20.3937834 59.7964554,20.7163019 C59.5441093,21.0376835 59.3542038,21.4206127 59.2336289,21.8553116 C59.1121209,22.2878882 59.0508287,22.7592731 59.0508287,23.2564291 C59.0508287,23.7623777 59.1142023,24.2337627 59.2398012,24.6576225 C59.3664766,25.0848174 59.5686549,25.461228 59.8423887,25.7729075 C60.1150459,26.086861 60.4664357,26.332824 60.8872278,26.5042022 C61.3050055,26.6746709 61.8126403,26.7631266 62.3957779,26.7620005 C63.595929,26.7576692 64.2280861,26.475096 64.4885422,26.3229703 C64.5345473,26.2960622 64.578471,26.2486129 64.5232075,26.1127079 L64.2515551,25.3090266 C64.2107893,25.1893423 64.0953101,25.2335322 64.0953101,25.2335322 C63.7980355,25.350033 63.3753056,25.5593101 62.3896056,25.5571877 C61.7451757,25.5561266 61.2671105,25.3554905 60.9678264,25.0415371 C60.6604321,24.7201555 60.5102876,24.2476336 60.4837324,23.58107 L64.6396197,23.5853905 C64.6396197,23.5853905 64.7488549,23.5832681 64.7601947,23.471012 C64.7642856,23.4237143 64.9032338,22.5694002 64.6366054,21.5802423 M27.2205572,22.4982263 C27.2797681,22.0808093 27.3880702,21.7334291 27.556588,21.4627561 C27.8108719,21.0517818 28.1990083,20.82636 28.7443945,20.82636 C29.2897807,20.82636 29.6503571,21.052843 29.9097367,21.4627561 C30.0802641,21.7334291 30.154834,22.0959688 30.1844753,22.4982263 L27.2205572,22.4982263 L27.2205572,22.4982263 Z M31.3529037,21.5802423 C31.2487643,21.1649476 30.9913942,20.7453324 30.8218717,20.5533372 C30.5542384,20.2491617 30.2927774,20.0367012 30.0333978,19.9180022 C29.6942808,19.7648154 29.2878429,19.6634741 28.8425052,19.6634741 C28.3246789,19.6634741 27.852786,19.7551891 27.4708219,19.9449861 C27.087853,20.134859 26.7661046,20.3937834 26.5138303,20.7163019 C26.261556,21.0376835 26.0715787,21.4206127 25.9510755,21.8553116 C25.8305724,22.2878882 25.7682753,22.7592731 25.7682753,23.2564291 C25.7682753,23.7623777 25.8315772,24.2337627 25.9572478,24.6576225 C26.0839233,25.0848174 26.2861733,25.461228 26.5598353,25.7729075 C26.8325643,26.086861 27.1838823,26.332824 27.6046744,26.5042022 C28.0224522,26.6746709 28.5300152,26.7631266 29.1132246,26.7620005 C30.3133039,26.7576692 30.9455327,26.475096 31.2059889,26.3229703 C31.251994,26.2960622 31.2958459,26.2486129 31.240726,26.1127079 L30.9700783,25.3090266 C30.9281642,25.1893423 30.8128285,25.2335322 30.8128285,25.2335322 C30.5156257,25.350033 30.093757,25.5593101 29.1061193,25.5571877 C28.4626942,25.5561266 27.9847007,25.3554905 27.6854166,25.0415371 C27.3779505,24.7201555 27.2278778,24.2476336 27.2012508,23.58107 L31.3571382,23.5853905 C31.3571382,23.5853905 31.4663733,23.5832681 31.4776413,23.471012 C31.4815887,23.4237143 31.6204652,22.5694002 31.3529037,21.5802423 M18.2376539,25.3720901 C18.0752366,25.2350482 18.0527724,25.2005603 17.9976524,25.1121046 C17.9159055,24.9772607 17.8740631,24.7852656 17.8740631,24.5415007 C17.8740631,24.1553122 17.9945663,23.8781206 18.244831,23.691507 C18.2418166,23.692644 18.6023213,23.3625457 19.450006,23.3743701 C20.0454165,23.383011 20.5775251,23.4757872 20.5775251,23.4757872 L20.5775251,25.4713091 L20.5785299,25.4713091 C20.5785299,25.4713091 20.0505122,25.5909934 19.4561066,25.6287406 C18.6104314,25.6827085 18.2345678,25.371029 18.2376539,25.3720901 M19.8911811,22.2881913 C19.7226633,22.27523 19.5040494,22.2676502 19.2425885,22.2676502 C18.8861747,22.2676502 18.5419621,22.3150995 18.2192088,22.4068145 C17.894446,22.4984537 17.6023389,22.6420143 17.3510694,22.8317355 C17.1001812,23.0208551 16.8939745,23.2685378 16.7484819,23.5555262 C16.6014236,23.8446181 16.5268537,24.1854796 16.5268537,24.5673476 C16.5268537,24.9556584 16.5901556,25.2932607 16.716831,25.5694669 C16.8435064,25.8466585 17.0263066,26.0774621 17.259131,26.2555105 C17.4899459,26.4334831 17.7749477,26.5639307 18.105811,26.6426843 C18.4316504,26.721438 18.8013417,26.7613075 19.2058418,26.7613075 C19.6317297,26.7613075 20.0566127,26.7246973 20.4682182,26.6501883 C20.8757327,26.5768163 21.3761904,26.4700175 21.5150668,26.4366666 C21.6124518,26.4118837 21.7094958,26.3856298 21.8061691,26.357913 C21.9093755,26.3310048 21.9011937,26.2144282 21.9011937,26.2144282 L21.8991123,22.2007968 C21.8991123,21.3205599 21.6764793,20.6679431 21.2383187,20.2634874 C20.8021676,19.8600929 20.1597473,19.6561217 19.3294311,19.6561217 C19.0178741,19.6561217 18.5164117,19.7015244 18.2161227,19.7651186 C18.2161227,19.7651186 17.3081505,19.950671 16.9342965,20.259167 C16.9342965,20.259167 16.8526213,20.3131348 16.8975498,20.4339561 L17.1917383,21.268866 C17.2284849,21.3767259 17.3276004,21.3400399 17.3276004,21.3400399 C17.3276004,21.3400399 17.3592513,21.3270785 17.3960697,21.3044151 C18.1958116,20.8449304 19.2069184,20.8589529 19.2069184,20.8589529 C19.656347,20.8589529 20.0015645,20.9538514 20.2343889,21.1425873 C20.4611129,21.3259416 20.5765203,21.6031332 20.5765203,22.1877596 L20.5765203,22.373312 C20.21903,22.3194199 19.8911811,22.2881913 19.8911811,22.2881913 M53.4102191,20.0266959 C53.4417983,19.9274011 53.3754821,19.8799519 53.3478503,19.8691886 C53.2774432,19.8400823 52.9240438,19.7613287 52.6513148,19.7429857 C52.1294695,19.709559 51.8394437,19.8023352 51.5799206,19.9252788 C51.3225505,20.0482224 51.0366157,20.2466604 50.8772128,20.472158 L50.8772128,19.9382402 C50.8772128,19.863807 50.8271886,19.8044575 50.7577145,19.8044575 L49.6924207,19.8044575 C49.6230183,19.8044575 49.5729941,19.8637312 49.5729941,19.9382402 L49.5729941,26.4845707 C49.5729941,26.5579427 49.6301954,26.6183533 49.6995978,26.6183533 L50.7914467,26.6183533 C50.8610692,26.6179358 50.9172445,26.5581003 50.9170456,26.4845707 L50.9170456,23.2141341 C50.9170456,22.7751148 50.9630507,22.3372324 51.054989,22.0621631 C51.1448461,21.7902773 51.2674306,21.5724352 51.4185798,21.415989 C51.5707339,21.2606799 51.7433426,21.1517588 51.9323151,21.090287 C52.1253068,21.0276782 52.3387531,21.0072129 52.4899741,21.0072129 C52.7075114,21.0072129 52.9465081,21.0664866 52.9465081,21.0664866 C53.0261019,21.0761887 53.0711022,21.0244189 53.0975856,20.9478634 C53.1691411,20.7472273 53.3713911,20.1463802 53.4102191,20.0266959" id="Shape" fill="#FFFFFF"></path>
                        <path d="M43.1165686,17.108312 C42.9850542,17.0665854 42.865696,17.0383522 42.7098692,17.0081389 C42.5519808,16.9789523 42.3638797,16.9642857 42.1504709,16.9642857 C41.405815,16.9642857 40.8190475,17.1813518 40.4073718,17.6091773 C39.9976156,18.0350229 39.7193738,18.6830678 39.5797552,19.5357122 L39.52914,19.8226648 L38.5944635,19.8226648 C38.5944635,19.8226648 38.4811479,19.8184848 38.4568355,19.9458644 L38.3041366,20.8297487 C38.2929756,20.9132752 38.328449,20.9664417 38.4376415,20.9664417 L39.3471525,20.9664417 L38.42449,26.2803809 C38.3526192,26.7082797 38.2696585,27.0599855 38.1775984,27.3270647 C38.0875288,27.5901107 37.9995919,27.7873035 37.8903283,27.9313298 C37.7851168,28.0691228 37.6859478,28.1713492 37.5139127,28.2308223 C37.3723037,28.2798822 37.2084439,28.3028355 37.029371,28.3028355 C36.930202,28.3028355 36.7977635,28.2860422 36.6995898,28.2652156 C36.6024824,28.2453423 36.5508718,28.223489 36.4770105,28.1910758 C36.4770105,28.1910758 36.3708037,28.1494226 36.3282926,28.2589823 C36.2948808,28.3497687 36.0521123,29.0374135 36.0227526,29.12204 C35.9944593,29.2065197 36.0349088,29.2722996 36.0864483,29.2920995 C36.2078681,29.3359527 36.2978666,29.3651393 36.4627927,29.4058392 C36.6914856,29.4612057 36.8846341,29.4642857 37.0656974,29.4642857 C37.4440324,29.4642857 37.7900219,29.4089925 38.0763679,29.3025861 C38.3637091,29.1950798 38.6145106,29.0082269 38.8370898,28.7557409 C39.0768726,28.4822817 39.227581,28.1963558 39.3713227,27.8050501 C39.5139269,27.4188778 39.6364131,26.9388391 39.7334494,26.3795273 L40.6611591,20.9664417 L42.0167527,20.9664417 C42.0167527,20.9664417 42.1309925,20.9706217 42.1543808,20.8422887 L42.3080749,19.9594311 C42.3182406,19.8749513 42.2838336,19.8227381 42.1735037,19.8227381 L40.8573644,19.8227381 C40.8644733,19.7925248 40.9241168,19.3144661 41.0748963,18.8647873 C41.1396583,18.6738278 41.261007,18.5182882 41.3632327,18.4118085 C41.4644633,18.3074555 41.5807647,18.233389 41.7082981,18.1905624 C41.8387462,18.1467092 41.9875352,18.1258826 42.1503998,18.1258826 C42.2738101,18.1258826 42.396154,18.1404759 42.4882141,18.1602759 C42.6156764,18.1885091 42.6652254,18.2031024 42.6987082,18.213589 C42.8332794,18.2553156 42.8514071,18.2146157 42.8777811,18.1478826 L43.1924204,17.2566649 C43.2247658,17.1604519 43.144862,17.119752 43.1165686,17.108312 M24.7273003,26.2918942 C24.7273003,26.3628807 24.6777513,26.4203005 24.6089373,26.4203005 L23.5173677,26.4203005 C23.4485537,26.4203005 23.4,26.3628807 23.4,26.2918942 L23.4,17.229385 C23.4,17.1584719 23.4485537,17.101052 23.5173677,17.101052 L24.6089373,17.101052 C24.6777513,17.101052 24.7273003,17.1584719 24.7273003,17.229385 L24.7273003,26.2918942 Z" id="Shape" fill="#FFFFFF"></path>
                    </g>
                </g>
            </g>
        </g>
    </g>
</svg>