<?xml version="1.0" encoding="UTF-8"?>
<svg width="80px" height="80px" viewBox="0 0 80 80" version="1.1" xmlns="http://www.w3.org/2000/svg" xmlns:xlink="http://www.w3.org/1999/xlink">
    <title>logo-salesforce 2</title>
    <defs>
        <circle id="path-1" cx="40" cy="40" r="40"></circle>
    </defs>
    <g id="Desktop" stroke="none" stroke-width="1" fill="none" fill-rule="evenodd">
        <g id="Homepage-v2" transform="translate(-189, -8283)">
            <g id="logo-salesforce" transform="translate(189, 8283)">
                <mask id="mask-2" fill="white">
                    <use xlink:href="#path-1"></use>
                </mask>
                <use id="Mask" fill="#FFFFFF" fill-rule="nonzero" xlink:href="#path-1"></use>
                <g id="bigcommerce-1" mask="url(#mask-2)" fill="#34313F" fill-rule="nonzero">
                    <g transform="translate(16, 16)">
                        <path d="M24.9684231,27.0289232 L30.9624577,27.0289232 C32.6671306,27.0289232 33.7456751,26.1027509 33.7456751,24.6144616 C33.7456751,23.2110558 32.6671306,22.2 30.9624577,22.2 L24.9684231,22.2 C24.7698946,22.2 24.6,22.3678805 24.6,22.5376474 L24.6,26.6912759 C24.626725,26.8874509 24.7679857,27.0289232 24.9684231,27.0289232 Z M24.9684231,36.6 L31.1609863,36.6 C33.0641877,36.6 34.2,35.6455331 34.2,33.9610689 C34.2,32.5010741 33.1214556,31.3221378 31.1609863,31.3221378 L24.9684231,31.3221378 C24.7698946,31.3221378 24.6,31.4900183 24.6,31.6597852 L24.6,36.2359445 C24.626725,36.4604139 24.7679857,36.6 24.9684231,36.6 Z" id="Shape"></path>
                        <path d="M47.4426913,0.105552024 L29.5362575,17.9658723 L32.4634561,17.9658723 C37.0258751,17.9658723 39.723603,20.8371079 39.723603,23.9669091 C39.723603,26.4367892 38.0594578,28.2448186 36.279613,29.0494592 C35.9922924,29.1652348 35.9922924,29.5665903 36.3085379,29.6804364 C38.3737749,30.485077 39.8373742,32.6385037 39.8373742,35.164342 C39.8373742,38.7244426 37.4558918,41.5667342 32.835623,41.5667342 L20.1530239,41.5667342 C19.952478,41.5667342 19.780857,41.3950004 19.780857,41.2213369 L19.780857,27.6968139 L0.12350331,47.2821911 C-0.134892353,47.5407567 0.0367286472,48 0.410823862,48 L47.6721621,48 C47.8437831,48 47.9884076,47.8572101 47.9884076,47.6835466 L47.9884076,0.364117595 C48.0732539,0.0476642098 47.6721621,-0.124069639 47.4426913,0.105552024 Z" id="Path"></path>
                    </g>
                </g>
            </g>
        </g>
    </g>
</svg>