<?xml version="1.0" encoding="UTF-8"?>
<svg width="80px" height="80px" viewBox="0 0 80 80" version="1.1" xmlns="http://www.w3.org/2000/svg" xmlns:xlink="http://www.w3.org/1999/xlink">
    <title>logo-shopify</title>
    <defs>
        <circle id="path-1" cx="40" cy="40" r="40"></circle>
    </defs>
    <g id="Desktop" stroke="none" stroke-width="1" fill="none" fill-rule="evenodd">
        <g id="Homepage-v2" transform="translate(-836, -7983)">
            <g id="logo-shopify" transform="translate(836, 7983)">
                <mask id="mask-2" fill="white">
                    <use xlink:href="#path-1"></use>
                </mask>
                <use id="Mask" fill="#FFFFFF" fill-rule="nonzero" xlink:href="#path-1"></use>
                <g id="shopify" mask="url(#mask-2)" fill-rule="nonzero">
                    <g transform="translate(16, 13)">
                        <path d="M41.1652939,10.5139932 C41.1283118,10.2425972 40.892988,10.0923999 40.6985101,10.0758559 C40.5044001,10.0594978 36.3962607,9.75185371 36.3962607,9.75185371 C36.3962607,9.75185371 33.5431203,6.89011284 33.2299685,6.57336023 C32.9166327,6.25679351 32.3046804,6.35308333 32.0671487,6.42372065 C32.0321905,6.43413036 31.443789,6.6176015 30.4704793,6.92189963 C29.5174086,4.15105784 27.8353677,1.60476836 24.8762488,1.60476836 C24.794557,1.60476836 24.7104734,1.60811434 24.6263897,1.61294742 C23.7848173,0.48851283 22.7423272,0 21.8418778,0 C14.9486745,0 11.6554289,8.70604961 10.6228743,13.1301765 C7.94434092,13.9687158 6.04151138,14.5648576 5.79845996,14.642001 C4.30335332,15.1158287 4.25606777,15.1634159 4.05974993,16.5867579 C3.91200557,17.6643488 0,48.2296746 0,48.2296746 L30.4831747,54 L47,50.3900612 C47,50.3900612 41.201908,10.7853892 41.1654779,10.5139932 L41.1652939,10.5139932 Z M28.7856785,7.44833355 L26.206316,8.25490021 C26.2072359,8.07124318 26.2081559,7.89056035 26.2081559,7.69296174 C26.2081559,5.97089825 25.9715441,4.58436203 25.5919718,3.48520816 C27.1167009,3.67853135 28.1321443,5.43126631 28.7856785,7.44833355 Z M23.7005496,3.82668383 C24.1244637,4.89981342 24.4000814,6.43989287 24.4000814,8.51811716 C24.4000814,8.62444492 24.3991615,8.72166418 24.3982415,8.81999876 C22.7208003,9.34494558 20.8980066,9.91487721 19.0711652,10.4866677 C20.0969121,6.48710834 22.0196126,4.55536355 23.7005496,3.82668383 Z M21.6525516,1.86798532 C21.9500642,1.86798532 22.2497847,1.97003766 22.5366258,2.16949514 C20.3274522,3.21976055 17.9594947,5.86494227 16.9595064,11.1473125 L12.7487003,12.4648844 C13.9199837,8.43576892 16.7011838,1.86798532 21.6523676,1.86798532 L21.6525516,1.86798532 Z" id="Shape" fill="#95BF46"></path>
                        <path d="M40.5135915,9.73553758 C40.3137853,9.71905258 36.0850917,9.40902226 36.0850917,9.40902226 C36.0850917,9.40902226 33.1482253,6.52508459 32.825884,6.20587512 C32.7052428,6.08710822 32.542557,6.02622613 32.372485,6 L30,54 L47,50.3624358 C47,50.3624358 41.0315724,10.4505743 40.9940732,10.1770732 C40.9560059,9.90357214 40.7137764,9.7522099 40.5135915,9.73553758" id="Path" fill="#5E8E3E"></path>
                        <path d="M25,19.7948128 L22.9250164,25.8275483 C22.9250164,25.8275483 21.1070391,24.8791963 18.8785266,24.8791963 C15.6114912,24.8791963 15.4470897,26.8830846 15.4470897,27.3880418 C15.4470897,30.1433196 22.7954822,31.1990391 22.7954822,37.6528165 C22.7954822,42.7304208 19.5005155,46 15.0577374,46 C9.7264036,46 7,42.7569878 7,42.7569878 L8.42750023,38.1471468 C8.42750023,38.1471468 11.2300122,40.4987887 13.5948074,40.4987887 C15.1400319,40.4987887 15.7685819,39.3096842 15.7685819,38.4408501 C15.7685819,34.8467865 9.73990065,34.6864681 9.73990065,28.7807048 C9.73990065,23.8101016 13.3901022,19 20.7583654,19 C23.5974318,19 25,19.7948128 25,19.7948128" id="Path" fill="#FFFFFF"></path>
                    </g>
                </g>
            </g>
        </g>
    </g>
</svg>