<?xml version="1.0" encoding="UTF-8"?>
<svg width="65px" height="18px" viewBox="0 0 65 18" version="1.1" xmlns="http://www.w3.org/2000/svg" xmlns:xlink="http://www.w3.org/1999/xlink">
    <title>shopify_logo_whitebg</title>
    <g id="📥-Content-user-[Desktop]" stroke="none" stroke-width="1" fill="none" fill-rule="evenodd">
        <g id="download-content--upload-status--1v1" transform="translate(-576.000000, -971.000000)" fill-rule="nonzero">
            <g id="Group-4" transform="translate(576.000000, 939.000000)">
                <g id="shopify_logo_whitebg" transform="translate(0.000000, 32.000000)">
                    <g id="Group">
                        <path d="M13.962,3.37559308 C13.949,3.28711352 13.871,3.23655378 13.806,3.23655378 C13.741,3.23655378 12.454,3.2112739 12.454,3.2112739 C12.454,3.2112739 11.375,2.20007896 11.271,2.08631953 C11.167,1.98520003 10.959,2.0104799 10.881,2.03575978 C10.881,2.03575978 10.673,2.09895946 10.335,2.20007896 C10.283,2.02311984 10.192,1.80824092 10.075,1.58072205 C9.698,0.872885589 9.126,0.493687484 8.45,0.493687484 C8.45,0.493687484 8.45,0.493687484 8.45,0.493687484 C8.398,0.493687484 8.359,0.493687484 8.307,0.506327421 C8.281,0.481047548 8.268,0.455767674 8.242,0.443127737 C7.943,0.139769253 7.566,-0.0119099889 7.111,0.000729947884 C6.24,0.0260098216 5.369,0.645366726 4.654,1.73240129 C4.16,2.50343744 3.783,3.46407264 3.666,4.20982891 C2.665,4.5131874 1.963,4.72806632 1.937,4.72806632 C1.43,4.87974557 1.417,4.8923855 1.352,5.36006317 C1.326,5.7139814 0,15.6868916 0,15.6868916 L11.128,17.5576022 L15.951,16.394728 C15.938,16.394728 13.975,3.46407264 13.962,3.37559308 Z M9.776,2.37703807 C9.516,2.45287769 9.23,2.54135725 8.918,2.64247675 C8.918,2.21271889 8.853,1.60600193 8.658,1.10040445 C9.321,1.20152395 9.646,1.93464028 9.776,2.37703807 Z M8.333,2.80679593 C7.748,2.98375504 7.111,3.17335409 6.474,3.36295315 C6.656,2.69303649 6.994,2.03575978 7.41,1.59336199 C7.566,1.42904281 7.787,1.25208369 8.034,1.1509642 C8.294,1.64392174 8.346,2.33911826 8.333,2.80679593 Z M7.137,0.569527105 C7.345,0.569527105 7.514,0.607446916 7.657,0.708566411 C7.423,0.822325842 7.189,0.999284958 6.981,1.22680382 C6.422,1.80824092 5.993,2.70567643 5.824,3.57783207 C5.291,3.74215125 4.771,3.89383049 4.303,4.0328698 C4.615,2.65511668 5.798,0.607446916 7.137,0.569527105 Z" id="Shape" fill="#95BF47"></path>
                        <g transform="translate(2.964000, 2.023120)" id="Path">
                            <path d="M10.842,1.21343394 C10.777,1.21343394 9.49,1.18815406 9.49,1.18815406 C9.49,1.18815406 8.411,0.176959116 8.307,0.0631996842 C8.268,0.0252798737 8.216,0 8.164,0 L8.164,15.5344824 L12.987,14.3716082 C12.987,14.3716082 11.024,1.4409528 11.011,1.35247324 C10.985,1.26399368 10.907,1.21343394 10.842,1.21343394 Z" fill="#5E8E3E"></path>
                            <path d="M5.486,3.62766187 L4.927,5.6626917 C4.927,5.6626917 4.303,5.38461309 3.562,5.43517284 C2.47,5.49837252 2.47,6.16828918 2.47,6.33260835 C2.535,7.24268381 4.992,7.4449228 5.135,9.58107212 C5.239,11.2621837 4.225,12.412418 2.743,12.5008975 C0.975,12.5893771 0,11.5781821 0,11.5781821 L0.377,10.0234699 C0.377,10.0234699 1.365,10.7439463 2.145,10.6933866 C2.652,10.6681067 2.847,10.2509888 2.821,9.97291016 C2.743,8.7847561 0.741,8.86059572 0.611,6.90140551 C0.507,5.25821372 1.612,3.602382 4.056,3.45070276 C5.005,3.38750307 5.486,3.62766187 5.486,3.62766187 Z" fill="#FFFFFF"></path>
                        </g>
                    </g>
                    <g id="Group" transform="translate(18.486000, 3.464073)" fill="#000000">
                        <path d="M3.991,6.52220741 C3.432,6.23148886 3.146,5.97869012 3.146,5.63741183 C3.146,5.20765398 3.549,4.92957537 4.173,4.92957537 C4.901,4.92957537 5.551,5.22029391 5.551,5.22029391 L6.058,3.70350149 C6.058,3.70350149 5.59,3.34958326 4.212,3.34958326 C2.288,3.34958326 0.949,4.42397789 0.949,5.92813038 C0.949,6.78764608 1.573,7.43228286 2.405,7.89996052 C3.081,8.26651869 3.315,8.53195736 3.315,8.92379541 C3.315,9.32827338 2.977,9.65691174 2.353,9.65691174 C1.43,9.65691174 0.546,9.18923408 0.546,9.18923408 L0,10.7060265 C0,10.7060265 0.806,11.2369038 2.171,11.2369038 C4.147,11.2369038 5.577,10.2889086 5.577,8.58251711 C5.564,7.65980172 4.849,7.00252501 3.991,6.52220741 Z" id="s_4_"></path>
                        <path d="M11.869,3.32430339 C10.894,3.32430339 10.127,3.77934111 9.542,4.4618977 L9.516,4.44925777 L10.361,0.151679242 L8.164,0.151679242 L6.019,11.0978645 L8.216,11.0978645 L8.944,7.35644324 C9.23,5.94077031 9.984,5.06861467 10.686,5.06861467 C11.18,5.06861467 11.375,5.39725303 11.375,5.86493069 C11.375,6.15564924 11.349,6.52220741 11.284,6.81292595 L10.452,11.0978645 L12.649,11.0978645 L13.507,6.67388665 C13.598,6.20620899 13.663,5.65005176 13.663,5.27085366 C13.676,4.05741972 13.026,3.32430339 11.869,3.32430339 Z" id="h_4_"></path>
                        <path d="M18.655,3.32430339 C16.003,3.32430339 14.248,5.65005176 14.248,8.24123882 C14.248,9.89707054 15.301,11.2369038 17.277,11.2369038 C19.877,11.2369038 21.632,8.97435515 21.632,6.31996842 C21.645,4.79053606 20.722,3.32430339 18.655,3.32430339 Z M17.576,9.60635199 C16.822,9.60635199 16.51,8.98699509 16.51,8.20331901 C16.51,6.97724513 17.16,4.98013511 18.356,4.98013511 C19.136,4.98013511 19.396,5.63741183 19.396,6.26940867 C19.396,7.5839621 18.733,9.60635199 17.576,9.60635199 Z" id="o_4_"></path>
                        <path d="M27.274,3.32430339 C25.792,3.32430339 24.947,4.60093701 24.947,4.60093701 L24.921,4.60093701 L25.051,3.45070276 L23.101,3.45070276 C23.01,4.2217389 22.828,5.40989297 22.659,6.29468854 L21.125,14.1314494 L23.322,14.1314494 L23.933,10.9588252 L23.985,10.9588252 C23.985,10.9588252 24.44,11.2369038 25.272,11.2369038 C27.859,11.2369038 29.549,8.65835673 29.549,6.05452974 C29.549,4.61357694 28.886,3.32430339 27.274,3.32430339 Z M25.168,9.63163187 C24.596,9.63163187 24.258,9.31563345 24.258,9.31563345 L24.622,7.31852343 C24.882,5.97869012 25.597,5.09389454 26.364,5.09389454 C27.04,5.09389454 27.248,5.70061151 27.248,6.26940867 C27.248,7.65980172 26.403,9.63163187 25.168,9.63163187 Z" id="p_4_"></path>
                        <path d="M32.695,0.252798737 C31.993,0.252798737 31.434,0.796316021 31.434,1.49151255 C31.434,2.12350939 31.85,2.56590718 32.474,2.56590718 L32.5,2.56590718 C33.189,2.56590718 33.774,2.11086945 33.787,1.32719337 C33.787,0.707836463 33.358,0.252798737 32.695,0.252798737 Z" id="dot_4_"></path>
                        <polygon id="i_4_" points="29.614 11.0852246 31.811 11.0852246 33.306 3.5012625 31.096 3.5012625"></polygon>
                        <path d="M38.909,3.48862257 L37.375,3.48862257 L37.453,3.13470433 C37.583,2.401588 38.025,1.75695122 38.766,1.75695122 C39.156,1.75695122 39.468,1.87071065 39.468,1.87071065 L39.897,0.189599053 C39.897,0.189599053 39.52,0 38.701,0 C37.921,0 37.141,0.214878926 36.543,0.707836463 C35.789,1.32719337 35.438,2.22462888 35.269,3.13470433 L35.204,3.48862257 L34.177,3.48862257 L33.852,5.10653448 L34.879,5.10653448 L33.709,11.0978645 L35.906,11.0978645 L37.076,5.10653448 L38.597,5.10653448 L38.909,3.48862257 Z" id="f_4_"></path>
                        <path d="M44.213,3.5012625 C44.213,3.5012625 42.835,6.87612564 42.224,8.72155642 L42.198,8.72155642 C42.159,8.12747938 41.652,3.5012625 41.652,3.5012625 L39.338,3.5012625 L40.664,10.4658677 C40.69,10.6175469 40.677,10.7186664 40.612,10.8197859 C40.352,11.3001035 39.923,11.7677812 39.416,12.1090595 C39,12.399778 38.532,12.5893771 38.168,12.7157765 L38.779,14.5359274 C39.221,14.4474478 40.157,14.0808896 40.937,13.3730532 C41.938,12.4629777 42.874,11.0473048 43.823,9.12603439 L46.514,3.5012625 L44.213,3.5012625 Z" id="y_4_"></path>
                    </g>
                </g>
            </g>
        </g>
    </g>
</svg>