<svg xmlns="http://www.w3.org/2000/svg" width="111" height="16"><defs><linearGradient x1="8.43931122%" y1="89.8942236%" x2="90.4955866%" y2="11.1216003%" id="A"><stop stop-color="#9945ff" offset="8%"/><stop stop-color="#8752f3" offset="30%"/><stop stop-color="#5497d5" offset="50%"/><stop stop-color="#43b4ca" offset="60%"/><stop stop-color="#28e0b9" offset="72%"/><stop stop-color="#19fb9b" offset="97%"/></linearGradient></defs><path d="M18.239 12.615l-3.027 3.167a.7.7 0 0 1-.233.161c-.088.038-.183.057-.28.057H.352c-.068 0-.135-.02-.193-.056s-.102-.089-.13-.15-.036-.129-.024-.195a.34.34 0 0 1 .089-.176l3.023-3.167a.7.7 0 0 1 .233-.161c.088-.038.183-.057.28-.057h14.348c.069-.001.137.017.195.053s.104.088.132.15.037.13.025.196a.34.34 0 0 1-.091.177zm-3.027-6.378c-.066-.068-.145-.123-.233-.161a.72.72 0 0 0-.279-.058H.352c-.068 0-.135.02-.193.056s-.102.089-.13.15-.036.129-.024.195a.34.34 0 0 0 .089.176l3.023 3.168c.066.068.145.123.233.161a.72.72 0 0 0 .279.058h14.348a.36.36 0 0 0 .192-.057c.057-.037.102-.089.129-.15s.036-.129.024-.194a.34.34 0 0 0-.089-.176l-3.022-3.168zM.352 3.962h14.348c.096 0 .191-.02.28-.057a.7.7 0 0 0 .233-.161L18.239.577A.34.34 0 0 0 18.329.4c.012-.066.003-.135-.025-.196s-.074-.114-.132-.15-.126-.055-.195-.053H3.629c-.096 0-.191.02-.28.057a.7.7 0 0 0-.233.161L.094 3.385a.34.34 0 0 0-.089.176c-.011.066-.003.133.024.195s.072.113.13.15.124.056.193.056z" fill="url(#A)"/><path d="M35.731 6.767h-7.676V4.3h9.671V1.833h-9.697a2.58 2.58 0 0 0-.966.182 2.52 2.52 0 0 0-.821.529 2.46 2.46 0 0 0-.551.796 2.41 2.41 0 0 0-.197.941v2.5a2.41 2.41 0 0 0 .196.942 2.46 2.46 0 0 0 .551.797 2.53 2.53 0 0 0 .822.53 2.6 2.6 0 0 0 .967.183h7.686V11.7h-10.04v2.467h10.055a2.58 2.58 0 0 0 .966-.182 2.52 2.52 0 0 0 .821-.529 2.46 2.46 0 0 0 .551-.796 2.41 2.41 0 0 0 .197-.941v-2.5a2.41 2.41 0 0 0-.196-.942 2.46 2.46 0 0 0-.551-.797 2.53 2.53 0 0 0-.822-.53 2.58 2.58 0 0 0-.967-.183zm14.871-4.934h-7.705a2.58 2.58 0 0 0-.969.18 2.53 2.53 0 0 0-.824.529c-.236.227-.424.498-.553.797s-.196.619-.198.943v7.437c.002.324.069.644.198.943s.317.569.553.797a2.53 2.53 0 0 0 .824.529 2.58 2.58 0 0 0 .969.18h7.705a2.58 2.58 0 0 0 .966-.182 2.52 2.52 0 0 0 .821-.529 2.46 2.46 0 0 0 .551-.796 2.41 2.41 0 0 0 .197-.941V4.282a2.41 2.41 0 0 0-.197-.941 2.46 2.46 0 0 0-.551-.796c-.235-.227-.515-.407-.821-.529a2.58 2.58 0 0 0-.966-.182zm-.019 9.867h-7.668V4.3h7.664l.003 7.4zm27.006-9.867h-7.516a2.57 2.57 0 0 0-.966.182c-.306.122-.586.302-.821.529a2.46 2.46 0 0 0-.551.796 2.41 2.41 0 0 0-.197.941v9.885H70.1v-4.052h7.481v4.052h2.562V4.282a2.41 2.41 0 0 0-.199-.945 2.46 2.46 0 0 0-.556-.798 2.53 2.53 0 0 0-.827-.528 2.58 2.58 0 0 0-.972-.177zm-.019 5.815h-7.481V4.3h7.481v3.348zm29.936-5.815H99.99a2.58 2.58 0 0 0-.966.182 2.53 2.53 0 0 0-.821.529 2.46 2.46 0 0 0-.551.796 2.41 2.41 0 0 0-.197.941v9.885h2.562v-4.052h7.464v4.052h2.562V4.282a2.41 2.41 0 0 0-.197-.941 2.46 2.46 0 0 0-.551-.796 2.53 2.53 0 0 0-.821-.529 2.58 2.58 0 0 0-.966-.182zm-.026 5.815h-7.481V4.3h7.481v3.348zM92.62 11.7h-1.025l-3.664-8.833a1.66 1.66 0 0 0-.62-.75 1.72 1.72 0 0 0-.944-.283h-2.273a1.72 1.72 0 0 0-.644.122 1.69 1.69 0 0 0-.548.353 1.64 1.64 0 0 0-.367.531 1.61 1.61 0 0 0-.131.628v10.7h2.562V4.3h1.025l3.662 8.833a1.66 1.66 0 0 0 .625.747 1.73 1.73 0 0 0 .946.28h2.273a1.72 1.72 0 0 0 .644-.122c.205-.081.391-.202.548-.353a1.64 1.64 0 0 0 .367-.531 1.61 1.61 0 0 0 .131-.628V1.833H92.62V11.7zM57.963 1.833h-2.562v9.885a2.41 2.41 0 0 0 .198.943 2.46 2.46 0 0 0 .553.797 2.53 2.53 0 0 0 .824.529 2.58 2.58 0 0 0 .969.18h7.686V11.7h-7.669V1.833z" fill="#fff"/></svg>