<svg xmlns="http://www.w3.org/2000/svg" xml:space="preserve" width="60" height="61.62" version="1.0"><path d="M29.975 0h.05C46.577 0 60 13.423 60 29.975v1.67C60 48.195 46.577 61.62 30.025 61.62h-.05C13.423 61.62 0 48.196 0 31.644v-1.669C0 13.423 13.423 0 29.975 0Z" style="stroke-width:.122699;fill:#232323"/><linearGradient id="a" x1="300.549" x2="547.984" y1="184.631" y2="425.529" gradientTransform="matrix(.1227 0 0 -.1227 -21.625 68.204)" gradientUnits="userSpaceOnUse"><stop offset="0" style="stop-color:#cf41e8"/><stop offset="1" style="stop-color:#10f2b0"/></linearGradient><path d="M42.822 23.19a.886.886 0 0 1-.356.246 1.034 1.034 0 0 1-.43.085h-27.79c-.982 0-1.485-1.227-.798-1.963l4.564-4.846a.997.997 0 0 1 .368-.258c.135-.061.283-.086.43-.086h27.902c.994 0 1.484 1.24.785 1.976zm0 21.669c-.208.208-.49.331-.785.331H14.245c-.981 0-1.484-1.202-.797-1.914l4.564-4.736a.927.927 0 0 1 .368-.246c.135-.06.283-.085.43-.085h27.902c.994 0 1.484 1.214.785 1.926zm0-17.24a1.116 1.116 0 0 0-.785-.33H14.245c-.981 0-1.484 1.202-.797 1.913l4.564 4.737c.098.11.233.196.368.245.135.061.283.086.43.086h27.902c.994 0 1.484-1.215.785-1.926z" style="fill:url(#a);stroke-width:.122699"/></svg>