<?xml version="1.0" encoding="UTF-8" standalone="no"?>
<!-- Generator: Adobe Illustrator 24.0.0, SVG Export Plug-In . SVG Version: 6.00 Build 0)  -->

<svg
   version="1.1"
   id="Layer_1"
   x="0px"
   y="0px"
   viewBox="0 0 26.046756 30"
   xml:space="preserve"
   sodipodi:docname="uniswap--pictogram.svg"
   width="26.046757"
   height="30"
   inkscape:version="1.1.2 (0a00cf5339, 2022-02-04)"
   xmlns:inkscape="http://www.inkscape.org/namespaces/inkscape"
   xmlns:sodipodi="http://sodipodi.sourceforge.net/DTD/sodipodi-0.dtd"
   xmlns="http://www.w3.org/2000/svg"
   xmlns:svg="http://www.w3.org/2000/svg"><defs
   id="defs25" /><sodipodi:namedview
   id="namedview23"
   pagecolor="#ffffff"
   bordercolor="#666666"
   borderopacity="1.0"
   inkscape:pageshadow="2"
   inkscape:pageopacity="0.0"
   inkscape:pagecheckerboard="0"
   showgrid="false"
   fit-margin-top="0"
   fit-margin-left="0"
   fit-margin-right="0"
   fit-margin-bottom="0"
   inkscape:zoom="11.748654"
   inkscape:cx="8.9371936"
   inkscape:cy="23.194145"
   inkscape:window-width="1920"
   inkscape:window-height="1016"
   inkscape:window-x="0"
   inkscape:window-y="0"
   inkscape:window-maximized="1"
   inkscape:current-layer="Layer_1" />
<style
   type="text/css"
   id="style2">
	.st0{fill:#FF007A;}
	.st1{fill-rule:evenodd;clip-rule:evenodd;fill:#FF007A;}
</style>
<path
   class="st0"
   d="m 10.212137,6.8231047 c -0.3249094,-0.046416 -0.3403813,-0.061888 -0.185662,-0.07736 0.293966,-0.046416 0.974729,0.015472 1.454358,0.1237752 1.113976,0.2630221 2.119649,0.9437854 3.187209,2.1351212 l 0.278495,0.3249097 0.402269,-0.061888 c 1.71738,-0.278494 3.481176,-0.061887 4.951005,0.6188758 0.40227,0.1856624 1.036617,0.5569884 1.113977,0.6498194 0.03094,0.03094 0.07736,0.232078 0.108303,0.433213 0.108303,0.727179 0.06189,1.268695 -0.170191,1.686436 -0.123775,0.232079 -0.123775,0.293966 -0.04642,0.495101 0.06189,0.154719 0.247551,0.263022 0.417742,0.263022 0.371325,0 0.758122,-0.587932 0.943785,-1.407942 l 0.07736,-0.32491 0.139247,0.154719 c 0.789067,0.881898 1.407943,2.104177 1.500774,2.970603 l 0.03094,0.232079 -0.139247,-0.201135 C 24.044009,14.481692 23.827403,14.249613 23.533437,14.048479 23.007393,13.692625 22.450404,13.584322 20.980575,13.506962 19.649992,13.429603 18.891869,13.3213 18.149218,13.073749 16.880523,12.656008 16.230704,12.114492 14.72993,10.118618 14.064639,9.23672 13.646898,8.7570913 13.229156,8.3548221 12.316315,7.4729242 11.403473,7.0087674 10.212137,6.8231047 Z"
   id="path4"
   style="stroke-width:0.154719" />
<path
   class="st0"
   d="m 21.738697,8.7880351 c 0.03094,-0.587932 0.108304,-0.9747293 0.278495,-1.3305828 0.06189,-0.139247 0.123775,-0.2630222 0.139247,-0.2630222 0.01547,0 -0.01547,0.1083033 -0.06189,0.2320784 -0.123775,0.3403816 -0.139247,0.8200103 -0.06189,1.3615266 0.108304,0.6962351 0.154719,0.7890665 0.89737,1.5471889 0.340382,0.355854 0.742651,0.804539 0.89737,0.990201 l 0.263022,0.340382 -0.263022,-0.24755 c -0.32491,-0.309438 -1.067561,-0.89737 -1.237751,-0.974729 -0.108304,-0.06189 -0.123776,-0.06189 -0.201135,0.01547 -0.06189,0.06189 -0.07736,0.154719 -0.07736,0.603404 -0.01547,0.696235 -0.108303,1.129448 -0.340381,1.578133 -0.123775,0.232079 -0.139247,0.185663 -0.03094,-0.07736 0.07736,-0.201135 0.09283,-0.293966 0.09283,-0.959257 0,-1.346055 -0.154719,-1.6709649 -1.098504,-2.2124811 C 20.702081,9.2521919 20.299811,9.0510572 20.067733,8.942754 19.820183,8.8344507 19.63452,8.7416194 19.649992,8.7416194 c 0.03094,-0.030944 0.943785,0.2320784 1.299639,0.3867973 0.541516,0.2166065 0.634348,0.2320784 0.696235,0.2166065 0.04642,-0.046416 0.07736,-0.1701908 0.09283,-0.5569881 z"
   id="path6"
   style="stroke-width:0.154719" />
<path
   class="st0"
   d="M 10.846485,11.093347 C 10.196665,10.195977 9.7789244,8.803507 9.8717557,7.7668901 l 0.030944,-0.3249097 0.1547183,0.030944 c 0.278494,0.046416 0.758123,0.2320784 0.990202,0.3713254 0.618875,0.3713254 0.897369,0.8818979 1.160392,2.1505931 0.07736,0.3713251 0.185662,0.8045381 0.232078,0.9437851 0.07736,0.232079 0.371325,0.773595 0.618876,1.113976 0.17019,0.247551 0.06189,0.371326 -0.32491,0.340382 -0.587932,-0.06189 -1.376999,-0.603404 -1.887571,-1.299639 z"
   id="path8"
   style="stroke-width:0.154719" />
<path
   class="st0"
   d="m 20.949631,17.82362 c -3.063435,-1.237751 -4.146467,-2.305312 -4.146467,-4.115523 0,-0.263022 0.01547,-0.479629 0.01547,-0.479629 0.01547,0 0.123775,0.09283 0.263022,0.201135 0.618875,0.4951 1.315111,0.711707 3.249097,0.990201 1.129448,0.170191 1.779268,0.293966 2.3672,0.495101 1.872099,0.618875 3.032491,1.887571 3.310985,3.604951 0.07736,0.4951 0.03094,1.438886 -0.09283,1.933986 -0.108303,0.386798 -0.417741,1.098505 -0.4951,1.113976 -0.01547,0 -0.04642,-0.07736 -0.04642,-0.201134 -0.03094,-0.64982 -0.355853,-1.268695 -0.89737,-1.748324 -0.649819,-0.556988 -1.485301,-0.974729 -3.527591,-1.79474 z"
   id="path10"
   style="stroke-width:0.154719" />
<path
   class="st0"
   d="m 18.783566,18.334193 c -0.03094,-0.232079 -0.108303,-0.526044 -0.154719,-0.64982 l -0.07736,-0.232078 0.139247,0.170191 c 0.201134,0.232078 0.355853,0.510572 0.4951,0.89737 0.108303,0.293966 0.108303,0.386797 0.108303,0.866426 0,0.464156 -0.01547,0.57246 -0.108303,0.835482 -0.154719,0.417741 -0.340382,0.711707 -0.649819,1.036617 -0.556989,0.57246 -1.284167,0.881897 -2.320784,1.021145 -0.185663,0.01547 -0.711707,0.06189 -1.175864,0.09283 -1.160392,0.06189 -1.933987,0.185663 -2.630222,0.433213 -0.09283,0.03094 -0.185663,0.06189 -0.201134,0.04642 -0.03094,-0.03094 0.448684,-0.309438 0.835482,-0.495101 0.541516,-0.263022 1.098504,-0.402269 2.320784,-0.618876 0.603403,-0.09283 1.222279,-0.216606 1.376998,-0.278494 1.531717,-0.479628 2.28984,-1.670964 2.04229,-3.125322 z"
   id="path12"
   style="stroke-width:0.154719" />
<path
   class="st0"
   d="m 20.191508,20.825168 c -0.402269,-0.881898 -0.4951,-1.71738 -0.278494,-2.506447 0.03094,-0.07736 0.06189,-0.154719 0.09283,-0.154719 0.03094,0 0.123776,0.04642 0.216607,0.108303 0.185663,0.123775 0.57246,0.340382 1.562661,0.881898 1.253223,0.680763 1.96493,1.206808 2.460031,1.810212 0.433213,0.526044 0.696235,1.129448 0.82001,1.872099 0.07736,0.417741 0.03094,1.423414 -0.07736,1.841155 -0.340382,1.315111 -1.113976,2.367199 -2.243425,2.970603 -0.17019,0.09283 -0.309437,0.154719 -0.324909,0.154719 -0.01547,0 0.04642,-0.154719 0.139247,-0.340381 0.371325,-0.789067 0.417741,-1.54719 0.139247,-2.398144 -0.170191,-0.526044 -0.526045,-1.160392 -1.237752,-2.227952 -0.850954,-1.237752 -1.052088,-1.562661 -1.268695,-2.011346 z"
   id="path14"
   style="stroke-width:0.154719" />
<path
   class="st0"
   d="m 8.6649481,25.559567 c 1.14492,-0.959258 2.5528619,-1.640021 3.8525009,-1.856627 0.556989,-0.09283 1.485302,-0.06189 1.995875,0.07736 0.82001,0.216607 1.562661,0.680763 1.949458,1.253223 0.371325,0.556989 0.541516,1.036617 0.711707,2.104178 0.06189,0.417741 0.139247,0.850954 0.154719,0.943785 0.123775,0.556988 0.371325,0.990201 0.680763,1.22228 0.479629,0.355853 1.315111,0.371325 2.135121,0.06189 0.139248,-0.04641 0.263023,-0.09283 0.263023,-0.07736 0.03094,0.03094 -0.386798,0.309438 -0.665292,0.448685 C 19.356026,29.938112 19.046588,30 18.628847,30 c -0.742651,0 -1.376998,-0.386797 -1.887571,-1.160392 -0.108303,-0.154719 -0.32491,-0.603404 -0.510572,-1.021145 -0.541517,-1.253223 -0.820011,-1.624549 -1.454358,-2.04229 -0.556988,-0.355853 -1.268695,-0.433213 -1.810212,-0.170191 -0.711707,0.340382 -0.89737,1.253224 -0.402269,1.810212 0.201135,0.232078 0.57246,0.417741 0.881898,0.464157 0.57246,0.07736 1.067561,-0.371326 1.067561,-0.943786 0,-0.371325 -0.139248,-0.587932 -0.510573,-0.758123 -0.4951,-0.216606 -1.036617,0.03094 -1.021145,0.510573 0,0.201135 0.09283,0.32491 0.293966,0.417741 0.123775,0.06189 0.123775,0.06189 0.03094,0.04642 -0.448685,-0.09283 -0.556988,-0.64982 -0.201135,-1.005673 0.433213,-0.433213 1.346055,-0.247551 1.655493,0.355853 0.123775,0.247551 0.139247,0.742651 0.03094,1.052089 -0.263023,0.680763 -1.005673,1.036617 -1.763796,0.835482 -0.510573,-0.139247 -0.727179,-0.278494 -1.346055,-0.912842 -1.083032,-1.113976 -1.500773,-1.330582 -3.0479627,-1.562661 l -0.293966,-0.04641 z"
   id="path16"
   style="stroke-width:0.154719" />
<path
   class="st1"
   d="M 0.52673255,0.66529139 C 4.1316835,5.043837 9.686093,11.85147 9.9645871,12.222795 c 0.2320779,0.309438 0.1392469,0.603404 -0.2475503,0.820011 -0.2166065,0.123775 -0.6652914,0.24755 -0.8818979,0.24755 -0.2475503,0 -0.5415162,-0.123775 -0.7426509,-0.32491 C 7.953241,12.826199 7.3498372,11.944301 5.9883106,9.8246519 4.9516938,8.2001031 4.0697959,6.8540485 4.054324,6.8385766 3.992436,6.8076326 3.992436,6.8076326 5.8800074,10.180505 c 1.1913357,2.11965 1.578133,2.877772 1.578133,2.970604 0,0.201134 -0.061888,0.309438 -0.3094378,0.587932 -0.4177411,0.464157 -0.6034038,0.990201 -0.7426509,2.088705 -0.1547189,1.22228 -0.57246,2.088706 -1.7637957,3.558536 -0.6962352,0.866426 -0.8045385,1.021145 -0.9747293,1.376998 -0.2166065,0.433213 -0.278494,0.680763 -0.3094378,1.237751 -0.030944,0.587932 0.030944,0.959258 0.2011346,1.516246 0.1547189,0.495101 0.3249097,0.82001 0.7426508,1.454358 0.3558536,0.556988 0.5724601,0.974729 0.5724601,1.129448 0,0.123775 0.030944,0.123775 0.5879319,0 1.3305828,-0.309438 2.4290871,-0.835482 3.032491,-1.485302 0.3713254,-0.402269 0.4641567,-0.618875 0.4641567,-1.175864 0,-0.355853 -0.015472,-0.433213 -0.1083032,-0.649819 C 8.6958919,22.449716 8.4019259,22.171222 7.7675783,21.738009 6.9320961,21.165549 6.5762426,20.701392 6.4834112,20.082517 c -0.07736,-0.526045 0.015472,-0.881898 0.4796287,-1.856627 0.4796287,-1.005673 0.6034038,-1.423414 0.6807633,-2.444559 0.046416,-0.64982 0.1237751,-0.912842 0.3094378,-1.113977 0.2011346,-0.216606 0.3713254,-0.293966 0.8509541,-0.355853 0.7890665,-0.108303 1.2996389,-0.309438 1.7019079,-0.696235 0.355854,-0.32491 0.510573,-0.64982 0.526045,-1.129449 l 0.01547,-0.355853 -0.201135,-0.216607 C 10.119306,11.077875 0.04710388,0 6.8819694e-4,0 -0.01478369,0 0.23276659,0.29396596 0.52673255,0.66529139 Z M 5.2766036,22.666323 C 5.4467944,22.372357 5.353963,22.001031 5.075469,21.815369 4.8124468,21.645178 4.4101776,21.722537 4.4101776,21.954616 c 0,0.06189 0.030944,0.123775 0.1237751,0.154719 0.1392471,0.07736 0.1547189,0.154719 0.046416,0.324909 -0.1083033,0.170191 -0.1083033,0.32491 0.030944,0.433213 0.2166065,0.170191 0.5105724,0.07736 0.6652909,-0.201134 z"
   id="path18"
   style="stroke-width:0.154719" />
<path
   class="st1"
   d="m 11.54272,14.528107 c -0.371325,0.108304 -0.727179,0.510573 -0.835482,0.912842 -0.06189,0.24755 -0.03094,0.696235 0.07736,0.835482 0.170191,0.216607 0.32491,0.278494 0.758123,0.278494 0.850954,0 1.578133,-0.371325 1.655493,-0.82001 0.07736,-0.371326 -0.247551,-0.881898 -0.696236,-1.113976 -0.232078,-0.123776 -0.711707,-0.170191 -0.959257,-0.09283 z m 0.990201,0.773595 c 0.123775,-0.185663 0.07736,-0.386797 -0.154719,-0.526044 -0.417741,-0.263023 -1.052088,-0.04642 -1.052088,0.355853 0,0.201135 0.324909,0.417741 0.634347,0.417741 0.201135,0 0.479629,-0.123775 0.57246,-0.24755 z"
   id="path20"
   style="stroke-width:0.154719" />
</svg>
