<?xml version="1.0" encoding="UTF-8"?>
<svg width="24px" height="24px" viewBox="0 0 24 24" version="1.1" xmlns="http://www.w3.org/2000/svg" xmlns:xlink="http://www.w3.org/1999/xlink">
    <title>ido-dao 2</title>
    <defs>
        <circle id="path-1" cx="12" cy="12" r="12"></circle>
    </defs>
    <g id="ICO" stroke="none" stroke-width="1" fill="none" fill-rule="evenodd">
        <g id="Desktop-Home-Default-Dark" transform="translate(-580.000000, -9693.000000)">
            <g id="footer" transform="translate(159.999863, 9589.000000)">
                <g id="ido-dao" transform="translate(420.000137, 104.000000)">
                    <mask id="mask-2" fill="white">
                        <use xlink:href="#path-1"></use>
                    </mask>
                    <use id="Mask" fill="#FF007A" xlink:href="#path-1"></use>
                    <g id="Home-_-Uniswap-Protocol-0" mask="url(#mask-2)" fill="#FFFFFF" fill-rule="nonzero">
                        <g transform="translate(5.000000, 4.000000)">
                            <path d="M4.35497695,1.09250226 C4.15779253,1.0623571 4.14940171,1.05923863 4.24274965,1.04572528 C4.42105471,1.01869859 4.84059602,1.05508068 5.13007953,1.12264742 C5.80554104,1.28064965 6.42016906,1.68605011 7.07675122,2.40641554 L7.25086086,2.5976814 L7.50048794,2.55818084 C8.55143893,2.3918627 9.61917157,2.52387773 10.5138434,2.93031767 C10.7603239,3.04258241 11.1483997,3.26503292 11.1955981,3.32220478 C11.2123797,3.34091557 11.2406987,3.45733827 11.2585293,3.58311636 C11.3256559,4.01762249 11.2931414,4.34921928 11.1578393,4.59765699 C11.0844196,4.73279048 11.0802242,4.7754095 11.1295203,4.8918322 C11.177608,4.98966098 11.2777379,5.0517843 11.3875382,5.0519134 C11.6098951,5.0519134 11.8490337,4.69848736 11.9591632,4.20576988 L12.0032151,4.00930658 L12.0902699,4.10701849 C12.5695959,4.6413155 12.9450853,5.36895735 13.0090654,5.88662255 L13.025847,6.02175604 L12.9461342,5.89909641 C12.8302653,5.71123066 12.6745901,5.55056127 12.489883,5.42820819 C12.1689339,5.21927103 11.8291054,5.14754633 10.931287,5.10076936 C10.1194746,5.05918982 9.66007685,4.99058359 9.20487453,4.84401573 C8.42977195,4.59453853 8.03959853,4.26398123 7.11870535,3.07480655 C6.70965257,2.54570698 6.45792778,2.25361075 6.20620299,2.01868638 C5.63457796,1.48334988 5.07344145,1.20268803 4.35497695,1.09354175 L4.35497695,1.09250226 Z" id="Path"></path>
                            <path d="M11.3801962,2.27232154 C11.4001244,1.9188955 11.4483717,1.68501062 11.5469639,1.47191551 C11.5685701,1.41806125 11.595629,1.36651634 11.6277256,1.31807123 C11.6329699,1.31807123 11.6161882,1.38044054 11.5899669,1.45632318 C11.5186449,1.66422086 11.5060586,1.94696169 11.5564036,2.2764795 C11.6193348,2.69435382 11.6539469,2.75464414 12.1018073,3.20578209 C12.3126268,3.41783771 12.5570096,3.68394673 12.6461621,3.79932994 L12.8076856,4.00722761 L12.6461621,3.85858077 C12.4489777,3.67667031 11.9958731,3.32116529 11.8951832,3.27023036 C11.8280566,3.23696674 11.8175681,3.23696674 11.7766628,3.27750678 C11.7378552,3.31492836 11.7305132,3.37106073 11.7242201,3.63716975 C11.7168781,4.05192561 11.6591912,4.31803463 11.5207426,4.58310416 C11.446274,4.72863253 11.4347366,4.69744787 11.5018632,4.5342482 C11.5522082,4.41366755 11.5574524,4.35961416 11.5574524,3.95837165 C11.5574524,3.15276818 11.4588602,2.95838386 10.8893329,2.62782656 C10.7175442,2.52949057 10.5411379,2.43929988 10.3607108,2.35755959 C10.2718085,2.32214231 10.1855817,2.28045599 10.1026929,2.23282099 C10.1184257,2.21722866 10.674318,2.37730987 10.8977237,2.46150842 C11.2312591,2.588326 11.2857994,2.60391833 11.3267047,2.58936549 C11.352926,2.57897061 11.3665611,2.50100898 11.3791474,2.27232154 L11.3801962,2.27232154 Z M4.7378084,3.65172259 C4.3381953,3.10910967 4.08961707,2.2764795 4.14415744,1.65382597 L4.15989024,1.46152063 L4.25114048,1.47711295 C4.42315241,1.5082976 4.71788019,1.61640439 4.85632882,1.69956346 C5.23496486,1.92617192 5.39963482,2.22450508 5.56640249,2.99164748 C5.6156986,3.21617697 5.67967865,3.46981213 5.70904654,3.55712915 C5.75624494,3.6953811 5.9366477,4.01866198 6.08243831,4.22863863 C6.18732364,4.38040393 6.11809932,4.45212862 5.88525389,4.43133886 C5.52969263,4.40015421 5.04826897,4.07271537 4.7378084,3.65172259 L4.7378084,3.65172259 Z M10.8935283,7.69221382 C9.02237406,6.95105863 8.3636942,6.30657585 8.3636942,5.22031052 C8.3636942,5.06022931 8.36893846,4.92925378 8.37628043,4.92925378 C8.38257355,4.92925378 8.45494443,4.9812282 8.53675499,5.04671596 C8.91643988,5.34608861 9.34122545,5.47394568 10.5180388,5.64338228 C11.210282,5.74317316 11.5983577,5.82321376 11.9581144,5.94067595 C13.1013645,6.31385227 13.8072427,7.07059979 13.9761081,8.10281172 C14.0243554,8.40218437 13.9970852,8.96350808 13.9163235,9.25976226 C13.8533923,9.49364714 13.662501,9.91463993 13.612156,9.93127174 C13.5974721,9.93646918 13.583837,9.88345528 13.5806904,9.81069109 C13.5618111,9.42400142 13.3625289,9.04666715 13.0289936,8.76392632 C12.6493087,8.44272442 12.139566,8.18701028 10.8935283,7.69325331 L10.8935283,7.69221382 Z M9.580364,8.00094187 C9.55838287,7.86929714 9.52825896,7.7391157 9.49016262,7.61113373 L9.44191537,7.47080281 L9.5310679,7.5695542 C9.65378373,7.70468768 9.75132709,7.87828224 9.83313764,8.11008814 C9.89606884,8.28680116 9.90236196,8.33877558 9.90236196,8.62567437 C9.90236196,8.90737571 9.89397113,8.96662655 9.83523535,9.12462878 C9.75463437,9.35894024 9.61953818,9.57117005 9.44086652,9.74416384 C9.09894035,10.087195 8.65947082,10.2763819 8.02491459,10.355383 C7.91478499,10.3688963 7.59383589,10.3917651 7.31169435,10.4063179 C6.59952298,10.4427 6.13068556,10.5185827 5.71009539,10.664111 C5.67196439,10.6807127 5.63107896,10.6902261 5.58947726,10.6921772 C5.57269561,10.6755454 5.86008141,10.5071483 6.0960734,10.3948835 C6.42960874,10.2358418 6.76209523,10.1495643 7.50678106,10.0279442 C7.87387971,9.96765383 8.25461345,9.89385016 8.35110796,9.86474449 C9.26151261,9.59031956 9.73035002,8.88034901 9.580364,8.00094187 L9.580364,8.00094187 Z" id="Shape"></path>
                            <path d="M10.438326,9.50196305 C10.1897478,8.97598194 10.1320608,8.46767214 10.2684118,7.99366545 C10.2830957,7.94169103 10.3061705,7.90115098 10.3208544,7.90115098 C10.3344895,7.90115098 10.3942741,7.93233563 10.4509122,7.9707967 C10.5662861,8.04667935 10.7949361,8.17453642 11.4074664,8.50301474 C12.1710316,8.91361264 12.6073546,9.23065659 12.9031312,9.59447751 C13.162198,9.91152146 13.3226725,10.2743029 13.4002877,10.715046 C13.4443395,10.9645232 13.4181182,11.5674264 13.3530893,11.8189826 C13.147514,12.6131517 12.6713346,13.2368447 11.98958,13.6006656 C11.8899389,13.6536795 11.8007864,13.697338 11.7902979,13.697338 C11.7808582,13.697338 11.8175681,13.6069026 11.8710596,13.4956773 C12.1007584,13.0237496 12.1269798,12.5653352 11.953919,12.0549464 C11.8469359,11.7420605 11.6308722,11.3605682 11.1945492,10.715046 C10.6869042,9.96661434 10.5631395,9.76599309 10.438326,9.50196305 L10.438326,9.50196305 Z M3.40891129,12.3428847 C4.10430102,11.7649292 4.96750727,11.3553708 5.75519608,11.2285532 C6.1609058,11.1769937 6.57244902,11.1928026 6.97291474,11.2753302 C7.47636432,11.4021478 7.92737123,11.6869676 8.16126551,12.0248013 C8.38991553,12.3563981 8.48850774,12.6443363 8.59129536,13.2867401 C8.63115178,13.5393358 8.67520362,13.7940105 8.68778986,13.8511823 C8.76435615,14.1838186 8.91434217,14.4499276 9.09894035,14.5829821 C9.39261927,14.7950378 9.90026425,14.8085511 10.3984696,14.6172852 C10.4502121,14.5936444 10.5048739,14.576868 10.5610418,14.5673898 C10.5788723,14.5850611 10.3281964,14.7503398 10.151989,14.8376568 C9.94293088,14.9478344 9.70907954,15.0036293 9.47233211,14.999817 C9.01608094,14.999817 8.6374449,14.7711295 8.32069121,14.3054387 C8.20452498,14.1082716 8.10083817,13.9041382 8.01023064,13.6942196 C7.6766953,12.9447485 7.51202533,12.7171005 7.12499847,12.4665838 C6.78726771,12.2482913 6.3519936,12.2098302 6.02475138,12.3678324 C5.59472153,12.5757301 5.47515226,13.1162641 5.78351512,13.4592952 C5.92756385,13.606692 6.11602384,13.7037287 6.320528,13.7357991 C6.48487602,13.7581264 6.65090493,13.7085958 6.77550882,13.6000671 C6.90011271,13.4915384 6.97100069,13.3347167 6.96976818,13.1703175 C6.96976818,12.9447485 6.88166451,12.8168914 6.66035647,12.7171005 C6.35723787,12.5830065 6.0331422,12.7399693 6.03419106,13.0195916 C6.03419106,13.1391328 6.08768257,13.213976 6.20934955,13.2690688 C6.2869647,13.303372 6.2890624,13.3054509 6.22508235,13.2929771 C5.94818509,13.2358052 5.88315618,12.9062874 6.10551308,12.6879949 C6.37401952,12.4260438 6.92781405,12.541427 7.1176565,12.9000505 C7.19736935,13.0507763 7.20680903,13.3501489 7.13758471,13.5310199 C6.98025672,13.9364204 6.5271521,14.1495155 6.06565665,14.0330928 C5.75100067,13.9540917 5.62408942,13.8688536 5.24545339,13.4852824 C4.58782238,12.8179309 4.33295103,12.6879949 3.38478767,12.5424665 L3.20228719,12.5144003 L3.40891129,12.3428847 L3.40891129,12.3428847 Z" id="Shape"></path>
                            <path d="M0.323184935,0.399163528 C2.51948371,3.02491111 4.03297899,4.10805798 4.20079552,4.33674542 C4.33924415,4.5259323 4.28680149,4.69640839 4.04976065,4.8294629 C3.88119255,4.9134002 3.69770349,4.96389468 3.50960121,4.97810973 C3.35541977,4.97810973 3.30192826,4.91989838 3.30192826,4.91989838 C3.21277573,4.83673931 3.16243077,4.85129215 2.70408189,4.04984663 C2.31439804,3.4487727 1.92001735,2.85070242 1.52097538,2.25568973 C1.48741208,2.22450508 1.48846093,2.22450508 2.64010184,4.25462584 C2.82574887,4.6776976 2.6768117,4.83258136 2.6768117,4.89287169 C2.6768117,5.01553131 2.64219954,5.07997959 2.48906696,5.24941619 C2.23314676,5.53007805 2.11882175,5.84608251 2.03596234,6.49992068 C1.94366326,7.23275997 1.68354764,7.75042517 0.961936584,8.63710874 C0.540297565,9.15581343 0.471073248,9.25040687 0.364090213,9.46038352 C0.229836993,9.72337407 0.193127128,9.87098142 0.178443182,10.2025782 C0.162710383,10.5549648 0.193127128,10.7815732 0.30220787,11.117328 C0.396604665,11.4125426 0.49729458,11.6058875 0.752165928,11.9946561 C0.972425117,12.3304109 1.09828751,12.5798881 1.09828751,12.6776 C1.09828751,12.7545221 1.11297146,12.7545221 1.45489763,12.6786395 C2.26880777,12.4977685 2.93063419,12.1796851 3.30297711,11.7877979 C3.53372483,11.5455972 3.58721635,11.4125426 3.58931406,11.0809459 C3.59036291,10.8647323 3.58302094,10.8189948 3.5232363,10.6942562 C3.4267418,10.491556 3.25053445,10.3221194 2.86245873,10.0601683 C2.35271604,9.71713714 2.13455455,9.44167273 2.07581877,9.06225948 C2.02547381,8.75041297 2.08316074,8.53108093 2.36425342,7.95000694 C2.65583463,7.34710369 2.72820551,7.09035007 2.77750162,6.48432836 C2.80896721,6.09244125 2.8519702,5.93755748 2.96629521,5.81281888 C3.08586448,5.68392232 3.19284752,5.64026381 3.48862414,5.60076326 C3.9700478,5.53527549 4.2752641,5.41365535 4.52698889,5.18496791 C4.7312471,5.0178844 4.85031345,4.76969694 4.85213341,4.50722151 L4.86262194,4.28892895 L4.73990611,4.14963751 C4.29833887,3.64236719 0.0274083097,0 0.000138124382,0 C-0.00510614203,0 0.139635611,0.179831485 0.323184935,0.399163528 Z M1.34686574,10.6017417 C1.44665719,10.4270707 1.39413111,10.2057149 1.22624761,10.0934319 C1.06891962,9.98948309 0.822439098,10.0393785 0.822439098,10.1734725 C0.822439098,10.2150521 0.84551387,10.2451972 0.897956534,10.2711844 C0.98606021,10.3158824 0.992353329,10.3657779 0.923129013,10.4686872 C0.852855843,10.5715966 0.859148962,10.6620321 0.938861812,10.7244014 C1.06787077,10.8231527 1.25037124,10.7690994 1.34686574,10.6017417 L1.34686574,10.6017417 Z M5.16574054,5.71614646 C4.94023708,5.78371321 4.72102675,6.01967706 4.65180243,6.26707529 C4.61089715,6.4178011 4.63502078,6.68287063 4.69690312,6.76395072 C4.79759304,6.89596574 4.89408754,6.93026886 5.15734971,6.92922937 C5.67128782,6.92611091 6.11809932,6.70885784 6.17054198,6.43651189 C6.21249611,6.21406138 6.01636055,5.90637283 5.7457564,5.77019986 C5.56194115,5.69623513 5.36024614,5.67743857 5.16574054,5.71614646 Z M5.76778232,6.17871878 C5.84644632,6.06749353 5.81183416,5.94795237 5.67653209,5.86687227 C5.42061189,5.71198851 5.03148732,5.83984558 5.03148732,6.0789279 C5.03148732,6.19846906 5.233916,6.3284051 5.41956303,6.3284051 C5.54332772,6.3284051 5.71324195,6.25564092 5.76778232,6.17871878 Z" id="Shape"></path>
                        </g>
                    </g>
                </g>
            </g>
        </g>
    </g>
</svg>