<?xml version="1.0" encoding="UTF-8"?>
<svg width="80px" height="80px" viewBox="0 0 80 80" version="1.1" xmlns="http://www.w3.org/2000/svg" xmlns:xlink="http://www.w3.org/1999/xlink">
    <title>logo-woocommerce</title>
    <defs>
        <circle id="path-1" cx="40" cy="40" r="40"></circle>
    </defs>
    <g id="Desktop" stroke="none" stroke-width="1" fill="none" fill-rule="evenodd">
        <g id="Homepage-v2" transform="translate(-983, -8323)">
            <g id="logo-woocommerce" transform="translate(983, 8323)">
                <mask id="mask-2" fill="white">
                    <use xlink:href="#path-1"></use>
                </mask>
                <use id="Mask" fill="#FFFFFF" fill-rule="nonzero" xlink:href="#path-1"></use>
                <g id="woocommerce" mask="url(#mask-2)" fill-rule="nonzero">
                    <g transform="translate(12, 24)">
                        <path d="M5.19723522,0 L50.779964,0 C53.6648416,0 56,2.38179611 56,5.32429045 L56,23.0714047 C56,26.013899 53.6648416,28.3956951 50.779964,28.3956951 L34.433418,28.3956951 L36.6771387,34 L26.8095361,28.3956951 L5.21998525,28.3956951 C2.33532638,28.3956951 0,26.013899 0,23.0714047 L0,5.32429045 C-0.0228007544,2.40522361 2.31213886,0 5.19723522,0 Z" id="Path" fill="#9B5C8F"></path>
                        <path d="M3.19173728,4.4944096 C3.51041959,4.06393408 3.9883337,3.83759711 4.62569834,3.79232972 C5.7866906,3.7015773 6.44680263,4.24500366 6.60603442,5.42282645 C7.31164125,10.156316 8.08549028,14.165092 8.9048341,17.4489368 L13.8895767,8.00480899 C14.3449621,7.1440756 14.9140846,6.69118402 15.596944,6.64591662 C16.5984857,6.57801553 17.2128843,7.21197669 17.4633244,8.54823535 C18.0324468,11.5602581 18.760801,14.119607 19.6256397,16.2937477 C20.2175095,10.5413065 21.2190512,6.39672832 22.6302649,3.83759711 C22.9714759,3.20341833 23.4723561,2.88632893 24.1324681,2.84084391 C24.6560958,2.79579414 25.1340099,2.95423003 25.5664292,3.29395312 C25.9988485,3.63367621 26.2265412,4.06393408 26.272036,4.58494438 C26.2947834,4.99256857 26.2265412,5.33229166 26.044562,5.67201475 C25.1567573,7.30272911 24.4281843,10.0431475 23.8365332,13.847785 C23.2676295,17.5394716 23.0626842,20.4159098 23.1991686,22.4768821 C23.2448821,23.0427245 23.1536738,23.5411011 22.9261998,23.9715766 C22.6527936,24.4697356 22.2433404,24.7415576 21.7197127,24.786825 C21.1278429,24.8320924 20.5134444,24.560488 19.9215746,23.9489429 C17.8047541,21.7972182 16.1203529,18.5812745 14.8913372,14.3008942 C13.4116626,17.1997485 12.3191313,19.3738892 11.6135244,20.8233164 C10.270553,23.3826652 9.13252682,24.6962902 8.17647988,24.7641913 C7.56186265,24.8094587 7.03845374,24.2884484 6.58328703,23.2015956 C5.42251349,20.2346226 4.17053162,14.5045975 2.82777889,6.01173784 C2.73657057,5.42282645 2.87305496,4.90181615 3.19173728,4.4944096 L3.19173728,4.4944096 Z M52.1065199,8.05007638 C51.2871761,6.62328293 50.080689,5.76276717 48.4647488,5.42282645 C48.0321107,5.33229166 47.6226575,5.28702426 47.2355143,5.28702426 C45.0504516,5.28702426 43.2750608,6.41936202 41.8865946,8.68425517 C40.7028549,10.6092076 40.1112038,12.7380809 40.1112038,15.0708752 C40.1112038,16.814758 40.4753809,18.3094525 41.2037351,19.5551764 C42.023079,20.9819699 43.229566,21.8424856 44.8455063,22.1822087 C45.2779256,22.2729611 45.6875975,22.3182285 46.0747407,22.3182285 C48.2825508,22.3182285 50.0579416,21.1858908 51.4236605,18.9209976 C52.6071814,16.9731939 53.1990512,14.8443206 53.1990512,12.5117439 C53.2217986,10.7452274 52.8348741,9.27294893 52.1065199,8.05007638 L52.1065199,8.05007638 Z M49.2385978,14.3235279 C48.9199155,15.8182224 48.350793,16.9279265 47.5084831,17.6752738 C46.8485898,18.2641852 46.2339725,18.5131558 45.6650688,18.3999873 C45.1186938,18.2868189 44.6633084,17.8112936 44.3220974,16.9279265 C44.0486911,16.2258466 43.9124255,15.5237667 43.9124255,14.8669543 C43.9124255,14.3008942 43.9579203,13.7346165 44.0716573,13.2138238 C44.2766026,12.2851893 44.6635271,11.3791886 45.2779256,10.5186728 C46.029246,9.40875111 46.8258424,8.95607716 47.6451862,9.11451305 C48.1915612,9.22768153 48.6469467,9.70342444 48.9881577,10.5865739 C49.2613452,11.2886538 49.3978296,11.9907336 49.3978296,12.6475461 C49.3978296,13.2364575 49.3523348,13.8025176 49.2385978,14.3233103 L49.2385978,14.3235279 Z M37.8576802,8.05007638 C37.0383364,6.62328293 35.8091019,5.76276717 34.2159091,5.42282645 C33.7834897,5.33229166 33.3738178,5.28702426 32.9866746,5.28702426 C30.8016119,5.28702426 29.0262211,6.41936202 27.6377549,8.68425517 C26.4542339,10.6092076 25.8623641,12.7380809 25.8623641,15.0708752 C25.8623641,16.814758 26.2265412,18.3094525 26.9548955,19.5551764 C27.7742393,20.9819699 28.9807263,21.8424856 30.5966666,22.1822087 C31.0293046,22.2729611 31.4387578,22.3182285 31.8259011,22.3182285 C34.0337111,22.3182285 35.8091019,21.1858908 37.1748208,18.9209976 C38.3585604,16.9731939 38.9502115,14.8443206 38.9502115,12.5117439 C38.9502115,10.7452274 38.5860344,9.27294893 37.8576802,8.05007638 L37.8576802,8.05007638 Z M34.9670107,14.3235279 C34.6483284,15.8182224 34.0792059,16.9279265 33.2371147,17.6752738 C32.5770027,18.2641852 31.9623855,18.5131558 31.393263,18.3999873 C30.8471067,18.2868189 30.39194,17.8112936 30.0502916,16.9279265 C29.7773228,16.2258466 29.6408384,15.5237667 29.6408384,14.8669543 C29.6408384,14.3008942 29.6863332,13.7346165 29.8000702,13.2138238 C30.0050155,12.2851893 30.39194,11.3791886 31.0065572,10.5186728 C31.7576589,9.40875111 32.5542553,8.95607716 33.3735991,9.11451305 C33.9199741,9.22768153 34.3753596,9.70342444 34.7165706,10.5865739 C34.9899768,11.2886538 35.1262425,11.9907336 35.1262425,12.6475461 C35.1492086,13.2364575 35.0807477,13.8025176 34.9670107,14.3233103 L34.9670107,14.3235279 Z" id="Shape" fill="#FFFFFF"></path>
                    </g>
                </g>
            </g>
        </g>
    </g>
</svg>