<?xml version="1.0" encoding="UTF-8"?>
<svg width="90px" height="18px" viewBox="0 0 90 18" version="1.1" xmlns="http://www.w3.org/2000/svg" xmlns:xlink="http://www.w3.org/1999/xlink">
    <title>woocommerce-logo-color-black</title>
    <g id="📥-Content-user-[Desktop]" stroke="none" stroke-width="1" fill="none" fill-rule="evenodd">
        <g id="download-content--upload-status--1v1" transform="translate(-677.000000, -971.000000)">
            <g id="Group-4" transform="translate(576.000000, 939.000000)">
                <g id="woocommerce-logo-color-black" transform="translate(101.000000, 32.000000)">
                    <path d="M2.8392,0 L27.6528,0 C28.4060106,0 29.1283542,0.296997017 29.660842,0.825621837 C30.1933298,1.35424666 30.4923183,2.07117238 30.4920003,2.8186028 L30.4920003,12.2127547 C30.4920003,12.9598694 30.1928326,13.6763668 29.6603448,14.2045449 C29.127857,14.7327231 28.4056923,15.0292918 27.6528,15.0289759 L18.7536,15.0289759 L19.9716,18 L14.5956,15.0289759 L2.8356,15.0289759 C1.2694276,15.0270054 0.000660691168,13.7669094 0,12.2127547 L0,2.8186028 C0,1.26239637 1.27095905,0.000657459413 2.8392,0 Z" id="Path" fill="#7D57A4"></path>
                    <path d="M1.5348,2.55186557 C1.7249115,2.31609601 2.01057954,2.17610256 2.3148,2.16962159 C2.9476,2.12595925 3.3108,2.42206933 3.4044,3.05795184 C3.7948,5.63720561 4.2128,7.82667372 4.6584,9.62635618 L7.3896,4.4726118 C7.6368,4.00740937 7.9492,3.76131252 8.3268,3.73432125 C8.874,3.69621593 9.216,4.04194231 9.3528,4.7715004 C9.60984021,6.21418762 10.0048252,7.62928868 10.5324,8.99761842 C10.8604,5.85869278 11.408,3.58944165 12.1752,2.18986504 C12.3260542,1.86996277 12.6428882,1.65913886 12.9984,1.64210108 C13.2824227,1.61893478 13.5643652,1.70649917 13.7844,1.88621328 C14.0117501,2.05656501 14.1511122,2.31831765 14.1648,2.60068801 C14.1848897,2.80655585 14.1431366,3.01371928 14.0448,3.19608362 C13.5584,4.09155861 13.1584,5.58044456 12.8448,7.66274147 C12.5352,9.67279704 12.4208,11.2450384 12.5016,12.3794655 C12.5299574,12.6575228 12.4796772,12.9379211 12.3564,13.1892035 C12.2345009,13.4475836 11.9798025,13.6189741 11.6928,13.6357502 C11.364,13.659566 11.0364,13.505954 10.7064,13.1772956 C9.548,11.9984123 8.628,10.2443768 7.9464,7.9151892 C7.1464,9.50291082 6.5464,10.6905266 6.1464,11.4780365 C5.4144,12.8752315 4.7872,13.5916909 4.2648,13.6274147 C3.9256,13.6512305 3.6368,13.368616 3.3984,12.7795713 C2.7584,11.1624768 2.072,8.03387139 1.3392,3.39375496 C1.28062361,3.09828936 1.35177212,2.79205637 1.5348,2.55186557 Z" id="Path" fill="#FFFFFF" fill-rule="nonzero"></path>
                    <path d="M28.32,4.49523684 C27.9031659,3.7486778 27.1730947,3.22496557 26.328,3.06628738 C26.1054499,3.019604 25.8786665,2.99566325 25.6512,2.9948399 C24.4576,2.9948399 23.4824,3.61127282 22.7256,4.84413866 C22.0811373,5.89254641 21.7456522,7.09919254 21.7572,8.32720296 C21.7572,9.27983594 21.9572,10.0963218 22.3572,10.7766605 C22.7736473,11.5240714 23.5045205,12.0480433 24.3504,12.2056099 C24.5724016,12.253317 24.7988533,12.2776643 25.026,12.2782482 C26.2316,12.2782482 27.2064,11.6618153 27.9504,10.4289495 C28.5948173,9.37303569 28.9305311,8.16005214 28.92,6.9256417 C28.92,5.97300873 28.72,5.16287378 28.32,4.49523684 L28.32,4.49523684 Z M26.748,7.92590632 C26.5776,8.73564435 26.2616,9.34572638 25.8,9.75615242 C25.4344,10.0824292 25.0992,10.2154009 24.7944,10.1550675 C24.4896,10.0947341 24.2452,9.82799682 24.0612,9.35485578 C23.9202128,8.99596726 23.8458149,8.61472943 23.8416,8.22955808 C23.840429,7.92478758 23.8709912,7.62071244 23.9328,7.32217518 C24.0516014,6.79392559 24.2751419,6.29441456 24.5904,5.85273882 C25.0048,5.24861074 25.4376,4.99497221 25.8888,5.09182323 C26.1936,5.15295052 26.4376,5.41889389 26.6208,5.88965335 C26.7613114,6.24822193 26.8353025,6.6290551 26.8392,7.01376025 C26.8407633,7.32012486 26.8101987,7.62581943 26.748,7.92590632 L26.748,7.92590632 Z" id="Shape" fill="#FFFFFF" fill-rule="nonzero"></path>
                    <path d="M20.5104,4.49523684 C20.0935659,3.7486778 19.3634947,3.22496557 18.5184,3.06628738 C18.2958499,3.019604 18.0690665,2.99566325 17.8416,2.9948399 C16.6472,2.9948399 15.6724,3.61127282 14.9172,4.84413866 C14.2718402,5.89221799 13.9358987,7.09901039 13.9476,8.32720296 C13.9476,9.27983594 14.1476,10.0963218 14.5476,10.7766605 C14.9633994,11.5246409 15.6945792,12.0488326 16.5408,12.2056099 C16.7628016,12.253317 16.9892533,12.2776643 17.2164,12.2782482 C18.4228,12.2782482 19.398,11.6618153 20.142,10.4289495 C20.788661,9.3735933 21.127243,8.16075383 21.12,6.9256417 C21.12,5.97300873 20.92,5.16287378 20.52,4.49523684 L20.5104,4.49523684 Z M18.9384,7.92590632 C18.768,8.73723207 18.4512,9.34810797 17.988,9.758534 C17.6216,10.0848108 17.2864,10.2177825 16.9824,10.1574491 C16.6784,10.0971156 16.4348,9.82958455 16.2516,9.35485578 C16.1106128,8.99596726 16.0362149,8.61472943 16.032,8.22955808 C16.030829,7.92478758 16.0613912,7.62071244 16.1232,7.32217518 C16.2430289,6.79426264 16.4664828,6.294945 16.7808,5.85273882 C17.1936,5.25019847 17.6264,4.9973538 18.0792,5.09420482 C18.384,5.1553321 18.6276,5.42127547 18.81,5.89203493 C18.9508707,6.25054245 19.025267,6.63136879 19.0296,7.01614184 C19.0308311,7.32091518 19.0002682,7.62499646 18.9384,7.92352474 L18.9384,7.92590632 Z" id="Shape" fill="#FFFFFF" fill-rule="nonzero"></path>
                    <path d="M33.6444,4.38925642 C32.8148,5.20772691 32.4,6.24490606 32.4,7.50079386 C32.4,8.85591426 32.8112,9.95025139 33.6336,10.7838052 C34.456,11.6173591 35.5316,12.0325483 36.8604,12.0293909 C37.300583,12.0187373 37.7374797,11.9510837 38.16,11.8281291 L38.16,9.83117227 C37.7923906,9.94667806 37.4102632,10.0104117 37.0248,10.0205081 C36.3648,10.0205081 35.8368,9.80060863 35.4408,9.36080974 C35.0448,8.92101085 34.8472,8.32363059 34.848,7.56866896 C34.848,6.86768987 35.0444,6.2897592 35.4372,5.83487695 C35.8006818,5.39478396 36.3470686,5.14386579 36.9204,5.15374438 C37.3398909,5.15670329 37.756986,5.21680411 38.16,5.33236306 L38.16,3.32587986 C37.7153679,3.21359943 37.2579856,3.15876653 36.7992,3.16274147 C35.528,3.16274147 34.4764,3.57157978 33.6444,4.38925642 Z M42.294,3.16274147 C41.1444,3.16274147 40.2464,3.54220693 39.6,4.30113787 C38.9536,5.0600688 38.6336,6.11828526 38.64,7.47578725 C38.64,8.94760519 38.96,10.0732998 39.6,10.8528711 C40.24,11.6324424 41.1704,12.022625 42.3912,12.0234189 C43.5712,12.0234189 44.48,11.6332363 45.1176,10.8528711 C45.7552,10.072506 46.076,8.9777719 46.08,7.56866896 C46.08,6.15639058 45.756,5.06959513 45.108,4.30828261 C44.46,3.5469701 43.522,3.16512305 42.294,3.16274147 Z M43.2816,9.59301402 C43.071995,9.93192172 42.6944238,10.1322333 42.294,10.1169622 C41.9144512,10.1281392 41.5612191,9.92520568 41.382,9.59301402 C41.1732,9.24530299 41.0688,8.54948399 41.0688,7.50555703 C41.0688,5.88052395 41.482,5.06800741 42.3084,5.06800741 C43.1884,5.06800741 43.6284,5.89005028 43.6284,7.53413601 C43.626,8.55504102 43.5104,9.24133369 43.2816,9.59301402 Z M52.2444,3.40089971 L51.798,5.29187616 C51.682,5.77613125 51.5736,6.27229426 51.4728,6.78036518 L51.2232,8.09023551 C50.9832,6.78274676 50.658,5.22082562 50.2476,3.40447208 L47.3496,3.40447208 L46.2612,11.823366 L48.432,11.823366 L49.0224,6.02183117 L50.5044,11.823366 L52.056,11.823366 L53.4696,6.02064038 L54.0828,11.8102673 L56.352,11.8102673 L55.2,3.40089971 L52.2444,3.40089971 Z M62.6268,3.40089971 L62.1804,5.29187616 C62.0644,5.77613125 61.956,6.27229426 61.8552,6.78036518 L61.6056,8.09023551 C61.3656,6.78274676 61.04,5.22082562 60.6288,3.40447208 L57.732,3.40447208 L56.64,11.8150304 L58.8108,11.8150304 L59.4,6.01349563 L60.8832,11.8150304 L62.4336,11.8150304 L63.852,6.02064038 L64.4652,11.8102673 L66.7344,11.8102673 L65.5848,3.40089971 L62.6268,3.40089971 Z M69.672,8.4855782 L71.712,8.4855782 L71.712,6.73511511 L69.672,6.73511511 L69.672,5.18708653 L72.0168,5.18708653 L72.0168,3.40089971 L67.38,3.40089971 L67.38,11.8197936 L72.0324,11.8197936 L72.0324,10.0181265 L69.672,10.0181265 L69.672,8.4855782 Z M78.4884,7.15784599 C79.1335337,6.1411827 78.8791805,4.80283261 77.9052,4.08917703 C77.2804,3.63032548 76.4284,3.40089971 75.3492,3.40089971 L72.678,3.40089971 L72.678,11.8197936 L74.9712,11.8197936 L74.9712,7.98068272 L75.0084,7.98068272 L76.8612,11.8150304 L79.2828,11.8150304 L77.4516,8.01878804 C77.8793288,7.84630046 78.2418918,7.545234 78.4884,7.15784599 L78.4884,7.15784599 Z M74.9712,7.02209579 L74.9712,5.02275734 C75.5144,5.03545912 75.9036,5.12595925 76.1388,5.29425774 C76.374,5.46255623 76.4916,5.74040752 76.4916,6.12781159 C76.4916,6.70732998 75.9848,7.00542472 74.9712,7.02209579 L74.9712,7.02209579 Z M80.2008,4.38925642 C79.3688,5.20772691 78.9528,6.24490606 78.9528,7.50079386 C78.9528,8.85591426 79.3648,9.94826674 80.1888,10.7778513 C81.0128,11.6074358 82.0884,12.022625 83.4156,12.0234189 C83.857128,12.0151207 84.2956584,11.9494656 84.72,11.8281291 L84.72,9.83117227 C84.3523906,9.94667806 83.9702632,10.0104117 83.5848,10.0205081 C82.924,10.0205081 82.3956,9.80060863 81.9996,9.36080974 C81.6036,8.92101085 81.4048,8.32363059 81.4032,7.56866896 C81.4032,6.86768987 81.6,6.2897592 81.9936,5.83487695 C82.3570818,5.39478396 82.9034686,5.14386579 83.4768,5.15374438 C83.8974919,5.15645153 84.3158104,5.21655409 84.72,5.33236306 L84.72,3.32587986 C84.2742015,3.2132936 83.8155893,3.15845831 83.3556,3.16274147 C82.0844,3.16274147 81.0328,3.57157978 80.2008,4.38925642 Z M87.6408,10.0181265 L87.6408,8.4855782 L89.6808,8.4855782 L89.6808,6.73511511 L87.6408,6.73511511 L87.6408,5.18708653 L89.9856,5.18708653 L89.9856,3.40089971 L85.3476,3.40089971 L85.3476,11.8197936 L90,11.8197936 L90,10.0181265 L87.6408,10.0181265 Z" id="Shape" fill="#000000" fill-rule="nonzero"></path>
                </g>
            </g>
        </g>
    </g>
</svg>