<?xml version="1.0" encoding="UTF-8"?>
<svg width="106px" height="39px" viewBox="0 0 106 39" version="1.1" xmlns="http://www.w3.org/2000/svg" xmlns:xlink="http://www.w3.org/1999/xlink">
    <title>Yahoo Finance</title>
    <g id="ICO" stroke="none" stroke-width="1" fill="none" fill-rule="evenodd">
        <g id="Desktop-Home-Default-Dark" transform="translate(-160, -658)" fill="#A8E2DD">
            <g id="Yahoo-Finance" transform="translate(160, 658)">
                <path d="M37.9983051,11.7361111 L37.9983051,23.4722222 L40.8728814,23.4722222 L43.7474576,23.4722222 L43.7474576,18.9583333 C43.7474576,15.9791667 43.7474576,14.3541667 43.7474576,14.1736111 C43.8372881,13.7222222 43.9271186,13.2708333 44.1966102,12.9097222 C44.5559322,12.2777778 45.1847458,12.0069444 45.9033898,12.0972222 C46.8915254,12.1875 47.520339,12.7291667 47.7,13.9027778 C47.7,14.0833333 47.7,15.8888889 47.7,18.7777778 L47.7,23.3819444 L50.5745763,23.3819444 L53.4491525,23.3819444 L53.4491525,17.9652778 C53.4491525,13.3611111 53.4491525,12.4583333 53.359322,12.0069444 C53.179661,10.3819444 52.640678,9.11805556 51.6525424,8.21527778 C50.8440678,7.40277778 49.8559322,6.95138889 48.6881356,6.77083333 C48.2389831,6.68055556 46.9813559,6.77083333 46.6220339,6.86111111 C45.5440678,7.13194444 44.7355932,7.49305556 44.0169492,8.30555556 L43.5677966,8.66666667 L43.5677966,4.33333333 L43.5677966,0 L40.6932203,0 L37.8186441,0 L37.8186441,11.7361111 L37.9983051,11.7361111 Z M99.0830508,0.180555556 C98.9033898,0.541666667 93.0644068,14.7152778 93.0644068,14.7152778 C93.0644068,14.7152778 94.5915254,14.7152778 96.4779661,14.7152778 L99.8915254,14.7152778 L102.945763,7.40277778 C104.652542,3.34027778 106,0 106,0 C106,0 104.472881,0 102.586441,0 L99.1728814,0 L99.0830508,0.180555556 Z M25.4220339,6.86111111 C24.1644068,7.04166667 23.1762712,7.40277778 22.1881356,8.03472222 C20.2118644,9.29861111 18.9542373,11.4652778 18.5949153,13.9930556 C18.4152542,15.1666667 18.5050847,16.6111111 18.7745763,17.6944444 C19.4932203,20.4930556 21.379661,22.6597222 23.8050847,23.4722222 C24.7033898,23.7430556 25.0627119,23.8333333 26.140678,23.8333333 C26.9491525,23.8333333 27.2186441,23.8333333 27.4881356,23.7430556 C28.6559322,23.4722222 29.4644068,23.0208333 30.1830508,22.2986111 L30.5423729,21.9375 L30.5423729,22.6597222 L30.5423729,23.3819444 L33.3271186,23.3819444 L36.1118644,23.3819444 L36.1118644,15.2569444 L36.1118644,7.13194444 L33.3271186,7.13194444 L30.5423729,7.13194444 L30.5423729,7.85416667 L30.5423729,8.57638889 L30.2728814,8.30555556 C29.6440678,7.58333333 28.7457627,7.13194444 27.5779661,6.86111111 C27.2186441,6.77083333 27.0389831,6.77083333 26.320339,6.77083333 C25.8711864,6.86111111 25.5118644,6.86111111 25.4220339,6.86111111 Z M62.0728814,6.86111111 C60.5457627,7.04166667 58.9288136,7.76388889 57.7610169,8.66666667 C55.5152542,10.5625 54.3474576,13.5416667 54.7966102,16.6111111 C55.2457627,20.0416667 57.6711864,22.6597222 61.0847458,23.5625 C61.8033898,23.7430556 62.5220339,23.8333333 63.420339,23.8333333 C65.0372881,23.8333333 66.2050847,23.5625 67.4627119,22.9305556 C69.9779661,21.6666667 71.5949153,19.4097222 71.9542373,16.6111111 C72.0440678,15.8888889 72.0440678,14.7152778 71.9542373,14.0833333 C71.7745763,12.7291667 71.2355932,11.375 70.4271186,10.2916667 C70.0677966,9.84027778 69.3491525,9.02777778 68.9,8.66666667 C67.6423729,7.67361111 66.2050847,7.04166667 64.5881356,6.86111111 C63.959322,6.77083333 62.7016949,6.77083333 62.0728814,6.86111111 Z M80.3983051,6.86111111 C78.8711864,7.04166667 77.3440678,7.67361111 76.1762712,8.66666667 C75.7271186,9.02777778 74.9186441,9.84027778 74.6491525,10.2916667 C73.840678,11.375 73.3915254,12.7291667 73.1220339,14.0833333 C73.0322034,14.7152778 73.0322034,15.9791667 73.1220339,16.6111111 C73.6610169,20.2222222 76.2661017,23.0208333 79.859322,23.7430556 C80.5779661,23.9236111 80.9372881,23.9236111 81.7457627,23.9236111 C83.2728814,23.9236111 84.620339,23.6527778 85.8779661,22.9305556 C89.2016949,21.2152778 90.9983051,17.4236111 90.1898305,13.5416667 C89.4711864,9.93055556 86.5966102,7.3125 82.9135593,6.86111111 C82.2847458,6.77083333 81.0271186,6.77083333 80.3983051,6.86111111 Z M0,7.22222222 C0,7.22222222 1.52711864,10.9236111 3.41355932,15.4375 C5.3,19.9513889 6.82711864,23.6527778 6.82711864,23.6527778 C6.82711864,23.6527778 6.28813559,25.0069444 5.56949153,26.6319444 C4.85084746,28.2569444 4.31186441,29.5208333 4.31186441,29.6111111 C4.31186441,29.7013889 5.65932203,29.6111111 7.36610169,29.6111111 L10.420339,29.6111111 L15.0016949,18.5069444 C17.5169492,12.3680556 19.5830508,7.40277778 19.5830508,7.3125 C19.5830508,7.3125 18.9542373,7.22222222 16.5288136,7.3125 L13.4745763,7.3125 L11.5881356,12.0069444 C10.779661,14.5347222 9.97118644,16.7013889 9.97118644,16.7013889 C9.97118644,16.7013889 9.16271186,14.5347222 8.08474576,12.0069444 L6.28813559,7.3125 L3.1440678,7.3125 C1.43728814,7.22222222 0,7.22222222 0,7.22222222 Z M28.2067797,12.0972222 C29.3745763,12.3680556 30.2728814,13.2708333 30.6322034,14.4444444 C30.7220339,14.8958333 30.7220339,15.7083333 30.6322034,16.1597222 C30.3627119,17.3333333 29.4644068,18.2361111 28.2966102,18.5069444 C27.8474576,18.5972222 27.0389831,18.5972222 26.5898305,18.5069444 C25.6016949,18.2361111 24.7033898,17.5138889 24.3440678,16.6111111 C23.8949153,15.6180556 24.0745763,14.3541667 24.6135593,13.4513889 C25.4220339,12.2777778 26.7694915,11.8263889 28.2067797,12.0972222 Z M64.0491525,12.1875 C65.3067797,12.3680556 66.2949153,13.3611111 66.5644068,14.625 C66.6542373,15.0763889 66.6542373,15.7986111 66.5644068,16.25 C66.2949153,17.4236111 65.3966102,18.2361111 64.3186441,18.5972222 C63.959322,18.6875 62.9711864,18.6875 62.6118644,18.5972222 C61.7135593,18.3263889 60.9949153,17.6944444 60.5457627,16.8819444 C60.2762712,16.3402778 60.2762712,16.0694444 60.2762712,15.4375 C60.2762712,14.8958333 60.3661017,14.625 60.5457627,14.1736111 C60.8152542,13.6319444 61.1745763,13.0902778 61.7135593,12.7291667 C62.2525424,12.1875 63.1508475,12.0069444 64.0491525,12.1875 Z M82.2847458,12.1875 C83.3627119,12.3680556 84.2610169,13.0902778 84.620339,14.0833333 C84.8,14.5347222 84.8898305,14.8055556 84.8898305,15.3472222 C84.8898305,15.9791667 84.8,16.25 84.620339,16.7916667 C84.2610169,17.6041667 83.4525424,18.2361111 82.5542373,18.5069444 C82.1949153,18.5972222 81.2067797,18.5972222 80.8474576,18.5069444 C79.7694915,18.2361111 78.8711864,17.3333333 78.6016949,16.1597222 C78.5118644,15.7083333 78.5118644,14.8958333 78.6016949,14.4444444 C78.9610169,13 80.2186441,12.0069444 81.6559322,12.0069444 C81.8355932,12.0972222 82.1050847,12.0972222 82.2847458,12.1875 Z M94.5016949,16.1597222 C92.7949153,16.3402778 91.5372881,17.6041667 91.1779661,19.2291667 C91.0881356,19.6805556 91.0881356,20.4930556 91.1779661,20.9444444 C91.5372881,22.3888889 92.6152542,23.3819444 94.0525424,23.7430556 C94.2322034,23.7430556 94.5915254,23.8333333 94.8610169,23.8333333 C95.9389831,23.8333333 96.8372881,23.4722222 97.5559322,22.75 C98.3644068,21.9375 98.6338983,21.125 98.6338983,20.0416667 C98.6338983,18.6875 98.0050847,17.5138889 96.9271186,16.8819444 C96.2084746,16.25 95.220339,16.0694444 94.5016949,16.1597222 Z M47.1610169,25.0069444 C45.9932203,25.3680556 45.4542373,26.7222222 46.0830508,27.7152778 C46.2627119,27.9861111 46.6220339,28.3472222 46.8915254,28.4375 C47.1610169,28.5277778 47.1610169,28.5277778 47.7,28.5277778 C48.1491525,28.5277778 48.2389831,28.5277778 48.5084746,28.4375 C48.8677966,28.2569444 49.2271186,27.8958333 49.4067797,27.5347222 C49.8559322,26.6319444 49.4067797,25.5486111 48.5084746,25.0972222 C48.2389831,24.9166667 48.1491525,24.9166667 47.7898305,24.9166667 C47.4305085,24.9166667 47.340678,24.9166667 47.1610169,25.0069444 Z M42.3101695,25.0972222 C40.7830508,25.3680556 39.7949153,26.3611111 39.3457627,27.9861111 C39.2559322,28.2569444 39.2559322,28.5277778 39.2559322,28.8888889 L39.2559322,29.5208333 L38.6271186,29.5208333 L37.9983051,29.5208333 L37.9983051,30.875 L37.9983051,32.2291667 L38.6271186,32.2291667 L39.2559322,32.2291667 L39.2559322,35.4791667 L39.2559322,38.7291667 L40.9627119,38.7291667 L42.6694915,38.7291667 L42.6694915,35.4791667 L42.6694915,32.2291667 L43.8372881,32.2291667 L45.0050847,32.2291667 L45.0050847,30.875 L45.0050847,29.5208333 L43.8372881,29.5208333 L42.6694915,29.5208333 L42.6694915,29.25 C42.759322,28.6180556 43.0288136,28.1666667 43.5677966,28.0763889 C43.9271186,27.9861111 44.4661017,27.9861111 44.8254237,28.1666667 C45.0050847,28.2569444 45.0949153,28.2569444 45.0949153,28.2569444 C45.0949153,28.2569444 45.0949153,27.625 45.0949153,26.8125 L45.0949153,25.3680556 L44.8254237,25.2777778 C44.4661017,25.0972222 44.0169492,25.0972222 43.3881356,25.0972222 C42.9389831,25.0069444 42.579661,25.0972222 42.3101695,25.0972222 Z M55.9644068,29.3402778 C55.2457627,29.5208333 54.7067797,29.8819444 54.3474576,30.3333333 L54.1677966,30.6041667 L54.1677966,30.0625 L54.1677966,29.5208333 L52.4610169,29.5208333 L50.7542373,29.5208333 L50.7542373,34.125 L50.7542373,38.7291667 L52.4610169,38.7291667 L54.1677966,38.7291667 L54.1677966,36.2013889 C54.1677966,34.7569444 54.1677966,33.5833333 54.1677966,33.4027778 C54.2576271,33.0416667 54.4372881,32.6805556 54.6169492,32.5 C55.0661017,32.1388889 55.8745763,32.2291667 56.2338983,32.6805556 C56.5033898,33.0416667 56.5033898,33.0416667 56.5033898,35.9305556 L56.5033898,38.6388889 L58.2101695,38.6388889 L59.9169492,38.6388889 L59.9169492,35.5694444 C59.9169492,32.3194444 59.9169492,31.9583333 59.7372881,31.3263889 C59.5576271,30.7847222 59.3779661,30.3333333 58.9288136,29.9722222 C58.5694915,29.6111111 58.2101695,29.3402778 57.6711864,29.25 C57.2220339,29.25 56.3237288,29.25 55.9644068,29.3402778 Z M64.4983051,29.25 C63.959322,29.3402778 63.1508475,29.6111111 62.7016949,29.9722222 C61.7135593,30.6944444 61.0847458,31.7777778 60.8152542,33.1319444 C60.7254237,33.6736111 60.7254237,34.6666667 60.8152542,35.2083333 C60.9949153,36.0208333 61.2644068,36.8333333 61.7135593,37.375 C62.3423729,38.1875 63.1508475,38.7291667 64.1389831,38.9097222 C64.6779661,39 65.5762712,39 66.0254237,38.8194444 C66.5644068,38.6388889 66.9237288,38.4583333 67.3728814,38.0972222 L67.7322034,37.7361111 L67.7322034,38.1875 L67.7322034,38.6388889 L69.4389831,38.6388889 L71.1457627,38.6388889 L71.1457627,34.0347222 L71.1457627,29.4305556 L69.4389831,29.4305556 L67.7322034,29.4305556 L67.7322034,29.8819444 L67.7322034,30.3333333 L67.4627119,30.2430556 C67.0135593,29.7916667 66.3847458,29.4305556 65.6661017,29.3402778 C65.3966102,29.25 64.7677966,29.25 64.4983051,29.25 Z M77.5237288,29.3402778 C76.8949153,29.4305556 76.2661017,29.8819444 75.9067797,30.3333333 L75.7271186,30.5138889 L75.7271186,29.9722222 L75.7271186,29.4305556 L74.020339,29.4305556 L72.3135593,29.4305556 L72.3135593,34.0347222 L72.3135593,38.6388889 L74.020339,38.6388889 L75.7271186,38.6388889 L75.7271186,36.0208333 C75.7271186,33.2222222 75.7271186,33.2222222 75.9067797,32.7708333 C76.0864407,32.4097222 76.4457627,32.2291667 76.8050847,32.2291667 C77.1644068,32.2291667 77.3440678,32.3194444 77.6135593,32.5 C77.9728814,32.8611111 77.9728814,32.7708333 77.9728814,35.8402778 L77.9728814,38.5486111 L79.679661,38.5486111 L81.3864407,38.5486111 L81.3864407,35.2083333 C81.3864407,31.8680556 81.3864407,31.8680556 81.2966102,31.5069444 C81.2067797,31.3263889 81.1169492,30.9652778 81.0271186,30.6944444 C80.8474576,30.3333333 80.7576271,30.2430556 80.4881356,29.9722222 C80.1288136,29.6111111 79.859322,29.4305556 79.5,29.25 C78.8711864,29.25 78.1525424,29.1597222 77.5237288,29.3402778 Z M86.4169492,29.3402778 C84.8898305,29.6111111 83.7220339,30.3333333 83.0033898,31.5972222 C82.8237288,31.9583333 82.6440678,32.4097222 82.4644068,32.8611111 C82.3745763,33.3125 82.3745763,33.4027778 82.3745763,34.125 C82.3745763,34.9375 82.3745763,35.2083333 82.6440678,35.8402778 C83.1830508,37.375 84.440678,38.5486111 86.1474576,38.9097222 C86.4169492,39 86.6864407,39 87.3152542,39 C88.2135593,39 88.5728814,38.9097222 89.2016949,38.6388889 L89.5610169,38.4583333 L89.5610169,36.9236111 L89.5610169,35.3888889 L89.2915254,35.5694444 C88.8423729,35.8402778 88.5728814,35.9305556 88.0338983,35.9305556 C87.4949153,35.9305556 87.2254237,35.9305556 86.8661017,35.75 C86.5067797,35.5694444 86.2372881,35.2986111 86.0576271,34.9375 C85.9677966,34.6666667 85.9677966,34.6666667 85.9677966,34.2152778 C85.9677966,33.8541667 85.9677966,33.7638889 86.0576271,33.4930556 C86.3271186,32.7708333 86.9559322,32.4097222 87.8542373,32.3194444 C88.4830508,32.3194444 88.7525424,32.3194444 89.6508475,32.7708333 C89.6508475,32.7708333 89.6508475,32.0486111 89.6508475,31.2361111 L89.6508475,29.7013889 L89.3813559,29.6111111 C88.3932203,29.25 87.3152542,29.1597222 86.4169492,29.3402778 Z M94.1423729,29.3402778 C91.5372881,29.7916667 89.920339,32.0486111 90.1,34.6666667 C90.1898305,35.5694444 90.459322,36.3819444 90.9084746,37.0138889 C91.5372881,38.0069444 92.5254237,38.6388889 93.7830508,38.9097222 C94.3220339,39 95.759322,39 96.3881356,38.9097222 C97.2864407,38.7291667 98.0949153,38.2777778 98.7237288,37.6458333 C98.9932203,37.375 99.4423729,36.7430556 99.4423729,36.7430556 C99.4423729,36.7430556 98.8135593,36.4722222 98.0050847,36.2013889 L96.5677966,35.6597222 L96.3881356,35.8402778 C96.1186441,36.1111111 95.9389831,36.2013889 95.579661,36.2916667 C94.5915254,36.5625 93.6033898,36.0208333 93.4237288,35.1180556 L93.4237288,34.9375 L96.5677966,34.9375 L99.7118644,34.9375 L99.7118644,34.125 C99.7118644,33.5833333 99.7118644,33.2222222 99.6220339,33.0416667 C99.4423729,31.9583333 98.9932203,31.2361111 98.3644068,30.5138889 C97.7355932,29.8819444 97.0169492,29.5208333 96.0288136,29.3402778 C95.6694915,29.25 94.5915254,29.25 94.1423729,29.3402778 Z M45.9932203,34.125 L45.9932203,38.7291667 L47.7,38.7291667 L49.4067797,38.7291667 L49.4067797,34.125 L49.4067797,29.5208333 L47.7,29.5208333 L45.9932203,29.5208333 L45.9932203,34.125 L45.9932203,34.125 Z M95.4898305,31.8680556 C95.759322,31.9583333 95.8491525,32.0486111 96.1186441,32.2291667 C96.2983051,32.4097222 96.4779661,32.5902778 96.4779661,32.8611111 L96.4779661,33.0416667 L94.9508475,33.0416667 C93.2440678,33.0416667 93.3338983,33.0416667 93.5135593,32.6805556 C93.7830508,32.0486111 94.5915254,31.6875 95.4898305,31.8680556 Z M66.4745763,32.3194444 C66.9237288,32.4097222 67.4627119,32.8611111 67.6423729,33.3125 C68.0915254,34.3055556 67.6423729,35.4791667 66.5644068,35.8402778 C66.2050847,35.9305556 65.6661017,35.9305556 65.3067797,35.8402778 C64.7677966,35.6597222 64.2288136,35.2083333 64.1389831,34.6666667 C64.0491525,34.3958333 64.0491525,34.3055556 64.0491525,34.0347222 C64.0491525,33.6736111 64.0491525,33.5833333 64.2288136,33.3125 C64.5881356,32.5 65.4864407,32.1388889 66.4745763,32.3194444 Z" id="Shape"></path>
            </g>
        </g>
    </g>
</svg>