<?xml version="1.0" encoding="UTF-8"?>
<svg width="86px" height="25px" viewBox="0 0 86 25" version="1.1" xmlns="http://www.w3.org/2000/svg" xmlns:xlink="http://www.w3.org/1999/xlink">
    <title>logo/your/new-gradient</title>
    <defs>
        <linearGradient x1="-26.2438635%" y1="43.5151228%" x2="108.549419%" y2="54.9810221%" id="linearGradient-1">
            <stop stop-color="#88CAB9" offset="0%"></stop>
            <stop stop-color="#2E7A6E" offset="51.9176136%"></stop>
            <stop stop-color="#2B7368" offset="100%"></stop>
        </linearGradient>
    </defs>
    <g id="Symbols" stroke="none" stroke-width="1" fill="none" fill-rule="evenodd">
        <g id="section-nav/dark" transform="translate(-160.000000, -33.000000)" fill="url(#linearGradient-1)">
            <g id="logo/your/new-gradient" transform="translate(160.000000, 33.000000)">
                <path d="M66.9189889,1.8631383 L66.9189889,23.2764362 C66.9189889,23.5700532 66.6811617,23.8083511 66.3881247,23.8083511 L61.2047667,23.8083511 C60.9117296,23.8083511 60.6739025,23.5700532 60.6739025,23.2764362 L60.6739025,21.9556915 C59.3594827,23.3966489 57.0178407,24.3434574 54.5111,24.3434574 C48.8005938,24.3434574 45.1025938,19.9381383 45.1025938,13.9285638 L45.1025938,1.8631383 C45.1025938,1.56952128 45.340421,1.3312234 45.633458,1.3312234 L51.2691123,1.3312234 C51.5621494,1.3312234 51.7999765,1.56952128 51.7999765,1.8631383 L51.7999765,13.5168617 C51.7999765,16.2748404 53.5252852,17.7157979 55.9900877,17.7157979 C58.455421,17.7157979 60.222137,15.8221809 60.222137,13.146117 L60.222137,1.8631383 C60.222137,1.56952128 60.4594333,1.3312234 60.7530012,1.3312234 L66.3881247,1.3312234 C66.6811617,1.3312234 66.9189889,1.56952128 66.9189889,1.8631383 M31.1343889,0.261223404 C37.7903642,0.261223404 43.1722654,5.77718085 43.1722654,12.5282447 C43.1722654,19.2798404 37.7903642,24.7963298 31.1343889,24.7963298 C24.519821,24.7963298 19.1373889,19.2798404 19.1373889,12.5282447 C19.1373889,5.77718085 24.519821,0.261223404 31.1343889,0.261223404 Z M7.28451852,0 C7.47297531,0 7.64762963,0.1 7.74265432,0.262765957 L7.74265432,0.262765957 L10.0322716,4.175 L14.1008148,11.1558511 L14.1008148,23.3255319 C14.1008148,23.6191489 13.8629877,23.8574468 13.5699506,23.8574468 L13.5699506,23.8574468 L7.77079012,23.8574468 C7.47722222,23.8574468 7.23992593,23.6191489 7.23992593,23.3255319 L7.23992593,23.3255319 L7.23992593,12.5159574 C7.23992593,12.4170213 7.21232099,12.3196809 7.15976543,12.2356383 L7.15976543,12.2356383 L0.080691358,0.812234043 C-0.13908642,0.457978723 0.115197531,0 0.531925926,0 L0.531925926,0 Z M31.1343889,6.64207447 C28.2172901,6.64207447 25.7933642,9.27664894 25.7933642,12.5282447 C25.7933642,15.7809043 28.2172901,18.4154787 31.1343889,18.4154787 C34.0923642,18.4154787 36.516821,15.7809043 36.516821,12.5282447 C36.516821,9.27664894 34.0923642,6.64207447 31.1343889,6.64207447 Z M20.6391506,0.0798404255 C21.0251268,0.0798404255 21.2724093,0.474271602 21.1302248,0.814681433 L21.0903852,0.892074468 L15.907558,9.27664894 C15.7143677,9.58919326 15.2802977,9.60987515 15.0539121,9.34443053 L14.9976568,9.26494681 L11.7657556,3.71867021 C11.6852412,3.58037234 11.6718221,3.41473995 11.7258056,3.2676384 L11.7662864,3.18196809 L13.4268296,0.342606383 C13.5060169,0.206968085 13.6405025,0.114917258 13.792192,0.088001379 L13.8849654,0.0798404255 L20.6391506,0.0798404255 Z M85.9366148,2.16010638 L83.8975654,7.59734043 C83.7892691,7.88670213 83.4617259,8.01755319 83.1814296,7.89042553 C82.4504296,7.55797872 81.5957383,7.42393617 80.7675901,7.42393617 C78.2608494,7.42393617 76.5355407,9.27659574 76.5355407,11.9111702 L76.5355407,23.2765957 C76.5355407,23.5702128 76.2982444,23.8085106 76.0046765,23.8085106 L70.4109605,23.8085106 C70.1179235,23.8085106 69.8800963,23.5702128 69.8800963,23.2765957 L69.8800963,1.86329787 C69.8800963,1.56914894 70.1179235,1.33138298 70.4109605,1.33138298 L75.5529111,1.33138298 C75.8459481,1.33138298 76.0837753,1.56914894 76.0837753,1.86329787 L76.0837753,2.97765957 C77.6450469,1.49574468 79.7403679,0.755319149 81.8765654,0.755319149 C83.551442,0.755319149 84.8281704,1.12553191 85.6589728,1.48670213 C85.9169728,1.59893617 86.0353556,1.8962766 85.9366148,2.16010638" id="Combined-Shape"></path>
            </g>
        </g>
    </g>
</svg>