<svg xmlns="http://www.w3.org/2000/svg" viewBox="0 0 86 25"><path fill="#fff" d="M66.91899 1.86314v21.4133c0 .29361-.23783.53191-.53087.53191h-5.18335c-.29304 0-.53087-.2383-.53087-.53191v-1.32075c-1.31442 1.44096-3.65606 2.38777-6.1628 2.38777-5.7105 0-9.4085-4.40532-9.4085-10.4149V1.86314c0-.29362.23782-.53192.53086-.53192h5.63565c.29304 0 .53087.2383.53087.53192v11.65372c0 2.75798 1.7253 4.19894 4.1901 4.19894 2.46534 0 4.23206-1.89362 4.23206-4.56968V1.86314c0-.29362.2373-.53192.53086-.53192h5.63512c.29304 0 .53087.2383.53087.53192M31.13439.26122c6.65597 0 12.03788 5.51596 12.03788 12.26702 0 6.7516-5.3819 12.26809-12.03788 12.26809-6.61457 0-11.997-5.51649-11.997-12.26809 0-6.75106 5.38243-12.26702 11.997-12.26702ZM7.28452 0c.18846 0 .36311.1.45813.26277L10.03227 4.175l4.06854 6.98085v12.16968c0 .29362-.23782.53192-.53086.53192H7.7708c-.29357 0-.53086-.2383-.53086-.53192V12.51596c0-.09894-.0276-.19628-.08016-.28032L.08069.81224C-.13909.45797.1152 0 .53193 0Zm23.84987 6.64207c-2.9171 0-5.34103 2.63458-5.34103 5.88617 0 3.25266 2.42393 5.88724 5.34103 5.88724 2.95797 0 5.38243-2.63458 5.38243-5.88724 0-3.2516-2.42446-5.88617-5.38243-5.88617ZM20.63915.07984c.38598 0 .63326.39443.49107.73484l-.03983.0774-5.18283 8.38457c-.1932.31254-.62726.33323-.85365.06778l-.05625-.07948-3.2319-5.54628c-.08052-.1383-.09394-.30393-.03995-.45103l.04048-.08567L13.42683.3426c.07919-.13564.21367-.2277.36536-.2546l.09278-.00817h6.75418Zm65.29746 2.08027-2.03904 5.43723c-.1083.28936-.43584.42021-.71614.29309-.731-.33245-1.5857-.4665-2.41384-.4665-2.50674 0-4.23205 1.85267-4.23205 4.48724V23.2766c0 .29361-.2373.53191-.53086.53191h-5.59372c-.29304 0-.53086-.2383-.53086-.53191V1.8633c0-.29415.23782-.53192.53086-.53192h5.14195c.29304 0 .53087.23777.53087.53192v1.11436C77.64505 1.49574 79.74037.75532 81.87657.75532c1.67487 0 2.9516.37021 3.7824.73138.258.11224.37639.40958.27764.6734"/></svg>