<?xml version="1.0" encoding="UTF-8"?>
<svg width="31px" height="30px" viewBox="0 0 31 30" version="1.1" xmlns="http://www.w3.org/2000/svg" xmlns:xlink="http://www.w3.org/1999/xlink">
    <title>icon/social/medium</title>
    <defs>
        <linearGradient x1="-24.5801021%" y1="-24.2658799%" x2="108.549419%" y2="109.875843%" id="linearGradient-1">
            <stop stop-color="#88CAB9" offset="0%"></stop>
            <stop stop-color="#2E7A6E" offset="51.9176136%"></stop>
            <stop stop-color="#2B7368" offset="100%"></stop>
        </linearGradient>
    </defs>
    <g id="Website" stroke="none" stroke-width="1" fill="none" fill-rule="evenodd">
        <g id="iPhone-Home-Default-Dark" transform="translate(-155.000000, -6627.000000)">
            <g id="footer" transform="translate(23.500000, 6041.000000)">
                <g id="Stacked-Group" transform="translate(0.000000, 586.000000)">
                    <g id="icon/social/medium" transform="translate(132.000000, 0.000000)">
                        <circle id="Oval" fill="url(#linearGradient-1)" cx="15" cy="15" r="15"></circle>
                        <polygon id="Fill-2" fill="#FFFFFF" points="22 9.41125648 18.1010344 9.41125648 15.3269057 16.3973093 12.1745506 9.41125648 8.00562418 9.41125648 8.00562418 9.75739324 9.47213016 11.5542088 9.44963342 18.4853863 8 20.4693409 8.00562418 20.8 12.1028422 20.8 12.1140906 20.4974821 10.3944963 18.4853863 10.4380838 12.8740311 14.0586522 20.7943718 14.4917144 20.7943718 17.7045295 12.6868921 17.7045295 19.2831893 16.3870644 20.5298445 16.3870644 20.7943718 21.9887516 20.7943718 21.9887516 20.4749691 20.7036256 19.2550481 20.6881591 10.8675636 21.9887516 9.751765 21.9887516 9.4"></polygon>
                    </g>
                </g>
            </g>
        </g>
    </g>
</svg>