<?xml version="1.0" encoding="UTF-8"?>
<svg width="31px" height="30px" viewBox="0 0 31 30" version="1.1" xmlns="http://www.w3.org/2000/svg" xmlns:xlink="http://www.w3.org/1999/xlink">
    <title>icon/social/telegram</title>
    <defs>
        <linearGradient x1="-24.5801021%" y1="-24.2658799%" x2="108.549419%" y2="109.875843%" id="linearGradient-1">
            <stop stop-color="#88CAB9" offset="0%"></stop>
            <stop stop-color="#2E7A6E" offset="51.9176136%"></stop>
            <stop stop-color="#2B7368" offset="100%"></stop>
        </linearGradient>
    </defs>
    <g id="Website" stroke="none" stroke-width="1" fill="none" fill-rule="evenodd">
        <g id="iPhone-Home-Default-Dark" transform="translate(-23.000000, -6627.000000)" fill-rule="nonzero">
            <g id="footer" transform="translate(23.500000, 6041.000000)">
                <g id="icon/social/telegram" transform="translate(0.000000, 586.000000)">
                    <circle id="Oval" fill="url(#linearGradient-1)" cx="15" cy="15" r="15"></circle>
                    <path d="M5.94894423,14.704022 L16.1603683,10.5243516 C17.168363,10.0889693 20.5867797,8.69574586 20.5867797,8.69574586 C20.5867797,8.69574586 22.1645104,8.0862106 22.0330329,9.56651051 C21.989207,10.1760458 21.6386002,12.3094192 21.2879933,14.6169455 L20.192347,21.4524481 C20.192347,21.4524481 20.1046953,22.4538274 19.3596557,22.6279804 C18.6146162,22.8021333 17.3874923,22.0184451 17.168363,21.8442922 C16.9930596,21.7136775 13.8814239,19.754457 12.7419517,18.7966159 C12.4351707,18.5353865 12.0845639,18.0129277 12.7857775,17.4033924 C14.3635083,15.9666307 16.2480201,14.1815632 17.3874923,13.0495691 C17.9134025,12.5271103 18.4393128,11.3080398 16.2480201,12.7883397 L10.0685746,16.9244719 C10.0685746,16.9244719 9.36736089,17.3598542 8.05258525,16.9680101 C6.73780961,16.576166 5.2039047,16.0537072 5.2039047,16.0537072 C5.2039047,16.0537072 4.15208419,15.4006337 5.94894423,14.704022 Z" id="Path" fill="#FFFFFF"></path>
                </g>
            </g>
        </g>
    </g>
</svg>